<?xml version="1.0" encoding="utf-8"?>
<!-- Generator: Adobe Illustrator 15.1.0, SVG Export Plug-In . SVG Version: 6.00 Build 0)  -->
<!DOCTYPE svg PUBLIC "-//W3C//DTD SVG 1.1//EN" "http://www.w3.org/Graphics/SVG/1.1/DTD/svg11.dtd">
<svg version="1.1" id="Layer_1" xmlns="http://www.w3.org/2000/svg" xmlns:xlink="http://www.w3.org/1999/xlink" x="0px" y="0px"
	 width="1920px" height="467.092px" viewBox="0 0 1920 467.092" enable-background="new 0 0 1920 467.092" xml:space="preserve">
<g>
	<path fill="#294E80" d="M239.316,42.518h-99.614v308.561H99.007V42.518H0V6.074h239.316V42.518z"/>
	<path fill="#294E80" d="M427.004,104.473L313.42,390.56c-20.044,51.022-48.592,76.532-85.037,76.532
		c-10.326,0-18.83-1.215-25.511-3.037v-35.229c8.503,3.037,16.4,4.252,23.082,4.252c20.044,0,34.622-12.148,44.948-35.838
		l19.437-46.77l-95.969-245.998h43.732l66.814,189.51c0.607,2.43,2.43,8.504,4.859,18.83h1.215c0.607-3.645,2.43-9.719,4.859-18.223
		l69.852-190.117H427.004z M491.389,315.242h-1.215v148.813h-39.48V104.473h39.48v43.126h1.215c19.438-32.8,47.984-49.2,85.036-49.2
		c31.585,0,56.489,10.934,74.104,32.801c17.614,21.866,26.726,51.629,26.726,88.68c0,41.304-10.326,74.104-30.37,99.008
		c-20.044,24.902-47.378,37.051-81.999,37.051C533.907,357.152,509.004,343.182,491.389,315.242L491.389,315.242z M490.781,216.235
		v34.622c0,20.652,6.682,37.658,20.045,51.629c13.362,13.971,29.762,21.26,50.414,21.26c23.688,0,42.518-9.111,56.488-27.334
		c13.363-18.222,20.045-43.732,20.045-76.532c0-27.333-6.074-49.199-18.83-64.384c-12.756-15.793-29.763-23.082-51.629-23.082
		c-23.082,0-41.304,7.896-55.273,23.689C497.463,171.896,490.781,191.939,490.781,216.235L490.781,216.235z M919,237.494H745.283
		c0.607,27.334,7.896,48.592,21.866,63.777c13.971,15.186,33.407,22.475,58.312,22.475c27.939,0,53.451-9.111,76.532-27.334v37.052
		c-21.866,15.792-50.415,23.688-85.644,23.688c-34.622,0-61.955-10.933-82-33.406c-20.044-22.475-29.763-54.06-29.763-94.148
		c0-38.266,10.934-69.851,32.8-93.539c21.867-24.297,48.593-36.445,80.785-36.445c32.191,0,57.096,10.326,74.71,31.586
		c17.615,20.651,26.726,49.807,26.726,86.858L919,237.494z M878.305,204.088c0-23.082-5.467-40.697-16.4-53.452
		s-26.118-18.829-44.947-18.829c-18.83,0-34.622,6.682-47.378,20.044c-12.755,13.363-21.259,30.978-24.296,52.237H878.305z
		 M938.438,338.93v-27.332c24.903,15.792,49.807,23.688,75.317,23.688c26.726,0,47.378-5.467,61.348-17.007
		c13.971-11.541,20.651-26.727,20.651-46.771c0-17.614-4.858-31.585-13.97-42.519c-9.111-10.326-29.763-24.902-60.74-43.125
		c-35.229-20.652-57.096-37.659-66.207-51.021c-9.11-13.971-13.97-29.764-13.97-47.378c0-24.296,9.718-44.948,28.547-61.955
		C988.244,8.504,1013.755,0,1045.34,0c20.652,0,41.304,3.645,61.348,10.326v24.902c-20.044-9.11-41.91-13.97-64.992-13.97
		c-23.688,0-41.91,6.074-55.881,17.614c-13.971,12.148-20.651,26.727-20.651,44.948c0,17.615,4.859,31.585,13.97,41.911
		c9.111,10.326,29.764,24.903,60.74,42.518c32.193,18.223,53.452,34.623,64.385,48.593c10.934,13.97,15.793,30.37,15.793,49.2
		c0,26.725-9.111,47.984-27.333,64.992c-18.222,17.006-44.341,24.902-77.748,24.902c-12.147,0-25.511-1.822-41.303-5.467
		C957.874,346.826,946.334,343.79,938.438,338.93z M1325.353,340.145c-18.222,10.934-40.089,17.008-65.6,17.008
		c-33.407,0-60.74-11.541-81.392-34.622c-20.652-23.081-30.978-52.845-30.978-90.503c0-38.874,11.54-71.066,34.622-95.97
		c23.081-24.903,52.844-37.659,89.288-37.659c18.829,0,37.052,3.645,54.666,11.541v24.903
		c-17.614-10.933-37.052-16.399-57.703-16.399c-29.155,0-52.237,10.325-70.459,30.977c-18.222,20.652-26.726,47.985-26.726,80.785
		c0,32.191,8.504,57.703,24.903,77.14c16.4,19.437,38.267,29.155,64.992,29.155c24.903,0,46.163-6.682,64.385-19.437V340.145
		L1325.353,340.145z M1472.344,127.555c-7.289-5.467-15.792-7.896-26.118-7.896c-19.437,0-35.837,10.326-48.592,30.37
		c-13.363,20.044-19.437,48.593-19.437,85.644v116.014h-21.867V104.473h21.867v54.666h1.215
		c5.466-18.829,14.577-33.407,26.725-43.732c12.148-10.326,26.119-15.793,42.519-15.793c9.111,0,17.614,1.215,24.296,4.252v23.689
		H1472.344z M1507.573,42.518c-4.858,0-9.11-1.822-12.755-5.467s-5.467-7.896-5.467-13.362s1.822-9.719,5.467-12.756
		s7.896-4.858,12.755-4.858c4.859,0,9.111,1.821,13.363,4.858c3.645,3.037,5.467,7.289,5.467,12.756
		c0,4.858-1.822,9.718-5.467,13.362C1516.685,40.695,1512.433,42.518,1507.573,42.518z M1496.641,351.078V104.473h21.866v246.605
		H1496.641z M1594.432,307.346h-1.215v157.317h-21.866V104.474h21.866v51.022h1.215c9.111-18.223,21.26-32.193,37.659-41.912
		c16.4-9.718,34.622-14.577,54.06-14.577c31.584,0,55.881,10.933,73.495,32.192c17.614,21.866,26.118,51.021,26.118,88.073
		c0,41.304-10.326,74.71-30.37,100.222c-20.044,25.511-46.77,38.266-79.569,38.266
		C1639.38,357.152,1612.047,340.753,1594.432,307.346z M1593.217,215.628v30.978c0,24.903,7.896,46.162,23.082,63.777
		c15.792,17.615,35.836,26.726,61.348,26.726c24.903,0,45.555-10.933,61.348-32.192c15.792-21.866,23.688-49.807,23.688-85.036
		c0-30.978-7.289-55.273-21.866-73.495c-14.578-18.223-33.407-27.334-57.703-27.334c-28.549,0-51.022,9.719-66.814,29.156
		C1600.506,167.644,1593.217,189.51,1593.217,215.628z M1920,347.434c-11.541,5.467-22.475,7.896-32.192,7.896
		c-36.444,0-54.666-21.866-54.666-65.6V125.125h-44.341V105.08h44.341V40.695l10.933-3.644l10.934-3.645v71.673H1920v20.045h-64.992
		v162.783c0,17.008,2.43,29.156,7.896,37.052c5.467,7.896,14.577,11.541,27.333,11.541c9.11,0,18.829-3.037,29.763-9.11V347.434
		L1920,347.434z"/>
</g>
</svg>
