<?xml version="1.0" encoding="utf-8"?>
<svg version="1.1" id="Layer_1" xmlns="http://www.w3.org/2000/svg" xmlns:xlink="http://www.w3.org/1999/xlink" x="0px" y="0px"
	 viewBox="0 0 725 85" style="enable-background:new 0 0 725 85;" xml:space="preserve">
<style type="text/css">
	.st0{fill:#0E61AE;}
</style>
<path class="st0" d="M63.7,0L30,33.7L8.5,17L0,21.2v42.5L8.5,68L30,51.3L63.7,85L85,76.5v-68L63.7,0z M8.5,55.2V29.7l12.8,12.8
	L8.5,55.2z M41.3,42.5L63.7,25V60L41.3,42.5z"/>
<g>
	<path class="st0" d="M172.1,18.8l-18.7,50.4h-6.5l-18.3-50.4h6.6l14,40c0.4,1.3,0.8,2.8,1,4.5h0.1c0.2-1.4,0.6-2.9,1.2-4.5
		l14.2-39.9H172.1z"/>
	<path class="st0" d="M181.5,24.1c-1,0-1.9-0.4-2.6-1.1s-1.1-1.6-1.1-2.7c0-1.1,0.4-2,1.1-2.7c0.7-0.7,1.6-1.1,2.6-1.1
		c1.1,0,2,0.4,2.7,1.1c0.7,0.7,1.1,1.6,1.1,2.7c0,1-0.4,1.9-1.1,2.6C183.5,23.7,182.6,24.1,181.5,24.1z M184.3,69.2h-5.8v-36h5.8
		V69.2z"/>
	<path class="st0" d="M193.8,67.9v-6.2c3.1,2.3,6.6,3.5,10.4,3.5c5.1,0,7.6-1.7,7.6-5.1c0-1-0.2-1.8-0.7-2.4s-1-1.3-1.8-1.8
		s-1.6-1-2.6-1.4s-2.1-0.8-3.2-1.3c-1.6-0.6-3-1.3-4.2-1.9s-2.2-1.4-3-2.2s-1.4-1.7-1.8-2.8s-0.6-2.2-0.6-3.6c0-1.7,0.4-3.2,1.2-4.5
		s1.8-2.4,3.1-3.3s2.8-1.5,4.4-2c1.7-0.4,3.4-0.7,5.1-0.7c3.1,0,5.9,0.5,8.4,1.6v5.8c-2.6-1.7-5.7-2.6-9.1-2.6
		c-1.1,0-2.1,0.1-2.9,0.4s-1.6,0.6-2.2,1c-0.6,0.4-1.1,1-1.4,1.6c-0.3,0.6-0.5,1.3-0.5,2.1c0,0.9,0.2,1.7,0.5,2.4s0.8,1.2,1.5,1.7
		s1.5,0.9,2.4,1.3s2,0.8,3.2,1.3c1.6,0.6,3,1.2,4.3,1.9s2.3,1.4,3.2,2.2s1.6,1.7,2.1,2.8s0.7,2.3,0.7,3.8c0,1.8-0.4,3.3-1.2,4.6
		s-1.8,2.4-3.1,3.3s-2.8,1.5-4.5,1.9s-3.5,0.6-5.4,0.6C199.7,70.1,196.5,69.4,193.8,67.9z"/>
	<path class="st0" d="M255.7,69.2h-5.8v-5.7h-0.1c-2.4,4.4-6.1,6.5-11.1,6.5c-8.6,0-12.9-5.1-12.9-15.3V33.2h5.7v20.6
		c0,7.6,2.9,11.4,8.7,11.4c2.8,0,5.1-1,6.9-3.1s2.7-4.8,2.7-8.1V33.2h5.8V69.2z"/>
	<path class="st0" d="M293.1,69.2h-5.8v-5.6h-0.1c-2.5,4.3-6.2,6.5-11.1,6.5c-3.6,0-6.4-0.9-8.4-2.8s-3-4.4-3-7.6
		c0-6.7,4-10.6,11.9-11.7l10.8-1.5c0-6.1-2.5-9.2-7.4-9.2c-4.3,0-8.2,1.5-11.7,4.4v-5.9c3.5-2.2,7.6-3.4,12.2-3.4
		c8.5,0,12.7,4.5,12.7,13.4V69.2z M287.3,51l-8.7,1.2c-2.7,0.4-4.7,1-6,2s-2,2.6-2,5c0,1.8,0.6,3.2,1.9,4.3s2.9,1.7,5,1.7
		c2.9,0,5.2-1,7.1-3s2.8-4.5,2.8-7.6V51z"/>
	<path class="st0" d="M309.7,69.2h-5.8V15.9h5.8V69.2z"/>
	<path class="st0" d="M339.5,67.2v-7c0.8,0.7,1.8,1.3,2.9,1.9s2.3,1,3.5,1.4s2.5,0.7,3.7,0.9s2.4,0.3,3.4,0.3c3.6,0,6.3-0.7,8.1-2
		s2.7-3.3,2.7-5.8c0-1.4-0.3-2.5-0.9-3.6s-1.4-1.9-2.5-2.8s-2.3-1.6-3.7-2.4s-3-1.6-4.7-2.4c-1.8-0.9-3.4-1.8-4.9-2.7s-2.8-1.9-4-3
		c-1.1-1.1-2-2.3-2.7-3.7c-0.6-1.4-1-3-1-4.9c0-2.3,0.5-4.3,1.5-6c1-1.7,2.3-3.1,4-4.2c1.6-1.1,3.5-1.9,5.6-2.5
		c2.1-0.5,4.2-0.8,6.4-0.8c5,0,8.6,0.6,10.9,1.8v6.6c-3-2.1-6.8-3.1-11.5-3.1c-1.3,0-2.6,0.1-3.9,0.4c-1.3,0.3-2.4,0.7-3.4,1.3
		c-1,0.6-1.8,1.4-2.5,2.4c-0.6,1-0.9,2.1-0.9,3.5c0,1.3,0.2,2.4,0.7,3.3c0.5,0.9,1.2,1.8,2.1,2.6s2.1,1.5,3.4,2.2
		c1.3,0.7,2.9,1.5,4.7,2.4c1.8,0.9,3.5,1.8,5.1,2.8s3,2.1,4.3,3.3s2.2,2.5,2.9,4s1.1,3.1,1.1,5c0,2.5-0.5,4.6-1.5,6.3
		s-2.3,3.1-3.9,4.2s-3.6,1.9-5.7,2.3s-4.4,0.7-6.8,0.7c-0.8,0-1.8-0.1-3-0.2s-2.4-0.3-3.6-0.6s-2.4-0.6-3.5-0.9
		S340.2,67.6,339.5,67.2z"/>
	<path class="st0" d="M393.7,68.9c-1.4,0.8-3.2,1.1-5.4,1.1c-6.3,0-9.5-3.5-9.5-10.5V38.1h-6.2v-4.9h6.2v-8.8l5.8-1.9v10.7h9.1v4.9
		h-9.1v20.3c0,2.4,0.4,4.1,1.2,5.2s2.2,1.5,4.1,1.5c1.5,0,2.7-0.4,3.8-1.2V68.9z"/>
	<path class="st0" d="M430.5,69.2h-5.8v-5.7h-0.1c-2.4,4.4-6.1,6.5-11.1,6.5c-8.6,0-12.9-5.1-12.9-15.3V33.2h5.7v20.6
		c0,7.6,2.9,11.4,8.7,11.4c2.8,0,5.1-1,6.9-3.1s2.7-4.8,2.7-8.1V33.2h5.8V69.2z"/>
	<path class="st0" d="M472.9,69.2h-5.8v-6.1H467c-2.7,4.6-6.8,7-12.4,7c-4.5,0-8.1-1.6-10.8-4.8s-4.1-7.6-4.1-13.2
		c0-6,1.5-10.7,4.5-14.3s7-5.4,12-5.4c4.9,0,8.5,1.9,10.8,5.8h0.1V15.9h5.8V69.2z M467.1,52.9v-5.3c0-2.9-1-5.4-2.9-7.4
		c-1.9-2-4.4-3-7.3-3c-3.5,0-6.3,1.3-8.3,3.9s-3,6.1-3,10.7c0,4.1,1,7.4,2.9,9.8s4.5,3.6,7.8,3.6c3.2,0,5.8-1.2,7.8-3.5
		S467.1,56.5,467.1,52.9z"/>
	<path class="st0" d="M487.5,24.1c-1,0-1.9-0.4-2.6-1.1s-1.1-1.6-1.1-2.7c0-1.1,0.4-2,1.1-2.7c0.7-0.7,1.6-1.1,2.6-1.1
		c1.1,0,2,0.4,2.7,1.1c0.7,0.7,1.1,1.6,1.1,2.7c0,1-0.4,1.9-1.1,2.6C489.5,23.7,488.6,24.1,487.5,24.1z M490.3,69.2h-5.8v-36h5.8
		V69.2z"/>
	<path class="st0" d="M517,70.1c-5.3,0-9.6-1.7-12.7-5s-4.8-7.8-4.8-13.4c0-6,1.7-10.8,5-14.2c3.3-3.4,7.8-5.1,13.4-5.1
		c5.4,0,9.6,1.7,12.6,5s4.5,7.9,4.5,13.7c0,5.7-1.6,10.3-4.9,13.8S522.5,70.1,517,70.1z M517.5,37.2c-3.7,0-6.6,1.3-8.8,3.8
		c-2.2,2.5-3.2,6-3.2,10.4c0,4.3,1.1,7.6,3.3,10.1s5.1,3.7,8.8,3.7c3.7,0,6.6-1.2,8.6-3.6s3-5.8,3-10.3c0-4.5-1-8-3-10.4
		S521.2,37.2,517.5,37.2z"/>
	<path class="st0" d="M599,67.1c-3.7,2-8.4,3-13.9,3c-7.2,0-12.9-2.3-17.2-6.9s-6.5-10.7-6.5-18.2c0-8.1,2.4-14.6,7.3-19.5
		c4.9-5,11-7.5,18.5-7.5c4.8,0,8.7,0.7,11.9,2.1v6.3c-3.6-2-7.6-3-12-3c-5.8,0-10.5,1.9-14.1,5.8s-5.4,9-5.4,15.5
		c0,6.1,1.7,11,5,14.7s7.8,5.5,13.2,5.5c5.1,0,9.4-1.1,13.1-3.4V67.1z"/>
	<path class="st0" d="M623.5,70.1c-5.3,0-9.6-1.7-12.7-5s-4.8-7.8-4.8-13.4c0-6,1.7-10.8,5-14.2c3.3-3.4,7.8-5.1,13.4-5.1
		c5.4,0,9.6,1.7,12.6,5s4.5,7.9,4.5,13.7c0,5.7-1.6,10.3-4.9,13.8S629,70.1,623.5,70.1z M623.9,37.2c-3.7,0-6.6,1.3-8.8,3.8
		c-2.2,2.5-3.2,6-3.2,10.4c0,4.3,1.1,7.6,3.3,10.1s5.1,3.7,8.8,3.7c3.7,0,6.6-1.2,8.6-3.6s3-5.8,3-10.3c0-4.5-1-8-3-10.4
		S627.7,37.2,623.9,37.2z"/>
	<path class="st0" d="M681.4,69.2h-5.8v-6.1h-0.1c-2.7,4.6-6.8,7-12.4,7c-4.5,0-8.1-1.6-10.8-4.8s-4.1-7.6-4.1-13.2
		c0-6,1.5-10.7,4.5-14.3s7-5.4,12-5.4c4.9,0,8.5,1.9,10.8,5.8h0.1V15.9h5.8V69.2z M675.6,52.9v-5.3c0-2.9-1-5.4-2.9-7.4
		c-1.9-2-4.4-3-7.3-3c-3.5,0-6.3,1.3-8.3,3.9s-3,6.1-3,10.7c0,4.1,1,7.4,2.9,9.8s4.5,3.6,7.8,3.6c3.2,0,5.8-1.2,7.8-3.5
		S675.6,56.5,675.6,52.9z"/>
	<path class="st0" d="M722,52.7h-25.4c0.1,4,1.2,7.1,3.2,9.3s4.9,3.3,8.5,3.3c4.1,0,7.8-1.3,11.2-4v5.4c-3.2,2.3-7.3,3.4-12.6,3.4
		c-5.1,0-9.1-1.6-12-4.9s-4.4-7.9-4.4-13.8c0-5.6,1.6-10.2,4.8-13.7c3.2-3.5,7.1-5.3,11.8-5.3s8.4,1.5,10.9,4.6
		c2.6,3,3.9,7.3,3.9,12.7V52.7z M716.1,47.8c0-3.3-0.8-5.9-2.4-7.8c-1.6-1.9-3.8-2.8-6.6-2.8c-2.7,0-5,1-6.9,2.9
		c-1.9,1.9-3.1,4.5-3.5,7.6H716.1z"/>
</g>
</svg>
