<svg xmlns="http://www.w3.org/2000/svg" xmlns:xlink="http://www.w3.org/1999/xlink" viewBox="0 0 1200 675"><defs><style>.a,.o{fill:none;}.b{clip-path:url(#a);}.c{clip-path:url(#b);}.d,.n,.p,.q,.t{fill:#fff;}.d{stroke:#dde1e9;}.d,.n,.o,.p{stroke-miterlimit:10;}.d,.p{stroke-width:2px;}.e{fill:#dde1e9;}.f{fill:#eef0f4;}.g{fill:#cddadb;}.h{fill:#9cb5b7;}.i,.s{fill:#83a3a5;}.j{clip-path:url(#c);}.k{fill:#ebedf2;}.l{fill:#f5f6f9;}.m{clip-path:url(#d);}.n,.o,.t{stroke:#83a3a5;}.p{stroke:#dae6e4;}.q{opacity:0.6;}.r{opacity:0.25;}.s{stroke:#000;}.s,.t,.u{stroke-linecap:square;stroke-linejoin:bevel;}.u{fill:#262626;stroke:#fff;}</style><clipPath id="a"><rect class="a" width="1200" height="517.1"/></clipPath><clipPath id="b"><polyline class="a" points="84.19 627.95 153.04 627.95 838.03 -10.65 85.51 -10.65"/></clipPath><clipPath id="c"><polygon class="a" points="453.62 347.73 646.45 167.96 742.74 167.96 742.74 347.73 453.62 347.73"/></clipPath><clipPath id="d"><polyline class="a" points="-0.66 627.95 153.04 627.95 838.03 -10.65 0.66 -10.65"/></clipPath></defs><title>FINAL-outlined</title><g class="b"><g class="c"><path class="d" d="M271.74,324.15s5.89-41.95,45.16-41.95S342.78,215,403.73,215s46.75,54.58,109.47,54.58,71.67,58,71.67,58Z"/><path class="e" d="M84.19,376.8s13.65-36.36,29.73-36.36,10.15-18,28.77-18,7.62-8.68,22.56-8.68,9.87,7.13,20.59,7.13,17.21-17.59,32.72-17.59c15.36,0,15.79-10.7,15.79-10.91.13-3.87,15.23-7.52,17.62-8,7.2-1.41,11.66.28,18.15,1.43,7.53,1.34,12.43-3.36,19.15-6.18a23,23,0,0,1,27,7.9,29.89,29.89,0,0,1,50.23,3A54.93,54.93,0,0,1,394,276c5.31-1.05,10.91-1.29,16,.45s9.49,5.41,14.17,8.27c7,4.26,15.18,6.84,23.33,6.15,4.49-.38,8.85-1.73,13.34-2.11,11.61-1,21.81,4.59,31.32,10.53,5.35,3.34,6.64,4.69,12.23,1.63,5.35-2.94,10.15-8.89,14.79-12.87,16-13.72,32.63-26.81,50.38-38.2,21.46-13.77,45.91-26.49,71.87-28,32.63-1.93,51.74,19.35,79.57,30.89a43.13,43.13,0,0,0,16.5,3.63c49.41,0,76.5-32.25,111.79-32.25S914.65,261,939,261s35.48-31.34,71.56-31.34,49.74,23.5,81.89,23.5,49.41,16.72,49.41,16.72,14.12-11.15,29.81-11.15a23.09,23.09,0,0,1,21.18,13s16.47-13.62,32.16-13.62,16.47,18.58,16.47,18.58,11-36.53,43.92-36.53S1316,270.45,1316,270.45s13.33-18,37.65-18V376.8Z"/></g><path class="f" d="M686.26,264.22S704,230.91,727,230.91s7.45-28.42,27.55-28.42S773.21,168,801.51,168,835.76,186,859.59,186s4.47,16.45,23.83,16.45S897.57,186,916.19,186,946,219.2,957.89,219.2s29.79,13.18,45.43,13.18,21.6,31.84,21.6,31.84Z"/><path class="g" d="M1185.63,228a3.11,3.11,0,0,0,3-2.31,9.08,9.08,0,0,0,.05-4,7.37,7.37,0,0,1-4.62,1.2c0-.59.63-.92,1.15-1.2a4.12,4.12,0,0,0,2.06-4l-4.18,1.34q1.85-3.82,3.74-7.63a8.59,8.59,0,0,1-3.37,1.62,1.29,1.29,0,0,0,.53-2.07,48.22,48.22,0,0,0,3.42-4.41,6.74,6.74,0,0,1-3.94,1.13l3.67-3.69-2.68,1.13a12.82,12.82,0,0,0,3.62-5.92,25.43,25.43,0,0,0-5.57,3.39,12,12,0,0,0,2.72-4.85,4.17,4.17,0,0,0-2.18,2.61c.16-1.16,1.22-2.65,1.06-3.81-.13-1,1.12-3.11,1.1-4.11,0-.61-2.54.19-2.38-.42a4.14,4.14,0,0,1,2.87-3.29,8,8,0,0,0-5.43.69A8.57,8.57,0,0,0,1182,185a3.07,3.07,0,0,1-2.34,1.88,9.07,9.07,0,0,1-3.13-.05,34.47,34.47,0,0,1,4.45-3.46l-1.53,0a4.84,4.84,0,0,1,1.51-2.53,4.79,4.79,0,0,1-4.8.6,10.28,10.28,0,0,0,4.51-5.47,7.22,7.22,0,0,1-5.82,2,43.32,43.32,0,0,0,5.33-5.51l-4.85,3.16a11.32,11.32,0,0,0,3.76-6.13,3.52,3.52,0,0,1-4.43,1.55,3.65,3.65,0,0,0,2.39-2.9,2.18,2.18,0,0,1-2.69.27,6.53,6.53,0,0,1,.51-3.61,3.75,3.75,0,0,1-2,1,9.3,9.3,0,0,1,1.35-3.65,16.36,16.36,0,0,1-2.78,1.9,14.88,14.88,0,0,0-1.08-5.1,13.87,13.87,0,0,1-1.2-5,.38.38,0,0,0-.46,0,13.87,13.87,0,0,1-1.2,5,14.89,14.89,0,0,0-1.08,5.1,16.37,16.37,0,0,1-2.78-1.9,9.3,9.3,0,0,1,1.35,3.65,3.75,3.75,0,0,1-2-1,6.53,6.53,0,0,1,.51,3.61,2.18,2.18,0,0,1-2.69-.27,3.65,3.65,0,0,0,2.39,2.9,3.52,3.52,0,0,1-4.43-1.55,11.32,11.32,0,0,0,3.76,6.13l-4.85-3.16A43.34,43.34,0,0,0,1163,178a7.22,7.22,0,0,1-5.82-2,10.28,10.28,0,0,0,4.51,5.47,4.79,4.79,0,0,1-4.8-.6,4.84,4.84,0,0,1,1.51,2.53l-1.53,0a34.48,34.48,0,0,1,4.45,3.46,9.07,9.07,0,0,1-3.13.05,3.07,3.07,0,0,1-2.34-1.88,8.57,8.57,0,0,0,1.76,4.41,8,8,0,0,0-5.43-.69A4.14,4.14,0,0,1,1155,192c.16.61-2.37-.19-2.38.42,0,1,1.24,3.11,1.1,4.11-.16,1.17.91,2.65,1.06,3.81a4.17,4.17,0,0,0-2.18-2.61,12,12,0,0,0,2.72,4.85,25.43,25.43,0,0,0-5.57-3.39,12.82,12.82,0,0,0,3.62,5.92l-2.68-1.13,3.67,3.69a6.74,6.74,0,0,1-3.94-1.13,48.22,48.22,0,0,0,3.42,4.41,1.29,1.29,0,0,0,.53,2.07,8.59,8.59,0,0,1-3.37-1.62q1.89,3.8,3.74,7.63l-4.18-1.34a4.12,4.12,0,0,0,2.06,4c.52.28,1.2.61,1.15,1.2a7.37,7.37,0,0,1-4.62-1.2,9.08,9.08,0,0,0,.05,4,3.11,3.11,0,0,0,3,2.31c-1,.31-2.75.48-3.46-.28a5.47,5.47,0,0,0,2.18,3.3c1.27.89,3.15,1.56,3.2,3.11a6.47,6.47,0,0,1-2.12-.42,11.36,11.36,0,0,1,3.17,5.18c-1.88-.84-1.69-1.7-3.75-1.79,1.18,2.83,2.28,13.91,17.5,13.91s16.32-11.08,17.5-13.91c-2.06.08-1.87.95-3.75,1.79a11.36,11.36,0,0,1,3.17-5.18,6.47,6.47,0,0,1-2.12.42c.05-1.56,1.92-2.22,3.2-3.11a5.47,5.47,0,0,0,2.18-3.3C1188.38,228.5,1186.63,228.33,1185.63,228Z"/><path class="g" d="M998.1,233.2a3.11,3.11,0,0,0,3-2.31,9.08,9.08,0,0,0,.05-4,7.37,7.37,0,0,1-4.62,1.2c0-.59.63-.92,1.15-1.2a4.12,4.12,0,0,0,2.06-4l-4.18,1.34q1.85-3.82,3.74-7.63a8.59,8.59,0,0,1-3.37,1.62,1.29,1.29,0,0,0,.53-2.07,48.21,48.21,0,0,0,3.42-4.41,6.74,6.74,0,0,1-3.94,1.13l3.67-3.69-2.68,1.13a12.82,12.82,0,0,0,3.62-5.92,25.43,25.43,0,0,0-5.57,3.39,12,12,0,0,0,2.72-4.85,4.17,4.17,0,0,0-2.18,2.61c.16-1.16,1.22-2.65,1.06-3.81-.13-1,1.12-3.11,1.1-4.11,0-.61-2.54.19-2.38-.42a4.14,4.14,0,0,1,2.87-3.29,8,8,0,0,0-5.43.69,8.57,8.57,0,0,0,1.76-4.41,3.07,3.07,0,0,1-2.34,1.88A9.07,9.07,0,0,1,989,192a34.44,34.44,0,0,1,4.45-3.46l-1.53,0a4.84,4.84,0,0,1,1.51-2.53,4.79,4.79,0,0,1-4.8.6,10.28,10.28,0,0,0,4.51-5.47,7.22,7.22,0,0,1-5.82,2,43.31,43.31,0,0,0,5.33-5.51l-4.85,3.16a11.32,11.32,0,0,0,3.76-6.13,3.52,3.52,0,0,1-4.43,1.56,3.65,3.65,0,0,0,2.39-2.9,2.18,2.18,0,0,1-2.69.27,6.53,6.53,0,0,1,.51-3.61,3.75,3.75,0,0,1-2,1,9.29,9.29,0,0,1,1.35-3.65,16.4,16.4,0,0,1-2.78,1.9,14.89,14.89,0,0,0-1.08-5.1,13.87,13.87,0,0,1-1.2-5,.38.38,0,0,0-.46,0,13.87,13.87,0,0,1-1.2,5,14.89,14.89,0,0,0-1.08,5.1,16.4,16.4,0,0,1-2.78-1.9,9.29,9.29,0,0,1,1.35,3.65,3.75,3.75,0,0,1-2-1,6.53,6.53,0,0,1,.51,3.61,2.18,2.18,0,0,1-2.69-.27,3.65,3.65,0,0,0,2.39,2.9,3.52,3.52,0,0,1-4.43-1.56,11.32,11.32,0,0,0,3.75,6.13l-4.85-3.16a43.31,43.31,0,0,0,5.33,5.51,7.22,7.22,0,0,1-5.82-2,10.28,10.28,0,0,0,4.51,5.47,4.79,4.79,0,0,1-4.8-.6,4.84,4.84,0,0,1,1.51,2.53l-1.53,0a34.45,34.45,0,0,1,4.45,3.46,9.07,9.07,0,0,1-3.13.05,3.07,3.07,0,0,1-2.34-1.88,8.57,8.57,0,0,0,1.76,4.41,8,8,0,0,0-5.43-.69,4.14,4.14,0,0,1,2.87,3.29c.16.61-2.37-.19-2.38.42,0,1,1.24,3.11,1.1,4.11-.16,1.17.91,2.65,1.06,3.81a4.17,4.17,0,0,0-2.18-2.61,12,12,0,0,0,2.72,4.85,25.43,25.43,0,0,0-5.57-3.39,12.82,12.82,0,0,0,3.62,5.92l-2.68-1.13,3.67,3.69a6.74,6.74,0,0,1-3.94-1.12,48.21,48.21,0,0,0,3.42,4.41,1.29,1.29,0,0,0,.53,2.07,8.59,8.59,0,0,1-3.37-1.62q1.89,3.8,3.74,7.63l-4.18-1.34a4.12,4.12,0,0,0,2.06,4c.52.28,1.2.61,1.15,1.2a7.37,7.37,0,0,1-4.62-1.2,9.08,9.08,0,0,0,.05,4,3.11,3.11,0,0,0,3,2.31c-1,.31-2.75.48-3.46-.28a5.47,5.47,0,0,0,2.18,3.3c1.27.89,3.15,1.56,3.2,3.11a6.47,6.47,0,0,1-2.12-.42,11.36,11.36,0,0,1,3.17,5.18c-1.88-.84-1.69-1.7-3.75-1.79,1.18,2.83,2.28,13.91,17.5,13.91s16.32-11.08,17.5-13.91c-2.06.08-1.87.95-3.75,1.79a11.36,11.36,0,0,1,3.17-5.18,6.47,6.47,0,0,1-2.12.42c.05-1.56,1.92-2.22,3.2-3.11a5.47,5.47,0,0,0,2.18-3.3C1000.85,233.68,999.1,233.51,998.1,233.2Z"/><path class="g" d="M687.2,232.18a3.11,3.11,0,0,0,3-2.31,9.08,9.08,0,0,0,.05-4,7.37,7.37,0,0,1-4.62,1.2c0-.59.63-.92,1.15-1.2a4.13,4.13,0,0,0,2.06-4l-4.18,1.34q1.85-3.82,3.74-7.63a8.6,8.6,0,0,1-3.37,1.62,1.29,1.29,0,0,0,.53-2.07,48.19,48.19,0,0,0,3.42-4.41,6.74,6.74,0,0,1-3.94,1.13l3.67-3.69L686,209.25a12.82,12.82,0,0,0,3.62-5.92,25.45,25.45,0,0,0-5.57,3.39,12,12,0,0,0,2.72-4.85,4.17,4.17,0,0,0-2.18,2.61c.16-1.16,1.22-2.65,1.06-3.81-.13-1,1.12-3.11,1.1-4.11,0-.61-2.54.19-2.38-.42a4.14,4.14,0,0,1,2.87-3.29,8,8,0,0,0-5.43.69,8.57,8.57,0,0,0,1.76-4.41,3.07,3.07,0,0,1-2.34,1.88,9.07,9.07,0,0,1-3.13-.05,34.44,34.44,0,0,1,4.45-3.46l-1.53,0a4.84,4.84,0,0,1,1.51-2.53,4.79,4.79,0,0,1-4.8.6,10.28,10.28,0,0,0,4.51-5.47,7.22,7.22,0,0,1-5.82,2,43.33,43.33,0,0,0,5.33-5.51l-4.85,3.16a11.32,11.32,0,0,0,3.76-6.13,3.52,3.52,0,0,1-4.43,1.55,3.65,3.65,0,0,0,2.39-2.9,2.18,2.18,0,0,1-2.69.27,6.53,6.53,0,0,1,.51-3.61,3.75,3.75,0,0,1-2,1,9.29,9.29,0,0,1,1.35-3.65,16.37,16.37,0,0,1-2.78,1.9,14.89,14.89,0,0,0-1.08-5.1,13.87,13.87,0,0,1-1.2-5,.38.38,0,0,0-.46,0,13.87,13.87,0,0,1-1.2,5,14.89,14.89,0,0,0-1.08,5.1,16.37,16.37,0,0,1-2.78-1.9,9.3,9.3,0,0,1,1.35,3.65,3.75,3.75,0,0,1-2-1,6.53,6.53,0,0,1,.51,3.61,2.18,2.18,0,0,1-2.69-.27,3.65,3.65,0,0,0,2.39,2.9,3.52,3.52,0,0,1-4.43-1.55,11.32,11.32,0,0,0,3.76,6.13l-4.85-3.16a43.32,43.32,0,0,0,5.33,5.51,7.22,7.22,0,0,1-5.82-2,10.28,10.28,0,0,0,4.51,5.47,4.79,4.79,0,0,1-4.8-.6,4.84,4.84,0,0,1,1.51,2.53l-1.53,0a34.44,34.44,0,0,1,4.45,3.46,9.07,9.07,0,0,1-3.13.05,3.07,3.07,0,0,1-2.34-1.88,8.57,8.57,0,0,0,1.76,4.41,8,8,0,0,0-5.43-.69,4.14,4.14,0,0,1,2.87,3.29c.16.61-2.37-.19-2.38.42,0,1,1.24,3.11,1.1,4.11-.16,1.17.91,2.65,1.06,3.81a4.17,4.17,0,0,0-2.18-2.61,12,12,0,0,0,2.72,4.85,25.45,25.45,0,0,0-5.57-3.39,12.82,12.82,0,0,0,3.62,5.92l-2.68-1.13,3.67,3.69a6.74,6.74,0,0,1-3.94-1.12,48.19,48.19,0,0,0,3.42,4.41,1.29,1.29,0,0,0,.53,2.07,8.6,8.6,0,0,1-3.37-1.62q1.89,3.8,3.74,7.63l-4.18-1.34a4.13,4.13,0,0,0,2.06,4c.52.28,1.2.61,1.15,1.2a7.37,7.37,0,0,1-4.62-1.2,9.08,9.08,0,0,0,.05,4,3.11,3.11,0,0,0,3,2.31c-1,.31-2.75.48-3.46-.28a5.47,5.47,0,0,0,2.18,3.3c1.27.89,3.15,1.56,3.2,3.11a6.47,6.47,0,0,1-2.12-.42,11.36,11.36,0,0,1,3.17,5.18c-1.88-.84-1.69-1.7-3.75-1.79,1.18,2.83,2.28,13.91,17.5,13.91s16.32-11.08,17.5-13.91c-2.06.08-1.87.95-3.75,1.79a11.36,11.36,0,0,1,3.17-5.18,6.47,6.47,0,0,1-2.12.42c.05-1.56,1.92-2.22,3.2-3.11a5.47,5.47,0,0,0,2.18-3.3C690,232.66,688.2,232.49,687.2,232.18Z"/><path class="g" d="M747.46,264.73a3.11,3.11,0,0,0,3-2.31,9.08,9.08,0,0,0,.05-4,7.37,7.37,0,0,1-4.62,1.2c0-.59.63-.92,1.15-1.2a4.12,4.12,0,0,0,2.06-4l-4.18,1.34q1.85-3.82,3.74-7.63a8.59,8.59,0,0,1-3.37,1.62,1.29,1.29,0,0,0,.53-2.07,48.23,48.23,0,0,0,3.42-4.41,6.75,6.75,0,0,1-3.94,1.13l3.67-3.69-2.68,1.13a12.82,12.82,0,0,0,3.62-5.92,25.43,25.43,0,0,0-5.57,3.39,12,12,0,0,0,2.72-4.85,4.17,4.17,0,0,0-2.18,2.61c.16-1.16,1.22-2.65,1.06-3.81-.13-1,1.12-3.11,1.1-4.11,0-.61-2.54.19-2.38-.42a4.14,4.14,0,0,1,2.87-3.29,8,8,0,0,0-5.43.69,8.57,8.57,0,0,0,1.76-4.41,3.07,3.07,0,0,1-2.34,1.88,9.07,9.07,0,0,1-3.13-.05,34.44,34.44,0,0,1,4.45-3.46l-1.53,0a4.84,4.84,0,0,1,1.51-2.53,4.79,4.79,0,0,1-4.8.6,10.28,10.28,0,0,0,4.51-5.47,7.22,7.22,0,0,1-5.82,2,43.31,43.31,0,0,0,5.33-5.51l-4.85,3.16a11.32,11.32,0,0,0,3.76-6.13,3.52,3.52,0,0,1-4.43,1.55,3.65,3.65,0,0,0,2.39-2.9,2.18,2.18,0,0,1-2.69.27,6.53,6.53,0,0,1,.51-3.61,3.75,3.75,0,0,1-2,1,9.29,9.29,0,0,1,1.35-3.65,16.39,16.39,0,0,1-2.78,1.9,14.89,14.89,0,0,0-1.08-5.1,13.87,13.87,0,0,1-1.2-5,.38.38,0,0,0-.46,0,13.87,13.87,0,0,1-1.2,5,14.89,14.89,0,0,0-1.08,5.1,16.39,16.39,0,0,1-2.78-1.9,9.29,9.29,0,0,1,1.35,3.65,3.75,3.75,0,0,1-2-1,6.53,6.53,0,0,1,.51,3.61,2.18,2.18,0,0,1-2.69-.27,3.65,3.65,0,0,0,2.39,2.9,3.52,3.52,0,0,1-4.43-1.55,11.32,11.32,0,0,0,3.76,6.13l-4.85-3.16a43.31,43.31,0,0,0,5.33,5.51,7.22,7.22,0,0,1-5.82-2,10.28,10.28,0,0,0,4.51,5.47,4.79,4.79,0,0,1-4.8-.6,4.84,4.84,0,0,1,1.51,2.53l-1.53,0a34.44,34.44,0,0,1,4.45,3.46,9.07,9.07,0,0,1-3.13.05,3.08,3.08,0,0,1-2.34-1.88,8.57,8.57,0,0,0,1.76,4.41,8,8,0,0,0-5.43-.69,4.14,4.14,0,0,1,2.87,3.29c.16.61-2.37-.19-2.38.42,0,1,1.24,3.11,1.1,4.11-.16,1.17.91,2.65,1.06,3.81a4.17,4.17,0,0,0-2.18-2.61,12,12,0,0,0,2.72,4.85,25.43,25.43,0,0,0-5.57-3.39,12.82,12.82,0,0,0,3.62,5.92l-2.68-1.13,3.67,3.69a6.75,6.75,0,0,1-3.94-1.12,48.23,48.23,0,0,0,3.42,4.41,1.29,1.29,0,0,0,.53,2.07,8.59,8.59,0,0,1-3.37-1.62q1.89,3.8,3.74,7.63l-4.18-1.34a4.12,4.12,0,0,0,2.06,4c.52.28,1.2.61,1.15,1.2a7.37,7.37,0,0,1-4.62-1.2,9.08,9.08,0,0,0,.05,4,3.11,3.11,0,0,0,3,2.31c-1,.31-2.75.48-3.46-.28a5.47,5.47,0,0,0,2.18,3.3c1.27.89,3.15,1.56,3.2,3.11a6.47,6.47,0,0,1-2.12-.42,11.36,11.36,0,0,1,3.17,5.18c-1.88-.84-1.69-1.7-3.75-1.79,1.18,2.83,2.28,13.91,17.5,13.91s16.32-11.08,17.5-13.91c-2.06.08-1.87.95-3.75,1.79a11.36,11.36,0,0,1,3.17-5.18,6.47,6.47,0,0,1-2.12.42c.05-1.56,1.92-2.22,3.2-3.11a5.47,5.47,0,0,0,2.18-3.3C750.21,265.21,748.45,265,747.46,264.73Z"/><path class="g" d="M1163.78,196.6a.31.31,0,0,0-.23.08,13.87,13.87,0,0,1-1.2,5,14.89,14.89,0,0,0-1.08,5.1,16.38,16.38,0,0,1-2.78-1.9,9.3,9.3,0,0,1,1.35,3.65,3.75,3.75,0,0,1-2-1,6.53,6.53,0,0,1,.51,3.61,2.18,2.18,0,0,1-2.69-.27,3.65,3.65,0,0,0,2.39,2.9,3.52,3.52,0,0,1-4.43-1.55,11.32,11.32,0,0,0,3.75,6.13l-4.85-3.16a43.32,43.32,0,0,0,5.33,5.51,7.22,7.22,0,0,1-5.82-2,10.28,10.28,0,0,0,4.51,5.47,4.79,4.79,0,0,1-4.8-.6,4.84,4.84,0,0,1,1.51,2.53l-1.53,0a34.45,34.45,0,0,1,4.45,3.46,9.06,9.06,0,0,1-3.13.05,3.07,3.07,0,0,1-2.34-1.88,8.57,8.57,0,0,0,1.76,4.41,8,8,0,0,0-5.43-.69,4.14,4.14,0,0,1,2.87,3.29c.16.61-2.37-.19-2.38.42,0,1,1.24,3.11,1.1,4.11-.16,1.17.91,2.65,1.06,3.81a4.17,4.17,0,0,0-2.18-2.61,12,12,0,0,0,2.72,4.85,25.43,25.43,0,0,0-5.57-3.39,12.82,12.82,0,0,0,3.62,5.92l-2.68-1.13,3.67,3.69a6.75,6.75,0,0,1-3.94-1.13,48.22,48.22,0,0,0,3.42,4.41,1.29,1.29,0,0,0,.53,2.07,8.59,8.59,0,0,1-3.37-1.62q1.89,3.8,3.74,7.63l-4.18-1.34a4.12,4.12,0,0,0,2.06,4c.52.28,1.2.61,1.15,1.2a7.37,7.37,0,0,1-4.62-1.2,9.08,9.08,0,0,0,.05,4,3.11,3.11,0,0,0,3,2.31c-1,.31-2.75.48-3.46-.28a5.47,5.47,0,0,0,2.18,3.3c1.27.89,3.15,1.56,3.2,3.11a6.47,6.47,0,0,1-2.12-.42,11.36,11.36,0,0,1,3.17,5.18c-1.88-.84-1.69-1.7-3.75-1.79,1.18,2.83,2.28,13.91,17.5,13.91"/><path class="g" d="M1163.78,196.6a.31.31,0,0,1,.23.08,13.87,13.87,0,0,0,1.2,5,14.89,14.89,0,0,1,1.08,5.1,16.38,16.38,0,0,0,2.78-1.9,9.3,9.3,0,0,0-1.35,3.65,3.75,3.75,0,0,0,2-1,6.53,6.53,0,0,0-.51,3.61,2.18,2.18,0,0,0,2.69-.27,3.65,3.65,0,0,1-2.39,2.9,3.52,3.52,0,0,0,4.43-1.55,11.32,11.32,0,0,1-3.75,6.13l4.85-3.16a43.32,43.32,0,0,1-5.33,5.51,7.22,7.22,0,0,0,5.82-2,10.28,10.28,0,0,1-4.51,5.47,4.79,4.79,0,0,0,4.8-.6,4.84,4.84,0,0,0-1.51,2.53l1.53,0a34.45,34.45,0,0,0-4.45,3.46,9.06,9.06,0,0,0,3.13.05,3.07,3.07,0,0,0,2.34-1.88,8.57,8.57,0,0,1-1.76,4.41,8,8,0,0,1,5.43-.69,4.14,4.14,0,0,0-2.87,3.29c-.16.61,2.37-.19,2.38.42,0,1-1.24,3.11-1.1,4.11.16,1.17-.91,2.65-1.06,3.81a4.17,4.17,0,0,1,2.18-2.61,12,12,0,0,1-2.72,4.85,25.43,25.43,0,0,1,5.57-3.39,12.82,12.82,0,0,1-3.62,5.92l2.68-1.13-3.67,3.69a6.75,6.75,0,0,0,3.94-1.13,48.22,48.22,0,0,1-3.42,4.41,1.29,1.29,0,0,1-.53,2.07,8.59,8.59,0,0,0,3.37-1.62q-1.89,3.8-3.74,7.63l4.18-1.34a4.12,4.12,0,0,1-2.06,4c-.52.28-1.2.61-1.15,1.2a7.37,7.37,0,0,0,4.62-1.2,9.08,9.08,0,0,1-.05,4,3.11,3.11,0,0,1-3,2.31c1,.31,2.75.48,3.46-.28a5.47,5.47,0,0,1-2.18,3.3c-1.27.89-3.15,1.56-3.2,3.11a6.47,6.47,0,0,0,2.12-.42,11.36,11.36,0,0,0-3.17,5.18c1.88-.84,1.69-1.7,3.75-1.79-1.18,2.83-2.28,13.91-17.5,13.91"/><path class="h" d="M921,240.46l.26-.62c-1.68.81-2,3.15-3.78,3.66s1.38-4.06,4-7.46a5.23,5.23,0,0,1-3.18,1.89l3-7.09a12.67,12.67,0,0,0-2.94,2.54c-.85-.71-.18-2.11.66-2.84s1.91-1.55,1.76-2.64a1,1,0,0,1-1.46.86,6.61,6.61,0,0,0,1-6.07l1-.55a7.51,7.51,0,0,0-4.59.8l3-4.89a8.67,8.67,0,0,1-2.73,2,1.14,1.14,0,0,1,1.05-1.34l-1.81-.13,3-4.84a16.88,16.88,0,0,1-4.71.44,6.38,6.38,0,0,1,1.13-2.45l-3.7-1a7.82,7.82,0,0,0,1.88-6,1.87,1.87,0,0,1-2.27,1.38l1.87-3.87c-1.22.63-3.23.22-4.5-.31a2.39,2.39,0,0,0,2.17-2.31l-3.13-.11a4.49,4.49,0,0,0,1.77-1.14,1,1,0,0,0-1-.22,3.7,3.7,0,0,0,.81-3.09c-.19,1-2,1.93-2,1.93s.64-2.14.13-1.67-1.22,1.39-1.22,1.39a.82.82,0,0,1-.46-.77,1.74,1.74,0,0,1,.39-.84,6.2,6.2,0,0,0,1-4.17,1.89,1.89,0,0,1-.3,1.18.73.73,0,0,1-1,0c-.55-.47-.92-2.82-1-4.06a.3.3,0,0,0-.37,0c-.09,1.24-.46,3.59-1,4.06a.73.73,0,0,1-1,0,1.89,1.89,0,0,1-.3-1.18,6.2,6.2,0,0,0,1,4.17,1.74,1.74,0,0,1,.39.84.82.82,0,0,1-.46.77s-.83-1-1.22-1.39.13,1.67.13,1.67-1.83-1-2-1.93a3.7,3.7,0,0,0,.81,3.09,1,1,0,0,0-1,.22,4.49,4.49,0,0,0,1.77,1.14l-3.13.11a2.39,2.39,0,0,0,2.17,2.31c-1.27.53-3.28.94-4.5.31l1.87,3.87a1.87,1.87,0,0,1-2.27-1.38,7.82,7.82,0,0,0,1.88,6l-3.7,1a6.38,6.38,0,0,1,1.13,2.45,16.88,16.88,0,0,1-4.71-.44l3,4.84-1.81.13a1.14,1.14,0,0,1,1.05,1.34,8.67,8.67,0,0,1-2.73-2l3,4.89a7.51,7.51,0,0,0-4.59-.8l1,.55a6.61,6.61,0,0,0,1,6.07,1,1,0,0,1-1.46-.86c-.15,1.1.93,1.91,1.76,2.64s1.51,2.13.66,2.84a12.67,12.67,0,0,0-2.94-2.54l3,7.09a5.23,5.23,0,0,1-3.18-1.89c2.59,3.4,5.77,8,4,7.46s-2.1-2.85-3.78-3.66l.26.62a9.82,9.82,0,0,0,2.58,9.86.77.77,0,0,0-.81.06,2,2,0,0,0-.59,1,15.62,15.62,0,0,0,5.46,4.31,6.85,6.85,0,0,1,1.91,1.11c.37.36.64.81,1,1.18.61.62,5.79.94,6.6,1.25.81-.31,6-.64,6.6-1.25.36-.37.63-.82,1-1.18a6.85,6.85,0,0,1,1.91-1.11,15.62,15.62,0,0,0,5.46-4.31,2,2,0,0,0-.59-1,.77.77,0,0,0-.81-.06A9.82,9.82,0,0,0,921,240.46Z"/><path class="h" d="M1200,178.88V293.71c-1.31-.5-9.66-1-10.65-2-.58-.59-1-1.32-1.61-1.9a10.93,10.93,0,0,0-3.07-1.79,25.2,25.2,0,0,1-8.81-7,3.16,3.16,0,0,1,.94-1.62,1.27,1.27,0,0,1,1.26-.12c-4.39-4.43-5.59-9.72-4.12-15.88l-.42-1c2.71,1.31,3.19,5.08,6.09,5.9,2.45.69-.83-4.47-4.43-9.4-.66-.9-1.33-1.79-2-2.63a8.43,8.43,0,0,0,5.13,3.06l-4.77-11.43a19.93,19.93,0,0,1,4.74,4.09c1.37-1.15.29-3.41-1.06-4.59s-3-2.45-2.84-4.17a1.61,1.61,0,0,0,2.35,1.29,10.67,10.67,0,0,1-1.67-9.79l-1.59-.89a12.14,12.14,0,0,1,7.39,1.28l-4.83-7.88a13.87,13.87,0,0,0,4.41,3.17,1.83,1.83,0,0,0-1.7-2.15l2.92-.21-4.9-7.81a27,27,0,0,0,7.6.72,10.12,10.12,0,0,0-1.82-3.95l6-1.57a12.61,12.61,0,0,1-3-9.61,3,3,0,0,0,3.66,2.22q-1.5-3.12-3-6.24c2,1,5.21.36,7.26-.49a3.86,3.86,0,0,1-3.51-3.73l5-.17a7.31,7.31,0,0,1-2.85-1.84,1.54,1.54,0,0,1,1.57-.36,6,6,0,0,1-1.3-5c.31,1.57,3.26,3.12,3.26,3.12s-1-3.46-.22-2.7c.63.58,2,2.24,2,2.24a1.31,1.31,0,0,0,.74-1.23,2.8,2.8,0,0,0-.63-1.35,10,10,0,0,1-1.59-6.74,3.11,3.11,0,0,0,.48,1.91,1.18,1.18,0,0,0,1.69,0c.89-.75,1.48-4.55,1.63-6.54A.38.38,0,0,1,1200,178.88Z"/><path class="h" d="M1042.36,250.44l.42-1c-2.71,1.31-3.2,5.08-6.09,5.9s2.22-6.54,6.4-12a8.43,8.43,0,0,1-5.13,3.05l4.77-11.43A20.43,20.43,0,0,0,1038,239c-1.37-1.15-.28-3.4,1.06-4.58s3.08-2.49,2.84-4.26a1.61,1.61,0,0,1-2.35,1.38,10.65,10.65,0,0,0,1.67-9.79l1.59-.89a12.11,12.11,0,0,0-7.4,1.28l4.83-7.88a14,14,0,0,1-4.41,3.17,1.83,1.83,0,0,1,1.7-2.15l-2.92-.21,4.9-7.81a27.21,27.21,0,0,1-7.6.72,10.28,10.28,0,0,1,1.82-4l-6-1.57a12.61,12.61,0,0,0,3-9.61,3,3,0,0,1-3.67,2.22l3-6.24c-2,1-5.2.35-7.25-.5a3.86,3.86,0,0,0,3.5-3.73l-5.05-.17a7.24,7.24,0,0,0,2.86-1.84,1.56,1.56,0,0,0-1.57-.36,6,6,0,0,0,1.3-5c-.31,1.57-3.26,3.12-3.26,3.12s1-3.46.22-2.7c-.63.59-2,2.24-2,2.24a1.32,1.32,0,0,1-.73-1.23,2.8,2.8,0,0,1,.63-1.35,10,10,0,0,0,1.59-6.73,3,3,0,0,1-.48,1.91,1.18,1.18,0,0,1-1.69,0c-.89-.75-1.48-4.55-1.63-6.54a.49.49,0,0,0-.6,0c-.15,2-.74,5.79-1.63,6.54a1.18,1.18,0,0,1-1.69,0,3,3,0,0,1-.48-1.91,10,10,0,0,0,1.59,6.73,2.8,2.8,0,0,1,.63,1.35,1.32,1.32,0,0,1-.73,1.23s-1.34-1.66-2-2.24c-.82-.76.22,2.7.22,2.7s-2.95-1.55-3.26-3.12a6,6,0,0,0,1.3,5,1.56,1.56,0,0,0-1.57.36,7.24,7.24,0,0,0,2.86,1.84l-5.05.17a3.86,3.86,0,0,0,3.5,3.73c-2,.85-5.28,1.52-7.25.5l3,6.24a3,3,0,0,1-3.67-2.22,12.61,12.61,0,0,0,3,9.61l-6,1.57a10.28,10.28,0,0,1,1.82,4,27.21,27.21,0,0,1-7.6-.72l4.9,7.81-2.92.21a1.83,1.83,0,0,1,1.7,2.15,14,14,0,0,1-4.41-3.17l4.83,7.88a12.11,12.11,0,0,0-7.4-1.28l1.59.89a10.65,10.65,0,0,0,1.67,9.79,1.61,1.61,0,0,1-2.35-1.38c-.24,1.77,1.5,3.09,2.84,4.26s2.43,3.43,1.06,4.58a20.43,20.43,0,0,0-4.74-4.09l4.77,11.43a8.43,8.43,0,0,1-5.13-3.05c4.18,5.49,9.3,12.85,6.4,12s-3.38-4.6-6.09-5.9l.42,1c-1.47,6.16-.27,11.45,4.11,15.87a1.26,1.26,0,0,0-1.25.12,3.19,3.19,0,0,0-.95,1.62A25.19,25.19,0,0,0,1001,275a11,11,0,0,1,3.08,1.79c.6.58,1,1.31,1.61,1.9,1,1,9.34,1.52,10.65,2,1.31-.5,9.66-1,10.65-2,.58-.59,1-1.32,1.61-1.9a11,11,0,0,1,3.08-1.79,25.19,25.19,0,0,0,8.81-6.95,3.19,3.19,0,0,0-.95-1.62,1.26,1.26,0,0,0-1.25-.12C1042.63,261.89,1043.83,256.59,1042.36,250.44Z"/><path class="h" d="M1084.21,272.29l.42-1c-2.71,1.31-3.2,5.08-6.09,5.9s2.22-6.54,6.4-12a8.43,8.43,0,0,1-5.13,3.05l4.77-11.43a20.43,20.43,0,0,0-4.74,4.09c-1.37-1.15-.28-3.4,1.06-4.58s3.08-2.49,2.84-4.26a1.61,1.61,0,0,1-2.35,1.38,10.65,10.65,0,0,0,1.67-9.79l1.59-.89a12.11,12.11,0,0,0-7.4,1.28l4.83-7.88a14,14,0,0,1-4.41,3.17,1.83,1.83,0,0,1,1.7-2.15l-2.92-.21,4.9-7.81a27.21,27.21,0,0,1-7.6.72,10.28,10.28,0,0,1,1.82-4l-6-1.57a12.61,12.61,0,0,0,3-9.61,3,3,0,0,1-3.67,2.22l3-6.24c-2,1-5.2.35-7.25-.5a3.86,3.86,0,0,0,3.5-3.73l-5.05-.17a7.24,7.24,0,0,0,2.86-1.84,1.56,1.56,0,0,0-1.57-.36,6,6,0,0,0,1.3-5c-.31,1.57-3.26,3.12-3.26,3.12s1-3.46.22-2.7c-.63.59-2,2.24-2,2.24a1.32,1.32,0,0,1-.73-1.23,2.8,2.8,0,0,1,.63-1.35,10,10,0,0,0,1.59-6.73,3,3,0,0,1-.48,1.91,1.18,1.18,0,0,1-1.69,0c-.89-.75-1.48-4.55-1.63-6.54a.49.49,0,0,0-.6,0c-.15,2-.74,5.79-1.63,6.54a1.18,1.18,0,0,1-1.69,0,3,3,0,0,1-.48-1.91,10,10,0,0,0,1.59,6.73,2.8,2.8,0,0,1,.63,1.35,1.32,1.32,0,0,1-.73,1.23s-1.34-1.66-2-2.24c-.82-.76.22,2.7.22,2.7s-2.95-1.55-3.26-3.12a6,6,0,0,0,1.3,5,1.56,1.56,0,0,0-1.57.36,7.24,7.24,0,0,0,2.86,1.84l-5.05.17a3.86,3.86,0,0,0,3.5,3.73c-2,.85-5.28,1.52-7.25.5l3,6.24a3,3,0,0,1-3.67-2.22,12.61,12.61,0,0,0,3,9.61l-6,1.57a10.28,10.28,0,0,1,1.82,4,27.2,27.2,0,0,1-7.6-.72l4.9,7.81-2.92.21a1.83,1.83,0,0,1,1.7,2.15,14,14,0,0,1-4.41-3.17L1039,244a12.11,12.11,0,0,0-7.4-1.28l1.59.89a10.65,10.65,0,0,0,1.67,9.79,1.61,1.61,0,0,1-2.35-1.38c-.24,1.77,1.5,3.09,2.84,4.26s2.43,3.43,1.06,4.58a20.43,20.43,0,0,0-4.74-4.09l4.77,11.43a8.43,8.43,0,0,1-5.13-3.05c4.18,5.49,9.3,12.85,6.4,12s-3.38-4.6-6.09-5.9l.42,1c-1.47,6.16-.27,11.45,4.11,15.87a1.26,1.26,0,0,0-1.25.12,3.19,3.19,0,0,0-.95,1.62,25.19,25.19,0,0,0,8.81,6.95,11,11,0,0,1,3.08,1.79c.6.58,1,1.31,1.61,1.9,1,1,9.34,1.52,10.65,2,1.31-.5,9.66-1,10.65-2,.58-.59,1-1.32,1.61-1.9a11,11,0,0,1,3.08-1.79,25.19,25.19,0,0,0,8.81-6.95,3.19,3.19,0,0,0-.95-1.62,1.26,1.26,0,0,0-1.25-.12C1084.48,283.74,1085.67,278.45,1084.21,272.29Z"/><path class="h" d="M1114,263.43l.42-1c-2.71,1.31-3.2,5.08-6.09,5.9s2.22-6.54,6.4-12a8.43,8.43,0,0,1-5.13,3.05l4.77-11.43a20.43,20.43,0,0,0-4.74,4.09c-1.37-1.15-.28-3.4,1.06-4.58s3.08-2.49,2.84-4.26a1.61,1.61,0,0,1-2.35,1.38,10.65,10.65,0,0,0,1.67-9.79l1.59-.89a12.11,12.11,0,0,0-7.39,1.28l4.83-7.88a14,14,0,0,1-4.41,3.17,1.83,1.83,0,0,1,1.7-2.15l-2.92-.21,4.9-7.81a27.2,27.2,0,0,1-7.6.72,10.28,10.28,0,0,1,1.82-4l-6-1.57a12.61,12.61,0,0,0,3-9.61,3,3,0,0,1-3.67,2.22l3-6.24c-2,1-5.2.35-7.25-.5a3.86,3.86,0,0,0,3.5-3.73l-5.05-.17a7.24,7.24,0,0,0,2.86-1.84,1.56,1.56,0,0,0-1.57-.36,6,6,0,0,0,1.3-5c-.31,1.57-3.26,3.12-3.26,3.12s1-3.46.22-2.7c-.63.59-2,2.24-2,2.24a1.32,1.32,0,0,1-.73-1.23,2.8,2.8,0,0,1,.63-1.35,10,10,0,0,0,1.59-6.73,3,3,0,0,1-.48,1.91,1.18,1.18,0,0,1-1.69,0c-.89-.75-1.48-4.55-1.63-6.54a.49.49,0,0,0-.6,0c-.15,2-.74,5.79-1.63,6.54a1.18,1.18,0,0,1-1.69,0,3,3,0,0,1-.48-1.91,10,10,0,0,0,1.59,6.73,2.8,2.8,0,0,1,.63,1.35,1.32,1.32,0,0,1-.73,1.23s-1.34-1.66-2-2.24c-.82-.76.22,2.7.22,2.7s-2.95-1.55-3.26-3.12a6,6,0,0,0,1.3,5,1.56,1.56,0,0,0-1.57.36,7.24,7.24,0,0,0,2.86,1.84l-5.05.17a3.86,3.86,0,0,0,3.5,3.73c-2,.85-5.28,1.52-7.25.5l3,6.24a3,3,0,0,1-3.67-2.22,12.61,12.61,0,0,0,3,9.61l-6,1.57a10.28,10.28,0,0,1,1.82,4,27.21,27.21,0,0,1-7.6-.72l4.9,7.81-2.92.21a1.83,1.83,0,0,1,1.7,2.15,14,14,0,0,1-4.41-3.17l4.83,7.88a12.11,12.11,0,0,0-7.4-1.28l1.59.89a10.65,10.65,0,0,0,1.67,9.79,1.61,1.61,0,0,1-2.35-1.38c-.24,1.77,1.5,3.09,2.84,4.26s2.43,3.43,1.06,4.58a20.43,20.43,0,0,0-4.74-4.09l4.77,11.43a8.43,8.43,0,0,1-5.13-3.05c4.18,5.49,9.3,12.85,6.4,12s-3.38-4.6-6.09-5.9l.42,1c-1.47,6.16-.27,11.45,4.11,15.87a1.26,1.26,0,0,0-1.25.12,3.19,3.19,0,0,0-.95,1.62,25.19,25.19,0,0,0,8.81,6.95,11,11,0,0,1,3.08,1.79c.6.58,1,1.31,1.61,1.9,1,1,9.34,1.52,10.65,2,1.31-.5,9.66-1,10.65-2,.58-.59,1-1.32,1.61-1.9a11,11,0,0,1,3.08-1.79,25.19,25.19,0,0,0,8.81-6.95,3.19,3.19,0,0,0-.95-1.62,1.26,1.26,0,0,0-1.25-.12C1114.29,274.88,1115.48,269.58,1114,263.43Z"/><path class="g" d="M1063.3,237.19c1.5.15,2.83-1.17,3.3-2.67a10.93,10.93,0,0,0,.06-4.66,7.92,7.92,0,0,1-5.12,1.39c-.05-.68.7-1.06,1.28-1.39a4.83,4.83,0,0,0,2.28-4.64l-4.64,1.55q2.05-4.42,4.14-8.82a9.37,9.37,0,0,1-3.73,1.88,1.52,1.52,0,0,0,.59-2.39,55.54,55.54,0,0,0,3.8-5.1,7.26,7.26,0,0,1-4.36,1.3l4.07-4.27-3,1.31a14.94,14.94,0,0,0,4-6.84,28,28,0,0,0-6.18,3.92,14,14,0,0,0,3-5.61,4.77,4.77,0,0,0-2.42,3c.17-1.34,1.35-3.06,1.18-4.41-.15-1.15,1.24-3.6,1.22-4.75,0-.71-2.82.22-2.64-.48.44-1.81,1.49-3.42,3.18-3.8a8.54,8.54,0,0,0-6,.8,10.14,10.14,0,0,0,2-5.1,3.44,3.44,0,0,1-2.59,2.18,9.65,9.65,0,0,1-3.47-.06,38.46,38.46,0,0,1,4.93-4l-1.7,0a5.64,5.64,0,0,1,1.67-2.93,5.13,5.13,0,0,1-5.33.7,11.79,11.79,0,0,0,5-6.32,7.82,7.82,0,0,1-6.45,2.36,49.22,49.22,0,0,0,5.91-6.37l-5.38,3.66a13.18,13.18,0,0,0,4.16-7.09,3.83,3.83,0,0,1-4.91,1.8,4.18,4.18,0,0,0,2.66-3.35,2.35,2.35,0,0,1-3,.31,7.84,7.84,0,0,1,.57-4.18,4.1,4.1,0,0,1-2.22,1.2,11,11,0,0,1,1.5-4.22,18.17,18.17,0,0,1-3.09,2.19,17.84,17.84,0,0,0-1.2-5.9,16.6,16.6,0,0,1-1.34-5.78.41.41,0,0,0-.51,0,16.6,16.6,0,0,1-1.34,5.78,17.84,17.84,0,0,0-1.2,5.9,18.16,18.16,0,0,1-3.09-2.19,11,11,0,0,1,1.5,4.22,4.1,4.1,0,0,1-2.22-1.2,7.84,7.84,0,0,1,.57,4.18,2.35,2.35,0,0,1-3-.31,4.18,4.18,0,0,0,2.66,3.35,3.83,3.83,0,0,1-4.91-1.8,13.18,13.18,0,0,0,4.16,7.09l-5.38-3.66a49.22,49.22,0,0,0,5.91,6.37,7.82,7.82,0,0,1-6.45-2.36,11.79,11.79,0,0,0,5,6.32,5.13,5.13,0,0,1-5.33-.7,5.65,5.65,0,0,1,1.67,2.93l-1.7,0a38.46,38.46,0,0,1,4.93,4,9.65,9.65,0,0,1-3.47.06,3.44,3.44,0,0,1-2.59-2.18,10.14,10.14,0,0,0,2,5.1,8.54,8.54,0,0,0-6-.8c1.69.38,2.74,2,3.18,3.8.17.71-2.63-.22-2.64.48,0,1.15,1.37,3.6,1.22,4.75-.18,1.35,1,3.06,1.18,4.41a4.77,4.77,0,0,0-2.42-3,14,14,0,0,0,3,5.61,28,28,0,0,0-6.18-3.92,14.94,14.94,0,0,0,4,6.84l-3-1.31,4.07,4.27a7.26,7.26,0,0,1-4.36-1.3,55.52,55.52,0,0,0,3.8,5.1,1.52,1.52,0,0,0,.59,2.39,9.37,9.37,0,0,1-3.73-1.88q2.09,4.4,4.14,8.82l-4.64-1.55a4.83,4.83,0,0,0,2.28,4.64c.57.33,1.33.71,1.28,1.39a7.92,7.92,0,0,1-5.12-1.39,10.93,10.93,0,0,0,.06,4.66c.46,1.49,1.8,2.81,3.3,2.67-1.11.36-3,.55-3.84-.33a6.35,6.35,0,0,0,2.42,3.81c1.41,1,3.49,1.8,3.55,3.6a6.92,6.92,0,0,1-2.36-.49,13.24,13.24,0,0,1,3.52,6c-2.09-1-1.88-2-4.16-2.07,1.31,3.27,2.53,16.08,19.41,16.08s18.1-12.81,19.41-16.08c-2.29.1-2.07,1.1-4.16,2.07a13.24,13.24,0,0,1,3.52-6,6.92,6.92,0,0,1-2.36.49c.06-1.8,2.13-2.57,3.55-3.6a6.35,6.35,0,0,0,2.42-3.81C1066.34,237.74,1064.4,237.55,1063.3,237.19Z"/><path class="g" d="M781.09,251.24a1.58,1.58,0,0,0,1.5-1.21,5,5,0,0,0,0-2.12,3.6,3.6,0,0,1-2.33.63c0-.31.32-.48.58-.63a2.2,2.2,0,0,0,1-2.11l-2.11.7q.93-2,1.88-4a4.26,4.26,0,0,1-1.7.85.69.69,0,0,0,.27-1.09,25.24,25.24,0,0,0,1.73-2.32,3.3,3.3,0,0,1-2,.59l1.85-1.94-1.35.59a6.79,6.79,0,0,0,1.82-3.11,12.75,12.75,0,0,0-2.81,1.78,6.37,6.37,0,0,0,1.37-2.55,2.17,2.17,0,0,0-1.1,1.37c.08-.61.62-1.39.54-2s.56-1.64.56-2.16c0-.32-1.28.1-1.2-.22a2.15,2.15,0,0,1,1.45-1.73,3.88,3.88,0,0,0-2.74.36,4.61,4.61,0,0,0,.89-2.32,1.57,1.57,0,0,1-1.18,1,4.39,4.39,0,0,1-1.58,0,17.49,17.49,0,0,1,2.24-1.82H778a2.57,2.57,0,0,1,.76-1.33,2.33,2.33,0,0,1-2.42.32,5.36,5.36,0,0,0,2.27-2.87,3.55,3.55,0,0,1-2.94,1.07,22.4,22.4,0,0,0,2.69-2.9l-2.45,1.66a6,6,0,0,0,1.89-3.22,1.74,1.74,0,0,1-2.23.82,1.9,1.9,0,0,0,1.21-1.52,1.07,1.07,0,0,1-1.36.14,3.57,3.57,0,0,1,.26-1.9,1.87,1.87,0,0,1-1,.54,5,5,0,0,1,.68-1.92,8.26,8.26,0,0,1-1.4,1,8.11,8.11,0,0,0-.55-2.68,7.55,7.55,0,0,1-.61-2.63.18.18,0,0,0-.23,0,7.55,7.55,0,0,1-.61,2.63,8.11,8.11,0,0,0-.55,2.68,8.26,8.26,0,0,1-1.4-1,5,5,0,0,1,.68,1.92,1.87,1.87,0,0,1-1-.54,3.57,3.57,0,0,1,.26,1.9,1.07,1.07,0,0,1-1.36-.14,1.9,1.9,0,0,0,1.21,1.52,1.74,1.74,0,0,1-2.23-.82,6,6,0,0,0,1.89,3.22L767,222a22.39,22.39,0,0,0,2.69,2.9,3.55,3.55,0,0,1-2.94-1.07,5.36,5.36,0,0,0,2.27,2.87,2.33,2.33,0,0,1-2.42-.32,2.57,2.57,0,0,1,.76,1.33h-.77a17.49,17.49,0,0,1,2.24,1.82,4.39,4.39,0,0,1-1.58,0,1.57,1.57,0,0,1-1.18-1,4.61,4.61,0,0,0,.89,2.32,3.88,3.88,0,0,0-2.74-.36,2.15,2.15,0,0,1,1.45,1.73c.08.32-1.2-.1-1.2.22,0,.52.62,1.64.56,2.16s.46,1.39.54,2a2.17,2.17,0,0,0-1.1-1.37,6.37,6.37,0,0,0,1.37,2.55,12.75,12.75,0,0,0-2.81-1.78,6.79,6.79,0,0,0,1.82,3.11l-1.35-.59,1.85,1.94a3.3,3.3,0,0,1-2-.59,25.24,25.24,0,0,0,1.73,2.32.69.69,0,0,0,.27,1.09,4.26,4.26,0,0,1-1.7-.85q1,2,1.88,4l-2.11-.7a2.2,2.2,0,0,0,1,2.11c.26.15.61.32.58.63a3.6,3.6,0,0,1-2.33-.63,5,5,0,0,0,0,2.12,1.58,1.58,0,0,0,1.5,1.21c-.5.16-1.39.25-1.74-.15a2.89,2.89,0,0,0,1.1,1.73c.64.47,1.59.82,1.61,1.64a3.15,3.15,0,0,1-1.07-.22,6,6,0,0,1,1.6,2.72c-1-.44-.85-.9-1.89-.94.6,1.49,1.15,7.31,8.83,7.31s8.23-5.83,8.83-7.31c-1,0-.94.5-1.89.94a6,6,0,0,1,1.6-2.72,3.15,3.15,0,0,1-1.07.22c0-.82,1-1.17,1.61-1.64a2.89,2.89,0,0,0,1.1-1.73C782.48,251.49,781.59,251.4,781.09,251.24Z"/><path class="g" d="M800.89,258.12a2.45,2.45,0,0,0,2.32-1.88,7.7,7.7,0,0,0,0-3.28,5.58,5.58,0,0,1-3.61,1c0-.48.5-.75.9-1a3.4,3.4,0,0,0,1.61-3.27l-3.27,1.09q1.44-3.11,2.92-6.21a6.61,6.61,0,0,1-2.63,1.32,1.07,1.07,0,0,0,.41-1.68,39.09,39.09,0,0,0,2.67-3.59,5.11,5.11,0,0,1-3.08.92l2.86-3-2.09.92a10.53,10.53,0,0,0,2.83-4.82,19.74,19.74,0,0,0-4.35,2.76,9.87,9.87,0,0,0,2.12-4,3.36,3.36,0,0,0-1.7,2.13c.12-.95,1-2.15.83-3.11s.87-2.53.86-3.34c0-.5-2,.16-1.86-.34a3.33,3.33,0,0,1,2.24-2.68,6,6,0,0,0-4.24.56,7.15,7.15,0,0,0,1.38-3.59,2.43,2.43,0,0,1-1.83,1.53,6.8,6.8,0,0,1-2.44,0,27.08,27.08,0,0,1,3.48-2.81l-1.2,0a4,4,0,0,1,1.18-2.06,3.62,3.62,0,0,1-3.75.49A8.31,8.31,0,0,0,797,215.7a5.51,5.51,0,0,1-4.55,1.66,34.68,34.68,0,0,0,4.16-4.49l-3.79,2.57a9.29,9.29,0,0,0,2.93-5,2.7,2.7,0,0,1-3.46,1.27,2.94,2.94,0,0,0,1.87-2.36,1.65,1.65,0,0,1-2.1.22,5.52,5.52,0,0,1,.4-2.94,2.89,2.89,0,0,1-1.56.84,7.77,7.77,0,0,1,1.06-3,12.79,12.79,0,0,1-2.17,1.54,12.57,12.57,0,0,0-.85-4.15,11.69,11.69,0,0,1-.94-4.07.29.29,0,0,0-.36,0,11.69,11.69,0,0,1-.94,4.07,12.57,12.57,0,0,0-.85,4.15,12.79,12.79,0,0,1-2.17-1.54,7.77,7.77,0,0,1,1.06,3,2.89,2.89,0,0,1-1.56-.84,5.52,5.52,0,0,1,.4,2.94,1.65,1.65,0,0,1-2.1-.22,2.94,2.94,0,0,0,1.87,2.36,2.7,2.7,0,0,1-3.46-1.27,9.29,9.29,0,0,0,2.93,5L779,212.88a34.68,34.68,0,0,0,4.16,4.49,5.51,5.51,0,0,1-4.55-1.66,8.31,8.31,0,0,0,3.52,4.45,3.62,3.62,0,0,1-3.75-.49,4,4,0,0,1,1.18,2.06l-1.2,0a27.08,27.08,0,0,1,3.48,2.81,6.8,6.8,0,0,1-2.44,0,2.43,2.43,0,0,1-1.83-1.53,7.15,7.15,0,0,0,1.38,3.59,6,6,0,0,0-4.24-.56,3.33,3.33,0,0,1,2.24,2.68c.12.5-1.86-.16-1.86.34,0,.81,1,2.54.86,3.34s.71,2.16.83,3.11a3.36,3.36,0,0,0-1.7-2.13,9.87,9.87,0,0,0,2.12,4,19.74,19.74,0,0,0-4.35-2.76,10.53,10.53,0,0,0,2.83,4.82l-2.09-.92,2.87,3a5.11,5.11,0,0,1-3.08-.92,39.09,39.09,0,0,0,2.67,3.59,1.07,1.07,0,0,0,.41,1.68,6.61,6.61,0,0,1-2.63-1.32q1.47,3.1,2.92,6.21l-3.27-1.09a3.4,3.4,0,0,0,1.61,3.27c.4.23.94.5.9,1a5.58,5.58,0,0,1-3.61-1,7.7,7.7,0,0,0,0,3.28,2.45,2.45,0,0,0,2.32,1.88c-.78.25-2.15.39-2.7-.23a4.47,4.47,0,0,0,1.71,2.69c1,.73,2.46,1.27,2.5,2.54a4.88,4.88,0,0,1-1.66-.34,9.33,9.33,0,0,1,2.48,4.22c-1.47-.68-1.32-1.39-2.93-1.46.92,2.3,1.78,11.33,13.68,11.33s12.75-9,13.68-11.33c-1.61.07-1.46.77-2.93,1.46a9.33,9.33,0,0,1,2.48-4.22,4.88,4.88,0,0,1-1.66.34c0-1.27,1.5-1.81,2.5-2.54a4.47,4.47,0,0,0,1.71-2.69C803,258.51,801.67,258.38,800.89,258.12Z"/><path class="g" d="M828.19,233.53a1.21,1.21,0,0,0,1.15-.93,3.82,3.82,0,0,0,0-1.63,2.77,2.77,0,0,1-1.79.49c0-.24.25-.37.45-.48a1.69,1.69,0,0,0,.8-1.62l-1.62.54q.72-1.54,1.45-3.08a3.27,3.27,0,0,1-1.3.66.53.53,0,0,0,.2-.83,19.42,19.42,0,0,0,1.33-1.78,2.54,2.54,0,0,1-1.53.45l1.42-1.49-1,.46a5.22,5.22,0,0,0,1.4-2.39,9.78,9.78,0,0,0-2.16,1.37,4.89,4.89,0,0,0,1.05-2,1.67,1.67,0,0,0-.85,1.06c.06-.47.47-1.07.41-1.54s.43-1.26.43-1.66c0-.25-1,.08-.92-.17a1.65,1.65,0,0,1,1.11-1.33,3,3,0,0,0-2.1.28,3.54,3.54,0,0,0,.68-1.78,1.2,1.2,0,0,1-.91.76,3.37,3.37,0,0,1-1.21,0,13.43,13.43,0,0,1,1.72-1.4h-.59a2,2,0,0,1,.58-1,1.79,1.79,0,0,1-1.86.24,4.12,4.12,0,0,0,1.75-2.21,2.73,2.73,0,0,1-2.26.82,17.19,17.19,0,0,0,2.06-2.23l-1.88,1.28a4.61,4.61,0,0,0,1.46-2.48,1.34,1.34,0,0,1-1.72.63,1.46,1.46,0,0,0,.93-1.17.82.82,0,0,1-1,.11A2.74,2.74,0,0,1,824,208a1.43,1.43,0,0,1-.77.42,3.86,3.86,0,0,1,.52-1.47,6.35,6.35,0,0,1-1.08.77,6.23,6.23,0,0,0-.42-2.06,5.8,5.8,0,0,1-.47-2,.14.14,0,0,0-.18,0,5.8,5.8,0,0,1-.47,2,6.23,6.23,0,0,0-.42,2.06,6.35,6.35,0,0,1-1.08-.77,3.85,3.85,0,0,1,.52,1.47,1.43,1.43,0,0,1-.77-.42,2.74,2.74,0,0,1,.2,1.46.82.82,0,0,1-1-.11,1.46,1.46,0,0,0,.93,1.17,1.34,1.34,0,0,1-1.72-.63,4.61,4.61,0,0,0,1.46,2.48l-1.88-1.28a17.19,17.19,0,0,0,2.06,2.23,2.73,2.73,0,0,1-2.26-.82,4.12,4.12,0,0,0,1.75,2.21,1.79,1.79,0,0,1-1.86-.24,2,2,0,0,1,.58,1H817a13.43,13.43,0,0,1,1.72,1.4,3.37,3.37,0,0,1-1.21,0,1.2,1.2,0,0,1-.91-.76,3.54,3.54,0,0,0,.68,1.78,3,3,0,0,0-2.1-.28,1.65,1.65,0,0,1,1.11,1.33c.06.25-.92-.08-.92.17,0,.4.48,1.26.43,1.66s.35,1.07.41,1.54a1.67,1.67,0,0,0-.85-1.06,4.89,4.89,0,0,0,1.05,2,9.79,9.79,0,0,0-2.16-1.37,5.22,5.22,0,0,0,1.4,2.39l-1-.46,1.42,1.49a2.54,2.54,0,0,1-1.53-.45,19.43,19.43,0,0,0,1.33,1.78.53.53,0,0,0,.2.83,3.27,3.27,0,0,1-1.3-.66q.73,1.54,1.45,3.08l-1.62-.54a1.69,1.69,0,0,0,.8,1.62c.2.11.47.25.45.48a2.77,2.77,0,0,1-1.79-.49,3.82,3.82,0,0,0,0,1.63,1.21,1.21,0,0,0,1.15.93c-.39.13-1.06.19-1.34-.11a2.22,2.22,0,0,0,.85,1.33c.49.36,1.22.63,1.24,1.26a2.42,2.42,0,0,1-.82-.17,4.62,4.62,0,0,1,1.23,2.09c-.73-.34-.66-.69-1.45-.72.46,1.14.88,5.62,6.78,5.62s6.32-4.48,6.78-5.62c-.8,0-.72.38-1.45.72a4.63,4.63,0,0,1,1.23-2.09,2.42,2.42,0,0,1-.82.17c0-.63.75-.9,1.24-1.26a2.22,2.22,0,0,0,.85-1.33C829.26,233.72,828.58,233.65,828.19,233.53Z"/><path class="g" d="M849.12,223.84a1.44,1.44,0,0,0,.55-.87c-.18.2-.62.16-.87.07a.79.79,0,0,0,.75-.61,2.49,2.49,0,0,0,0-1.06,1.8,1.8,0,0,1-1.16.32c0-.15.16-.24.29-.32a1.1,1.1,0,0,0,.52-1.06l-1.06.35.94-2a2.13,2.13,0,0,1-.85.43.35.35,0,0,0,.13-.54,12.6,12.6,0,0,0,.86-1.16,1.65,1.65,0,0,1-1,.3l.92-1-.68.3a3.4,3.4,0,0,0,.91-1.56,6.37,6.37,0,0,0-1.41.89,3.18,3.18,0,0,0,.68-1.28,1.09,1.09,0,0,0-.55.69c0-.31.31-.7.27-1s.28-.82.28-1.08-.64.05-.6-.11a1.07,1.07,0,0,1,.72-.86,1.94,1.94,0,0,0-1.37.18,2.31,2.31,0,0,0,.44-1.16.78.78,0,0,1-.59.5,2.19,2.19,0,0,1-.79,0,8.73,8.73,0,0,1,1.12-.91h-.39a1.28,1.28,0,0,1,.38-.67,1.17,1.17,0,0,1-1.21.16,2.68,2.68,0,0,0,1.14-1.44,1.78,1.78,0,0,1-1.47.54,11.19,11.19,0,0,0,1.34-1.45l-1.22.83a3,3,0,0,0,.95-1.61.87.87,0,0,1-1.12.41,1,1,0,0,0,.6-.76.53.53,0,0,1-.68.07,1.78,1.78,0,0,1,.13-.95.93.93,0,0,1-.5.27,2.51,2.51,0,0,1,.34-1,4.13,4.13,0,0,1-.7.5,4.06,4.06,0,0,0-.27-1.34,3.77,3.77,0,0,1-.3-1.31.09.09,0,0,0-.12,0,3.77,3.77,0,0,1-.3,1.31,4.06,4.06,0,0,0-.27,1.34,4.13,4.13,0,0,1-.7-.5,2.51,2.51,0,0,1,.34,1,.93.93,0,0,1-.5-.27,1.78,1.78,0,0,1,.13.95.53.53,0,0,1-.68-.07,1,1,0,0,0,.6.76.87.87,0,0,1-1.12-.41,3,3,0,0,0,.95,1.61l-1.22-.83a11.19,11.19,0,0,0,1.34,1.45,1.78,1.78,0,0,1-1.47-.54,2.68,2.68,0,0,0,1.14,1.44,1.17,1.17,0,0,1-1.21-.16,1.28,1.28,0,0,1,.38.67h-.39a8.74,8.74,0,0,1,1.12.91,2.19,2.19,0,0,1-.79,0,.78.78,0,0,1-.59-.5,2.31,2.31,0,0,0,.44,1.16,1.94,1.94,0,0,0-1.37-.18,1.07,1.07,0,0,1,.72.86c0,.16-.6-.05-.6.11s.31.82.28,1.08.23.7.27,1a1.09,1.09,0,0,0-.55-.69,3.18,3.18,0,0,0,.68,1.28,6.37,6.37,0,0,0-1.41-.89,3.4,3.4,0,0,0,.91,1.56l-.68-.3.92,1a1.65,1.65,0,0,1-1-.3,12.61,12.61,0,0,0,.86,1.16.35.35,0,0,0,.13.54,2.13,2.13,0,0,1-.85-.43l.94,2-1.06-.35a1.1,1.1,0,0,0,.52,1.06c.13.07.3.16.29.32a1.8,1.8,0,0,1-1.16-.32,2.49,2.49,0,0,0,0,1.06.79.79,0,0,0,.75.61c-.25.08-.69.13-.87-.07a1.44,1.44,0,0,0,.55.87c.32.23.79.41.81.82a1.57,1.57,0,0,1-.54-.11,3,3,0,0,1,.8,1.36c-.48-.22-.43-.45-.95-.47.3.74.57,3.66,4.41,3.66s4.12-2.91,4.41-3.66c-.52,0-.47.25-.95.47a3,3,0,0,1,.8-1.36,1.57,1.57,0,0,1-.54.11C848.33,224.25,848.8,224.08,849.12,223.84Z"/><path class="g" d="M938.84,243.31a2.31,2.31,0,0,0,2.2-1.78,7.29,7.29,0,0,0,0-3.1,5.28,5.28,0,0,1-3.41.93c0-.45.47-.71.85-.92a3.22,3.22,0,0,0,1.52-3.09l-3.09,1q1.37-2.94,2.76-5.87a6.24,6.24,0,0,1-2.49,1.25,1,1,0,0,0,.39-1.59,37,37,0,0,0,2.53-3.4,4.84,4.84,0,0,1-2.91.87l2.71-2.84-2,.87a10,10,0,0,0,2.67-4.56,18.68,18.68,0,0,0-4.12,2.61,9.33,9.33,0,0,0,2-3.74,3.18,3.18,0,0,0-1.61,2c.11-.9.9-2,.78-2.94s.83-2.4.82-3.16c0-.47-1.88.15-1.76-.32a3.15,3.15,0,0,1,2.12-2.53,5.69,5.69,0,0,0-4,.53,6.76,6.76,0,0,0,1.3-3.4,2.29,2.29,0,0,1-1.73,1.45,6.43,6.43,0,0,1-2.31,0,25.61,25.61,0,0,1,3.29-2.66l-1.13,0a3.76,3.76,0,0,1,1.11-2,3.42,3.42,0,0,1-3.55.47,7.86,7.86,0,0,0,3.33-4.21,5.21,5.21,0,0,1-4.3,1.57,32.82,32.82,0,0,0,3.94-4.25l-3.58,2.44a8.78,8.78,0,0,0,2.78-4.72,2.55,2.55,0,0,1-3.27,1.2,2.78,2.78,0,0,0,1.77-2.23,1.56,1.56,0,0,1-2,.21,5.23,5.23,0,0,1,.38-2.78,2.73,2.73,0,0,1-1.48.8,7.35,7.35,0,0,1,1-2.81,12.1,12.1,0,0,1-2.06,1.46,11.89,11.89,0,0,0-.8-3.93,11.06,11.06,0,0,1-.89-3.85.27.27,0,0,0-.34,0,11.06,11.06,0,0,1-.89,3.85,11.89,11.89,0,0,0-.8,3.93,12.1,12.1,0,0,1-2.06-1.46,7.35,7.35,0,0,1,1,2.81,2.73,2.73,0,0,1-1.48-.8,5.23,5.23,0,0,1,.38,2.78,1.56,1.56,0,0,1-2-.21,2.78,2.78,0,0,0,1.77,2.23,2.55,2.55,0,0,1-3.27-1.2,8.78,8.78,0,0,0,2.78,4.72l-3.58-2.44a32.82,32.82,0,0,0,3.94,4.25,5.21,5.21,0,0,1-4.3-1.57,7.86,7.86,0,0,0,3.33,4.21,3.42,3.42,0,0,1-3.55-.47,3.76,3.76,0,0,1,1.11,2l-1.13,0a25.61,25.61,0,0,1,3.29,2.66,6.43,6.43,0,0,1-2.31,0,2.29,2.29,0,0,1-1.73-1.45,6.76,6.76,0,0,0,1.3,3.4,5.69,5.69,0,0,0-4-.53,3.15,3.15,0,0,1,2.12,2.53c.12.47-1.75-.15-1.76.32,0,.77.92,2.4.82,3.16s.67,2,.78,2.94a3.18,3.18,0,0,0-1.61-2,9.33,9.33,0,0,0,2,3.74,18.68,18.68,0,0,0-4.12-2.61,10,10,0,0,0,2.67,4.56l-2-.87,2.71,2.84a4.84,4.84,0,0,1-2.91-.87,37,37,0,0,0,2.53,3.4,1,1,0,0,0,.39,1.59,6.24,6.24,0,0,1-2.49-1.25q1.39,2.93,2.76,5.87l-3.09-1a3.22,3.22,0,0,0,1.52,3.09c.38.22.89.47.85.92a5.28,5.28,0,0,1-3.41-.93,7.29,7.29,0,0,0,0,3.1,2.31,2.31,0,0,0,2.2,1.78c-.74.24-2,.37-2.56-.22a4.23,4.23,0,0,0,1.61,2.54c.94.69,2.33,1.2,2.36,2.4a4.61,4.61,0,0,1-1.57-.33,8.82,8.82,0,0,1,2.34,4c-1.39-.65-1.25-1.31-2.77-1.38.87,2.18,1.68,10.72,12.93,10.72s12.06-8.54,12.93-10.72c-1.52.06-1.38.73-2.77,1.38a8.82,8.82,0,0,1,2.34-4,4.61,4.61,0,0,1-1.57.33c0-1.2,1.42-1.71,2.36-2.4a4.23,4.23,0,0,0,1.61-2.54C940.87,243.68,939.58,243.55,938.84,243.31Z"/><path class="i" d="M1157.82,263.63l.56-1.32c-3.58,1.73-4.23,6.72-8.05,7.8s2.94-8.65,8.46-15.91a11.14,11.14,0,0,1-6.79,4l6.3-15.11a27,27,0,0,0-6.27,5.41c-1.81-1.52-.37-4.5,1.41-6.06s4.08-3.29,3.76-5.64a2.13,2.13,0,0,1-3.11,1.83,14.08,14.08,0,0,0,2.21-12.94l2.1-1.18a16,16,0,0,0-9.78,1.7l6.39-10.42a18.47,18.47,0,0,1-5.83,4.18,2.42,2.42,0,0,1,2.25-2.85l-3.86-.27,6.48-10.32a36,36,0,0,1-10,.95,13.59,13.59,0,0,1,2.41-5.23l-7.88-2.07a16.67,16.67,0,0,0,4-12.7,4,4,0,0,1-4.85,2.94l4-8.25c-2.6,1.35-6.88.46-9.59-.66a5.1,5.1,0,0,0,4.63-4.93l-6.68-.23a9.57,9.57,0,0,0,3.78-2.44,2.07,2.07,0,0,0-2.08-.48,7.89,7.89,0,0,0,1.72-6.58c-.41,2.08-4.31,4.12-4.31,4.12s1.37-4.57.29-3.57c-.84.78-2.61,3-2.61,3a1.74,1.74,0,0,1-1-1.63,3.7,3.7,0,0,1,.83-1.79,13.22,13.22,0,0,0,2.1-8.9,4,4,0,0,1-.64,2.52,1.56,1.56,0,0,1-2.23,0c-1.17-1-2-6-2.16-8.65a.65.65,0,0,0-.79,0c-.2,2.64-1,7.65-2.16,8.65a1.56,1.56,0,0,1-2.23,0,4,4,0,0,1-.64-2.52,13.22,13.22,0,0,0,2.1,8.9,3.7,3.7,0,0,1,.83,1.79,1.74,1.74,0,0,1-1,1.63s-1.77-2.19-2.61-3c-1.08-1,.29,3.57.29,3.57s-3.9-2-4.31-4.12a7.89,7.89,0,0,0,1.72,6.58,2.07,2.07,0,0,0-2.08.48,9.57,9.57,0,0,0,3.78,2.44l-6.68.23a5.1,5.1,0,0,0,4.63,4.93c-2.71,1.12-7,2-9.59.66l4,8.25a4,4,0,0,1-4.85-2.94,16.67,16.67,0,0,0,4,12.7l-7.88,2.07a13.59,13.59,0,0,1,2.41,5.23,36,36,0,0,1-10-.95l6.48,10.32-3.86.27a2.42,2.42,0,0,1,2.25,2.85,18.47,18.47,0,0,1-5.83-4.18l6.39,10.42a16,16,0,0,0-9.78-1.7l2.1,1.18a14.08,14.08,0,0,0,2.21,12.94,2.13,2.13,0,0,1-3.11-1.83c-.32,2.34,2,4.08,3.76,5.64s3.22,4.54,1.41,6.06a27,27,0,0,0-6.27-5.41l6.3,15.11a11.14,11.14,0,0,1-6.79-4c5.52,7.26,12.29,17,8.46,15.91s-4.47-6.08-8.05-7.8l.56,1.32c-1.94,8.14-.36,15.14,5.44,21a1.67,1.67,0,0,0-1.65.16,4.22,4.22,0,0,0-1.25,2.14,33.3,33.3,0,0,0,11.64,9.19,14.59,14.59,0,0,1,4.07,2.37c.79.76,1.35,1.73,2.13,2.51,1.3,1.32,12.35,2,14.08,2.67,1.73-.66,12.77-1.35,14.08-2.67.77-.78,1.34-1.75,2.13-2.51a14.59,14.59,0,0,1,4.07-2.37,33.3,33.3,0,0,0,11.64-9.19,4.22,4.22,0,0,0-1.25-2.14,1.67,1.67,0,0,0-1.65-.16C1158.19,278.77,1159.76,271.77,1157.82,263.63Z"/><path class="i" d="M728.09,253.93l.38-.9c-2.43,1.17-2.86,4.55-5.46,5.29s2-5.86,5.74-10.78a7.55,7.55,0,0,1-4.6,2.74L728.42,240a18.3,18.3,0,0,0-4.25,3.66c-1.23-1-.25-3,1-4.1s2.76-2.23,2.55-3.82a1.44,1.44,0,0,1-2.11,1.24,9.54,9.54,0,0,0,1.5-8.77l1.43-.8a10.85,10.85,0,0,0-6.62,1.15l4.33-7.06a12.51,12.51,0,0,1-3.95,2.84,1.64,1.64,0,0,1,1.52-1.93l-2.62-.18,4.39-7a24.37,24.37,0,0,1-6.81.64,9.21,9.21,0,0,1,1.63-3.54L715,211a11.29,11.29,0,0,0,2.71-8.61,2.7,2.7,0,0,1-3.28,2l2.7-5.59c-1.76.92-4.66.31-6.5-.45a3.45,3.45,0,0,0,3.14-3.34l-4.52-.15a6.48,6.48,0,0,0,2.56-1.65,1.4,1.4,0,0,0-1.41-.32,5.35,5.35,0,0,0,1.16-4.46c-.28,1.41-2.92,2.79-2.92,2.79s.93-3.1.19-2.42c-.57.53-1.77,2-1.77,2a1.18,1.18,0,0,1-.66-1.11,2.51,2.51,0,0,1,.56-1.21,9,9,0,0,0,1.42-6,2.73,2.73,0,0,1-.43,1.71,1.06,1.06,0,0,1-1.51,0c-.79-.67-1.33-4.07-1.46-5.86a.44.44,0,0,0-.53,0c-.13,1.79-.67,5.19-1.46,5.86a1.06,1.06,0,0,1-1.51,0,2.73,2.73,0,0,1-.43-1.71,9,9,0,0,0,1.42,6,2.51,2.51,0,0,1,.56,1.21,1.18,1.18,0,0,1-.66,1.11s-1.2-1.49-1.77-2c-.73-.68.19,2.42.19,2.42s-2.64-1.39-2.92-2.79a5.35,5.35,0,0,0,1.16,4.46,1.4,1.4,0,0,0-1.41.32,6.48,6.48,0,0,0,2.56,1.65l-4.52.15a3.45,3.45,0,0,0,3.14,3.34c-1.83.76-4.73,1.36-6.5.45l2.7,5.59a2.7,2.7,0,0,1-3.28-2,11.29,11.29,0,0,0,2.71,8.61l-5.34,1.41a9.21,9.21,0,0,1,1.63,3.54,24.37,24.37,0,0,1-6.81-.64l4.39,7-2.62.18a1.64,1.64,0,0,1,1.52,1.93,12.51,12.51,0,0,1-3.95-2.84l4.33,7.06a10.85,10.85,0,0,0-6.62-1.15l1.43.8a9.54,9.54,0,0,0,1.5,8.77,1.44,1.44,0,0,1-2.11-1.24c-.22,1.59,1.34,2.76,2.55,3.82s2.18,3.07,1,4.1a18.3,18.3,0,0,0-4.25-3.66l4.27,10.24a7.55,7.55,0,0,1-4.6-2.74c3.74,4.92,8.33,11.51,5.74,10.78s-3-4.12-5.46-5.29l.38.9c-1.32,5.52-.24,10.27,3.7,14.24a1.12,1.12,0,0,0-1.14.09,2.86,2.86,0,0,0-.85,1.45,22.57,22.57,0,0,0,7.89,6.23,9.88,9.88,0,0,1,2.76,1.61c.53.52.92,1.17,1.44,1.7.88.89,8.37,1.36,9.54,1.81,1.17-.45,8.66-.92,9.54-1.81.52-.53.91-1.18,1.44-1.7a9.88,9.88,0,0,1,2.76-1.61,22.57,22.57,0,0,0,7.89-6.23,2.86,2.86,0,0,0-.85-1.45,1.12,1.12,0,0,0-1.14-.09C728.33,264.2,729.41,259.45,728.09,253.93Z"/><path class="i" d="M766.08,272.34l.38-.9c-2.43,1.17-2.86,4.55-5.46,5.29s2-5.86,5.74-10.78a7.55,7.55,0,0,1-4.6,2.74l4.27-10.24a18.3,18.3,0,0,0-4.25,3.66c-1.23-1-.25-3,1-4.1s2.76-2.23,2.55-3.82a1.44,1.44,0,0,1-2.11,1.24,9.54,9.54,0,0,0,1.5-8.77l1.43-.8a10.85,10.85,0,0,0-6.62,1.15l4.33-7.06a12.52,12.52,0,0,1-3.95,2.84,1.64,1.64,0,0,1,1.52-1.93l-2.62-.18,4.39-7a24.37,24.37,0,0,1-6.81.64,9.21,9.21,0,0,1,1.63-3.54L753,229.38a11.29,11.29,0,0,0,2.71-8.61,2.7,2.7,0,0,1-3.28,2l2.7-5.59c-1.76.92-4.66.31-6.5-.45a3.45,3.45,0,0,0,3.14-3.34l-4.52-.15a6.48,6.48,0,0,0,2.56-1.65,1.4,1.4,0,0,0-1.41-.32,5.35,5.35,0,0,0,1.16-4.46c-.28,1.41-2.92,2.79-2.92,2.79s.93-3.1.19-2.42c-.57.53-1.77,2-1.77,2a1.18,1.18,0,0,1-.66-1.11,2.51,2.51,0,0,1,.56-1.21,9,9,0,0,0,1.42-6,2.73,2.73,0,0,1-.43,1.71,1.06,1.06,0,0,1-1.51,0c-.79-.67-1.33-4.07-1.46-5.86a.44.44,0,0,0-.53,0c-.13,1.79-.67,5.19-1.46,5.86a1.06,1.06,0,0,1-1.51,0,2.73,2.73,0,0,1-.43-1.71,9,9,0,0,0,1.42,6,2.51,2.51,0,0,1,.56,1.21,1.18,1.18,0,0,1-.66,1.11s-1.2-1.49-1.77-2c-.73-.68.19,2.42.19,2.42s-2.64-1.39-2.92-2.79a5.35,5.35,0,0,0,1.16,4.46,1.4,1.4,0,0,0-1.41.32,6.48,6.48,0,0,0,2.56,1.65l-4.52.15a3.45,3.45,0,0,0,3.14,3.34c-1.83.76-4.73,1.36-6.5.45l2.7,5.59a2.7,2.7,0,0,1-3.28-2,11.29,11.29,0,0,0,2.71,8.61l-5.34,1.41a9.21,9.21,0,0,1,1.63,3.54,24.37,24.37,0,0,1-6.81-.64l4.39,7-2.62.18a1.64,1.64,0,0,1,1.52,1.93A12.52,12.52,0,0,1,721.3,240l4.33,7.06a10.85,10.85,0,0,0-6.62-1.15l1.43.8a9.54,9.54,0,0,0,1.5,8.77,1.44,1.44,0,0,1-2.11-1.24c-.22,1.59,1.34,2.76,2.55,3.82s2.18,3.07,1,4.1a18.3,18.3,0,0,0-4.25-3.66l4.27,10.24a7.55,7.55,0,0,1-4.6-2.74c3.74,4.92,8.33,11.51,5.74,10.78s-3-4.12-5.46-5.29l.38.9c-1.32,5.52-.24,10.27,3.7,14.24a1.12,1.12,0,0,0-1.14.09,2.86,2.86,0,0,0-.85,1.45,22.57,22.57,0,0,0,7.89,6.23,9.88,9.88,0,0,1,2.76,1.61c.53.52.92,1.17,1.44,1.7.88.89,8.37,1.36,9.54,1.81,1.17-.45,8.66-.92,9.54-1.81.52-.53.91-1.18,1.44-1.7a9.88,9.88,0,0,1,2.76-1.61,22.57,22.57,0,0,0,7.89-6.23,2.86,2.86,0,0,0-.85-1.45,1.12,1.12,0,0,0-1.14-.09C766.33,282.62,767.4,277.86,766.08,272.34Z"/><path class="i" d="M976.09,246l.35-.82c-2.23,1.08-2.63,4.18-5,4.86s1.83-5.38,5.27-9.9a6.94,6.94,0,0,1-4.22,2.51l3.92-9.4a16.81,16.81,0,0,0-3.9,3.36c-1.13-.95-.23-2.8.87-3.77s2.54-2.05,2.34-3.51a1.32,1.32,0,0,1-1.94,1.14,8.76,8.76,0,0,0,1.38-8.05l1.31-.74a10,10,0,0,0-6.08,1.06l4-6.48a11.5,11.5,0,0,1-3.63,2.6,1.51,1.51,0,0,1,1.4-1.77l-2.4-.17,4-6.43a22.38,22.38,0,0,1-6.25.59,8.46,8.46,0,0,1,1.5-3.25l-4.91-1.29a10.37,10.37,0,0,0,2.49-7.9,2.48,2.48,0,0,1-3,1.83l2.48-5.13c-1.62.84-4.28.29-6-.41a3.17,3.17,0,0,0,2.88-3.07l-4.16-.14a6,6,0,0,0,2.35-1.52,1.29,1.29,0,0,0-1.3-.3,4.91,4.91,0,0,0,1.07-4.1c-.25,1.29-2.68,2.57-2.68,2.57s.85-2.84.18-2.22c-.52.48-1.62,1.85-1.62,1.85a1.08,1.08,0,0,1-.6-1,2.31,2.31,0,0,1,.51-1.11,8.23,8.23,0,0,0,1.31-5.54,2.51,2.51,0,0,1-.4,1.57,1,1,0,0,1-1.39,0c-.73-.62-1.22-3.74-1.34-5.38a.4.4,0,0,0-.49,0c-.12,1.64-.61,4.76-1.34,5.38a1,1,0,0,1-1.39,0,2.51,2.51,0,0,1-.4-1.57,8.23,8.23,0,0,0,1.31,5.54,2.31,2.31,0,0,1,.51,1.11,1.08,1.08,0,0,1-.6,1s-1.1-1.36-1.62-1.85c-.67-.62.18,2.22.18,2.22s-2.43-1.27-2.68-2.57a4.91,4.91,0,0,0,1.07,4.1,1.29,1.29,0,0,0-1.3.3,6,6,0,0,0,2.35,1.52l-4.16.14a3.17,3.17,0,0,0,2.88,3.07c-1.69.7-4.35,1.25-6,.41l2.48,5.13a2.48,2.48,0,0,1-3-1.83,10.37,10.37,0,0,0,2.49,7.9l-4.91,1.29a8.46,8.46,0,0,1,1.5,3.25,22.38,22.38,0,0,1-6.25-.59l4,6.43-2.4.17a1.51,1.51,0,0,1,1.4,1.77,11.5,11.5,0,0,1-3.63-2.6l4,6.48a10,10,0,0,0-6.08-1.06l1.31.74a8.76,8.76,0,0,0,1.38,8.05,1.32,1.32,0,0,1-1.94-1.14c-.2,1.46,1.23,2.54,2.34,3.51s2,2.82.87,3.77a16.81,16.81,0,0,0-3.9-3.36l3.92,9.4a6.94,6.94,0,0,1-4.22-2.51c3.44,4.52,7.65,10.58,5.27,9.9s-2.78-3.78-5-4.86l.35.82C932,251,933,255.4,936.61,259a1,1,0,0,0-1,.09,2.63,2.63,0,0,0-.78,1.33,20.73,20.73,0,0,0,7.25,5.72,9.08,9.08,0,0,1,2.53,1.48c.49.47.84,1.08,1.32,1.56.81.82,7.68,1.25,8.76,1.66,1.08-.41,8-.84,8.76-1.66.48-.49.83-1.09,1.32-1.56a9.08,9.08,0,0,1,2.53-1.48,20.73,20.73,0,0,0,7.25-5.72,2.63,2.63,0,0,0-.78-1.33,1,1,0,0,0-1-.09C976.31,255.4,977.3,251,976.09,246Z"/><path class="i" d="M816.93,227.49l.14-.46c-.92.6-1.08,2.34-2.06,2.72s.75-3,2.17-5.54a2.85,2.85,0,0,1-1.74,1.41l1.61-5.26a8.08,8.08,0,0,0-1.61,1.88c-.46-.53-.1-1.57.36-2.11a2.75,2.75,0,0,0,1-2c0,.52-.48.92-.8.64a6.37,6.37,0,0,0,.57-4.51l.54-.41a3.19,3.19,0,0,0-2.5.59l1.64-3.63a5.1,5.1,0,0,1-1.49,1.46c-.08-.47.22-1,.58-1l-1-.09,1.66-3.6a6.87,6.87,0,0,1-2.57.33,5.66,5.66,0,0,1,.62-1.82l-2-.72a7.28,7.28,0,0,0,1-4.42c-.1.73-.72,1.24-1.24,1l1-2.87a2.53,2.53,0,0,1-2.46-.23c.64,0,1.19-.85,1.19-1.72l-1.71-.08a2.52,2.52,0,0,0,1-.85.43.43,0,0,0-.53-.17,3.5,3.5,0,0,0,.44-2.29c-.1.72-1.1,1.44-1.1,1.44s.35-1.59.07-1.24-.67,1-.67,1a.63.63,0,0,1-.25-.57,1.54,1.54,0,0,1,.21-.62,6,6,0,0,0,.54-3.1,1.81,1.81,0,0,1-.16.88c-.14.24-.4.2-.57,0a8.89,8.89,0,0,1-.55-3,.13.13,0,0,0-.2,0,8.89,8.89,0,0,1-.55,3c-.17.2-.43.24-.57,0a1.81,1.81,0,0,1-.16-.88,6,6,0,0,0,.54,3.1,1.54,1.54,0,0,1,.21.62.63.63,0,0,1-.25.57s-.45-.76-.67-1,.07,1.24.07,1.24-1-.71-1.1-1.44a3.5,3.5,0,0,0,.44,2.29.43.43,0,0,0-.53.17,2.52,2.52,0,0,0,1,.85l-1.71.08c0,.87.55,1.67,1.19,1.72a2.53,2.53,0,0,1-2.46.23l1,2.87c-.52.21-1.14-.3-1.24-1a7.28,7.28,0,0,0,1,4.42l-2,.72a5.66,5.66,0,0,1,.62,1.82,6.87,6.87,0,0,1-2.57-.33l1.66,3.6-1,.09c.36,0,.66.52.58,1a5.1,5.1,0,0,1-1.49-1.46l1.64,3.63a3.19,3.19,0,0,0-2.5-.59l.54.41a6.37,6.37,0,0,0,.57,4.51c-.32.28-.82-.12-.8-.64a2.75,2.75,0,0,0,1,2c.46.54.82,1.58.36,2.11a8.09,8.09,0,0,0-1.61-1.88l1.61,5.26A2.85,2.85,0,0,1,799,224.2c1.41,2.53,3.15,5.92,2.17,5.54s-1.14-2.12-2.06-2.72l.14.46a9.17,9.17,0,0,0,1.41,7.32.33.33,0,0,0-.44,0,1.64,1.64,0,0,0-.32.75,9.57,9.57,0,0,0,3,3.2,3.69,3.69,0,0,1,1,.83c.2.27.35.6.54.87.33.46,3.16.7,3.6.93.44-.23,3.27-.47,3.6-.93.2-.27.34-.61.54-.87a3.69,3.69,0,0,1,1-.83,9.57,9.57,0,0,0,3-3.2,1.64,1.64,0,0,0-.32-.75.33.33,0,0,0-.44,0A9.17,9.17,0,0,0,816.93,227.49Z"/><path class="i" d="M844.12,227.49l.14-.46c-.92.6-1.08,2.34-2.06,2.72s.75-3,2.17-5.54a2.85,2.85,0,0,1-1.74,1.41l1.61-5.26a8.09,8.09,0,0,0-1.61,1.88c-.46-.53-.1-1.57.36-2.11a2.75,2.75,0,0,0,1-2c0,.52-.48.92-.8.64a6.37,6.37,0,0,0,.57-4.51l.54-.41a3.19,3.19,0,0,0-2.5.59l1.64-3.63a5.1,5.1,0,0,1-1.49,1.46c-.08-.47.22-1,.58-1l-1-.09,1.66-3.6a6.87,6.87,0,0,1-2.57.33,5.65,5.65,0,0,1,.62-1.82l-2-.72a7.28,7.28,0,0,0,1-4.42c-.1.73-.72,1.24-1.24,1l1-2.87a2.53,2.53,0,0,1-2.46-.23c.64,0,1.19-.85,1.19-1.72L837,197.1a2.52,2.52,0,0,0,1-.85.43.43,0,0,0-.53-.17,3.5,3.5,0,0,0,.44-2.29c-.1.72-1.1,1.44-1.1,1.44s.35-1.59.07-1.24-.67,1-.67,1a.63.63,0,0,1-.25-.57,1.53,1.53,0,0,1,.21-.62,6,6,0,0,0,.54-3.1,1.81,1.81,0,0,1-.16.88c-.14.24-.4.2-.57,0a8.89,8.89,0,0,1-.55-3,.13.13,0,0,0-.2,0,8.89,8.89,0,0,1-.55,3c-.17.2-.43.24-.57,0a1.81,1.81,0,0,1-.16-.88,6,6,0,0,0,.54,3.1,1.54,1.54,0,0,1,.21.62.63.63,0,0,1-.25.57s-.45-.76-.67-1,.07,1.24.07,1.24-1-.71-1.1-1.44a3.5,3.5,0,0,0,.44,2.29.43.43,0,0,0-.53.17,2.52,2.52,0,0,0,1,.85l-1.71.08c0,.87.55,1.67,1.19,1.72a2.53,2.53,0,0,1-2.46.23l1,2.87c-.52.21-1.14-.3-1.24-1a7.28,7.28,0,0,0,1,4.42l-2,.72a5.65,5.65,0,0,1,.62,1.82,6.87,6.87,0,0,1-2.57-.33l1.66,3.6-1,.09c.36,0,.66.52.58,1a5.1,5.1,0,0,1-1.49-1.46l1.64,3.63a3.18,3.18,0,0,0-2.5-.59l.54.41a6.37,6.37,0,0,0,.57,4.51c-.32.28-.82-.12-.8-.64a2.75,2.75,0,0,0,1,2c.46.54.82,1.58.36,2.11a8.09,8.09,0,0,0-1.61-1.88l1.61,5.26a2.85,2.85,0,0,1-1.74-1.41c1.41,2.53,3.15,5.92,2.17,5.54s-1.14-2.12-2.06-2.72l.14.46a9.17,9.17,0,0,0,1.41,7.32.33.33,0,0,0-.44,0,1.64,1.64,0,0,0-.32.75,9.57,9.57,0,0,0,3,3.2,3.69,3.69,0,0,1,1,.83c.2.27.35.6.54.87.33.46,3.16.7,3.6.93.44-.23,3.27-.47,3.6-.93.2-.27.34-.61.54-.87a3.69,3.69,0,0,1,1-.83,9.57,9.57,0,0,0,3-3.2,1.64,1.64,0,0,0-.32-.75.33.33,0,0,0-.44,0A9.17,9.17,0,0,0,844.12,227.49Z"/><path class="i" d="M896.91,251.95l.35-.82c-2.23,1.08-2.63,4.18-5,4.86s1.83-5.38,5.27-9.9a6.94,6.94,0,0,1-4.22,2.51l3.92-9.4a16.81,16.81,0,0,0-3.9,3.36c-1.13-.95-.23-2.8.87-3.77s2.54-2.05,2.34-3.51a1.32,1.32,0,0,1-1.94,1.14,8.76,8.76,0,0,0,1.38-8.06l1.31-.74a10,10,0,0,0-6.08,1.06l4-6.48a11.5,11.5,0,0,1-3.63,2.6,1.51,1.51,0,0,1,1.4-1.77l-2.4-.17,4-6.43a22.38,22.38,0,0,1-6.25.59,8.46,8.46,0,0,1,1.5-3.25l-4.91-1.29a10.37,10.37,0,0,0,2.49-7.9,2.48,2.48,0,0,1-3,1.83l2.48-5.13c-1.62.84-4.28.29-6-.41a3.17,3.17,0,0,0,2.88-3.07l-4.16-.14a6,6,0,0,0,2.35-1.52,1.29,1.29,0,0,0-1.3-.3,4.91,4.91,0,0,0,1.07-4.1c-.25,1.29-2.68,2.57-2.68,2.57s.85-2.84.18-2.22c-.52.48-1.62,1.85-1.62,1.85a1.08,1.08,0,0,1-.6-1,2.31,2.31,0,0,1,.51-1.11,8.23,8.23,0,0,0,1.31-5.54,2.51,2.51,0,0,1-.4,1.57,1,1,0,0,1-1.39,0c-.73-.62-1.22-3.74-1.34-5.38a.4.4,0,0,0-.49,0c-.12,1.64-.61,4.76-1.34,5.38a1,1,0,0,1-1.39,0,2.51,2.51,0,0,1-.4-1.57,8.23,8.23,0,0,0,1.31,5.54,2.3,2.3,0,0,1,.51,1.11,1.08,1.08,0,0,1-.6,1s-1.1-1.36-1.62-1.85c-.67-.62.18,2.22.18,2.22s-2.43-1.27-2.68-2.57a4.91,4.91,0,0,0,1.07,4.1,1.29,1.29,0,0,0-1.3.3,6,6,0,0,0,2.35,1.52l-4.16.14a3.17,3.17,0,0,0,2.88,3.07c-1.69.7-4.35,1.25-6,.41l2.48,5.13a2.48,2.48,0,0,1-3-1.83,10.37,10.37,0,0,0,2.49,7.9l-4.91,1.29a8.46,8.46,0,0,1,1.5,3.25,22.38,22.38,0,0,1-6.25-.59l4,6.43L858,223a1.51,1.51,0,0,1,1.4,1.77,11.5,11.5,0,0,1-3.63-2.6l4,6.48a10,10,0,0,0-6.08-1.06l1.31.74a8.76,8.76,0,0,0,1.38,8.06,1.32,1.32,0,0,1-1.94-1.14c-.2,1.46,1.23,2.54,2.34,3.51s2,2.82.87,3.77a16.81,16.81,0,0,0-3.9-3.36l3.92,9.4a6.94,6.94,0,0,1-4.22-2.51c3.44,4.52,7.65,10.58,5.27,9.9s-2.78-3.78-5-4.86l.35.82c-1.21,5.07-.22,9.44,3.4,13.08a1,1,0,0,0-1,.09,2.63,2.63,0,0,0-.78,1.33,20.73,20.73,0,0,0,7.25,5.72,9.08,9.08,0,0,1,2.53,1.48c.49.47.84,1.08,1.32,1.56.81.82,7.68,1.25,8.76,1.66,1.08-.41,8-.84,8.76-1.66.48-.49.83-1.09,1.32-1.56a9.08,9.08,0,0,1,2.53-1.48,20.73,20.73,0,0,0,7.25-5.72,2.63,2.63,0,0,0-.78-1.33,1,1,0,0,0-1-.09C897.13,261.39,898.12,257,896.91,251.95Z"/><g class="j"><path class="g" d="M577.42,110.65a.75.75,0,0,0-.55.19c-.28,3.71-1.38,10.76-3,12.16a2.19,2.19,0,0,1-3.14,0,5.67,5.67,0,0,1-.9-3.54,18.59,18.59,0,0,0,3,12.51,5.21,5.21,0,0,1,1.16,2.51,2.45,2.45,0,0,1-1.37,2.3s-2.49-3.08-3.66-4.17c-1.52-1.4.4,5,.4,5s-5.48-2.88-6.06-5.8a11.1,11.1,0,0,0,2.42,9.25,2.91,2.91,0,0,0-2.93.67,13.45,13.45,0,0,0,5.31,3.42l-9.39.32a7.17,7.17,0,0,0,6.51,6.93c-3.81,1.58-9.82,2.83-13.48.93l5.61,11.59a5.6,5.6,0,0,1-6.81-4.13,23.43,23.43,0,0,0,5.63,17.85L545,181.57a19.11,19.11,0,0,1,3.38,7.35,50.57,50.57,0,0,1-14.12-1.33l9.11,14.51-5.43.38a3.41,3.41,0,0,1,3.16,4,26,26,0,0,1-8.19-5.88l9,14.65a22.51,22.51,0,0,0-13.74-2.39l3,1.66a19.8,19.8,0,0,0,3.11,18.19,3,3,0,0,1-4.37-2.57c-.45,3.29,2.78,5.74,5.28,7.93s4.52,6.38,2,8.51a38,38,0,0,0-8.81-7.6l8.86,21.24a15.67,15.67,0,0,1-9.54-5.68c7.77,10.2,17.28,23.89,11.9,22.36s-6.28-8.54-11.32-11l.78,1.86c-2.81,11.77-.4,21.87,8.36,30.22-.46-1.09-2.09-1.19-3-.49a5.93,5.93,0,0,0-1.76,3,46.82,46.82,0,0,0,16.37,12.92c2,.95,4.13,1.79,5.72,3.33,1.11,1.07,1.9,2.43,3,3.53,1.83,1.85,17.36,2.83,19.79,3.76"/><path class="g" d="M577.42,110.65a.75.75,0,0,1,.55.19c.28,3.71,1.38,10.76,3,12.16a2.19,2.19,0,0,0,3.14,0,5.67,5.67,0,0,0,.9-3.54,18.59,18.59,0,0,1-3,12.51,5.21,5.21,0,0,0-1.16,2.51,2.45,2.45,0,0,0,1.37,2.3s2.49-3.08,3.66-4.17c1.52-1.4-.4,5-.4,5s5.48-2.88,6.06-5.8a11.1,11.1,0,0,1-2.42,9.25,2.91,2.91,0,0,1,2.93.67,13.45,13.45,0,0,1-5.31,3.42l9.39.32a7.17,7.17,0,0,1-6.51,6.93c3.81,1.58,9.82,2.83,13.48.93l-5.61,11.59a5.6,5.6,0,0,0,6.81-4.13,23.43,23.43,0,0,1-5.63,17.85l11.08,2.92a19.11,19.11,0,0,0-3.38,7.35,50.57,50.57,0,0,0,14.12-1.33l-9.11,14.51,5.43.38a3.41,3.41,0,0,0-3.16,4,26,26,0,0,0,8.19-5.88l-9,14.65a22.51,22.51,0,0,1,13.74-2.39l-3,1.66a19.8,19.8,0,0,1-3.11,18.19,3,3,0,0,0,4.37-2.57c.45,3.29-2.78,5.74-5.28,7.93s-4.52,6.38-2,8.51a38,38,0,0,1,8.81-7.6l-8.86,21.24a15.67,15.67,0,0,0,9.54-5.68c-7.77,10.2-17.28,23.89-11.9,22.36s6.28-8.54,11.32-11l-.78,1.86c2.81,11.77.4,21.87-8.36,30.22.46-1.09,2.09-1.19,3-.49a5.93,5.93,0,0,1,1.76,3,46.82,46.82,0,0,1-16.37,12.92c-2,.95-4.13,1.79-5.72,3.33-1.11,1.07-1.9,2.43-3,3.53-1.83,1.85-17.36,2.83-19.79,3.76"/><path class="i" d="M657.61,212.78l.4-.94c-2.54,1.23-3,4.77-5.72,5.54s2.09-6.14,6-11.29a7.91,7.91,0,0,1-4.82,2.87L658,198.23a19.17,19.17,0,0,0-4.45,3.84c-1.29-1.08-.27-3.19,1-4.3s2.9-2.34,2.67-4a1.51,1.51,0,0,1-2.21,1.3,10,10,0,0,0,1.57-9.19L658,185a11.37,11.37,0,0,0-6.94,1.21l4.53-7.4a13.1,13.1,0,0,1-4.14,3,1.72,1.72,0,0,1,1.59-2l-2.74-.19,4.6-7.33a25.54,25.54,0,0,1-7.13.67,9.65,9.65,0,0,1,1.71-3.71l-5.6-1.47a11.83,11.83,0,0,0,2.84-9,2.83,2.83,0,0,1-3.44,2.08l2.83-5.85c-1.85,1-4.88.33-6.81-.47a3.62,3.62,0,0,0,3.29-3.5l-4.74-.16a6.79,6.79,0,0,0,2.68-1.73,1.47,1.47,0,0,0-1.48-.34,5.6,5.6,0,0,0,1.22-4.67c-.29,1.48-3.06,2.93-3.06,2.93s1-3.24.2-2.53c-.59.55-1.85,2.11-1.85,2.11a1.24,1.24,0,0,1-.69-1.16,2.63,2.63,0,0,1,.59-1.27,9.39,9.39,0,0,0,1.49-6.32,2.86,2.86,0,0,1-.45,1.79,1.11,1.11,0,0,1-1.58,0c-.83-.71-1.39-4.27-1.53-6.14a.46.46,0,0,0-.56,0c-.14,1.87-.7,5.43-1.53,6.14a1.11,1.11,0,0,1-1.58,0,2.86,2.86,0,0,1-.45-1.79,9.39,9.39,0,0,0,1.49,6.32,2.63,2.63,0,0,1,.59,1.27,1.24,1.24,0,0,1-.69,1.16s-1.26-1.56-1.85-2.11c-.77-.71.2,2.53.2,2.53s-2.77-1.45-3.06-2.93a5.6,5.6,0,0,0,1.22,4.67,1.47,1.47,0,0,0-1.48.34,6.79,6.79,0,0,0,2.68,1.73l-4.74.16a3.62,3.62,0,0,0,3.29,3.5c-1.92.8-5,1.43-6.81.47l2.83,5.85a2.83,2.83,0,0,1-3.44-2.08,11.83,11.83,0,0,0,2.84,9l-5.6,1.47a9.65,9.65,0,0,1,1.71,3.71,25.54,25.54,0,0,1-7.13-.67l4.6,7.33-2.74.19a1.72,1.72,0,0,1,1.59,2,13.1,13.1,0,0,1-4.14-3l4.53,7.4a11.37,11.37,0,0,0-6.94-1.21l1.49.84a10,10,0,0,0,1.57,9.19,1.51,1.51,0,0,1-2.21-1.3c-.23,1.66,1.4,2.9,2.67,4s2.28,3.22,1,4.3a19.17,19.17,0,0,0-4.45-3.84L612.83,209a7.91,7.91,0,0,1-4.82-2.87c3.92,5.15,8.73,12.06,6,11.29s-3.17-4.31-5.72-5.54l.4.94c-1.38,5.79-.25,10.76,3.88,14.92a1.17,1.17,0,0,0-1.19.1,3,3,0,0,0-.89,1.52,23.64,23.64,0,0,0,8.27,6.52,10.36,10.36,0,0,1,2.89,1.68c.56.54,1,1.23,1.51,1.78.92.93,8.76,1.43,10,1.9,1.23-.47,9.07-1,10-1.9.55-.55.95-1.24,1.51-1.78a10.36,10.36,0,0,1,2.89-1.68,23.64,23.64,0,0,0,8.27-6.52,3,3,0,0,0-.89-1.52,1.17,1.17,0,0,0-1.19-.1C657.87,223.54,659,218.56,657.61,212.78Z"/></g><path class="k" d="M1192.81,271.7a70.87,70.87,0,0,1,7.19-5V376.81H84.19s13.65-36.36,29.73-36.36,10.15-18,28.77-18,7.61-8.68,22.56-8.68,9.87,7.12,20.59,7.12,17.21-17.59,32.72-17.59c15.36,0,15.79-10.7,15.79-10.9.13-3.87,15.24-7.52,17.62-8,7.2-1.41,11.66.28,18.15,1.43,7.53,1.34,12.43-3.35,19.16-6.17a23,23,0,0,1,27,7.9,29.89,29.89,0,0,1,50.23,3A54.93,54.93,0,0,1,394,276c5.31-1.05,10.92-1.29,16,.46s9.49,5.41,14.17,8.27c7,4.26,15.18,6.84,23.33,6.15,4.49-.38,8.85-1.73,13.34-2.11,11.61-1,21.81,4.59,31.31,10.53,5.35,3.34,6.64,4.7,12.23,1.63,5.35-2.94,10.15-8.89,14.79-12.87,16-13.73,32.63-26.82,50.38-38.21,21.46-13.77,45.91-26.49,71.86-28,32.64-1.92,51.75,19.36,79.57,30.89a43.12,43.12,0,0,0,16.5,3.63c49.42,0,76.5-32.25,111.79-32.25S914.65,261,939,261s35.48-31.34,71.56-31.34,49.74,23.5,81.9,23.5,49.41,16.72,49.41,16.72,14.12-11.15,29.81-11.15a25,25,0,0,1,3.54.24A23,23,0,0,1,1192.81,271.7Z"/><path class="l" d="M1200,323.5v53.31H799.4s60.23-83.1,149-83.1S1103.33,324,1179.83,324C1186.42,324,1193.17,323.82,1200,323.5Z"/><path class="l" d="M243.53,376.8s60.24-83.1,149-83.1c186.69,0,405.21,83.1,405.21,83.1Z"/><g class="m"><path class="n" d="M243,249.3a.27.27,0,0,0-.19.07c-.1,1.31-.49,3.79-1.07,4.28a.77.77,0,0,1-1.1,0,2,2,0,0,1-.32-1.25,6.55,6.55,0,0,0,1,4.41,1.83,1.83,0,0,1,.41.88.86.86,0,0,1-.48.81s-.88-1.09-1.29-1.47.14,1.77.14,1.77-1.93-1-2.13-2a3.91,3.91,0,0,0,.85,3.26,1,1,0,0,0-1,.24,4.74,4.74,0,0,0,1.87,1.21l-3.31.11a2.53,2.53,0,0,0,2.3,2.44c-1.34.56-3.46,1-4.75.33l2,4.09a2,2,0,0,1-2.4-1.46,8.26,8.26,0,0,0,2,6.29l-3.91,1a6.73,6.73,0,0,1,1.19,2.59,17.82,17.82,0,0,1-5-.47l3.21,5.11-1.91.13a1.2,1.2,0,0,1,1.11,1.41,9.15,9.15,0,0,1-2.89-2.07l3.16,5.16a7.93,7.93,0,0,0-4.84-.84l1,.59a7,7,0,0,0,1.1,6.41,1.05,1.05,0,0,1-1.54-.91c-.16,1.16,1,2,1.86,2.79s1.59,2.25.7,3a13.38,13.38,0,0,0-3.11-2.68l3.12,7.49a5.52,5.52,0,0,1-3.36-2c2.74,3.6,6.09,8.42,4.19,7.88s-2.21-3-4-3.87l.28.66c-1,4.15-.14,7.71,2.95,10.65a.72.72,0,0,0-1.07-.17,2.09,2.09,0,0,0-.62,1.06,16.5,16.5,0,0,0,5.77,4.55,7.22,7.22,0,0,1,2,1.17c.39.38.67.86,1.05,1.24.64.65,6.12,1,7,1.32"/><path class="n" d="M243,249.3a.27.27,0,0,1,.19.07c.1,1.31.49,3.79,1.07,4.28a.77.77,0,0,0,1.1,0,2,2,0,0,0,.32-1.25,6.55,6.55,0,0,1-1,4.41,1.83,1.83,0,0,0-.41.88.86.86,0,0,0,.48.81s.88-1.09,1.29-1.47-.14,1.77-.14,1.77,1.93-1,2.13-2a3.91,3.91,0,0,1-.85,3.26,1,1,0,0,1,1,.24,4.74,4.74,0,0,1-1.87,1.21l3.31.11a2.53,2.53,0,0,1-2.3,2.44c1.34.56,3.46,1,4.75.33l-2,4.09a2,2,0,0,0,2.4-1.46,8.26,8.26,0,0,1-2,6.29l3.91,1a6.73,6.73,0,0,0-1.19,2.59,17.82,17.82,0,0,0,5-.47L255,281.53l1.91.13a1.2,1.2,0,0,0-1.11,1.41,9.15,9.15,0,0,0,2.89-2.07l-3.16,5.16a7.93,7.93,0,0,1,4.84-.84l-1,.59a7,7,0,0,1-1.1,6.41,1.05,1.05,0,0,0,1.54-.91c.16,1.16-1,2-1.86,2.79s-1.59,2.25-.7,3a13.38,13.38,0,0,1,3.11-2.68L257.23,302a5.52,5.52,0,0,0,3.36-2c-2.74,3.6-6.09,8.42-4.19,7.88s2.21-3,4-3.87l-.28.66c1,4.15.14,7.71-2.95,10.65a.72.72,0,0,1,1.07-.17,2.09,2.09,0,0,1,.62,1.06,16.5,16.5,0,0,1-5.77,4.55,7.22,7.22,0,0,0-2,1.17c-.39.38-.67.86-1.05,1.24-.64.65-6.12,1-7,1.32"/><path class="n" d="M150.64,287.47l.19-.44c-1.2.58-1.42,2.25-2.7,2.62s1-2.9,2.84-5.33a3.74,3.74,0,0,1-2.28,1.35l2.11-5.07a9.05,9.05,0,0,0-2.1,1.81c-.61-.51-.13-1.51.47-2s1.37-1.1,1.26-1.89a.71.71,0,0,1-1,.61,4.72,4.72,0,0,0,.74-4.34l.71-.4a5.37,5.37,0,0,0-3.28.57l2.14-3.49a6.19,6.19,0,0,1-2,1.4.81.81,0,0,1,.75-1l-1.29-.09,2.17-3.46a12.06,12.06,0,0,1-3.37.32,4.56,4.56,0,0,1,.81-1.75l-2.64-.7a5.59,5.59,0,0,0,1.34-4.26,1.34,1.34,0,0,1-1.62,1l1.34-2.76a4.35,4.35,0,0,1-3.21-.22,1.71,1.71,0,0,0,1.55-1.65l-2.24-.08a3.21,3.21,0,0,0,1.27-.82.69.69,0,0,0-.7-.16,2.65,2.65,0,0,0,.58-2.21c-.14.7-1.44,1.38-1.44,1.38s.46-1.53.1-1.2-.87,1-.87,1a.58.58,0,0,1-.33-.55,1.24,1.24,0,0,1,.28-.6,4.43,4.43,0,0,0,.7-3,1.35,1.35,0,0,1-.21.85.52.52,0,0,1-.75,0c-.39-.33-.66-2-.72-2.9a.22.22,0,0,0-.26,0c-.07.89-.33,2.57-.72,2.9a.52.52,0,0,1-.75,0,1.35,1.35,0,0,1-.21-.85,4.43,4.43,0,0,0,.7,3,1.24,1.24,0,0,1,.28.6.58.58,0,0,1-.33.55s-.59-.74-.87-1,.1,1.2.1,1.2-1.31-.69-1.44-1.38a2.65,2.65,0,0,0,.58,2.21.69.69,0,0,0-.7.16,3.21,3.21,0,0,0,1.27.82l-2.24.08a1.71,1.71,0,0,0,1.55,1.65,4.35,4.35,0,0,1-3.21.22l1.34,2.76a1.34,1.34,0,0,1-1.62-1,5.59,5.59,0,0,0,1.34,4.26l-2.64.7a4.56,4.56,0,0,1,.81,1.75,12.06,12.06,0,0,1-3.37-.32L131,271.8l-1.29.09a.81.81,0,0,1,.75,1,6.19,6.19,0,0,1-2-1.4l2.14,3.49a5.37,5.37,0,0,0-3.28-.57l.71.4a4.72,4.72,0,0,0,.74,4.34.71.71,0,0,1-1-.61c-.11.79.66,1.37,1.26,1.89s1.08,1.52.47,2a9.05,9.05,0,0,0-2.1-1.81l2.11,5.07a3.74,3.74,0,0,1-2.28-1.35c1.85,2.43,4.12,5.7,2.84,5.33s-1.5-2-2.7-2.62l.19.44a7,7,0,0,0,1.85,7,.55.55,0,0,0-.58,0,1.41,1.41,0,0,0-.42.72,11.17,11.17,0,0,0,3.9,3.08,4.89,4.89,0,0,1,1.36.79c.26.26.45.58.71.84.44.44,4.14.67,4.72.9.58-.22,4.28-.45,4.72-.9.26-.26.45-.59.71-.84a4.89,4.89,0,0,1,1.36-.79,11.17,11.17,0,0,0,3.9-3.08,1.41,1.41,0,0,0-.42-.72.55.55,0,0,0-.58,0A7,7,0,0,0,150.64,287.47Z"/><path class="n" d="M58.25,316.39l.24-.57c-1.55.75-1.82,2.9-3.47,3.37s1.27-3.73,3.65-6.86a4.81,4.81,0,0,1-2.93,1.74l2.72-6.52a11.66,11.66,0,0,0-2.7,2.33c-.78-.66-.16-1.94.61-2.61s1.76-1.42,1.62-2.43a.92.92,0,0,1-1.34.79,6.08,6.08,0,0,0,1-5.58l.91-.51a6.91,6.91,0,0,0-4.22.73l2.76-4.5a8,8,0,0,1-2.51,1.81,1,1,0,0,1,1-1.23l-1.67-.12,2.79-4.45a15.51,15.51,0,0,1-4.34.41,5.87,5.87,0,0,1,1-2.25l-3.4-.9a7.19,7.19,0,0,0,1.73-5.48,1.72,1.72,0,0,1-2.09,1.27l1.72-3.56c-1.12.58-3,.2-4.14-.28a2.2,2.2,0,0,0,2-2.13l-2.88-.1a4.13,4.13,0,0,0,1.63-1.05.89.89,0,0,0-.9-.21,3.41,3.41,0,0,0,.74-2.84c-.18.9-1.86,1.78-1.86,1.78s.59-2,.12-1.54-1.12,1.28-1.12,1.28a.75.75,0,0,1-.42-.7,1.6,1.6,0,0,1,.36-.77,5.71,5.71,0,0,0,.91-3.84,1.74,1.74,0,0,1-.27,1.09.67.67,0,0,1-1,0c-.51-.43-.85-2.59-.93-3.73a.28.28,0,0,0-.34,0c-.09,1.14-.42,3.3-.93,3.73a.67.67,0,0,1-1,0,1.74,1.74,0,0,1-.27-1.09,5.71,5.71,0,0,0,.91,3.84,1.6,1.6,0,0,1,.36.77.75.75,0,0,1-.42.7s-.76-.95-1.12-1.28.12,1.54.12,1.54-1.68-.88-1.86-1.78a3.41,3.41,0,0,0,.74,2.84.89.89,0,0,0-.9.21,4.13,4.13,0,0,0,1.63,1.05l-2.88.1a2.2,2.2,0,0,0,2,2.13c-1.17.48-3,.87-4.14.28l1.72,3.56a1.72,1.72,0,0,1-2.09-1.27A7.19,7.19,0,0,0,36.84,289l-3.4.9a5.87,5.87,0,0,1,1,2.25,15.51,15.51,0,0,1-4.34-.41l2.79,4.45-1.67.12a1,1,0,0,1,1,1.23,8,8,0,0,1-2.51-1.81l2.76,4.5a6.91,6.91,0,0,0-4.22-.73l.91.51a6.08,6.08,0,0,0,1,5.58.92.92,0,0,1-1.34-.79c-.14,1,.85,1.76,1.62,2.43s1.39,2,.61,2.61a11.66,11.66,0,0,0-2.7-2.33L31,314.06a4.81,4.81,0,0,1-2.93-1.74c2.38,3.13,5.3,7.33,3.65,6.86s-1.93-2.62-3.47-3.37l.24.57a9,9,0,0,0,2.38,9.07.71.71,0,0,0-.74.05,1.82,1.82,0,0,0-.54.92,14.37,14.37,0,0,0,5,4,6.29,6.29,0,0,1,1.76,1c.34.33.58.75.92,1.08.56.57,5.33.87,6.07,1.15.75-.28,5.51-.58,6.07-1.15.33-.34.58-.75.92-1.08a6.29,6.29,0,0,1,1.76-1,14.37,14.37,0,0,0,5-4,1.82,1.82,0,0,0-.54-.92.71.71,0,0,0-.74-.05A9,9,0,0,0,58.25,316.39Z"/><path class="n" d="M317,273.09a2.07,2.07,0,0,0,2-1.54,6.06,6.06,0,0,0,0-2.69,4.92,4.92,0,0,1-3.08.8c0-.39.42-.61.77-.8a2.75,2.75,0,0,0,1.37-2.68l-2.79.89q1.23-2.55,2.49-5.09a5.74,5.74,0,0,1-2.25,1.08.86.86,0,0,0,.35-1.38,32.17,32.17,0,0,0,2.28-2.95,4.5,4.5,0,0,1-2.63.75L318,257l-1.79.75a8.56,8.56,0,0,0,2.41-3.95,17,17,0,0,0-3.72,2.27,8,8,0,0,0,1.81-3.24,2.78,2.78,0,0,0-1.46,1.74c.1-.78.81-1.77.71-2.55s.75-2.08.74-2.74c0-.41-1.69.13-1.59-.28a2.76,2.76,0,0,1,1.91-2.19,5.33,5.33,0,0,0-3.62.46,5.72,5.72,0,0,0,1.18-2.94,2.05,2.05,0,0,1-1.56,1.26,6.06,6.06,0,0,1-2.09,0,23,23,0,0,1,3-2.31h-1a3.23,3.23,0,0,1,1-1.69,3.19,3.19,0,0,1-3.21.4,6.86,6.86,0,0,0,3-3.65,4.82,4.82,0,0,1-3.88,1.36,28.91,28.91,0,0,0,3.55-3.68l-3.24,2.11a7.55,7.55,0,0,0,2.51-4.09,2.35,2.35,0,0,1-3,1,2.43,2.43,0,0,0,1.6-1.93,1.46,1.46,0,0,1-1.79.18,4.36,4.36,0,0,1,.34-2.41,2.5,2.5,0,0,1-1.33.69,6.2,6.2,0,0,1,.9-2.43,10.93,10.93,0,0,1-1.86,1.27,9.94,9.94,0,0,0-.72-3.4,9.26,9.26,0,0,1-.8-3.34.25.25,0,0,0-.31,0,9.26,9.26,0,0,1-.8,3.34,9.94,9.94,0,0,0-.72,3.4,10.93,10.93,0,0,1-1.86-1.27,6.2,6.2,0,0,1,.9,2.43,2.5,2.5,0,0,1-1.33-.69,4.36,4.36,0,0,1,.34,2.41,1.46,1.46,0,0,1-1.79-.18,2.43,2.43,0,0,0,1.6,1.93,2.35,2.35,0,0,1-3-1,7.55,7.55,0,0,0,2.51,4.09L298.3,236a28.91,28.91,0,0,0,3.55,3.68,4.82,4.82,0,0,1-3.88-1.36,6.86,6.86,0,0,0,3,3.65,3.19,3.19,0,0,1-3.21-.4,3.23,3.23,0,0,1,1,1.69h-1a23,23,0,0,1,3,2.31,6.06,6.06,0,0,1-2.09,0,2.05,2.05,0,0,1-1.56-1.26,5.72,5.72,0,0,0,1.18,2.94,5.33,5.33,0,0,0-3.62-.46,2.76,2.76,0,0,1,1.91,2.19c.1.41-1.58-.13-1.59.28,0,.67.83,2.08.74,2.74s.6,1.77.71,2.55a2.78,2.78,0,0,0-1.46-1.74,8,8,0,0,0,1.81,3.24,17,17,0,0,0-3.72-2.27,8.56,8.56,0,0,0,2.41,3.95l-1.79-.75,2.45,2.46a4.5,4.5,0,0,1-2.63-.75,32.16,32.16,0,0,0,2.28,2.95.86.86,0,0,0,.35,1.38,5.74,5.74,0,0,1-2.25-1.08q1.26,2.54,2.49,5.09l-2.79-.89a2.75,2.75,0,0,0,1.37,2.68c.35.19.8.41.77.8a4.92,4.92,0,0,1-3.08-.8,6.06,6.06,0,0,0,0,2.69,2.07,2.07,0,0,0,2,1.54c-.67.21-1.83.32-2.31-.19a3.65,3.65,0,0,0,1.46,2.2c.85.6,2.1,1,2.13,2.08a4.32,4.32,0,0,1-1.42-.28,7.58,7.58,0,0,1,2.12,3.46c-1.26-.56-1.13-1.14-2.51-1.19.79,1.89,1.52,9.28,11.68,9.28s10.89-7.4,11.68-9.28c-1.38.06-1.25.63-2.51,1.19a7.58,7.58,0,0,1,2.12-3.46,4.32,4.32,0,0,1-1.42.28c0-1,1.28-1.48,2.13-2.08a3.65,3.65,0,0,0,1.46-2.2C318.8,273.41,317.63,273.3,317,273.09Z"/><path class="n" d="M191.64,298.94c1.69.16,3.19-1.27,3.72-2.88a11.35,11.35,0,0,0,.06-5,9.21,9.21,0,0,1-5.77,1.5c-.06-.74.79-1.14,1.44-1.5a5.15,5.15,0,0,0,2.57-5l-5.23,1.67q2.31-4.78,4.67-9.53a10.74,10.74,0,0,1-4.21,2,1.62,1.62,0,0,0,.66-2.58,60.26,60.26,0,0,0,4.28-5.51,8.43,8.43,0,0,1-4.92,1.41l4.58-4.61-3.35,1.41a16,16,0,0,0,4.52-7.39,31.77,31.77,0,0,0-7,4.24,15,15,0,0,0,3.39-6.07,5.21,5.21,0,0,0-2.73,3.27c.19-1.45,1.52-3.31,1.33-4.77-.17-1.24,1.4-3.89,1.38-5.13,0-.76-3.17.24-3-.52.5-2,1.68-3.69,3.58-4.11a10,10,0,0,0-6.78.86,10.71,10.71,0,0,0,2.2-5.51,3.84,3.84,0,0,1-2.92,2.35,11.33,11.33,0,0,1-3.91-.07,43.07,43.07,0,0,1,5.56-4.32l-1.91,0a6,6,0,0,1,1.88-3.17,6,6,0,0,1-6,.76,12.85,12.85,0,0,0,5.63-6.83,9,9,0,0,1-7.27,2.55,54.14,54.14,0,0,0,6.66-6.89l-6.06,4a14.14,14.14,0,0,0,4.69-7.66,4.4,4.4,0,0,1-5.54,1.94,4.56,4.56,0,0,0,3-3.62,2.73,2.73,0,0,1-3.36.34,8.16,8.16,0,0,1,.64-4.51,4.69,4.69,0,0,1-2.5,1.29,11.62,11.62,0,0,1,1.69-4.56,20.47,20.47,0,0,1-3.48,2.37,18.6,18.6,0,0,0-1.35-6.37,17.33,17.33,0,0,1-1.51-6.25.47.47,0,0,0-.57,0A17.33,17.33,0,0,1,169,212.7a18.6,18.6,0,0,0-1.35,6.37,20.46,20.46,0,0,1-3.48-2.37,11.62,11.62,0,0,1,1.69,4.56,4.69,4.69,0,0,1-2.5-1.29,8.16,8.16,0,0,1,.64,4.51,2.73,2.73,0,0,1-3.36-.34,4.56,4.56,0,0,0,3,3.62,4.4,4.4,0,0,1-5.54-1.94,14.14,14.14,0,0,0,4.69,7.66l-6.06-4a54.13,54.13,0,0,0,6.66,6.89,9,9,0,0,1-7.27-2.55,12.85,12.85,0,0,0,5.63,6.83,6,6,0,0,1-6-.76,6,6,0,0,1,1.88,3.17l-1.91,0a43.07,43.07,0,0,1,5.56,4.32,11.33,11.33,0,0,1-3.91.07,3.84,3.84,0,0,1-2.92-2.35,10.71,10.71,0,0,0,2.2,5.51,10,10,0,0,0-6.78-.86c1.9.41,3.08,2.16,3.58,4.11.2.76-3-.24-3,.52,0,1.24,1.55,3.89,1.38,5.13-.2,1.46,1.13,3.31,1.33,4.77a5.21,5.21,0,0,0-2.73-3.27,15,15,0,0,0,3.39,6.07,31.77,31.77,0,0,0-7-4.24,16,16,0,0,0,4.52,7.39L148,268.88l4.58,4.61a8.43,8.43,0,0,1-4.92-1.41A60.27,60.27,0,0,0,152,277.6a1.62,1.62,0,0,0,.66,2.58,10.74,10.74,0,0,1-4.21-2q2.36,4.75,4.67,9.53L147.85,286a5.15,5.15,0,0,0,2.57,5c.65.35,1.5.76,1.44,1.5a9.21,9.21,0,0,1-5.77-1.5,11.35,11.35,0,0,0,.06,5c.52,1.61,2,3,3.72,2.88-1.24.39-3.43.6-4.32-.36a6.84,6.84,0,0,0,2.73,4.12c1.59,1.12,3.93,1.95,4,3.89a8.07,8.07,0,0,1-2.65-.53,14.2,14.2,0,0,1,4,6.47c-2.35-1-2.12-2.13-4.69-2.23,1.47,3.53,2.85,17.38,21.87,17.38s20.39-13.85,21.87-17.38c-2.57.1-2.34,1.19-4.69,2.23a14.2,14.2,0,0,1,4-6.47,8.07,8.07,0,0,1-2.65.53c.06-1.94,2.4-2.78,4-3.89a6.84,6.84,0,0,0,2.73-4.12C195.08,299.54,192.89,299.33,191.64,298.94Z"/><path class="n" d="M124.28,287.61a1.19,1.19,0,0,0,1.14-.88,3.49,3.49,0,0,0,0-1.55,2.83,2.83,0,0,1-1.77.46c0-.23.24-.35.44-.46a1.58,1.58,0,0,0,.79-1.54l-1.61.51q.71-1.47,1.43-2.93a3.3,3.3,0,0,1-1.29.62.5.5,0,0,0,.2-.79,18.49,18.49,0,0,0,1.31-1.69,2.59,2.59,0,0,1-1.51.43l1.41-1.42-1,.43a4.92,4.92,0,0,0,1.39-2.27,9.75,9.75,0,0,0-2.14,1.3,4.59,4.59,0,0,0,1-1.86,1.6,1.6,0,0,0-.84,1c.06-.45.47-1,.41-1.46s.43-1.19.42-1.58-1,.07-.91-.16a1.59,1.59,0,0,1,1.1-1.26,3.06,3.06,0,0,0-2.08.26,3.29,3.29,0,0,0,.68-1.69,1.18,1.18,0,0,1-.9.72,3.47,3.47,0,0,1-1.2,0,13.24,13.24,0,0,1,1.71-1.33h-.59a1.86,1.86,0,0,1,.58-1,1.84,1.84,0,0,1-1.84.23,3.94,3.94,0,0,0,1.73-2.1,2.77,2.77,0,0,1-2.23.78,16.62,16.62,0,0,0,2-2.12l-1.86,1.21a4.34,4.34,0,0,0,1.44-2.35,1.35,1.35,0,0,1-1.7.6,1.4,1.4,0,0,0,.92-1.11.84.84,0,0,1-1,.1,2.51,2.51,0,0,1,.2-1.39,1.44,1.44,0,0,1-.77.4,3.57,3.57,0,0,1,.52-1.4,6.28,6.28,0,0,1-1.07.73,5.71,5.71,0,0,0-.42-2,5.32,5.32,0,0,1-.46-1.92.14.14,0,0,0-.18,0,5.32,5.32,0,0,1-.46,1.92,5.71,5.71,0,0,0-.42,2,6.28,6.28,0,0,1-1.07-.73,3.57,3.57,0,0,1,.52,1.4,1.44,1.44,0,0,1-.77-.4,2.51,2.51,0,0,1,.2,1.39.84.84,0,0,1-1-.1,1.4,1.4,0,0,0,.92,1.11,1.35,1.35,0,0,1-1.7-.6,4.34,4.34,0,0,0,1.44,2.35l-1.86-1.21a16.62,16.62,0,0,0,2,2.12,2.77,2.77,0,0,1-2.23-.78,3.94,3.94,0,0,0,1.73,2.1,1.84,1.84,0,0,1-1.84-.23,1.86,1.86,0,0,1,.58,1h-.59a13.24,13.24,0,0,1,1.71,1.33,3.47,3.47,0,0,1-1.2,0,1.18,1.18,0,0,1-.9-.72,3.29,3.29,0,0,0,.68,1.69,3.06,3.06,0,0,0-2.08-.26,1.59,1.59,0,0,1,1.1,1.26c.06.23-.91-.07-.91.16s.48,1.2.42,1.58.35,1,.41,1.46a1.6,1.6,0,0,0-.84-1,4.59,4.59,0,0,0,1,1.86,9.75,9.75,0,0,0-2.14-1.3,4.92,4.92,0,0,0,1.39,2.27l-1-.43,1.41,1.42a2.59,2.59,0,0,1-1.51-.43,18.49,18.49,0,0,0,1.31,1.69.5.5,0,0,0,.2.79,3.3,3.3,0,0,1-1.29-.62q.72,1.46,1.43,2.93l-1.61-.51a1.58,1.58,0,0,0,.79,1.54c.2.11.46.23.44.46a2.83,2.83,0,0,1-1.77-.46,3.49,3.49,0,0,0,0,1.55,1.19,1.19,0,0,0,1.14.88c-.38.12-1.05.18-1.33-.11a2.1,2.1,0,0,0,.84,1.27c.49.34,1.21.6,1.23,1.2a2.48,2.48,0,0,1-.81-.16,4.36,4.36,0,0,1,1.22,2c-.72-.32-.65-.65-1.44-.69.45,1.09.87,5.34,6.72,5.34s6.26-4.25,6.72-5.34c-.79,0-.72.36-1.44.69a4.36,4.36,0,0,1,1.22-2,2.48,2.48,0,0,1-.82.16c0-.6.74-.85,1.23-1.2a2.1,2.1,0,0,0,.84-1.27C125.33,287.8,124.66,287.73,124.28,287.61Z"/><path class="n" d="M562.24,263.56c2.21.21,4.19-1.66,4.87-3.78a14.88,14.88,0,0,0,.08-6.6,12.07,12.07,0,0,1-7.56,2c-.08-1,1-1.5,1.89-2a6.76,6.76,0,0,0,3.37-6.58L558,248.8q3-6.26,6.12-12.49a14.07,14.07,0,0,1-5.51,2.66,2.12,2.12,0,0,0,.86-3.38,79,79,0,0,0,5.6-7.23,11,11,0,0,1-6.45,1.84l6-6L560.28,226a21,21,0,0,0,5.92-9.69,41.65,41.65,0,0,0-9.13,5.56,19.6,19.6,0,0,0,4.45-8A6.83,6.83,0,0,0,558,218.2c.25-1.91,2-4.33,1.74-6.25-.22-1.62,1.83-5.09,1.81-6.73,0-1-4.16.32-3.9-.68.65-2.56,2.2-4.84,4.7-5.39a13.08,13.08,0,0,0-8.89,1.13,14,14,0,0,0,2.89-7.23,5,5,0,0,1-3.83,3.09,14.85,14.85,0,0,1-5.12-.09,56.42,56.42,0,0,1,7.29-5.66l-2.51,0a7.93,7.93,0,0,1,2.47-4.15,7.84,7.84,0,0,1-7.87,1,16.84,16.84,0,0,0,7.38-9,11.82,11.82,0,0,1-9.53,3.34,71,71,0,0,0,8.72-9l-7.94,5.18a18.54,18.54,0,0,0,6.15-10,5.76,5.76,0,0,1-7.26,2.55,6,6,0,0,0,3.92-4.75,3.57,3.57,0,0,1-4.4.44,10.7,10.7,0,0,1,.84-5.92,6.14,6.14,0,0,1-3.27,1.7,15.22,15.22,0,0,1,2.21-6,26.83,26.83,0,0,1-4.56,3.11c-.32-3-.49-5.63-1.77-8.35a22.72,22.72,0,0,1-2-8.19.62.62,0,0,0-.75,0,22.72,22.72,0,0,1-2,8.19c-1.28,2.73-1.45,5.33-1.77,8.35a26.83,26.83,0,0,1-4.56-3.11,15.22,15.22,0,0,1,2.21,6,6.14,6.14,0,0,1-3.27-1.7,10.7,10.7,0,0,1,.84,5.92,3.57,3.57,0,0,1-4.4-.44,6,6,0,0,0,3.92,4.75,5.76,5.76,0,0,1-7.26-2.55,18.54,18.54,0,0,0,6.15,10l-7.94-5.18a71,71,0,0,0,8.72,9,11.82,11.82,0,0,1-9.53-3.34,16.84,16.84,0,0,0,7.38,9,7.84,7.84,0,0,1-7.87-1,7.93,7.93,0,0,1,2.47,4.15l-2.51,0a56.42,56.42,0,0,1,7.29,5.66,14.85,14.85,0,0,1-5.12.09,5,5,0,0,1-3.83-3.09,14,14,0,0,0,2.89,7.23,13.08,13.08,0,0,0-8.89-1.13c2.5.54,4,2.83,4.7,5.39.26,1-3.89-.31-3.9.68,0,1.63,2,5.1,1.81,6.73-.26,1.91,1.48,4.34,1.74,6.25a6.83,6.83,0,0,0-3.57-4.28,19.6,19.6,0,0,0,4.45,8,41.65,41.65,0,0,0-9.13-5.56,21,21,0,0,0,5.92,9.69L505,224.15l6,6a11,11,0,0,1-6.45-1.84,79,79,0,0,0,5.6,7.23,2.12,2.12,0,0,0,.87,3.38,14.07,14.07,0,0,1-5.51-2.66q3.09,6.23,6.12,12.49l-6.85-2.19a6.76,6.76,0,0,0,3.37,6.58c.85.46,2,1,1.89,2a12.07,12.07,0,0,1-7.56-2,14.88,14.88,0,0,0,.08,6.6c.68,2.11,2.66,4,4.87,3.78-1.63.51-4.5.79-5.66-.47a9,9,0,0,0,3.58,5.4c2.09,1.46,5.15,2.55,5.24,5.1a10.59,10.59,0,0,1-3.48-.69,18.61,18.61,0,0,1,5.19,8.48c-3.09-1.37-2.77-2.79-6.15-2.93,1.93,4.63,3.73,22.79,28.67,22.79s26.73-18.15,28.67-22.79c-3.37.14-3.06,1.55-6.15,2.93a18.61,18.61,0,0,1,5.19-8.48,10.59,10.59,0,0,1-3.48.69c.08-2.55,3.15-3.64,5.24-5.1a9,9,0,0,0,3.58-5.4C566.74,264.35,563.87,264.07,562.24,263.56Z"/><path class="n" d="M527.92,272c2.18.2,4.12-1.64,4.8-3.72a14.66,14.66,0,0,0,.08-6.5,11.89,11.89,0,0,1-7.45,1.94c-.08-.95,1-1.48,1.86-1.94a6.66,6.66,0,0,0,3.32-6.48l-6.75,2.16q3-6.17,6-12.3a13.87,13.87,0,0,1-5.43,2.62,2.09,2.09,0,0,0,.85-3.33,77.79,77.79,0,0,0,5.52-7.12,10.88,10.88,0,0,1-6.35,1.82l5.92-6L526,235a20.69,20.69,0,0,0,5.84-9.55,41,41,0,0,0-9,5.48,19.31,19.31,0,0,0,4.38-7.83,6.73,6.73,0,0,0-3.52,4.22c.25-1.88,2-4.27,1.71-6.15-.22-1.6,1.8-5,1.78-6.63,0-1-4.1.31-3.85-.67.64-2.52,2.17-4.77,4.63-5.31a12.89,12.89,0,0,0-8.76,1.11,13.83,13.83,0,0,0,2.85-7.12,5,5,0,0,1-3.77,3,14.62,14.62,0,0,1-5-.09,55.59,55.59,0,0,1,7.18-5.58l-2.47,0a7.81,7.81,0,0,1,2.43-4.09,7.72,7.72,0,0,1-7.75,1,16.59,16.59,0,0,0,7.27-8.82,11.65,11.65,0,0,1-9.39,3.3,69.93,69.93,0,0,0,8.59-8.9l-7.82,5.1a18.26,18.26,0,0,0,6.06-9.9,5.68,5.68,0,0,1-7.15,2.51,5.89,5.89,0,0,0,3.86-4.68,3.52,3.52,0,0,1-4.34.44,10.54,10.54,0,0,1,.82-5.83,6,6,0,0,1-3.22,1.67,15,15,0,0,1,2.18-5.88,26.43,26.43,0,0,1-4.49,3.06c-.32-3-.48-5.54-1.75-8.23a22.38,22.38,0,0,1-1.94-8.07.61.61,0,0,0-.74,0,22.38,22.38,0,0,1-1.94,8.07c-1.26,2.69-1.43,5.25-1.75,8.23a26.43,26.43,0,0,1-4.49-3.06,15,15,0,0,1,2.18,5.88,6,6,0,0,1-3.22-1.67,10.54,10.54,0,0,1,.82,5.83,3.52,3.52,0,0,1-4.34-.44A5.89,5.89,0,0,0,491.7,180a5.68,5.68,0,0,1-7.15-2.51,18.26,18.26,0,0,0,6.06,9.9l-7.82-5.1a69.93,69.93,0,0,0,8.59,8.9,11.65,11.65,0,0,1-9.39-3.3,16.59,16.59,0,0,0,7.27,8.82,7.72,7.72,0,0,1-7.75-1,7.81,7.81,0,0,1,2.43,4.09l-2.47,0a55.59,55.59,0,0,1,7.18,5.58,14.62,14.62,0,0,1-5,.09,5,5,0,0,1-3.77-3,13.83,13.83,0,0,0,2.85,7.12,12.89,12.89,0,0,0-8.76-1.11c2.46.54,4,2.78,4.63,5.31.25,1-3.83-.31-3.85.67,0,1.61,2,5,1.78,6.63-.26,1.89,1.46,4.28,1.71,6.15a6.73,6.73,0,0,0-3.52-4.22,19.31,19.31,0,0,0,4.38,7.83,41,41,0,0,0-9-5.48A20.69,20.69,0,0,0,475.9,235l-4.33-1.82,5.92,6a10.88,10.88,0,0,1-6.35-1.82,77.79,77.79,0,0,0,5.52,7.12,2.09,2.09,0,0,0,.85,3.33,13.87,13.87,0,0,1-5.43-2.62q3,6.14,6,12.3l-6.75-2.16a6.66,6.66,0,0,0,3.32,6.48c.84.46,1.94,1,1.86,1.94a11.89,11.89,0,0,1-7.45-1.94,14.65,14.65,0,0,0,.08,6.5c.67,2.08,2.62,3.92,4.8,3.72-1.61.5-4.43.77-5.58-.46a8.83,8.83,0,0,0,3.52,5.32c2.06,1.44,5.08,2.52,5.16,5a10.44,10.44,0,0,1-3.43-.68,18.33,18.33,0,0,1,5.11,8.36c-3-1.35-2.73-2.75-6.06-2.88,1.9,4.56,3.68,22.45,28.24,22.45s26.34-17.88,28.24-22.45c-3.32.14-3,1.53-6.06,2.88a18.33,18.33,0,0,1,5.11-8.36,10.44,10.44,0,0,1-3.43.68c.08-2.51,3.1-3.58,5.16-5a8.83,8.83,0,0,0,3.52-5.32C532.35,272.75,529.53,272.47,527.92,272Z"/><path class="n" d="M427.24,259.74c2,.19,3.8-1.51,4.42-3.43a13.52,13.52,0,0,0,.08-6,11,11,0,0,1-6.87,1.79c-.07-.88.94-1.36,1.71-1.79a6.14,6.14,0,0,0,3.07-6l-6.23,2q2.75-5.69,5.56-11.35a12.79,12.79,0,0,1-5,2.41,1.93,1.93,0,0,0,.79-3.08,71.76,71.76,0,0,0,5.09-6.57,10,10,0,0,1-5.86,1.67l5.46-5.49-4,1.68a19.08,19.08,0,0,0,5.38-8.81,37.86,37.86,0,0,0-8.29,5.05,17.81,17.81,0,0,0,4-7.22,6.2,6.2,0,0,0-3.25,3.89c.23-1.73,1.82-3.94,1.58-5.68-.2-1.48,1.66-4.63,1.64-6.11,0-.91-3.78.29-3.55-.62.59-2.33,2-4.4,4.27-4.89a11.88,11.88,0,0,0-8.08,1,12.75,12.75,0,0,0,2.62-6.56,4.58,4.58,0,0,1-3.48,2.8,13.49,13.49,0,0,1-4.65-.08,51.28,51.28,0,0,1,6.62-5.14l-2.28,0a7.2,7.2,0,0,1,2.24-3.77,7.12,7.12,0,0,1-7.15.9,15.3,15.3,0,0,0,6.71-8.13,10.74,10.74,0,0,1-8.66,3,64.46,64.46,0,0,0,7.93-8.2l-7.22,4.7a16.84,16.84,0,0,0,5.59-9.13,5.24,5.24,0,0,1-6.59,2.31,5.43,5.43,0,0,0,3.56-4.31,3.25,3.25,0,0,1-4,.4,9.72,9.72,0,0,1,.76-5.37,5.58,5.58,0,0,1-3,1.54,13.84,13.84,0,0,1,2-5.43,24.38,24.38,0,0,1-4.14,2.82c-.29-2.75-.45-5.11-1.61-7.59a20.64,20.64,0,0,1-1.79-7.44.56.56,0,0,0-.68,0,20.64,20.64,0,0,1-1.79,7.44c-1.17,2.48-1.32,4.84-1.61,7.59a24.38,24.38,0,0,1-4.14-2.82,13.84,13.84,0,0,1,2,5.43,5.58,5.58,0,0,1-3-1.54,9.72,9.72,0,0,1,.76,5.37,3.25,3.25,0,0,1-4-.4,5.43,5.43,0,0,0,3.56,4.31,5.24,5.24,0,0,1-6.59-2.31,16.84,16.84,0,0,0,5.59,9.13l-7.22-4.7a64.46,64.46,0,0,0,7.93,8.2,10.74,10.74,0,0,1-8.66-3,15.3,15.3,0,0,0,6.71,8.13,7.12,7.12,0,0,1-7.15-.9,7.2,7.2,0,0,1,2.24,3.77l-2.28,0a51.28,51.28,0,0,1,6.62,5.14,13.49,13.49,0,0,1-4.65.08,4.58,4.58,0,0,1-3.48-2.8,12.75,12.75,0,0,0,2.62,6.56,11.88,11.88,0,0,0-8.08-1c2.27.49,3.67,2.57,4.27,4.89.23.91-3.53-.29-3.55.62,0,1.48,1.84,4.64,1.64,6.11-.24,1.74,1.35,3.94,1.58,5.68a6.2,6.2,0,0,0-3.25-3.89,17.81,17.81,0,0,0,4,7.22,37.86,37.86,0,0,0-8.29-5.05,19.08,19.08,0,0,0,5.38,8.81l-4-1.68,5.46,5.49a10,10,0,0,1-5.86-1.67,71.76,71.76,0,0,0,5.09,6.57,1.93,1.93,0,0,0,.79,3.08,12.79,12.79,0,0,1-5-2.41q2.81,5.66,5.56,11.35l-6.23-2a6.14,6.14,0,0,0,3.07,6c.77.42,1.79.91,1.71,1.79a11,11,0,0,1-6.87-1.79,13.52,13.52,0,0,0,.08,6c.62,1.92,2.42,3.62,4.42,3.43-1.48.46-4.09.71-5.15-.42a8.15,8.15,0,0,0,3.25,4.91c1.9,1.33,4.68,2.32,4.76,4.64a9.62,9.62,0,0,1-3.16-.63,16.91,16.91,0,0,1,4.72,7.71c-2.8-1.25-2.52-2.53-5.59-2.66,1.76,4.21,3.39,20.7,26,20.7s24.29-16.49,26-20.7c-3.07.13-2.78,1.41-5.59,2.66a16.91,16.91,0,0,1,4.72-7.71,9.62,9.62,0,0,1-3.16.63c.08-2.31,2.86-3.31,4.76-4.64a8.15,8.15,0,0,0,3.25-4.91C431.33,260.45,428.72,260.2,427.24,259.74Z"/><path class="n" d="M34.66,328.86a2.82,2.82,0,0,0,2.7-2.09,8.24,8.24,0,0,0,0-3.65,6.68,6.68,0,0,1-4.19,1.09c0-.53.58-.83,1-1.09a3.74,3.74,0,0,0,1.87-3.64l-3.79,1.21q1.68-3.47,3.39-6.92a7.79,7.79,0,0,1-3.05,1.47,1.17,1.17,0,0,0,.48-1.87,43.69,43.69,0,0,0,3.1-4,6.12,6.12,0,0,1-3.57,1L36,307l-2.43,1a11.63,11.63,0,0,0,3.28-5.37,23.08,23.08,0,0,0-5.05,3.08,10.85,10.85,0,0,0,2.46-4.4,3.78,3.78,0,0,0-2,2.37c.14-1.05,1.11-2.4,1-3.46-.12-.9,1-2.82,1-3.72,0-.55-2.3.18-2.16-.38a3.75,3.75,0,0,1,2.6-3,7.24,7.24,0,0,0-4.92.63,7.77,7.77,0,0,0,1.6-4,2.79,2.79,0,0,1-2.12,1.71,8.22,8.22,0,0,1-2.84,0,31.25,31.25,0,0,1,4-3.13l-1.39,0a4.39,4.39,0,0,1,1.37-2.3,4.34,4.34,0,0,1-4.35.55,9.32,9.32,0,0,0,4.09-5,6.55,6.55,0,0,1-5.28,1.85,39.27,39.27,0,0,0,4.83-5l-4.4,2.87a10.26,10.26,0,0,0,3.41-5.56,3.19,3.19,0,0,1-4,1.41,3.31,3.31,0,0,0,2.17-2.63,2,2,0,0,1-2.44.25,5.92,5.92,0,0,1,.46-3.28,3.4,3.4,0,0,1-1.81.94,8.43,8.43,0,0,1,1.23-3.31,14.86,14.86,0,0,1-2.52,1.72,13.5,13.5,0,0,0-1-4.63,12.58,12.58,0,0,1-1.09-4.53.34.34,0,0,0-.42,0,12.58,12.58,0,0,1-1.09,4.53,13.5,13.5,0,0,0-1,4.63,14.86,14.86,0,0,1-2.52-1.72,8.43,8.43,0,0,1,1.23,3.31,3.4,3.4,0,0,1-1.81-.94,5.92,5.92,0,0,1,.46,3.28,2,2,0,0,1-2.44-.25,3.31,3.31,0,0,0,2.17,2.63,3.19,3.19,0,0,1-4-1.41,10.26,10.26,0,0,0,3.41,5.56l-4.4-2.87a39.27,39.27,0,0,0,4.83,5,6.55,6.55,0,0,1-5.28-1.85,9.32,9.32,0,0,0,4.09,5A4.34,4.34,0,0,1,8.58,286a4.39,4.39,0,0,1,1.37,2.3l-1.39,0a31.25,31.25,0,0,1,4,3.13,8.22,8.22,0,0,1-2.84,0,2.79,2.79,0,0,1-2.12-1.71,7.77,7.77,0,0,0,1.6,4,7.24,7.24,0,0,0-4.92-.63,3.75,3.75,0,0,1,2.6,3c.14.55-2.15-.17-2.16.38,0,.9,1.12,2.82,1,3.72-.14,1.06.82,2.4,1,3.46a3.78,3.78,0,0,0-2-2.37,10.85,10.85,0,0,0,2.46,4.4,23.08,23.08,0,0,0-5.05-3.08,11.63,11.63,0,0,0,3.28,5.37L3,307l3.33,3.35a6.12,6.12,0,0,1-3.57-1,43.69,43.69,0,0,0,3.1,4,1.17,1.17,0,0,0,.48,1.87,7.79,7.79,0,0,1-3.05-1.47q1.71,3.45,3.39,6.92l-3.79-1.21a3.74,3.74,0,0,0,1.87,3.64c.47.26,1.09.55,1,1.09a6.68,6.68,0,0,1-4.19-1.09,8.24,8.24,0,0,0,0,3.65,2.82,2.82,0,0,0,2.7,2.09c-.9.28-2.49.44-3.14-.26a5,5,0,0,0,2,3c1.15.81,2.85,1.41,2.9,2.82A5.87,5.87,0,0,1,4.16,334,10.3,10.3,0,0,1,7,338.73c-1.71-.76-1.54-1.54-3.4-1.62,1.07,2.57,2.07,12.62,15.87,12.62s14.8-10.05,15.87-12.62c-1.87.08-1.7.86-3.4,1.62a10.3,10.3,0,0,1,2.87-4.7,5.87,5.87,0,0,1-1.93.38c0-1.41,1.74-2,2.9-2.82a5,5,0,0,0,2-3C37.16,329.29,35.57,329.14,34.66,328.86Z"/><path class="n" d="M625.85,267.8l.78-1.86c-5,2.43-5.94,9.45-11.32,11s4.13-12.16,11.9-22.36a15.67,15.67,0,0,1-9.54,5.68L626.54,239a38,38,0,0,0-8.81,7.6c-2.55-2.14-.53-6.33,2-8.51s5.73-4.63,5.28-7.93a3,3,0,0,1-4.37,2.57,19.8,19.8,0,0,0,3.11-18.19l3-1.66a22.51,22.51,0,0,0-13.74,2.39l9-14.65a26,26,0,0,1-8.19,5.88,3.41,3.41,0,0,1,3.16-4l-5.43-.38,9.11-14.51a50.57,50.57,0,0,1-14.12,1.33,19.11,19.11,0,0,1,3.38-7.35l-11.08-2.92a23.43,23.43,0,0,0,5.63-17.85,5.6,5.6,0,0,1-6.81,4.13l5.61-11.59c-3.66,1.9-9.67.65-13.48-.93a7.17,7.17,0,0,0,6.51-6.93l-9.39-.32a13.45,13.45,0,0,0,5.31-3.42,2.91,2.91,0,0,0-2.93-.67,11.1,11.1,0,0,0,2.42-9.25c-.57,2.92-6.06,5.8-6.06,5.8s1.92-6.42.4-5c-1.18,1.09-3.66,4.17-3.66,4.17a2.45,2.45,0,0,1-1.37-2.3,5.21,5.21,0,0,1,1.16-2.51,18.59,18.59,0,0,0,3-12.51,5.67,5.67,0,0,1-.9,3.54,2.19,2.19,0,0,1-3.14,0c-1.65-1.4-2.75-8.45-3-12.16a.91.91,0,0,0-1.11,0c-.28,3.71-1.38,10.76-3,12.16a2.19,2.19,0,0,1-3.14,0,5.67,5.67,0,0,1-.9-3.54,18.59,18.59,0,0,0,3,12.51,5.21,5.21,0,0,1,1.16,2.51,2.45,2.45,0,0,1-1.37,2.3s-2.49-3.08-3.66-4.17c-1.52-1.4.4,5,.4,5s-5.48-2.88-6.06-5.8a11.1,11.1,0,0,0,2.42,9.25,2.91,2.91,0,0,0-2.93.67,13.45,13.45,0,0,0,5.31,3.42l-9.39.32a7.17,7.17,0,0,0,6.51,6.93c-3.81,1.58-9.82,2.83-13.48.93l5.61,11.59a5.6,5.6,0,0,1-6.81-4.13,23.43,23.43,0,0,0,5.63,17.85L545,181.57a19.11,19.11,0,0,1,3.38,7.35,50.56,50.56,0,0,1-14.12-1.33l9.11,14.51-5.43.38a3.41,3.41,0,0,1,3.16,4,26,26,0,0,1-8.19-5.88l9,14.65a22.51,22.51,0,0,0-13.74-2.39l3,1.66a19.8,19.8,0,0,0,3.11,18.19,3,3,0,0,1-4.37-2.57c-.45,3.29,2.78,5.74,5.28,7.93s4.52,6.38,2,8.51a38,38,0,0,0-8.81-7.6l8.86,21.24a15.67,15.67,0,0,1-9.54-5.68c7.77,10.2,17.28,23.89,11.9,22.36s-6.28-8.54-11.32-11l.78,1.86c-2.73,11.44-.51,21.29,7.65,29.5a2.35,2.35,0,0,0-2.32.23,5.93,5.93,0,0,0-1.76,3,46.82,46.82,0,0,0,16.37,12.92c2,.95,4.13,1.79,5.72,3.33,1.11,1.07,1.9,2.43,3,3.53,1.83,1.85,17.36,2.83,19.79,3.75,2.43-.93,18-1.9,19.79-3.75,1.08-1.1,1.88-2.46,3-3.53,1.6-1.54,3.72-2.38,5.72-3.33a46.82,46.82,0,0,0,16.37-12.92,5.93,5.93,0,0,0-1.76-3,2.35,2.35,0,0,0-2.32-.23C626.36,289.09,628.58,279.24,625.85,267.8Z"/><path class="n" d="M214.07,297l.27-.7c-1.75.92-2.07,3.56-3.94,4.13s1.44-4.58,4.14-8.42a5.39,5.39,0,0,1-3.32,2.14l3.09-8a13.58,13.58,0,0,0-3.07,2.86c-.89-.8-.18-2.38.69-3.21s2-1.74,1.84-3a1,1,0,0,1-1.52,1,8,8,0,0,0,1.08-6.85l1-.63a7.33,7.33,0,0,0-4.79.9l3.13-5.52a9.1,9.1,0,0,1-2.85,2.22,1.26,1.26,0,0,1,1.1-1.51l-1.89-.14,3.17-5.47a16.33,16.33,0,0,1-4.92.5,7.48,7.48,0,0,1,1.18-2.77l-3.86-1.1a9.31,9.31,0,0,0,2-6.73,2,2,0,0,1-2.37,1.56l2-4.37c-1.27.72-3.37.25-4.69-.35a2.62,2.62,0,0,0,2.27-2.61l-3.27-.12a4.66,4.66,0,0,0,1.85-1.29,1,1,0,0,0-1-.25,4.43,4.43,0,0,0,.84-3.49c-.2,1.1-2.11,2.18-2.11,2.18s.67-2.42.14-1.89-1.28,1.57-1.28,1.57a.92.92,0,0,1-.48-.86,2,2,0,0,1,.4-.95,7.46,7.46,0,0,0,1-4.71,2.27,2.27,0,0,1-.31,1.33.72.72,0,0,1-1.09,0c-.57-.53-1-3.18-1.06-4.58a.3.3,0,0,0-.39,0c-.1,1.4-.48,4.05-1.06,4.58a.72.72,0,0,1-1.09,0,2.27,2.27,0,0,1-.31-1.33,7.46,7.46,0,0,0,1,4.71,2,2,0,0,1,.4.95.92.92,0,0,1-.48.86s-.87-1.16-1.28-1.57.14,1.89.14,1.89-1.91-1.08-2.11-2.18a4.43,4.43,0,0,0,.84,3.49,1,1,0,0,0-1,.25,4.66,4.66,0,0,0,1.85,1.29l-3.27.12a2.62,2.62,0,0,0,2.27,2.61c-1.33.59-3.42,1.06-4.69.35l2,4.37a2,2,0,0,1-2.37-1.56,9.31,9.31,0,0,0,2,6.73l-3.86,1.1a7.48,7.48,0,0,1,1.18,2.77,16.33,16.33,0,0,1-4.92-.5l3.17,5.47-1.89.14a1.26,1.26,0,0,1,1.1,1.51,9.1,9.1,0,0,1-2.85-2.22l3.13,5.52a7.33,7.33,0,0,0-4.79-.9l1,.63a8,8,0,0,0,1.08,6.85,1,1,0,0,1-1.52-1c-.16,1.24,1,2.16,1.84,3s1.57,2.4.69,3.21a13.58,13.58,0,0,0-3.07-2.86l3.09,8a5.39,5.39,0,0,1-3.32-2.14c2.7,3.84,6,9,4.14,8.42s-2.19-3.22-3.94-4.13l.27.7c-1,4.32-.16,8,2.7,11.13a.76.76,0,0,0-.84.06,2.28,2.28,0,0,0-.61,1.13,16.58,16.58,0,0,0,5.7,4.87,7,7,0,0,1,2,1.25c.39.4.66.92,1,1.33.64.7,6,1.07,6.89,1.41.85-.35,6.25-.72,6.89-1.41.38-.41.65-.93,1-1.33a7,7,0,0,1,2-1.25,16.58,16.58,0,0,0,5.7-4.87,2.28,2.28,0,0,0-.61-1.13.76.76,0,0,0-.84-.06C214.23,305,215,301.28,214.07,297Z"/><path class="n" d="M226.48,297.9l.17-.56c-1.08.73-1.27,2.85-2.42,3.31s.88-3.67,2.55-6.74a3.37,3.37,0,0,1-2,1.71l1.9-6.4a9.75,9.75,0,0,0-1.89,2.29c-.55-.64-.11-1.91.42-2.57a3.39,3.39,0,0,0,1.13-2.39c0,.63-.56,1.12-.94.78a8,8,0,0,0,.67-5.49l.63-.5a3.65,3.65,0,0,0-2.94.72l1.92-4.42a6.09,6.09,0,0,1-1.75,1.77c-.1-.57.26-1.2.68-1.21l-1.16-.11,1.95-4.38a7.83,7.83,0,0,1-3,.4,7,7,0,0,1,.72-2.22l-2.37-.88a9.11,9.11,0,0,0,1.21-5.38c-.12.89-.85,1.5-1.46,1.25l1.2-3.5c-.78.57-2.07.2-2.89-.28.75-.06,1.4-1,1.39-2.09l-2-.1a3,3,0,0,0,1.14-1,.5.5,0,0,0-.63-.2,4.38,4.38,0,0,0,.52-2.79c-.12.88-1.3,1.75-1.3,1.75s.41-1.94.09-1.51-.78,1.26-.78,1.26a.78.78,0,0,1-.29-.69,1.91,1.91,0,0,1,.25-.76,7.47,7.47,0,0,0,.63-3.77,2.27,2.27,0,0,1-.19,1.07c-.17.29-.47.24-.67,0a11.15,11.15,0,0,1-.65-3.67c-.06-.07-.12-.06-.12-.06s-.05,0-.12.06a11.15,11.15,0,0,1-.65,3.67c-.2.24-.5.29-.67,0a2.27,2.27,0,0,1-.19-1.07,7.47,7.47,0,0,0,.63,3.77,1.91,1.91,0,0,1,.25.76.78.78,0,0,1-.29.69s-.53-.93-.78-1.26.09,1.51.09,1.51-1.17-.87-1.3-1.75a4.38,4.38,0,0,0,.52,2.79.5.5,0,0,0-.63.2,3,3,0,0,0,1.14,1l-2,.1c0,1.05.65,2,1.39,2.09-.81.48-2.1.85-2.89.28l1.2,3.5c-.61.26-1.34-.36-1.46-1.25a9.11,9.11,0,0,0,1.21,5.38l-2.37.88a7,7,0,0,1,.72,2.22,7.83,7.83,0,0,1-3-.4l1.95,4.38-1.16.11c.42,0,.77.63.68,1.21a6.09,6.09,0,0,1-1.75-1.77l1.92,4.42a3.65,3.65,0,0,0-2.94-.72l.63.5a8,8,0,0,0,.67,5.49c-.38.34-1-.15-.94-.78a3.4,3.4,0,0,0,1.13,2.39c.54.66,1,1.92.42,2.57a9.76,9.76,0,0,0-1.89-2.29l1.9,6.4a3.37,3.37,0,0,1-2-1.71c1.66,3.08,3.7,7.2,2.55,6.74s-1.35-2.58-2.42-3.31l.17.56a11.48,11.48,0,0,0,1.66,8.91.38.38,0,0,0-.52.05,2,2,0,0,0-.38.91,11.49,11.49,0,0,0,3.51,3.89,4.36,4.36,0,0,1,1.23,1c.24.32.41.73.64,1.06.39.56,3.72.85,4.24,1.13.52-.28,3.85-.57,4.24-1.13.23-.33.4-.74.64-1.06a4.36,4.36,0,0,1,1.23-1,11.49,11.49,0,0,0,3.51-3.89,2,2,0,0,0-.38-.91.38.38,0,0,0-.52-.05A11.48,11.48,0,0,0,226.48,297.9Z"/><path class="n" d="M273.3,301.63l.44-1.12c-2.8,1.46-3.31,5.69-6.3,6.61s2.3-7.32,6.62-13.47a8.62,8.62,0,0,1-5.31,3.42l4.93-12.79a21.7,21.7,0,0,0-4.91,4.58c-1.42-1.29-.29-3.81,1.1-5.13s3.19-2.79,2.94-4.77a1.67,1.67,0,0,1-2.43,1.55,12.71,12.71,0,0,0,1.73-11l1.65-1a11.72,11.72,0,0,0-7.65,1.44l5-8.82a14.55,14.55,0,0,1-4.56,3.54,2,2,0,0,1,1.76-2.41l-3-.23,5.07-8.74a26.1,26.1,0,0,1-7.86.8,12,12,0,0,1,1.88-4.42l-6.17-1.76a14.88,14.88,0,0,0,3.13-10.75,3.11,3.11,0,0,1-3.79,2.49l3.12-7c-2,1.14-5.38.39-7.5-.56a4.19,4.19,0,0,0,3.63-4.17l-5.23-.19a7.46,7.46,0,0,0,3-2.06,1.53,1.53,0,0,0-1.63-.4,7.08,7.08,0,0,0,1.35-5.57c-.32,1.76-3.37,3.49-3.37,3.49s1.07-3.87.22-3c-.66.66-2,2.51-2,2.51a1.48,1.48,0,0,1-.76-1.38,3.26,3.26,0,0,1,.65-1.51,11.92,11.92,0,0,0,1.64-7.53,3.63,3.63,0,0,1-.5,2.13,1.16,1.16,0,0,1-1.75,0c-.92-.84-1.53-5.09-1.69-7.32a.48.48,0,0,0-.62,0c-.16,2.23-.77,6.48-1.69,7.32a1.16,1.16,0,0,1-1.75,0,3.63,3.63,0,0,1-.5-2.13,11.92,11.92,0,0,0,1.64,7.53,3.26,3.26,0,0,1,.65,1.51,1.48,1.48,0,0,1-.76,1.38s-1.38-1.86-2-2.51c-.84-.85.22,3,.22,3s-3.05-1.73-3.37-3.49a7.08,7.08,0,0,0,1.35,5.57,1.53,1.53,0,0,0-1.63.4,7.46,7.46,0,0,0,3,2.06l-5.23.19a4.19,4.19,0,0,0,3.63,4.17c-2.12,1-5.47,1.7-7.5.56l3.12,7a3.11,3.11,0,0,1-3.79-2.49,14.88,14.88,0,0,0,3.13,10.75l-6.17,1.76a12,12,0,0,1,1.88,4.42,26.1,26.1,0,0,1-7.86-.8l5.07,8.74-3,.23a2,2,0,0,1,1.76,2.41,14.55,14.55,0,0,1-4.56-3.54l5,8.82a11.72,11.72,0,0,0-7.65-1.44l1.65,1a12.71,12.71,0,0,0,1.73,11,1.67,1.67,0,0,1-2.43-1.55c-.25,2,1.55,3.45,2.94,4.77s2.52,3.84,1.1,5.13a21.7,21.7,0,0,0-4.91-4.58l4.93,12.79a8.62,8.62,0,0,1-5.31-3.42c4.32,6.14,9.62,14.38,6.62,13.47s-3.5-5.14-6.3-6.61l.44,1.12c-1.52,6.89-.28,12.82,4.26,17.76a1.22,1.22,0,0,0-1.29.14,3.64,3.64,0,0,0-1,1.81,26.5,26.5,0,0,0,9.11,7.78,11.25,11.25,0,0,1,3.19,2c.62.65,1.06,1.46,1.66,2.13,1,1.11,9.66,1.7,11,2.26,1.35-.56,10-1.15,11-2.26.6-.66,1-1.48,1.66-2.13a11.25,11.25,0,0,1,3.19-2,26.5,26.5,0,0,0,9.11-7.78,3.64,3.64,0,0,0-1-1.81,1.22,1.22,0,0,0-1.29-.14C273.58,314.44,274.81,308.51,273.3,301.63Z"/><path class="n" d="M112.75,301.7l.44-1.12c-2.8,1.46-3.31,5.69-6.3,6.61s2.3-7.32,6.62-13.47a8.63,8.63,0,0,1-5.31,3.42l4.93-12.79a21.71,21.71,0,0,0-4.91,4.58c-1.42-1.29-.29-3.81,1.1-5.13s3.19-2.79,2.94-4.77a1.67,1.67,0,0,1-2.43,1.55,12.71,12.71,0,0,0,1.73-11l1.65-1a11.72,11.72,0,0,0-7.65,1.44l5-8.82a14.54,14.54,0,0,1-4.56,3.54,2,2,0,0,1,1.76-2.41l-3-.23,5.07-8.74a26.11,26.11,0,0,1-7.86.8,12,12,0,0,1,1.88-4.42L97.65,248a14.88,14.88,0,0,0,3.13-10.75A3.11,3.11,0,0,1,97,239.76l3.12-7c-2,1.14-5.38.39-7.5-.56a4.19,4.19,0,0,0,3.63-4.17L91,227.86a7.45,7.45,0,0,0,3-2.06,1.53,1.53,0,0,0-1.63-.4,7.08,7.08,0,0,0,1.35-5.57c-.32,1.76-3.37,3.49-3.37,3.49s1.07-3.87.23-3c-.66.66-2,2.51-2,2.51a1.48,1.48,0,0,1-.76-1.38,3.26,3.26,0,0,1,.65-1.51A11.92,11.92,0,0,0,90,212.38a3.63,3.63,0,0,1-.5,2.13,1.16,1.16,0,0,1-1.75,0c-.92-.84-1.53-5.09-1.69-7.32a.48.48,0,0,0-.62,0c-.16,2.23-.77,6.48-1.69,7.32a1.16,1.16,0,0,1-1.75,0,3.63,3.63,0,0,1-.5-2.13,11.92,11.92,0,0,0,1.64,7.53,3.26,3.26,0,0,1,.65,1.51,1.48,1.48,0,0,1-.76,1.38s-1.38-1.86-2-2.51c-.84-.85.22,3,.22,3s-3.05-1.73-3.37-3.49a7.08,7.08,0,0,0,1.35,5.57,1.53,1.53,0,0,0-1.63.4,7.45,7.45,0,0,0,3,2.06l-5.23.19A4.19,4.19,0,0,0,79,232.22c-2.12,1-5.47,1.7-7.5.56l3.12,7a3.11,3.11,0,0,1-3.79-2.49A14.88,14.88,0,0,0,73.92,248l-6.17,1.76a12,12,0,0,1,1.88,4.42,26.11,26.11,0,0,1-7.86-.8l5.07,8.74-3,.23a2,2,0,0,1,1.76,2.41A14.54,14.54,0,0,1,61,261.24l5,8.82a11.72,11.72,0,0,0-7.65-1.44l1.65,1a12.71,12.71,0,0,0,1.73,11A1.67,1.67,0,0,1,59.31,279c-.25,2,1.55,3.45,2.94,4.77s2.52,3.84,1.1,5.13a21.71,21.71,0,0,0-4.91-4.58l4.93,12.79a8.63,8.63,0,0,1-5.31-3.42c4.32,6.14,9.62,14.38,6.62,13.47s-3.5-5.14-6.3-6.61l.44,1.12c-1.52,6.89-.28,12.82,4.26,17.76a1.22,1.22,0,0,0-1.29.14,3.64,3.64,0,0,0-1,1.81,26.5,26.5,0,0,0,9.11,7.78,11.24,11.24,0,0,1,3.19,2c.62.65,1.06,1.46,1.66,2.13,1,1.11,9.66,1.7,11,2.26,1.35-.56,10-1.15,11-2.26.6-.66,1-1.48,1.66-2.13a11.24,11.24,0,0,1,3.19-2,26.5,26.5,0,0,0,9.11-7.78,3.64,3.64,0,0,0-1-1.81,1.22,1.22,0,0,0-1.29-.14C113,314.52,114.27,308.59,112.75,301.7Z"/><path class="n" d="M355.31,266l.36-.85c-2.31,1.11-2.72,4.33-5.19,5s1.89-5.57,5.45-10.25a7.18,7.18,0,0,1-4.37,2.6l4.06-9.74a17.4,17.4,0,0,0-4,3.48c-1.17-1-.24-2.9.91-3.9s2.63-2.12,2.42-3.63a1.37,1.37,0,0,1-2,1.18,9.07,9.07,0,0,0,1.43-8.34l1.36-.76a10.32,10.32,0,0,0-6.3,1.09l4.12-6.71a11.91,11.91,0,0,1-3.75,2.7A1.56,1.56,0,0,1,351.2,236l-2.49-.17,4.17-6.65a23.18,23.18,0,0,1-6.47.61,8.76,8.76,0,0,1,1.55-3.37l-5.08-1.34a10.74,10.74,0,0,0,2.58-8.18,2.57,2.57,0,0,1-3.12,1.89l2.57-5.31c-1.68.87-4.43.3-6.18-.42a3.28,3.28,0,0,0,3-3.17l-4.3-.15a6.17,6.17,0,0,0,2.43-1.57,1.33,1.33,0,0,0-1.34-.31,5.09,5.09,0,0,0,1.11-4.24c-.26,1.34-2.78,2.66-2.78,2.66s.88-2.94.19-2.3c-.54.5-1.68,1.91-1.68,1.91a1.12,1.12,0,0,1-.63-1.05,2.38,2.38,0,0,1,.53-1.15,8.52,8.52,0,0,0,1.35-5.73,2.6,2.6,0,0,1-.41,1.62,1,1,0,0,1-1.44,0c-.76-.64-1.26-3.87-1.39-5.57a.42.42,0,0,0-.51,0c-.13,1.7-.63,4.93-1.39,5.57a1,1,0,0,1-1.44,0,2.6,2.6,0,0,1-.41-1.62A8.52,8.52,0,0,0,331,203.7a2.39,2.39,0,0,1,.53,1.15,1.12,1.12,0,0,1-.63,1.05s-1.14-1.41-1.68-1.91c-.7-.64.19,2.3.19,2.3s-2.51-1.32-2.78-2.66a5.09,5.09,0,0,0,1.11,4.24,1.33,1.33,0,0,0-1.34.31,6.17,6.17,0,0,0,2.43,1.57l-4.3.15a3.28,3.28,0,0,0,3,3.17c-1.74.72-4.5,1.29-6.18.42l2.57,5.31a2.57,2.57,0,0,1-3.12-1.89,10.74,10.74,0,0,0,2.58,8.18l-5.08,1.34a8.76,8.76,0,0,1,1.55,3.37,23.18,23.18,0,0,1-6.47-.61l4.17,6.65L315,236a1.56,1.56,0,0,1,1.45,1.83,11.91,11.91,0,0,1-3.75-2.7l4.12,6.71a10.32,10.32,0,0,0-6.3-1.09l1.36.76a9.07,9.07,0,0,0,1.43,8.34,1.37,1.37,0,0,1-2-1.18c-.21,1.51,1.27,2.63,2.42,3.63s2.07,2.92.91,3.9a17.4,17.4,0,0,0-4-3.48l4.06,9.74a7.18,7.18,0,0,1-4.37-2.6c3.56,4.68,7.92,10.95,5.45,10.25s-2.88-3.91-5.19-5l.36.85c-1.25,5.25-.23,9.77,3.52,13.54a1.06,1.06,0,0,0-1.08.09,2.72,2.72,0,0,0-.81,1.38,21.46,21.46,0,0,0,7.5,5.92,9.39,9.39,0,0,1,2.62,1.53c.51.49.87,1.11,1.37,1.62.84.85,8,1.3,9.07,1.72,1.12-.42,8.23-.87,9.07-1.72.5-.5.86-1.13,1.37-1.62a9.39,9.39,0,0,1,2.62-1.53,21.46,21.46,0,0,0,7.5-5.92,2.72,2.72,0,0,0-.81-1.38,1.06,1.06,0,0,0-1.08-.09C355.54,275.72,356.56,271.21,355.31,266Z"/><path class="n" d="M498.33,278.15l.64-1.52c-4.12,2-4.86,7.73-9.26,9s3.38-9.95,9.73-18.3a12.82,12.82,0,0,1-7.8,4.64l7.25-17.38a31.06,31.06,0,0,0-7.21,6.22c-2.08-1.75-.43-5.18,1.62-7s4.69-3.79,4.32-6.48a2.45,2.45,0,0,1-3.58,2.1,16.2,16.2,0,0,0,2.54-14.89L499,233.2a18.42,18.42,0,0,0-11.24,2l7.35-12a21.24,21.24,0,0,1-6.7,4.81,2.79,2.79,0,0,1,2.58-3.27l-4.44-.31L494,212.52a41.37,41.37,0,0,1-11.56,1.09,15.63,15.63,0,0,1,2.77-6l-9.07-2.39a19.17,19.17,0,0,0,4.61-14.61,4.58,4.58,0,0,1-5.57,3.38l4.59-9.48c-3,1.55-7.91.53-11-.76a5.86,5.86,0,0,0,5.33-5.67l-7.68-.26a11,11,0,0,0,4.35-2.8,2.38,2.38,0,0,0-2.39-.55,9.08,9.08,0,0,0,2-7.57c-.47,2.39-5,4.74-5,4.74s1.57-5.25.33-4.11c-1,.89-3,3.41-3,3.41a2,2,0,0,1-1.12-1.88,4.26,4.26,0,0,1,1-2.05,15.21,15.21,0,0,0,2.42-10.23,4.64,4.64,0,0,1-.73,2.9,1.79,1.79,0,0,1-2.56,0c-1.35-1.14-2.25-6.91-2.48-9.95a.74.74,0,0,0-.91,0c-.23,3-1.13,8.8-2.48,9.95a1.79,1.79,0,0,1-2.56,0,4.64,4.64,0,0,1-.73-2.9A15.21,15.21,0,0,0,454.89,167a4.26,4.26,0,0,1,1,2.05,2,2,0,0,1-1.12,1.88s-2-2.52-3-3.41c-1.24-1.15.33,4.11.33,4.11s-4.49-2.35-5-4.74a9.08,9.08,0,0,0,2,7.57,2.38,2.38,0,0,0-2.39.55,11,11,0,0,0,4.35,2.8l-7.68.26a5.86,5.86,0,0,0,5.33,5.67c-3.11,1.29-8,2.31-11,.76l4.59,9.48a4.58,4.58,0,0,1-5.57-3.38,19.17,19.17,0,0,0,4.61,14.61l-9.07,2.39a15.63,15.63,0,0,1,2.77,6,41.37,41.37,0,0,1-11.56-1.09l7.45,11.87-4.44.31A2.79,2.79,0,0,1,429,228a21.24,21.24,0,0,1-6.7-4.81l7.35,12a18.42,18.42,0,0,0-11.24-2l2.42,1.36a16.2,16.2,0,0,0,2.54,14.89,2.45,2.45,0,0,1-3.58-2.1c-.37,2.69,2.27,4.69,4.32,6.48s3.7,5.22,1.62,7a31.06,31.06,0,0,0-7.21-6.22l7.25,17.38a12.82,12.82,0,0,1-7.8-4.64c6.35,8.35,14.14,19.54,9.73,18.3s-5.14-7-9.26-9l.64,1.52c-2.23,9.36-.42,17.41,6.26,24.14a1.92,1.92,0,0,0-1.9.19,4.85,4.85,0,0,0-1.44,2.46,38.3,38.3,0,0,0,13.39,10.57,16.78,16.78,0,0,1,4.68,2.73c.91.88,1.56,2,2.45,2.89,1.5,1.51,14.2,2.31,16.19,3.07,2-.76,14.69-1.56,16.19-3.07.89-.9,1.54-2,2.45-2.89A16.78,16.78,0,0,1,482,315.5a38.3,38.3,0,0,0,13.39-10.57,4.85,4.85,0,0,0-1.44-2.46,1.92,1.92,0,0,0-1.9-.19C498.74,295.56,500.56,287.51,498.33,278.15Z"/><path class="o" d="M657.61,212.78l.4-.94c-2.54,1.23-3,4.77-5.72,5.54s2.09-6.14,6-11.29a7.91,7.91,0,0,1-4.82,2.87L658,198.23a19.17,19.17,0,0,0-4.45,3.84c-1.29-1.08-.27-3.19,1-4.3s2.9-2.34,2.67-4a1.51,1.51,0,0,1-2.21,1.3,10,10,0,0,0,1.57-9.19L658,185a11.37,11.37,0,0,0-6.94,1.21l4.53-7.4a13.1,13.1,0,0,1-4.14,3,1.72,1.72,0,0,1,1.59-2l-2.74-.19,4.6-7.33a25.54,25.54,0,0,1-7.13.67,9.65,9.65,0,0,1,1.71-3.71l-5.6-1.47a11.83,11.83,0,0,0,2.84-9,2.83,2.83,0,0,1-3.44,2.08l2.83-5.85c-1.85,1-4.88.33-6.81-.47a3.62,3.62,0,0,0,3.29-3.5l-4.74-.16a6.79,6.79,0,0,0,2.68-1.73,1.47,1.47,0,0,0-1.48-.34,5.6,5.6,0,0,0,1.22-4.67c-.29,1.48-3.06,2.93-3.06,2.93s1-3.24.2-2.53c-.59.55-1.85,2.11-1.85,2.11a1.24,1.24,0,0,1-.69-1.16,2.63,2.63,0,0,1,.59-1.27,9.39,9.39,0,0,0,1.49-6.32,2.86,2.86,0,0,1-.45,1.79,1.11,1.11,0,0,1-1.58,0c-.83-.71-1.39-4.27-1.53-6.14a.46.46,0,0,0-.56,0c-.14,1.87-.7,5.43-1.53,6.14a1.11,1.11,0,0,1-1.58,0,2.86,2.86,0,0,1-.45-1.79,9.39,9.39,0,0,0,1.49,6.32,2.63,2.63,0,0,1,.59,1.27,1.24,1.24,0,0,1-.69,1.16s-1.26-1.56-1.85-2.11c-.77-.71.2,2.53.2,2.53s-2.77-1.45-3.06-2.93a5.6,5.6,0,0,0,1.22,4.67,1.47,1.47,0,0,0-1.48.34,6.79,6.79,0,0,0,2.68,1.73l-4.74.16a3.62,3.62,0,0,0,3.29,3.5c-1.92.8-5,1.43-6.81.47l2.83,5.85a2.83,2.83,0,0,1-3.44-2.08,11.83,11.83,0,0,0,2.84,9l-5.6,1.47a9.65,9.65,0,0,1,1.71,3.71,25.54,25.54,0,0,1-7.13-.67l4.6,7.33-2.74.19a1.72,1.72,0,0,1,1.59,2,13.1,13.1,0,0,1-4.14-3l4.53,7.4a11.37,11.37,0,0,0-6.94-1.21l1.49.84a10,10,0,0,0,1.57,9.19,1.51,1.51,0,0,1-2.21-1.3c-.23,1.66,1.4,2.9,2.67,4s2.28,3.22,1,4.3a19.17,19.17,0,0,0-4.45-3.84L612.83,209a7.91,7.91,0,0,1-4.82-2.87c3.92,5.15,8.73,12.06,6,11.29s-3.17-4.31-5.72-5.54l.4.94c-1.38,5.79-.25,10.76,3.88,14.92a1.17,1.17,0,0,0-1.19.1,3,3,0,0,0-.89,1.52,23.64,23.64,0,0,0,8.27,6.52,10.36,10.36,0,0,1,2.89,1.68c.56.54,1,1.23,1.51,1.78.92.93,8.76,1.43,10,1.9,1.23-.47,9.07-1,10-1.9.55-.55.95-1.24,1.51-1.78a10.36,10.36,0,0,1,2.89-1.68,23.64,23.64,0,0,0,8.27-6.52,3,3,0,0,0-.89-1.52,1.17,1.17,0,0,0-1.19-.1C657.87,223.54,659,218.56,657.61,212.78Z"/><path class="p" d="M-21.23,351.4S-6.41,323,12.92,323,19.16,298.81,36,298.81s15.59-29.42,39.29-29.42S104,284.8,123.93,284.8s3.74,14,20,14,11.85-14,27.44-14S196.27,313,206.25,313s24.95,11.23,38,11.23,18.09,27.13,18.09,27.13Z"/><path class="n" d="M294.85,279.56a3.69,3.69,0,0,0,3.53-2.74,10.79,10.79,0,0,0,.06-4.79,8.75,8.75,0,0,1-5.48,1.43c-.06-.7.75-1.09,1.37-1.42a4.9,4.9,0,0,0,2.45-4.77l-5,1.59q2.2-4.54,4.44-9.06a10.2,10.2,0,0,1-4,1.93,1.54,1.54,0,0,0,.63-2.45,57.3,57.3,0,0,0,4.06-5.24,8,8,0,0,1-4.67,1.34l4.35-4.38-3.18,1.34a15.23,15.23,0,0,0,4.3-7,30.19,30.19,0,0,0-6.62,4,14.21,14.21,0,0,0,3.22-5.76,5,5,0,0,0-2.59,3.1c.18-1.38,1.45-3.14,1.26-4.53-.16-1.18,1.33-3.69,1.31-4.88,0-.72-3,.23-2.83-.5.47-1.86,1.6-3.51,3.4-3.9a9.48,9.48,0,0,0-6.45.82,10.18,10.18,0,0,0,2.09-5.24,3.65,3.65,0,0,1-2.78,2.24,10.76,10.76,0,0,1-3.71-.06,40.92,40.92,0,0,1,5.28-4.1l-1.82,0a5.75,5.75,0,0,1,1.79-3,5.68,5.68,0,0,1-5.7.72,12.21,12.21,0,0,0,5.35-6.49,8.57,8.57,0,0,1-6.91,2.43,51.43,51.43,0,0,0,6.32-6.55l-5.76,3.75a13.44,13.44,0,0,0,4.46-7.28,4.18,4.18,0,0,1-5.26,1.85,4.33,4.33,0,0,0,2.84-3.44,2.59,2.59,0,0,1-3.19.32,7.76,7.76,0,0,1,.61-4.29,4.45,4.45,0,0,1-2.37,1.23,11,11,0,0,1,1.6-4.33,19.46,19.46,0,0,1-3.31,2.25,17.68,17.68,0,0,0-1.29-6.06,16.47,16.47,0,0,1-1.43-5.94.45.45,0,0,0-.55,0,16.47,16.47,0,0,1-1.43,5.94,17.68,17.68,0,0,0-1.29,6.06,19.46,19.46,0,0,1-3.31-2.25,11,11,0,0,1,1.6,4.33,4.45,4.45,0,0,1-2.37-1.23,7.76,7.76,0,0,1,.61,4.29,2.59,2.59,0,0,1-3.19-.32,4.33,4.33,0,0,0,2.84,3.44,4.18,4.18,0,0,1-5.26-1.85,13.44,13.44,0,0,0,4.46,7.28l-5.76-3.75a51.43,51.43,0,0,0,6.32,6.55,8.57,8.57,0,0,1-6.91-2.43,12.21,12.21,0,0,0,5.35,6.49,5.68,5.68,0,0,1-5.7-.72,5.75,5.75,0,0,1,1.79,3l-1.82,0a40.92,40.92,0,0,1,5.28,4.1,10.76,10.76,0,0,1-3.71.06,3.65,3.65,0,0,1-2.78-2.24,10.18,10.18,0,0,0,2.09,5.24,9.48,9.48,0,0,0-6.45-.82c1.81.39,2.93,2,3.4,3.9.19.73-2.82-.23-2.83.5,0,1.18,1.47,3.7,1.31,4.88-.19,1.39,1.08,3.15,1.26,4.53a5,5,0,0,0-2.59-3.1,14.21,14.21,0,0,0,3.22,5.76,30.19,30.19,0,0,0-6.62-4,15.23,15.23,0,0,0,4.3,7L253.38,251l4.35,4.38a8,8,0,0,1-4.67-1.34,57.3,57.3,0,0,0,4.06,5.24,1.54,1.54,0,0,0,.63,2.45,10.2,10.2,0,0,1-4-1.93q2.24,4.52,4.44,9.06l-5-1.59a4.9,4.9,0,0,0,2.45,4.77c.61.34,1.43.73,1.37,1.42a8.75,8.75,0,0,1-5.48-1.43,10.79,10.79,0,0,0,.06,4.79,3.69,3.69,0,0,0,3.53,2.74c-1.18.37-3.26.57-4.11-.34a6.5,6.5,0,0,0,2.59,3.92c1.51,1.06,3.74,1.85,3.8,3.7a7.68,7.68,0,0,1-2.52-.5,13.49,13.49,0,0,1,3.76,6.15c-2.24-1-2-2-4.46-2.12,1.4,3.36,2.71,16.52,20.78,16.52s19.38-13.16,20.78-16.52c-2.45.1-2.22,1.13-4.46,2.12a13.49,13.49,0,0,1,3.76-6.15,7.68,7.68,0,0,1-2.52.5c.06-1.85,2.28-2.64,3.8-3.7a6.5,6.5,0,0,0,2.59-3.92C298.11,280.13,296,279.93,294.85,279.56Z"/><path class="d" d="M-14.25,376.8s-3.24-12.7-2.27-16.14,3.18-6.37,5.35-9.21c1.58-2.07,12.74-13.65,22.05-11,4.12,1.16,25.12-10,31.38-8.26s22.22,1.72,23.9,2.42a44.84,44.84,0,0,0,12.4,2.9,12,12,0,0,0,4.64-.13c3.49-1,5.41-4.63,8.13-7a13.58,13.58,0,0,1,14.21-2.16c1.45.65,2.77,1.56,4.27,2.09,5.32,1.9,11-1.28,15.85-4.12,5.31-3.09,9.24-3.44,15.16-3.47,3.6,0,8.62,0,11.79-1.93,5.29-3.26,5-7,12.65-7,14.94,0,9.87,7.13,20.59,7.13s17.21-17.59,32.72-17.59c15.36,0,15.79-10.7,15.79-10.91.13-3.87,15.23-7.52,17.62-8,7.2-1.41,11.66.28,18.15,1.43,7.53,1.34,12.43-3.36,19.15-6.18a23,23,0,0,1,27,7.9,29.89,29.89,0,0,1,50.23,3A54.93,54.93,0,0,1,394,276c5.31-1.05,10.91-1.29,16,.45s9.49,5.41,14.17,8.27c7,4.26,15.18,6.84,23.33,6.15,4.49-.38,8.85-1.73,13.34-2.11,11.61-1,21.81,4.59,31.32,10.53,5.35,3.34,6.64,4.69,12.23,1.63,5.35-2.94,10.15-8.89,14.79-12.87,16-13.72,32.63-26.81,50.38-38.2,21.46-13.77,45.91-26.49,71.87-28,32.63-1.93,51.74,19.35,79.57,30.89a43.13,43.13,0,0,0,16.5,3.63c49.41,0,76.5-32.25,111.79-32.25S914.65,261,939,261s35.48-31.34,71.56-31.34,49.74,23.5,81.89,23.5,49.41,16.72,49.41,16.72,14.12-11.15,29.81-11.15a23.09,23.09,0,0,1,21.18,13s16.47-13.62,32.16-13.62,16.47,18.58,16.47,18.58,11-36.53,43.92-36.53S1316,270.45,1316,270.45s13.33-18,37.65-18V376.8H-14.25Z"/></g><path class="l" d="M1100,114.91a13.41,13.41,0,0,1-7.31,11.95H931.14a21,21,0,0,1,27-29.2A24.36,24.36,0,0,1,986.21,86.9a21.9,21.9,0,0,1,39.7-5.33A13.42,13.42,0,0,1,1048.45,85a25.83,25.83,0,0,1,35.35,16.82,13.87,13.87,0,0,1,2.75-.28A13.41,13.41,0,0,1,1100,114.91Z"/></g><polyline class="q" points="0 604.31 178.95 604.31 827.16 0 1.25 0"/><g class="r"><line class="i" x1="261.41" y1="530.49" x2="501.18" y2="303.39"/><polygon points="261.41 530.49 500.49 302.67 501.21 301.98 502.59 303.43 501.86 304.12 261.41 530.49"/></g><g class="r"><polygon points="501.18 384.79 500.18 299.21 500.17 298.21 502.19 298.21 502.18 299.21 501.18 384.79"/></g><line class="s" x1="500.61" y1="304.82" x2="688.55" y2="129.77"/><circle class="t" cx="688.55" cy="129.77" r="3.65"/><circle class="u" cx="501.18" cy="299.26" r="7.31"/></svg>