<svg xmlns="http://www.w3.org/2000/svg" width="1084" height="385" viewBox="0 0 1084 385"><defs><style>.a{fill:#cddadb;}.b{fill:#9cb5b7;}.c{fill:#83a3a5;}.d{fill:#ebedf2;}.e{fill:#f5f6f9;}.f{fill:none;}</style></defs><title>BG-hero-loop-right</title><path class="a" d="M14.49,228a3.11,3.11,0,0,1-3-2.31,9.08,9.08,0,0,1-.05-4,7.37,7.37,0,0,0,4.62,1.2c0-.59-.63-.92-1.15-1.2a4.12,4.12,0,0,1-2.06-4L17.06,219q-1.85-3.82-3.74-7.63A8.59,8.59,0,0,0,16.69,213a1.29,1.29,0,0,1-.53-2.07,48.22,48.22,0,0,1-3.42-4.41,6.74,6.74,0,0,0,3.94,1.13L13,204l2.68,1.13a12.82,12.82,0,0,1-3.62-5.92,25.43,25.43,0,0,1,5.57,3.39,12,12,0,0,1-2.72-4.85,4.17,4.17,0,0,1,2.18,2.61c-.16-1.16-1.22-2.65-1.06-3.81.13-1-1.12-3.11-1.1-4.11,0-.61,2.54.19,2.38-.42a4.14,4.14,0,0,0-2.87-3.29,8,8,0,0,1,5.43.69A8.57,8.57,0,0,1,18.12,185a3.07,3.07,0,0,0,2.34,1.88,9.07,9.07,0,0,0,3.13-.05,34.47,34.47,0,0,0-4.45-3.46l1.53,0a4.84,4.84,0,0,0-1.51-2.53,4.79,4.79,0,0,0,4.8.6,10.28,10.28,0,0,1-4.51-5.47,7.22,7.22,0,0,0,5.82,2A43.32,43.32,0,0,1,20,172.46l4.85,3.16A11.32,11.32,0,0,1,21,169.49,3.52,3.52,0,0,0,25.48,171a3.65,3.65,0,0,1-2.39-2.9,2.18,2.18,0,0,0,2.69.27,6.53,6.53,0,0,0-.51-3.61,3.75,3.75,0,0,0,2,1,9.3,9.3,0,0,0-1.35-3.65,16.36,16.36,0,0,0,2.78,1.9,14.88,14.88,0,0,1,1.08-5.1,13.87,13.87,0,0,0,1.2-5,.38.38,0,0,1,.46,0,13.87,13.87,0,0,0,1.2,5,14.89,14.89,0,0,1,1.08,5.1,16.37,16.37,0,0,0,2.78-1.9,9.3,9.3,0,0,0-1.35,3.65,3.75,3.75,0,0,0,2-1,6.53,6.53,0,0,0-.51,3.61,2.18,2.18,0,0,0,2.69-.27,3.65,3.65,0,0,1-2.39,2.9,3.52,3.52,0,0,0,4.43-1.55,11.32,11.32,0,0,1-3.76,6.13l4.85-3.16A43.34,43.34,0,0,1,37.13,178a7.22,7.22,0,0,0,5.82-2,10.28,10.28,0,0,1-4.51,5.47,4.79,4.79,0,0,0,4.8-.6,4.84,4.84,0,0,0-1.51,2.53l1.53,0a34.48,34.48,0,0,0-4.45,3.46,9.07,9.07,0,0,0,3.13.05A3.07,3.07,0,0,0,44.29,185a8.57,8.57,0,0,1-1.76,4.41A8,8,0,0,1,48,188.7,4.14,4.14,0,0,0,45.09,192c-.16.61,2.37-.19,2.38.42,0,1-1.24,3.11-1.1,4.11.16,1.17-.91,2.65-1.06,3.81a4.17,4.17,0,0,1,2.18-2.61,12,12,0,0,1-2.72,4.85,25.43,25.43,0,0,1,5.57-3.39,12.82,12.82,0,0,1-3.62,5.92L49.41,204l-3.67,3.69a6.74,6.74,0,0,0,3.94-1.13,48.22,48.22,0,0,1-3.42,4.41,1.29,1.29,0,0,1-.53,2.07,8.59,8.59,0,0,0,3.37-1.62q-1.89,3.8-3.74,7.63l4.18-1.34a4.12,4.12,0,0,1-2.06,4c-.52.28-1.2.61-1.15,1.2a7.37,7.37,0,0,0,4.62-1.2,9.08,9.08,0,0,1-.05,4,3.11,3.11,0,0,1-3,2.31c1,.31,2.75.48,3.46-.28A5.47,5.47,0,0,1,49.2,231c-1.27.89-3.15,1.56-3.2,3.11a6.47,6.47,0,0,0,2.12-.42A11.36,11.36,0,0,0,45,238.9c1.88-.84,1.69-1.7,3.75-1.79C47.53,239.94,46.43,251,31.21,251s-16.32-11.08-17.5-13.91c2.06.08,1.87.95,3.75,1.79a11.36,11.36,0,0,0-3.17-5.18,6.47,6.47,0,0,0,2.12.42c-.05-1.56-1.92-2.22-3.2-3.11a5.47,5.47,0,0,1-2.18-3.3C11.74,228.5,13.5,228.33,14.49,228Z"/><path class="a" d="M202,233.19a3.11,3.11,0,0,1-3-2.31,9.08,9.08,0,0,1-.05-4,7.37,7.37,0,0,0,4.62,1.2c0-.59-.63-.92-1.15-1.2a4.12,4.12,0,0,1-2.06-4l4.18,1.34q-1.85-3.82-3.74-7.63a8.59,8.59,0,0,0,3.37,1.62,1.29,1.29,0,0,1-.53-2.07,48.21,48.21,0,0,1-3.42-4.41,6.74,6.74,0,0,0,3.94,1.13l-3.67-3.69,2.68,1.13a12.82,12.82,0,0,1-3.62-5.92,25.43,25.43,0,0,1,5.57,3.39,12,12,0,0,1-2.72-4.85,4.17,4.17,0,0,1,2.18,2.61c-.16-1.16-1.22-2.65-1.06-3.81.13-1-1.12-3.11-1.1-4.11,0-.61,2.54.19,2.38-.42a4.14,4.14,0,0,0-2.87-3.29,8,8,0,0,1,5.43.69,8.57,8.57,0,0,1-1.76-4.41A3.07,3.07,0,0,0,208,192a9.07,9.07,0,0,0,3.13-.05,34.44,34.44,0,0,0-4.45-3.46l1.53,0A4.84,4.84,0,0,0,206.7,186a4.79,4.79,0,0,0,4.8.6,10.28,10.28,0,0,1-4.51-5.47,7.22,7.22,0,0,0,5.82,2,43.31,43.31,0,0,1-5.33-5.51l4.85,3.16a11.32,11.32,0,0,1-3.76-6.13,3.52,3.52,0,0,0,4.43,1.56,3.65,3.65,0,0,1-2.39-2.9,2.18,2.18,0,0,0,2.69.27,6.53,6.53,0,0,0-.51-3.61,3.75,3.75,0,0,0,2,1,9.29,9.29,0,0,0-1.35-3.65,16.4,16.4,0,0,0,2.78,1.9,14.89,14.89,0,0,1,1.08-5.1,13.87,13.87,0,0,0,1.2-5,.38.38,0,0,1,.46,0,13.87,13.87,0,0,0,1.2,5,14.89,14.89,0,0,1,1.08,5.1,16.4,16.4,0,0,0,2.78-1.9,9.29,9.29,0,0,0-1.35,3.65,3.75,3.75,0,0,0,2-1,6.53,6.53,0,0,0-.51,3.61,2.18,2.18,0,0,0,2.69-.27,3.65,3.65,0,0,1-2.39,2.9,3.52,3.52,0,0,0,4.43-1.56,11.32,11.32,0,0,1-3.75,6.13l4.85-3.16a43.31,43.31,0,0,1-5.33,5.51,7.22,7.22,0,0,0,5.82-2,10.28,10.28,0,0,1-4.51,5.47,4.79,4.79,0,0,0,4.8-.6,4.84,4.84,0,0,0-1.51,2.53l1.53,0a34.45,34.45,0,0,0-4.45,3.46,9.07,9.07,0,0,0,3.13.05,3.07,3.07,0,0,0,2.34-1.88,8.57,8.57,0,0,1-1.76,4.41,8,8,0,0,1,5.43-.69,4.14,4.14,0,0,0-2.87,3.29c-.16.61,2.37-.19,2.38.42,0,1-1.24,3.11-1.1,4.11.16,1.17-.91,2.65-1.06,3.81a4.17,4.17,0,0,1,2.18-2.61,12,12,0,0,1-2.72,4.85,25.43,25.43,0,0,1,5.57-3.39,12.82,12.82,0,0,1-3.62,5.92l2.68-1.13-3.67,3.69a6.74,6.74,0,0,0,3.94-1.12,48.21,48.21,0,0,1-3.42,4.41,1.29,1.29,0,0,1-.53,2.07,8.59,8.59,0,0,0,3.37-1.62q-1.89,3.8-3.74,7.63l4.18-1.34a4.12,4.12,0,0,1-2.06,4c-.52.28-1.2.61-1.15,1.2a7.37,7.37,0,0,0,4.62-1.2,9.08,9.08,0,0,1-.05,4,3.11,3.11,0,0,1-3,2.31c1,.31,2.75.48,3.46-.28a5.47,5.47,0,0,1-2.18,3.3c-1.27.89-3.15,1.56-3.2,3.11a6.47,6.47,0,0,0,2.12-.42,11.36,11.36,0,0,0-3.17,5.18c1.88-.84,1.69-1.7,3.75-1.79-1.18,2.83-2.28,13.91-17.5,13.91s-16.32-11.08-17.5-13.91c2.06.08,1.87.95,3.75,1.79a11.36,11.36,0,0,0-3.17-5.18,6.47,6.47,0,0,0,2.12.42c-.05-1.56-1.92-2.22-3.2-3.11a5.47,5.47,0,0,1-2.18-3.3C199.28,233.67,201,233.5,202,233.19Z"/><path class="a" d="M542,158.07v97.11c-15.22,0-16.32-11.09-17.5-13.91,2.06.08,1.87.94,3.75,1.78a11.4,11.4,0,0,0-3.16-5.18,6.36,6.36,0,0,0,2.12.43c0-1.56-1.93-2.22-3.2-3.12a5.47,5.47,0,0,1-2.18-3.29c.71.76,2.46.59,3.46.28a3.12,3.12,0,0,1-3-2.31,9.28,9.28,0,0,1-.05-4,7.4,7.4,0,0,0,4.62,1.21c0-.59-.63-.92-1.15-1.2a4.12,4.12,0,0,1-2.06-4l4.18,1.34c-1.23-2.55-2.48-5.09-3.73-7.63a8.47,8.47,0,0,0,3.36,1.62,1.28,1.28,0,0,1-.52-2.06,50.09,50.09,0,0,1-3.43-4.41,6.73,6.73,0,0,0,3.94,1.12l-3.67-3.69,2.68,1.13a12.77,12.77,0,0,1-3.61-5.92,25.42,25.42,0,0,1,5.57,3.4,12.07,12.07,0,0,1-2.72-4.86,4.16,4.16,0,0,1,2.18,2.62c-.15-1.17-1.22-2.65-1.06-3.82.14-1-1.12-3.11-1.1-4.1,0-.61,2.54.19,2.38-.42a4.14,4.14,0,0,0-2.87-3.29,8,8,0,0,1,5.43.69,8.55,8.55,0,0,1-1.76-4.41,3.05,3.05,0,0,0,2.34,1.88,8.85,8.85,0,0,0,3.12-.05,34.58,34.58,0,0,0-4.44-3.46l1.53,0a4.89,4.89,0,0,0-1.51-2.53,4.78,4.78,0,0,0,4.8.6,10.27,10.27,0,0,1-4.5-5.46,7.21,7.21,0,0,0,5.82,2,43.35,43.35,0,0,1-5.33-5.51l4.85,3.16a11.33,11.33,0,0,1-3.76-6.14,3.51,3.51,0,0,0,4.43,1.56,3.64,3.64,0,0,1-2.39-2.9,2.17,2.17,0,0,0,2.69.27,6.67,6.67,0,0,0-.51-3.61,3.7,3.7,0,0,0,2,1,9.17,9.17,0,0,0-1.35-3.65,16.87,16.87,0,0,0,2.78,1.9,14.81,14.81,0,0,1,1.09-5.1,13.89,13.89,0,0,0,1.2-5A.31.31,0,0,1,542,158.07Z"/><path class="a" d="M452.67,264.73a3.11,3.11,0,0,1-3-2.31,9.08,9.08,0,0,1-.05-4,7.37,7.37,0,0,0,4.62,1.2c0-.59-.63-.92-1.15-1.2a4.12,4.12,0,0,1-2.06-4l4.18,1.34q-1.85-3.82-3.74-7.63a8.59,8.59,0,0,0,3.37,1.62,1.29,1.29,0,0,1-.53-2.07,48.23,48.23,0,0,1-3.42-4.41,6.75,6.75,0,0,0,3.94,1.13l-3.67-3.69,2.68,1.13a12.82,12.82,0,0,1-3.62-5.92,25.43,25.43,0,0,1,5.57,3.39,12,12,0,0,1-2.72-4.85,4.17,4.17,0,0,1,2.18,2.61c-.16-1.16-1.22-2.65-1.06-3.81.13-1-1.12-3.11-1.1-4.11,0-.61,2.54.19,2.38-.42a4.14,4.14,0,0,0-2.87-3.29,8,8,0,0,1,5.43.69,8.57,8.57,0,0,1-1.76-4.41,3.07,3.07,0,0,0,2.34,1.88,9.07,9.07,0,0,0,3.13-.05,34.44,34.44,0,0,0-4.45-3.46l1.53,0a4.84,4.84,0,0,0-1.51-2.53,4.79,4.79,0,0,0,4.8.6,10.28,10.28,0,0,1-4.51-5.47,7.22,7.22,0,0,0,5.82,2,43.31,43.31,0,0,1-5.33-5.51l4.85,3.16a11.32,11.32,0,0,1-3.76-6.13,3.52,3.52,0,0,0,4.43,1.55,3.65,3.65,0,0,1-2.39-2.9,2.18,2.18,0,0,0,2.69.27,6.53,6.53,0,0,0-.51-3.61,3.75,3.75,0,0,0,2,1,9.29,9.29,0,0,0-1.35-3.65,16.39,16.39,0,0,0,2.78,1.9,14.89,14.89,0,0,1,1.08-5.1,13.87,13.87,0,0,0,1.2-5,.38.38,0,0,1,.46,0,13.87,13.87,0,0,0,1.2,5,14.89,14.89,0,0,1,1.08,5.1,16.39,16.39,0,0,0,2.78-1.9,9.29,9.29,0,0,0-1.35,3.65,3.75,3.75,0,0,0,2-1,6.53,6.53,0,0,0-.51,3.61,2.18,2.18,0,0,0,2.69-.27,3.65,3.65,0,0,1-2.39,2.9,3.52,3.52,0,0,0,4.43-1.55,11.32,11.32,0,0,1-3.76,6.13l4.85-3.16a43.31,43.31,0,0,1-5.33,5.51,7.22,7.22,0,0,0,5.82-2,10.28,10.28,0,0,1-4.51,5.47,4.79,4.79,0,0,0,4.8-.6,4.84,4.84,0,0,0-1.51,2.53l1.53,0a34.44,34.44,0,0,0-4.45,3.46,9.07,9.07,0,0,0,3.13.05,3.08,3.08,0,0,0,2.34-1.88,8.57,8.57,0,0,1-1.76,4.41,8,8,0,0,1,5.43-.69,4.14,4.14,0,0,0-2.87,3.29c-.16.61,2.37-.19,2.38.42,0,1-1.24,3.11-1.1,4.11.16,1.17-.91,2.65-1.06,3.81a4.17,4.17,0,0,1,2.18-2.61,12,12,0,0,1-2.72,4.85,25.43,25.43,0,0,1,5.57-3.39,12.82,12.82,0,0,1-3.62,5.92l2.68-1.13-3.67,3.69a6.75,6.75,0,0,0,3.94-1.12,48.23,48.23,0,0,1-3.42,4.41,1.29,1.29,0,0,1-.53,2.07,8.59,8.59,0,0,0,3.37-1.62q-1.89,3.8-3.74,7.63l4.18-1.34a4.12,4.12,0,0,1-2.06,4c-.52.28-1.2.61-1.15,1.2a7.37,7.37,0,0,0,4.62-1.2,9.08,9.08,0,0,1-.05,4,3.11,3.11,0,0,1-3,2.31c1,.31,2.75.48,3.46-.28a5.47,5.47,0,0,1-2.18,3.3c-1.27.89-3.15,1.56-3.2,3.11a6.47,6.47,0,0,0,2.12-.42,11.36,11.36,0,0,0-3.17,5.18c1.88-.84,1.69-1.7,3.75-1.79-1.18,2.83-2.28,13.91-17.5,13.91s-16.32-11.08-17.5-13.91c2.06.08,1.87.95,3.75,1.79a11.36,11.36,0,0,0-3.17-5.18,6.47,6.47,0,0,0,2.12.42c-.05-1.56-1.92-2.22-3.2-3.11a5.47,5.47,0,0,1-2.18-3.3C449.92,265.21,451.67,265,452.67,264.73Z"/><path class="a" d="M36.35,196.59a.31.31,0,0,1,.23.08,13.87,13.87,0,0,0,1.2,5,14.89,14.89,0,0,1,1.08,5.1,16.38,16.38,0,0,0,2.78-1.9,9.3,9.3,0,0,0-1.35,3.65,3.75,3.75,0,0,0,2-1,6.53,6.53,0,0,0-.51,3.61,2.18,2.18,0,0,0,2.69-.27,3.65,3.65,0,0,1-2.39,2.9,3.52,3.52,0,0,0,4.43-1.55,11.32,11.32,0,0,1-3.75,6.13l4.85-3.16a43.32,43.32,0,0,1-5.33,5.51,7.22,7.22,0,0,0,5.82-2,10.28,10.28,0,0,1-4.51,5.47,4.79,4.79,0,0,0,4.8-.6A4.84,4.84,0,0,0,46.88,226l1.53,0A34.45,34.45,0,0,0,44,229.48a9.06,9.06,0,0,0,3.13.05,3.07,3.07,0,0,0,2.34-1.88,8.57,8.57,0,0,1-1.76,4.41,8,8,0,0,1,5.43-.69,4.14,4.14,0,0,0-2.87,3.29c-.16.61,2.37-.19,2.38.42,0,1-1.24,3.11-1.1,4.11.16,1.17-.91,2.65-1.06,3.81a4.17,4.17,0,0,1,2.18-2.61,12,12,0,0,1-2.72,4.85,25.43,25.43,0,0,1,5.57-3.39,12.82,12.82,0,0,1-3.62,5.92l2.68-1.13-3.67,3.69a6.75,6.75,0,0,0,3.94-1.13,48.22,48.22,0,0,1-3.42,4.41,1.29,1.29,0,0,1-.53,2.07,8.59,8.59,0,0,0,3.37-1.62q-1.89,3.8-3.74,7.63l4.18-1.34a4.12,4.12,0,0,1-2.06,4c-.52.28-1.2.61-1.15,1.2a7.37,7.37,0,0,0,4.62-1.2,9.08,9.08,0,0,1-.05,4,3.11,3.11,0,0,1-3,2.31c1,.31,2.75.48,3.46-.28a5.47,5.47,0,0,1-2.18,3.3c-1.27.89-3.15,1.56-3.2,3.11a6.47,6.47,0,0,0,2.12-.42,11.36,11.36,0,0,0-3.17,5.18c1.88-.84,1.69-1.7,3.75-1.79-1.18,2.83-2.28,13.91-17.5,13.91"/><path class="a" d="M36.35,196.59a.31.31,0,0,0-.23.08,13.87,13.87,0,0,1-1.2,5,14.89,14.89,0,0,0-1.08,5.1,16.38,16.38,0,0,1-2.78-1.9,9.3,9.3,0,0,1,1.35,3.65,3.75,3.75,0,0,1-2-1,6.53,6.53,0,0,1,.51,3.61,2.18,2.18,0,0,1-2.69-.27,3.65,3.65,0,0,0,2.39,2.9,3.52,3.52,0,0,1-4.43-1.55,11.32,11.32,0,0,0,3.75,6.13l-4.85-3.16a43.32,43.32,0,0,0,5.33,5.51,7.22,7.22,0,0,1-5.82-2,10.28,10.28,0,0,0,4.51,5.47,4.79,4.79,0,0,1-4.8-.6A4.84,4.84,0,0,1,25.81,226l-1.53,0a34.45,34.45,0,0,1,4.45,3.46,9.06,9.06,0,0,1-3.13.05,3.07,3.07,0,0,1-2.34-1.88A8.57,8.57,0,0,0,25,232.07a8,8,0,0,0-5.43-.69,4.14,4.14,0,0,1,2.87,3.29c.16.61-2.37-.19-2.38.42,0,1,1.24,3.11,1.1,4.11-.16,1.17.91,2.65,1.06,3.81a4.17,4.17,0,0,0-2.18-2.61,12,12,0,0,0,2.72,4.85,25.43,25.43,0,0,0-5.57-3.39,12.82,12.82,0,0,0,3.62,5.92l-2.68-1.13,3.67,3.69a6.75,6.75,0,0,1-3.94-1.13,48.22,48.22,0,0,0,3.42,4.41,1.29,1.29,0,0,0,.53,2.07,8.59,8.59,0,0,1-3.37-1.62q1.89,3.8,3.74,7.63L18,260.35a4.12,4.12,0,0,0,2.06,4c.52.28,1.2.61,1.15,1.2a7.37,7.37,0,0,1-4.62-1.2,9.08,9.08,0,0,0,.05,4,3.11,3.11,0,0,0,3,2.31c-1,.31-2.75.48-3.46-.28a5.47,5.47,0,0,0,2.18,3.3c1.27.89,3.15,1.56,3.2,3.11a6.47,6.47,0,0,1-2.12-.42,11.36,11.36,0,0,1,3.17,5.18c-1.88-.84-1.69-1.7-3.75-1.79,1.18,2.83,2.28,13.91,17.5,13.91"/><path class="b" d="M279.08,240.46l-.26-.62c1.68.81,2,3.15,3.78,3.66s-1.38-4.06-4-7.46a5.23,5.23,0,0,0,3.18,1.89l-3-7.09a12.67,12.67,0,0,1,2.94,2.54c.85-.71.18-2.11-.66-2.84s-1.91-1.55-1.76-2.64a1,1,0,0,0,1.46.86,6.61,6.61,0,0,1-1-6.07l-1-.55a7.51,7.51,0,0,1,4.59.8l-3-4.89a8.67,8.67,0,0,0,2.73,2,1.14,1.14,0,0,0-1.05-1.34l1.81-.13-3-4.84a16.88,16.88,0,0,0,4.71.44,6.38,6.38,0,0,0-1.13-2.45l3.7-1a7.82,7.82,0,0,1-1.88-6,1.87,1.87,0,0,0,2.27,1.38l-1.87-3.87c1.22.63,3.23.22,4.5-.31a2.39,2.39,0,0,1-2.17-2.31l3.13-.11a4.49,4.49,0,0,1-1.77-1.14,1,1,0,0,1,1-.22,3.7,3.7,0,0,1-.81-3.09c.19,1,2,1.93,2,1.93s-.64-2.14-.13-1.67,1.22,1.39,1.22,1.39a.82.82,0,0,0,.46-.77,1.74,1.74,0,0,0-.39-.84,6.2,6.2,0,0,1-1-4.17,1.89,1.89,0,0,0,.3,1.18.73.73,0,0,0,1,0c.55-.47.92-2.82,1-4.06a.3.3,0,0,1,.37,0c.09,1.24.46,3.59,1,4.06a.73.73,0,0,0,1,0,1.89,1.89,0,0,0,.3-1.18,6.2,6.2,0,0,1-1,4.17,1.74,1.74,0,0,0-.39.84.82.82,0,0,0,.46.77s.83-1,1.22-1.39S298,197,298,197s1.83-1,2-1.93a3.7,3.7,0,0,1-.81,3.09,1,1,0,0,1,1,.22,4.49,4.49,0,0,1-1.77,1.14l3.13.11a2.39,2.39,0,0,1-2.17,2.31c1.27.53,3.28.94,4.5.31L302,206.13a1.87,1.87,0,0,0,2.27-1.38,7.82,7.82,0,0,1-1.88,6l3.7,1a6.38,6.38,0,0,0-1.13,2.45,16.88,16.88,0,0,0,4.71-.44l-3,4.84,1.81.13a1.14,1.14,0,0,0-1.05,1.34,8.67,8.67,0,0,0,2.73-2l-3,4.89a7.51,7.51,0,0,1,4.59-.8l-1,.55a6.61,6.61,0,0,1-1,6.07,1,1,0,0,0,1.46-.86c.15,1.1-.93,1.91-1.76,2.64s-1.51,2.13-.66,2.84a12.67,12.67,0,0,1,2.94-2.54l-3,7.09a5.23,5.23,0,0,0,3.18-1.89c-2.59,3.4-5.77,8-4,7.46s2.1-2.85,3.78-3.66l-.26.62a9.82,9.82,0,0,1-2.58,9.86.77.77,0,0,1,.81.06,2,2,0,0,1,.59,1,15.62,15.62,0,0,1-5.46,4.31,6.85,6.85,0,0,0-1.91,1.11c-.37.36-.64.81-1,1.18-.61.62-5.79.94-6.6,1.25-.81-.31-6-.64-6.6-1.25-.36-.37-.63-.82-1-1.18a6.85,6.85,0,0,0-1.91-1.11,15.62,15.62,0,0,1-5.46-4.31,2,2,0,0,1,.59-1,.77.77,0,0,1,.81-.06A9.82,9.82,0,0,1,279.08,240.46Z"/><path class="b" d="M.12,178.87V293.7c1.31-.5,9.66-1,10.65-2,.58-.59,1-1.32,1.61-1.9A10.93,10.93,0,0,1,15.46,288a25.2,25.2,0,0,0,8.81-7,3.16,3.16,0,0,0-.94-1.62,1.27,1.27,0,0,0-1.26-.12c4.39-4.43,5.59-9.72,4.12-15.88l.42-1c-2.71,1.31-3.19,5.08-6.09,5.9-2.45.69.83-4.47,4.43-9.4.66-.9,1.33-1.79,2-2.63a8.43,8.43,0,0,1-5.13,3.06l4.77-11.43A19.93,19.93,0,0,0,21.81,252c-1.37-1.15-.29-3.41,1.06-4.59s3-2.45,2.84-4.17a1.61,1.61,0,0,1-2.35,1.29A10.67,10.67,0,0,0,25,234.75l1.59-.89a12.14,12.14,0,0,0-7.39,1.28l4.83-7.88a13.87,13.87,0,0,1-4.41,3.17,1.83,1.83,0,0,1,1.7-2.15l-2.92-.21,4.9-7.81a27,27,0,0,1-7.6.72A10.12,10.12,0,0,1,17.55,217l-6-1.57a12.61,12.61,0,0,0,3-9.61A3,3,0,0,1,11,208.07q1.5-3.12,3-6.24c-2,1-5.21.36-7.26-.49a3.86,3.86,0,0,0,3.51-3.73l-5-.17A7.31,7.31,0,0,0,8,195.6a1.54,1.54,0,0,0-1.57-.36,6,6,0,0,0,1.3-5c-.31,1.57-3.26,3.12-3.26,3.12s1-3.46.22-2.7c-.63.58-2,2.24-2,2.24A1.31,1.31,0,0,1,2,191.69a2.8,2.8,0,0,1,.63-1.35,10,10,0,0,0,1.59-6.74,3.11,3.11,0,0,1-.48,1.91,1.18,1.18,0,0,1-1.69,0C1.16,184.76.57,181,.42,179A.38.38,0,0,0,.12,178.87Z"/><path class="b" d="M157.77,250.43l-.42-1c2.71,1.31,3.2,5.08,6.09,5.9s-2.22-6.54-6.4-12a8.43,8.43,0,0,0,5.13,3.05l-4.77-11.43a20.43,20.43,0,0,1,4.74,4.09c1.37-1.15.28-3.4-1.06-4.58s-3.08-2.49-2.84-4.26a1.61,1.61,0,0,0,2.35,1.38,10.65,10.65,0,0,1-1.67-9.79l-1.59-.89a12.11,12.11,0,0,1,7.4,1.28l-4.83-7.88a14,14,0,0,0,4.41,3.17,1.83,1.83,0,0,0-1.7-2.15l2.92-.21-4.9-7.81a27.21,27.21,0,0,0,7.6.72,10.28,10.28,0,0,0-1.82-4l6-1.57a12.61,12.61,0,0,1-3-9.61,3,3,0,0,0,3.67,2.22l-3-6.24c2,1,5.2.35,7.25-.5a3.86,3.86,0,0,1-3.5-3.73l5.05-.17a7.24,7.24,0,0,1-2.86-1.84,1.56,1.56,0,0,1,1.57-.36,6,6,0,0,1-1.3-5c.31,1.57,3.26,3.12,3.26,3.12s-1-3.46-.22-2.7c.63.59,2,2.24,2,2.24a1.32,1.32,0,0,0,.73-1.23,2.8,2.8,0,0,0-.63-1.35,10,10,0,0,1-1.59-6.73,3,3,0,0,0,.48,1.91,1.18,1.18,0,0,0,1.69,0c.89-.75,1.48-4.55,1.63-6.54a.49.49,0,0,1,.6,0c.15,2,.74,5.79,1.63,6.54a1.18,1.18,0,0,0,1.69,0,3,3,0,0,0,.48-1.91,10,10,0,0,1-1.59,6.73,2.8,2.8,0,0,0-.63,1.35,1.32,1.32,0,0,0,.73,1.23s1.34-1.66,2-2.24c.82-.76-.22,2.7-.22,2.7s2.95-1.55,3.26-3.12a6,6,0,0,1-1.3,5,1.56,1.56,0,0,1,1.57.36,7.24,7.24,0,0,1-2.86,1.84l5.05.17a3.86,3.86,0,0,1-3.5,3.73c2,.85,5.28,1.52,7.25.5l-3,6.24a3,3,0,0,0,3.67-2.22,12.61,12.61,0,0,1-3,9.61l6,1.57a10.28,10.28,0,0,0-1.82,4,27.21,27.21,0,0,0,7.6-.72l-4.9,7.81,2.92.21a1.83,1.83,0,0,0-1.7,2.15,14,14,0,0,0,4.41-3.17l-4.83,7.88a12.11,12.11,0,0,1,7.4-1.28l-1.59.89a10.65,10.65,0,0,1-1.67,9.79,1.61,1.61,0,0,0,2.35-1.38c.24,1.77-1.5,3.09-2.84,4.26s-2.43,3.43-1.06,4.58a20.43,20.43,0,0,1,4.74-4.09l-4.77,11.43a8.43,8.43,0,0,0,5.13-3.05c-4.18,5.49-9.3,12.85-6.4,12s3.38-4.6,6.09-5.9l-.42,1c1.47,6.16.27,11.45-4.11,15.87a1.26,1.26,0,0,1,1.25.12A3.19,3.19,0,0,1,208,268a25.19,25.19,0,0,1-8.81,6.95,11,11,0,0,0-3.08,1.79c-.6.58-1,1.31-1.61,1.9-1,1-9.34,1.52-10.65,2-1.31-.5-9.66-1-10.65-2-.58-.59-1-1.32-1.61-1.9a11,11,0,0,0-3.08-1.79,25.19,25.19,0,0,1-8.81-6.95,3.19,3.19,0,0,1,.95-1.62,1.26,1.26,0,0,1,1.25-.12C157.49,261.89,156.3,256.59,157.77,250.43Z"/><path class="b" d="M86.11,263.42l-.42-1c2.71,1.31,3.2,5.08,6.09,5.9s-2.22-6.54-6.4-12a8.43,8.43,0,0,0,5.13,3.05l-4.77-11.43A20.43,20.43,0,0,1,90.49,252c1.37-1.15.28-3.4-1.06-4.58s-3.08-2.49-2.84-4.26a1.61,1.61,0,0,0,2.35,1.38,10.65,10.65,0,0,1-1.67-9.79l-1.59-.89a12.11,12.11,0,0,1,7.39,1.28l-4.83-7.88a14,14,0,0,0,4.41,3.17,1.83,1.83,0,0,0-1.7-2.15l2.92-.21L89,220.26a27.2,27.2,0,0,0,7.6.72,10.28,10.28,0,0,0-1.82-4l6-1.57a12.61,12.61,0,0,1-3-9.61,3,3,0,0,0,3.67,2.22l-3-6.24c2,1,5.2.35,7.25-.5a3.86,3.86,0,0,1-3.5-3.73l5.05-.17a7.24,7.24,0,0,1-2.86-1.84,1.56,1.56,0,0,1,1.57-.36,6,6,0,0,1-1.3-5c.31,1.57,3.26,3.12,3.26,3.12s-1-3.46-.22-2.7c.63.59,2,2.24,2,2.24a1.32,1.32,0,0,0,.73-1.23,2.8,2.8,0,0,0-.62-1.35,10,10,0,0,1-1.59-6.73,3,3,0,0,0,.48,1.91,1.18,1.18,0,0,0,1.69,0c.89-.75,1.48-4.55,1.63-6.54a.49.49,0,0,1,.6,0c.15,2,.74,5.79,1.63,6.54a1.18,1.18,0,0,0,1.69,0,3,3,0,0,0,.48-1.91,10,10,0,0,1-1.59,6.73,2.8,2.8,0,0,0-.62,1.35,1.32,1.32,0,0,0,.73,1.23s1.34-1.66,2-2.24c.82-.76-.22,2.7-.22,2.7s2.95-1.55,3.26-3.12a6,6,0,0,1-1.3,5,1.56,1.56,0,0,1,1.57.36,7.24,7.24,0,0,1-2.86,1.84l5.05.17a3.86,3.86,0,0,1-3.5,3.73c2,.85,5.28,1.52,7.25.5l-3,6.24a3,3,0,0,0,3.67-2.22,12.61,12.61,0,0,1-3,9.61l6,1.57a10.28,10.28,0,0,0-1.82,4,27.21,27.21,0,0,0,7.6-.72l-4.9,7.81,2.92.21a1.83,1.83,0,0,0-1.7,2.15,14,14,0,0,0,4.41-3.17l-4.83,7.88a12.11,12.11,0,0,1,7.4-1.28l-1.59.89a10.65,10.65,0,0,1-1.67,9.79,1.61,1.61,0,0,0,2.35-1.38c.24,1.77-1.5,3.09-2.84,4.26s-2.43,3.43-1.06,4.58a20.43,20.43,0,0,1,4.74-4.09l-4.77,11.43a8.43,8.43,0,0,0,5.13-3.05c-4.18,5.49-9.3,12.85-6.4,12s3.38-4.6,6.09-5.9l-.42,1c1.47,6.16.27,11.45-4.11,15.87a1.26,1.26,0,0,1,1.25.12,3.19,3.19,0,0,1,.95,1.62,25.19,25.19,0,0,1-8.81,6.95,11,11,0,0,0-3.08,1.79c-.6.58-1,1.31-1.61,1.9-1,1-9.34,1.52-10.65,2-1.31-.5-9.66-1-10.65-2-.58-.59-1-1.32-1.61-1.9A11,11,0,0,0,96.84,288,25.19,25.19,0,0,1,88,281a3.19,3.19,0,0,1,.95-1.62,1.26,1.26,0,0,1,1.25-.12C85.84,274.88,84.65,269.58,86.11,263.42Z"/><path class="a" d="M136.83,237.18c-1.5.15-2.83-1.17-3.3-2.67a10.93,10.93,0,0,1-.06-4.66,7.92,7.92,0,0,0,5.12,1.39c.05-.68-.7-1.06-1.28-1.39a4.83,4.83,0,0,1-2.28-4.64l4.64,1.55q-2.05-4.42-4.14-8.82a9.37,9.37,0,0,0,3.73,1.88,1.52,1.52,0,0,1-.59-2.39,55.55,55.55,0,0,1-3.8-5.1,7.26,7.26,0,0,0,4.36,1.3l-4.07-4.27,3,1.31a14.94,14.94,0,0,1-4-6.84,28,28,0,0,1,6.18,3.92,14,14,0,0,1-3-5.61,4.77,4.77,0,0,1,2.42,3c-.17-1.34-1.35-3.06-1.18-4.41.15-1.15-1.24-3.6-1.22-4.75,0-.71,2.82.22,2.64-.48-.44-1.81-1.49-3.42-3.18-3.8a8.54,8.54,0,0,1,6,.8,10.14,10.14,0,0,1-2-5.1,3.44,3.44,0,0,0,2.59,2.18,9.65,9.65,0,0,0,3.47-.06,38.46,38.46,0,0,0-4.93-4l1.7,0a5.64,5.64,0,0,0-1.67-2.93,5.13,5.13,0,0,0,5.33.7,11.79,11.79,0,0,1-5-6.32,7.82,7.82,0,0,0,6.45,2.36,49.22,49.22,0,0,1-5.91-6.37l5.38,3.66a13.18,13.18,0,0,1-4.16-7.09,3.83,3.83,0,0,0,4.91,1.8,4.18,4.18,0,0,1-2.66-3.35,2.35,2.35,0,0,0,3,.31,7.84,7.84,0,0,0-.57-4.18,4.1,4.1,0,0,0,2.22,1.2,11,11,0,0,0-1.5-4.22,18.17,18.17,0,0,0,3.09,2.19,17.84,17.84,0,0,1,1.2-5.9,16.6,16.6,0,0,0,1.34-5.78.41.41,0,0,1,.51,0,16.6,16.6,0,0,0,1.34,5.78,17.84,17.84,0,0,1,1.2,5.9,18.16,18.16,0,0,0,3.09-2.19,11,11,0,0,0-1.5,4.22,4.1,4.1,0,0,0,2.22-1.2,7.84,7.84,0,0,0-.57,4.18,2.35,2.35,0,0,0,3-.31,4.18,4.18,0,0,1-2.66,3.35,3.83,3.83,0,0,0,4.91-1.8,13.18,13.18,0,0,1-4.16,7.09l5.38-3.66a49.22,49.22,0,0,1-5.91,6.37A7.82,7.82,0,0,0,168.4,177a11.79,11.79,0,0,1-5,6.32,5.13,5.13,0,0,0,5.33-.7,5.65,5.65,0,0,0-1.67,2.93l1.7,0a38.46,38.46,0,0,0-4.93,4,9.65,9.65,0,0,0,3.47.06,3.44,3.44,0,0,0,2.59-2.18,10.14,10.14,0,0,1-2,5.1,8.54,8.54,0,0,1,6-.8c-1.69.38-2.74,2-3.18,3.8-.17.71,2.63-.22,2.64.48,0,1.15-1.37,3.6-1.22,4.75.18,1.35-1,3.06-1.18,4.41a4.77,4.77,0,0,1,2.42-3,14,14,0,0,1-3,5.61,28,28,0,0,1,6.18-3.92,14.94,14.94,0,0,1-4,6.84l3-1.31-4.07,4.27a7.26,7.26,0,0,0,4.36-1.3,55.52,55.52,0,0,1-3.8,5.1,1.52,1.52,0,0,1-.59,2.39,9.37,9.37,0,0,0,3.73-1.88q-2.09,4.4-4.14,8.82l4.64-1.55a4.83,4.83,0,0,1-2.28,4.64c-.57.33-1.33.71-1.28,1.39a7.92,7.92,0,0,0,5.12-1.39,10.93,10.93,0,0,1-.06,4.66c-.46,1.49-1.8,2.81-3.3,2.67,1.11.36,3,.55,3.84-.33a6.35,6.35,0,0,1-2.42,3.81c-1.41,1-3.49,1.8-3.55,3.6a6.92,6.92,0,0,0,2.36-.49,13.24,13.24,0,0,0-3.52,6c2.09-1,1.88-2,4.16-2.07-1.31,3.27-2.53,16.08-19.41,16.08S137.27,251,136,247.7c2.29.1,2.07,1.1,4.16,2.07a13.24,13.24,0,0,0-3.52-6,6.92,6.92,0,0,0,2.36.49c-.06-1.8-2.13-2.57-3.55-3.6a6.35,6.35,0,0,1-2.42-3.81C133.78,237.74,135.72,237.54,136.83,237.18Z"/><path class="a" d="M419,251.24a1.58,1.58,0,0,1-1.5-1.21,5,5,0,0,1,0-2.12,3.6,3.6,0,0,0,2.33.63c0-.31-.32-.48-.58-.63a2.2,2.2,0,0,1-1-2.11l2.11.7q-.93-2-1.88-4a4.26,4.26,0,0,0,1.7.85.69.69,0,0,1-.27-1.09,25.24,25.24,0,0,1-1.73-2.32,3.3,3.3,0,0,0,2,.59l-1.85-1.94,1.35.59a6.79,6.79,0,0,1-1.82-3.11,12.75,12.75,0,0,1,2.81,1.78,6.37,6.37,0,0,1-1.37-2.55,2.17,2.17,0,0,1,1.1,1.37c-.08-.61-.62-1.39-.54-2s-.56-1.64-.56-2.16c0-.32,1.28.1,1.2-.22a2.15,2.15,0,0,0-1.45-1.73,3.88,3.88,0,0,1,2.74.36,4.61,4.61,0,0,1-.89-2.32,1.57,1.57,0,0,0,1.18,1,4.39,4.39,0,0,0,1.58,0,17.49,17.49,0,0,0-2.24-1.82h.77a2.57,2.57,0,0,0-.76-1.33,2.33,2.33,0,0,0,2.42.32,5.36,5.36,0,0,1-2.27-2.87,3.55,3.55,0,0,0,2.94,1.07,22.4,22.4,0,0,1-2.69-2.9l2.45,1.66a6,6,0,0,1-1.89-3.22,1.74,1.74,0,0,0,2.23.82,1.9,1.9,0,0,1-1.21-1.52,1.07,1.07,0,0,0,1.36.14,3.57,3.57,0,0,0-.26-1.9,1.87,1.87,0,0,0,1,.54,5,5,0,0,0-.68-1.92,8.26,8.26,0,0,0,1.4,1,8.11,8.11,0,0,1,.55-2.68,7.55,7.55,0,0,0,.61-2.63.18.18,0,0,1,.23,0,7.55,7.55,0,0,0,.61,2.63,8.11,8.11,0,0,1,.55,2.68,8.26,8.26,0,0,0,1.4-1,5,5,0,0,0-.68,1.92,1.87,1.87,0,0,0,1-.54,3.57,3.57,0,0,0-.26,1.9,1.07,1.07,0,0,0,1.36-.14,1.9,1.9,0,0,1-1.21,1.52,1.74,1.74,0,0,0,2.23-.82,6,6,0,0,1-1.89,3.22l2.45-1.66a22.39,22.39,0,0,1-2.69,2.9,3.55,3.55,0,0,0,2.94-1.07,5.36,5.36,0,0,1-2.27,2.87,2.33,2.33,0,0,0,2.42-.32,2.57,2.57,0,0,0-.76,1.33h.77a17.49,17.49,0,0,0-2.24,1.82,4.39,4.39,0,0,0,1.58,0,1.57,1.57,0,0,0,1.18-1,4.61,4.61,0,0,1-.89,2.32,3.88,3.88,0,0,1,2.74-.36,2.15,2.15,0,0,0-1.45,1.73c-.08.32,1.2-.1,1.2.22,0,.52-.62,1.64-.56,2.16s-.46,1.39-.54,2a2.17,2.17,0,0,1,1.1-1.37,6.37,6.37,0,0,1-1.37,2.55,12.75,12.75,0,0,1,2.81-1.78,6.79,6.79,0,0,1-1.82,3.11l1.35-.59-1.85,1.94a3.3,3.3,0,0,0,2-.59,25.24,25.24,0,0,1-1.73,2.32.69.69,0,0,1-.27,1.09,4.26,4.26,0,0,0,1.7-.85q-1,2-1.88,4l2.11-.7a2.2,2.2,0,0,1-1,2.11c-.26.15-.61.32-.58.63a3.6,3.6,0,0,0,2.33-.63,5,5,0,0,1,0,2.12,1.58,1.58,0,0,1-1.5,1.21c.5.16,1.39.25,1.74-.15a2.89,2.89,0,0,1-1.1,1.73c-.64.47-1.59.82-1.61,1.64a3.15,3.15,0,0,0,1.07-.22,6,6,0,0,0-1.6,2.72c1-.44.85-.9,1.89-.94-.6,1.49-1.15,7.31-8.83,7.31s-8.23-5.83-8.83-7.31c1,0,.94.5,1.89.94a6,6,0,0,0-1.6-2.72,3.15,3.15,0,0,0,1.07.22c0-.82-1-1.17-1.61-1.64a2.89,2.89,0,0,1-1.1-1.73C417.65,251.49,418.53,251.4,419,251.24Z"/><path class="a" d="M399.24,258.12a2.45,2.45,0,0,1-2.32-1.88,7.7,7.7,0,0,1,0-3.28,5.58,5.58,0,0,0,3.61,1c0-.48-.5-.75-.9-1a3.4,3.4,0,0,1-1.61-3.27l3.27,1.09q-1.44-3.11-2.92-6.21a6.61,6.61,0,0,0,2.63,1.32,1.07,1.07,0,0,1-.41-1.68,39.09,39.09,0,0,1-2.67-3.59,5.11,5.11,0,0,0,3.08.92l-2.86-3,2.09.92a10.53,10.53,0,0,1-2.83-4.82,19.74,19.74,0,0,1,4.35,2.76,9.87,9.87,0,0,1-2.12-4,3.36,3.36,0,0,1,1.7,2.13c-.12-.95-1-2.15-.83-3.11s-.87-2.53-.86-3.34c0-.5,2,.16,1.86-.34a3.33,3.33,0,0,0-2.24-2.68,6,6,0,0,1,4.24.56,7.15,7.15,0,0,1-1.38-3.59,2.43,2.43,0,0,0,1.83,1.53,6.8,6.8,0,0,0,2.44,0,27.08,27.08,0,0,0-3.48-2.81l1.2,0a4,4,0,0,0-1.18-2.06,3.62,3.62,0,0,0,3.75.49,8.31,8.31,0,0,1-3.52-4.45,5.51,5.51,0,0,0,4.55,1.66,34.68,34.68,0,0,1-4.16-4.49l3.79,2.57a9.29,9.29,0,0,1-2.93-5,2.7,2.7,0,0,0,3.46,1.27,2.94,2.94,0,0,1-1.87-2.36,1.65,1.65,0,0,0,2.1.22,5.52,5.52,0,0,0-.4-2.94,2.89,2.89,0,0,0,1.56.84,7.77,7.77,0,0,0-1.06-3,12.79,12.79,0,0,0,2.17,1.54,12.57,12.57,0,0,1,.85-4.15,11.69,11.69,0,0,0,.94-4.07.29.29,0,0,1,.36,0,11.69,11.69,0,0,0,.94,4.07,12.57,12.57,0,0,1,.85,4.15,12.79,12.79,0,0,0,2.17-1.54,7.77,7.77,0,0,0-1.06,3,2.89,2.89,0,0,0,1.56-.84,5.52,5.52,0,0,0-.4,2.94,1.65,1.65,0,0,0,2.1-.22,2.94,2.94,0,0,1-1.87,2.36,2.7,2.7,0,0,0,3.46-1.27,9.29,9.29,0,0,1-2.93,5l3.79-2.57a34.68,34.68,0,0,1-4.16,4.49,5.51,5.51,0,0,0,4.55-1.66,8.31,8.31,0,0,1-3.52,4.45,3.62,3.62,0,0,0,3.75-.49,4,4,0,0,0-1.18,2.06l1.2,0a27.08,27.08,0,0,0-3.48,2.81,6.8,6.8,0,0,0,2.44,0,2.43,2.43,0,0,0,1.83-1.53,7.15,7.15,0,0,1-1.38,3.59,6,6,0,0,1,4.24-.56,3.33,3.33,0,0,0-2.24,2.68c-.12.5,1.86-.16,1.86.34,0,.81-1,2.54-.86,3.34s-.71,2.16-.83,3.11a3.36,3.36,0,0,1,1.7-2.13,9.87,9.87,0,0,1-2.12,4,19.74,19.74,0,0,1,4.35-2.76,10.53,10.53,0,0,1-2.83,4.82l2.09-.92-2.87,3a5.11,5.11,0,0,0,3.08-.92,39.09,39.09,0,0,1-2.67,3.59,1.07,1.07,0,0,1-.41,1.68,6.61,6.61,0,0,0,2.63-1.32q-1.47,3.1-2.92,6.21l3.27-1.09A3.4,3.4,0,0,1,425,253c-.4.23-.94.5-.9,1a5.58,5.58,0,0,0,3.61-1,7.7,7.7,0,0,1,0,3.28,2.45,2.45,0,0,1-2.32,1.88c.78.25,2.15.39,2.7-.23a4.47,4.47,0,0,1-1.71,2.69c-1,.73-2.46,1.27-2.5,2.54a4.88,4.88,0,0,0,1.66-.34A9.33,9.33,0,0,0,423,267c1.47-.68,1.32-1.39,2.93-1.46-.92,2.3-1.78,11.33-13.68,11.33s-12.75-9-13.68-11.33c1.61.07,1.46.77,2.93,1.46a9.33,9.33,0,0,0-2.48-4.22,4.88,4.88,0,0,0,1.66.34c0-1.27-1.5-1.81-2.5-2.54a4.47,4.47,0,0,1-1.71-2.69C397.09,258.51,398.46,258.37,399.24,258.12Z"/><path class="a" d="M371.93,233.52a1.21,1.21,0,0,1-1.15-.93,3.82,3.82,0,0,1,0-1.63,2.77,2.77,0,0,0,1.79.49c0-.24-.25-.37-.45-.48a1.69,1.69,0,0,1-.8-1.62l1.62.54q-.72-1.54-1.45-3.08a3.27,3.27,0,0,0,1.3.66.53.53,0,0,1-.2-.83,19.42,19.42,0,0,1-1.33-1.78,2.54,2.54,0,0,0,1.53.45l-1.42-1.49,1,.46a5.22,5.22,0,0,1-1.4-2.39,9.78,9.78,0,0,1,2.16,1.37,4.89,4.89,0,0,1-1.05-2,1.67,1.67,0,0,1,.85,1.06c-.06-.47-.47-1.07-.41-1.54s-.43-1.26-.43-1.66c0-.25,1,.08.92-.17a1.65,1.65,0,0,0-1.11-1.33,3,3,0,0,1,2.1.28,3.54,3.54,0,0,1-.68-1.78,1.2,1.2,0,0,0,.91.76,3.37,3.37,0,0,0,1.21,0,13.43,13.43,0,0,0-1.72-1.4h.59a2,2,0,0,0-.58-1,1.79,1.79,0,0,0,1.86.24,4.12,4.12,0,0,1-1.75-2.21,2.73,2.73,0,0,0,2.26.82,17.19,17.19,0,0,1-2.06-2.23l1.88,1.28a4.61,4.61,0,0,1-1.46-2.48,1.34,1.34,0,0,0,1.72.63,1.46,1.46,0,0,1-.93-1.17.82.82,0,0,0,1,.11,2.74,2.74,0,0,0-.2-1.46,1.43,1.43,0,0,0,.77.42,3.86,3.86,0,0,0-.52-1.47,6.35,6.35,0,0,0,1.08.77,6.23,6.23,0,0,1,.42-2.06,5.8,5.8,0,0,0,.47-2,.14.14,0,0,1,.18,0,5.8,5.8,0,0,0,.47,2,6.23,6.23,0,0,1,.42,2.06,6.35,6.35,0,0,0,1.08-.77,3.85,3.85,0,0,0-.52,1.47,1.43,1.43,0,0,0,.77-.42,2.74,2.74,0,0,0-.2,1.46.82.82,0,0,0,1-.11,1.46,1.46,0,0,1-.93,1.17,1.34,1.34,0,0,0,1.72-.63,4.61,4.61,0,0,1-1.46,2.48l1.88-1.28a17.19,17.19,0,0,1-2.06,2.23,2.73,2.73,0,0,0,2.26-.82,4.12,4.12,0,0,1-1.75,2.21,1.79,1.79,0,0,0,1.86-.24,2,2,0,0,0-.58,1h.59a13.43,13.43,0,0,0-1.72,1.4,3.37,3.37,0,0,0,1.21,0,1.2,1.2,0,0,0,.91-.76,3.54,3.54,0,0,1-.68,1.78,3,3,0,0,1,2.1-.28,1.65,1.65,0,0,0-1.11,1.33c-.06.25.92-.08.92.17,0,.4-.48,1.26-.43,1.66s-.35,1.07-.41,1.54a1.67,1.67,0,0,1,.85-1.06,4.89,4.89,0,0,1-1.05,2,9.79,9.79,0,0,1,2.16-1.37,5.22,5.22,0,0,1-1.4,2.39l1-.46L384,225.3a2.54,2.54,0,0,0,1.53-.45,19.43,19.43,0,0,1-1.33,1.78.53.53,0,0,1-.2.83,3.27,3.27,0,0,0,1.3-.66q-.73,1.54-1.45,3.08l1.62-.54a1.69,1.69,0,0,1-.8,1.62c-.2.11-.47.25-.45.48a2.77,2.77,0,0,0,1.79-.49,3.82,3.82,0,0,1,0,1.63,1.21,1.21,0,0,1-1.15.93c.39.13,1.06.19,1.34-.11a2.22,2.22,0,0,1-.85,1.33c-.49.36-1.22.63-1.24,1.26a2.42,2.42,0,0,0,.82-.17,4.62,4.62,0,0,0-1.23,2.09c.73-.34.66-.69,1.45-.72-.46,1.14-.88,5.62-6.78,5.62s-6.32-4.48-6.78-5.62c.8,0,.72.38,1.45.72a4.63,4.63,0,0,0-1.23-2.09,2.42,2.42,0,0,0,.82.17c0-.63-.75-.9-1.24-1.26a2.22,2.22,0,0,1-.85-1.33C370.87,233.72,371.55,233.65,371.93,233.52Z"/><path class="a" d="M351,223.84a1.44,1.44,0,0,1-.55-.87c.18.2.62.16.87.07a.79.79,0,0,1-.75-.61,2.49,2.49,0,0,1,0-1.06,1.8,1.8,0,0,0,1.16.32c0-.15-.16-.24-.29-.32a1.1,1.1,0,0,1-.52-1.06l1.06.35-.94-2a2.13,2.13,0,0,0,.85.43.35.35,0,0,1-.13-.54,12.6,12.6,0,0,1-.86-1.16,1.65,1.65,0,0,0,1,.3l-.92-1,.68.3a3.4,3.4,0,0,1-.91-1.56,6.37,6.37,0,0,1,1.41.89,3.18,3.18,0,0,1-.68-1.28,1.09,1.09,0,0,1,.55.69c0-.31-.31-.7-.27-1s-.28-.82-.28-1.08.64.05.6-.11a1.07,1.07,0,0,0-.72-.86,1.94,1.94,0,0,1,1.37.18,2.31,2.31,0,0,1-.44-1.16.78.78,0,0,0,.59.5,2.19,2.19,0,0,0,.79,0,8.73,8.73,0,0,0-1.12-.91h.39a1.28,1.28,0,0,0-.38-.67,1.17,1.17,0,0,0,1.21.16,2.68,2.68,0,0,1-1.14-1.44,1.78,1.78,0,0,0,1.47.54,11.19,11.19,0,0,1-1.34-1.45l1.22.83a3,3,0,0,1-.95-1.61.87.87,0,0,0,1.12.41,1,1,0,0,1-.6-.76.53.53,0,0,0,.68.07,1.78,1.78,0,0,0-.13-.95.93.93,0,0,0,.5.27,2.51,2.51,0,0,0-.34-1,4.13,4.13,0,0,0,.7.5,4.06,4.06,0,0,1,.27-1.34,3.77,3.77,0,0,0,.3-1.31.09.09,0,0,1,.12,0,3.77,3.77,0,0,0,.3,1.31,4.06,4.06,0,0,1,.27,1.34,4.13,4.13,0,0,0,.7-.5,2.51,2.51,0,0,0-.34,1,.93.93,0,0,0,.5-.27,1.78,1.78,0,0,0-.13.95.53.53,0,0,0,.68-.07,1,1,0,0,1-.6.76.87.87,0,0,0,1.12-.41,3,3,0,0,1-.95,1.61l1.22-.83a11.19,11.19,0,0,1-1.34,1.45,1.78,1.78,0,0,0,1.47-.54,2.68,2.68,0,0,1-1.14,1.44,1.17,1.17,0,0,0,1.21-.16,1.28,1.28,0,0,0-.38.67h.39a8.74,8.74,0,0,0-1.12.91,2.19,2.19,0,0,0,.79,0,.78.78,0,0,0,.59-.5,2.31,2.31,0,0,1-.44,1.16,1.94,1.94,0,0,1,1.37-.18,1.07,1.07,0,0,0-.72.86c0,.16.6-.05.6.11s-.31.82-.28,1.08-.23.7-.27,1a1.09,1.09,0,0,1,.55-.69,3.18,3.18,0,0,1-.68,1.28,6.37,6.37,0,0,1,1.41-.89,3.4,3.4,0,0,1-.91,1.56l.68-.3-.92,1a1.65,1.65,0,0,0,1-.3,12.61,12.61,0,0,1-.86,1.16.35.35,0,0,1-.13.54,2.13,2.13,0,0,0,.85-.43l-.94,2,1.06-.35a1.1,1.1,0,0,1-.52,1.06c-.13.07-.3.16-.29.32a1.8,1.8,0,0,0,1.16-.32,2.49,2.49,0,0,1,0,1.06.79.79,0,0,1-.75.61c.25.08.69.13.87-.07a1.44,1.44,0,0,1-.55.87c-.32.23-.79.41-.81.82a1.57,1.57,0,0,0,.54-.11,3,3,0,0,0-.8,1.36c.48-.22.43-.45.95-.47-.3.74-.57,3.66-4.41,3.66s-4.12-2.91-4.41-3.66c.52,0,.47.25.95.47a3,3,0,0,0-.8-1.36,1.57,1.57,0,0,0,.54.11C351.8,224.25,351.32,224.07,351,223.84Z"/><path class="a" d="M261.28,243.3a2.31,2.31,0,0,1-2.2-1.78,7.29,7.29,0,0,1,0-3.1,5.28,5.28,0,0,0,3.41.93c0-.45-.47-.71-.85-.92a3.22,3.22,0,0,1-1.52-3.09l3.09,1q-1.37-2.94-2.76-5.87a6.24,6.24,0,0,0,2.49,1.25,1,1,0,0,1-.39-1.59,37,37,0,0,1-2.53-3.4,4.84,4.84,0,0,0,2.91.87l-2.71-2.84,2,.87a10,10,0,0,1-2.67-4.56,18.68,18.68,0,0,1,4.12,2.61,9.33,9.33,0,0,1-2-3.74,3.18,3.18,0,0,1,1.61,2c-.11-.9-.9-2-.78-2.94s-.83-2.4-.82-3.16c0-.47,1.88.15,1.76-.32a3.15,3.15,0,0,0-2.12-2.53,5.69,5.69,0,0,1,4,.53,6.76,6.76,0,0,1-1.3-3.4,2.29,2.29,0,0,0,1.73,1.45,6.43,6.43,0,0,0,2.31,0,25.61,25.61,0,0,0-3.29-2.66l1.13,0a3.76,3.76,0,0,0-1.11-2,3.42,3.42,0,0,0,3.55.47,7.86,7.86,0,0,1-3.33-4.21,5.21,5.21,0,0,0,4.3,1.57,32.82,32.82,0,0,1-3.94-4.25l3.58,2.44a8.78,8.78,0,0,1-2.78-4.72,2.55,2.55,0,0,0,3.27,1.2,2.78,2.78,0,0,1-1.77-2.23,1.56,1.56,0,0,0,2,.21,5.23,5.23,0,0,0-.38-2.78,2.73,2.73,0,0,0,1.48.8,7.35,7.35,0,0,0-1-2.81,12.1,12.1,0,0,0,2.06,1.46,11.89,11.89,0,0,1,.8-3.93,11.06,11.06,0,0,0,.89-3.85.27.27,0,0,1,.34,0,11.06,11.06,0,0,0,.89,3.85,11.89,11.89,0,0,1,.8,3.93,12.1,12.1,0,0,0,2.06-1.46,7.35,7.35,0,0,0-1,2.81,2.73,2.73,0,0,0,1.48-.8,5.23,5.23,0,0,0-.38,2.78,1.56,1.56,0,0,0,2-.21,2.78,2.78,0,0,1-1.77,2.23,2.55,2.55,0,0,0,3.27-1.2,8.78,8.78,0,0,1-2.78,4.72l3.58-2.44a32.82,32.82,0,0,1-3.94,4.25,5.21,5.21,0,0,0,4.3-1.57,7.86,7.86,0,0,1-3.33,4.21,3.42,3.42,0,0,0,3.55-.47,3.76,3.76,0,0,0-1.11,2l1.13,0a25.61,25.61,0,0,0-3.29,2.66,6.43,6.43,0,0,0,2.31,0,2.29,2.29,0,0,0,1.73-1.45,6.76,6.76,0,0,1-1.3,3.4,5.69,5.69,0,0,1,4-.53,3.15,3.15,0,0,0-2.12,2.53c-.12.47,1.75-.15,1.76.32,0,.77-.92,2.4-.82,3.16s-.67,2-.78,2.94a3.18,3.18,0,0,1,1.61-2,9.33,9.33,0,0,1-2,3.74,18.68,18.68,0,0,1,4.12-2.61,10,10,0,0,1-2.67,4.56l2-.87-2.71,2.84a4.84,4.84,0,0,0,2.91-.87,37,37,0,0,1-2.53,3.4,1,1,0,0,1-.39,1.59,6.24,6.24,0,0,0,2.49-1.25q-1.39,2.93-2.76,5.87l3.09-1a3.22,3.22,0,0,1-1.52,3.09c-.38.22-.89.47-.85.92a5.28,5.28,0,0,0,3.41-.93,7.29,7.29,0,0,1,0,3.1,2.31,2.31,0,0,1-2.2,1.78c.74.24,2,.37,2.56-.22a4.23,4.23,0,0,1-1.61,2.54c-.94.69-2.33,1.2-2.36,2.4a4.61,4.61,0,0,0,1.57-.33,8.82,8.82,0,0,0-2.34,4c1.39-.65,1.25-1.31,2.77-1.38-.87,2.18-1.68,10.72-12.93,10.72s-12.06-8.54-12.93-10.72c1.52.06,1.38.73,2.77,1.38a8.82,8.82,0,0,0-2.34-4,4.61,4.61,0,0,0,1.57.33c0-1.2-1.42-1.71-2.36-2.4a4.23,4.23,0,0,1-1.61-2.54C259.25,243.67,260.55,243.54,261.28,243.3Z"/><path class="c" d="M42.3,263.63l-.56-1.32C45.33,264,46,269,49.8,270.11s-2.94-8.65-8.46-15.91a11.14,11.14,0,0,0,6.79,4l-6.3-15.11a27,27,0,0,1,6.27,5.41c1.81-1.52.37-4.5-1.41-6.06s-4.08-3.29-3.76-5.64A2.13,2.13,0,0,0,46,238.67a14.08,14.08,0,0,1-2.21-12.94l-2.1-1.18a16,16,0,0,1,9.78,1.7L45.1,215.82A18.47,18.47,0,0,0,50.93,220a2.42,2.42,0,0,0-2.25-2.85l3.86-.27-6.48-10.32a36,36,0,0,0,10,.95,13.59,13.59,0,0,0-2.41-5.23l7.88-2.07a16.67,16.67,0,0,1-4-12.7,4,4,0,0,0,4.85,2.94l-4-8.25c2.6,1.35,6.88.46,9.59-.66a5.1,5.1,0,0,1-4.63-4.93l6.68-.23A9.57,9.57,0,0,1,66.3,174a2.07,2.07,0,0,1,2.08-.48,7.89,7.89,0,0,1-1.72-6.58C67.07,169,71,171,71,171s-1.37-4.57-.29-3.57c.84.78,2.61,3,2.61,3a1.74,1.74,0,0,0,1-1.63,3.7,3.7,0,0,0-.83-1.79,13.22,13.22,0,0,1-2.1-8.9,4,4,0,0,0,.64,2.52,1.56,1.56,0,0,0,2.23,0c1.17-1,2-6,2.16-8.65a.65.65,0,0,1,.79,0c.2,2.64,1,7.65,2.16,8.65a1.56,1.56,0,0,0,2.23,0,4,4,0,0,0,.64-2.52,13.22,13.22,0,0,1-2.1,8.9,3.7,3.7,0,0,0-.83,1.79,1.74,1.74,0,0,0,1,1.63s1.77-2.19,2.61-3c1.08-1-.29,3.57-.29,3.57s3.9-2,4.31-4.12a7.89,7.89,0,0,1-1.72,6.58,2.07,2.07,0,0,1,2.08.48,9.57,9.57,0,0,1-3.78,2.44l6.68.23a5.1,5.1,0,0,1-4.63,4.93c2.71,1.12,7,2,9.59.66l-4,8.25a4,4,0,0,0,4.85-2.94,16.67,16.67,0,0,1-4,12.7l7.88,2.07a13.59,13.59,0,0,0-2.41,5.23,36,36,0,0,0,10-.95L101,216.89l3.86.27a2.42,2.42,0,0,0-2.25,2.85,18.47,18.47,0,0,0,5.83-4.18L102,226.24a16,16,0,0,1,9.78-1.7l-2.1,1.18a14.08,14.08,0,0,1-2.21,12.94,2.13,2.13,0,0,0,3.11-1.83c.32,2.34-2,4.08-3.76,5.64s-3.22,4.54-1.41,6.06a27,27,0,0,1,6.27-5.41l-6.3,15.11a11.14,11.14,0,0,0,6.79-4c-5.52,7.26-12.29,17-8.46,15.91s4.47-6.08,8.05-7.8l-.56,1.32c1.94,8.14.36,15.14-5.44,21a1.67,1.67,0,0,1,1.65.16,4.22,4.22,0,0,1,1.25,2.14A33.3,33.3,0,0,1,97,296.1,14.59,14.59,0,0,0,93,298.47c-.79.76-1.35,1.73-2.13,2.51-1.3,1.32-12.35,2-14.08,2.67C75,303,64,302.3,62.68,301c-.77-.78-1.34-1.75-2.13-2.51a14.59,14.59,0,0,0-4.07-2.37,33.3,33.3,0,0,1-11.64-9.19,4.22,4.22,0,0,1,1.25-2.14,1.67,1.67,0,0,1,1.65-.16C41.94,278.77,40.36,271.76,42.3,263.63Z"/><path class="c" d="M478.33,257.79l-.44-1c2.81,1.36,3.32,5.28,6.32,6.13s-2.31-6.79-6.65-12.49a8.75,8.75,0,0,0,5.33,3.17l-4.95-11.87a21.21,21.21,0,0,1,4.92,4.25c1.42-1.19.29-3.53-1.1-4.76s-3.2-2.59-3-4.43a1.67,1.67,0,0,0,2.44,1.44A11.06,11.06,0,0,1,479.52,228l-1.65-.93a12.57,12.57,0,0,1,7.68,1.33l-5-8.18a14.5,14.5,0,0,0,4.58,3.29,1.9,1.9,0,0,0-1.76-2.24l3-.21L481.29,213a28.25,28.25,0,0,0,7.89.74,10.68,10.68,0,0,0-1.89-4.1l6.19-1.63a13.09,13.09,0,0,1-3.14-10,3.13,3.13,0,0,0,3.81,2.31L491,193.85c2,1.06,5.4.37,7.53-.52a4,4,0,0,1-3.64-3.87l5.24-.18a7.51,7.51,0,0,1-3-1.91,1.62,1.62,0,0,1,1.63-.37,6.2,6.2,0,0,1-1.35-5.17c.32,1.63,3.38,3.24,3.38,3.24s-1.07-3.59-.23-2.8c.66.61,2,2.33,2,2.33a1.37,1.37,0,0,0,.76-1.28,2.91,2.91,0,0,0-.65-1.4,10.39,10.39,0,0,1-1.65-7,3.17,3.17,0,0,0,.5,2,1.22,1.22,0,0,0,1.75,0c.92-.78,1.54-4.72,1.69-6.79a.51.51,0,0,1,.62,0c.16,2.07.77,6,1.69,6.79a1.22,1.22,0,0,0,1.75,0,3.17,3.17,0,0,0,.5-2,10.39,10.39,0,0,1-1.65,7,2.91,2.91,0,0,0-.65,1.4,1.37,1.37,0,0,0,.76,1.28s1.39-1.72,2-2.33c.85-.78-.23,2.8-.23,2.8s3.06-1.61,3.38-3.24A6.2,6.2,0,0,1,512,187a1.62,1.62,0,0,1,1.63.37,7.51,7.51,0,0,1-3,1.91l5.24.18a4,4,0,0,1-3.64,3.87c2.13.88,5.49,1.58,7.53.52l-3.13,6.48a3.13,3.13,0,0,0,3.81-2.31,13.09,13.09,0,0,1-3.14,10l6.19,1.63a10.68,10.68,0,0,0-1.89,4.1,28.25,28.25,0,0,0,7.89-.74l-5.09,8.11,3,.21a1.9,1.9,0,0,0-1.76,2.24,14.5,14.5,0,0,0,4.58-3.29l-5,8.18a12.57,12.57,0,0,1,7.68-1.33l-1.65.93a11.06,11.06,0,0,1-1.74,10.16,1.67,1.67,0,0,0,2.44-1.44c.25,1.84-1.55,3.2-3,4.43s-2.53,3.56-1.1,4.76a21.21,21.21,0,0,1,4.92-4.25l-4.95,11.87a8.75,8.75,0,0,0,5.33-3.17c-4.34,5.7-9.65,13.34-6.65,12.49s3.51-4.77,6.32-6.13l-.44,1c1.53,6.4.28,11.91-4.29,16.5a1.3,1.3,0,0,1,1.32.11,3.31,3.31,0,0,1,1,1.68,26.16,26.16,0,0,1-9.15,7.22,11.45,11.45,0,0,0-3.2,1.86c-.62.6-1.06,1.36-1.67,2-1,1-9.7,1.58-11.06,2.1-1.36-.52-10-1.06-11.06-2.1-.61-.61-1-1.37-1.67-2a11.45,11.45,0,0,0-3.2-1.86,26.16,26.16,0,0,1-9.15-7.22,3.31,3.31,0,0,1,1-1.68,1.3,1.3,0,0,1,1.32-.11C478,269.7,476.8,264.19,478.33,257.79Z"/><path class="c" d="M434,272.34l-.38-.9c2.43,1.17,2.86,4.55,5.46,5.29s-2-5.86-5.74-10.78a7.55,7.55,0,0,0,4.6,2.74l-4.27-10.24a18.3,18.3,0,0,1,4.25,3.66c1.23-1,.25-3-1-4.1s-2.76-2.23-2.55-3.82a1.44,1.44,0,0,0,2.11,1.24,9.54,9.54,0,0,1-1.5-8.77l-1.43-.8a10.85,10.85,0,0,1,6.62,1.15l-4.33-7.06a12.52,12.52,0,0,0,3.95,2.84,1.64,1.64,0,0,0-1.52-1.93l2.62-.18-4.39-7a24.37,24.37,0,0,0,6.81.64,9.21,9.21,0,0,0-1.63-3.54l5.34-1.41a11.29,11.29,0,0,1-2.71-8.61,2.7,2.7,0,0,0,3.28,2l-2.7-5.59c1.76.92,4.66.31,6.5-.45a3.45,3.45,0,0,1-3.14-3.34l4.52-.15a6.48,6.48,0,0,1-2.56-1.65,1.4,1.4,0,0,1,1.41-.32,5.35,5.35,0,0,1-1.16-4.46c.28,1.41,2.92,2.79,2.92,2.79s-.93-3.1-.19-2.42c.57.53,1.77,2,1.77,2a1.18,1.18,0,0,0,.66-1.11,2.51,2.51,0,0,0-.56-1.21,9,9,0,0,1-1.42-6,2.73,2.73,0,0,0,.43,1.71,1.06,1.06,0,0,0,1.51,0c.79-.67,1.33-4.07,1.46-5.86a.44.44,0,0,1,.53,0c.13,1.79.67,5.19,1.46,5.86a1.06,1.06,0,0,0,1.51,0,2.73,2.73,0,0,0,.43-1.71,9,9,0,0,1-1.42,6,2.51,2.51,0,0,0-.56,1.21,1.18,1.18,0,0,0,.66,1.11s1.2-1.49,1.77-2c.73-.68-.19,2.42-.19,2.42s2.64-1.39,2.92-2.79a5.35,5.35,0,0,1-1.16,4.46,1.4,1.4,0,0,1,1.41.32,6.48,6.48,0,0,1-2.56,1.65l4.52.15a3.45,3.45,0,0,1-3.14,3.34c1.83.76,4.73,1.36,6.5.45l-2.7,5.59a2.7,2.7,0,0,0,3.28-2,11.29,11.29,0,0,1-2.71,8.61l5.34,1.41a9.21,9.21,0,0,0-1.63,3.54,24.37,24.37,0,0,0,6.81-.64l-4.39,7,2.62.18a1.64,1.64,0,0,0-1.52,1.93,12.52,12.52,0,0,0,3.95-2.84L474.5,247a10.85,10.85,0,0,1,6.62-1.15l-1.43.8a9.54,9.54,0,0,1-1.5,8.77,1.44,1.44,0,0,0,2.11-1.24c.22,1.59-1.34,2.76-2.55,3.82s-2.18,3.07-1,4.1a18.3,18.3,0,0,1,4.25-3.66l-4.27,10.24a7.55,7.55,0,0,0,4.6-2.74c-3.74,4.92-8.33,11.51-5.74,10.78s3-4.12,5.46-5.29l-.38.9c1.32,5.52.24,10.27-3.7,14.24a1.12,1.12,0,0,1,1.14.09,2.86,2.86,0,0,1,.85,1.45,22.57,22.57,0,0,1-7.89,6.23,9.88,9.88,0,0,0-2.76,1.61c-.53.52-.92,1.17-1.44,1.7-.88.89-8.37,1.36-9.54,1.81-1.17-.45-8.66-.92-9.54-1.81-.52-.53-.91-1.18-1.44-1.7a9.88,9.88,0,0,0-2.76-1.61,22.57,22.57,0,0,1-7.89-6.23,2.86,2.86,0,0,1,.85-1.45,1.12,1.12,0,0,1,1.14-.09C433.8,282.61,432.72,277.86,434,272.34Z"/><path class="c" d="M224,246l-.35-.82c2.23,1.08,2.63,4.18,5,4.86s-1.83-5.38-5.27-9.9a6.94,6.94,0,0,0,4.22,2.51l-3.92-9.4a16.81,16.81,0,0,1,3.9,3.36c1.13-.95.23-2.8-.87-3.77s-2.54-2.05-2.34-3.51a1.32,1.32,0,0,0,1.94,1.14,8.76,8.76,0,0,1-1.38-8.05l-1.31-.74a10,10,0,0,1,6.08,1.06l-4-6.48a11.5,11.5,0,0,0,3.63,2.6A1.51,1.51,0,0,0,228,217l2.4-.17-4-6.43a22.38,22.38,0,0,0,6.25.59,8.46,8.46,0,0,0-1.5-3.25l4.91-1.29a10.37,10.37,0,0,1-2.49-7.9,2.48,2.48,0,0,0,3,1.83l-2.48-5.13c1.62.84,4.28.29,6-.41a3.17,3.17,0,0,1-2.88-3.07l4.16-.14a6,6,0,0,1-2.35-1.52,1.29,1.29,0,0,1,1.3-.3,4.91,4.91,0,0,1-1.07-4.1c.25,1.29,2.68,2.57,2.68,2.57s-.85-2.84-.18-2.22c.52.48,1.62,1.85,1.62,1.85a1.08,1.08,0,0,0,.6-1,2.31,2.31,0,0,0-.51-1.11,8.23,8.23,0,0,1-1.31-5.54,2.51,2.51,0,0,0,.4,1.57,1,1,0,0,0,1.39,0c.73-.62,1.22-3.74,1.34-5.38a.4.4,0,0,1,.49,0c.12,1.64.61,4.76,1.34,5.38a1,1,0,0,0,1.39,0,2.51,2.51,0,0,0,.4-1.57,8.23,8.23,0,0,1-1.31,5.54,2.31,2.31,0,0,0-.51,1.11,1.08,1.08,0,0,0,.6,1s1.1-1.36,1.62-1.85c.67-.62-.18,2.22-.18,2.22s2.43-1.27,2.68-2.57a4.91,4.91,0,0,1-1.07,4.1,1.29,1.29,0,0,1,1.3.3,6,6,0,0,1-2.35,1.52l4.16.14a3.17,3.17,0,0,1-2.88,3.07c1.69.7,4.35,1.25,6,.41l-2.48,5.13a2.48,2.48,0,0,0,3-1.83,10.37,10.37,0,0,1-2.49,7.9l4.91,1.29a8.46,8.46,0,0,0-1.5,3.25,22.38,22.38,0,0,0,6.25-.59l-4,6.43,2.4.17a1.51,1.51,0,0,0-1.4,1.77,11.5,11.5,0,0,0,3.63-2.6l-4,6.48a10,10,0,0,1,6.08-1.06l-1.31.74a8.76,8.76,0,0,1-1.38,8.05,1.32,1.32,0,0,0,1.94-1.14c.2,1.46-1.23,2.54-2.34,3.51s-2,2.82-.87,3.77a16.81,16.81,0,0,1,3.9-3.36l-3.92,9.4a6.94,6.94,0,0,0,4.22-2.51c-3.44,4.52-7.65,10.58-5.27,9.9s2.78-3.78,5-4.86l-.35.82c1.21,5.07.22,9.44-3.4,13.08a1,1,0,0,1,1,.09,2.63,2.63,0,0,1,.78,1.33,20.73,20.73,0,0,1-7.25,5.72,9.08,9.08,0,0,0-2.53,1.48c-.49.47-.84,1.08-1.32,1.56-.81.82-7.68,1.25-8.76,1.66-1.08-.41-8-.84-8.76-1.66-.48-.49-.83-1.09-1.32-1.56a9.08,9.08,0,0,0-2.53-1.48,20.73,20.73,0,0,1-7.25-5.72,2.63,2.63,0,0,1,.78-1.33,1,1,0,0,1,1-.09C223.81,255.39,222.83,251,224,246Z"/><path class="c" d="M383.19,227.48,383,227c.92.6,1.08,2.34,2.06,2.72s-.75-3-2.17-5.54a2.85,2.85,0,0,0,1.74,1.41l-1.61-5.26a8.08,8.08,0,0,1,1.61,1.88c.46-.53.1-1.57-.36-2.11a2.75,2.75,0,0,1-1-2c0,.52.48.92.8.64a6.37,6.37,0,0,1-.57-4.51l-.54-.41a3.19,3.19,0,0,1,2.5.59l-1.64-3.63a5.1,5.1,0,0,0,1.49,1.46c.08-.47-.22-1-.58-1l1-.09-1.66-3.6a6.87,6.87,0,0,0,2.57.33,5.66,5.66,0,0,0-.62-1.82l2-.72a7.28,7.28,0,0,1-1-4.42c.1.73.72,1.24,1.24,1l-1-2.87a2.53,2.53,0,0,0,2.46-.23c-.64,0-1.19-.85-1.19-1.72l1.71-.08a2.52,2.52,0,0,1-1-.85.43.43,0,0,1,.53-.17,3.5,3.5,0,0,1-.44-2.29c.1.72,1.1,1.44,1.1,1.44s-.35-1.59-.07-1.24.67,1,.67,1a.63.63,0,0,0,.25-.57,1.54,1.54,0,0,0-.21-.62,6,6,0,0,1-.54-3.1,1.81,1.81,0,0,0,.16.88c.14.24.4.2.57,0a8.89,8.89,0,0,0,.55-3,.13.13,0,0,1,.2,0,8.89,8.89,0,0,0,.55,3c.17.2.43.24.57,0a1.81,1.81,0,0,0,.16-.88,6,6,0,0,1-.54,3.1,1.54,1.54,0,0,0-.21.62.63.63,0,0,0,.25.57s.45-.76.67-1-.07,1.24-.07,1.24,1-.71,1.1-1.44a3.5,3.5,0,0,1-.44,2.29.43.43,0,0,1,.53.17,2.52,2.52,0,0,1-1,.85l1.71.08c0,.87-.55,1.67-1.19,1.72a2.53,2.53,0,0,0,2.46.23l-1,2.87c.52.21,1.14-.3,1.24-1a7.28,7.28,0,0,1-1,4.42l2,.72a5.66,5.66,0,0,0-.62,1.82,6.87,6.87,0,0,0,2.57-.33l-1.66,3.6,1,.09c-.36,0-.66.52-.58,1a5.1,5.1,0,0,0,1.49-1.46l-1.64,3.63a3.19,3.19,0,0,1,2.5-.59l-.54.41a6.37,6.37,0,0,1-.57,4.51c.32.28.82-.12.8-.64a2.75,2.75,0,0,1-1,2c-.46.54-.82,1.58-.36,2.11a8.09,8.09,0,0,1,1.61-1.88l-1.61,5.26a2.85,2.85,0,0,0,1.74-1.41c-1.41,2.53-3.15,5.92-2.17,5.54s1.14-2.12,2.06-2.72l-.14.46a9.17,9.17,0,0,1-1.41,7.32.33.33,0,0,1,.44,0,1.64,1.64,0,0,1,.32.75,9.57,9.57,0,0,1-3,3.2,3.69,3.69,0,0,0-1,.83c-.2.27-.35.6-.54.87-.33.46-3.16.7-3.6.93-.44-.23-3.27-.47-3.6-.93-.2-.27-.34-.61-.54-.87a3.69,3.69,0,0,0-1-.83,9.57,9.57,0,0,1-3-3.2,1.64,1.64,0,0,1,.32-.75.33.33,0,0,1,.44,0A9.17,9.17,0,0,1,383.19,227.48Z"/><path class="c" d="M356,227.48l-.14-.46c.92.6,1.08,2.34,2.06,2.72s-.75-3-2.17-5.54a2.85,2.85,0,0,0,1.74,1.41l-1.61-5.26a8.09,8.09,0,0,1,1.61,1.88c.46-.53.1-1.57-.36-2.11a2.75,2.75,0,0,1-1-2c0,.52.48.92.8.64a6.37,6.37,0,0,1-.57-4.51l-.54-.41a3.19,3.19,0,0,1,2.5.59l-1.64-3.63a5.1,5.1,0,0,0,1.49,1.46c.08-.47-.22-1-.58-1l1-.09-1.66-3.6a6.87,6.87,0,0,0,2.57.33,5.65,5.65,0,0,0-.62-1.82l2-.72a7.28,7.28,0,0,1-1-4.42c.1.73.72,1.24,1.24,1l-1-2.87a2.53,2.53,0,0,0,2.46-.23c-.64,0-1.19-.85-1.19-1.72l1.71-.08a2.52,2.52,0,0,1-1-.85.43.43,0,0,1,.53-.17,3.5,3.5,0,0,1-.44-2.29c.1.72,1.1,1.44,1.1,1.44s-.35-1.59-.07-1.24.67,1,.67,1a.63.63,0,0,0,.25-.57,1.53,1.53,0,0,0-.21-.62,6,6,0,0,1-.54-3.1,1.81,1.81,0,0,0,.16.88c.14.24.4.2.57,0a8.89,8.89,0,0,0,.55-3,.13.13,0,0,1,.2,0,8.89,8.89,0,0,0,.55,3c.17.2.43.24.57,0a1.81,1.81,0,0,0,.16-.88,6,6,0,0,1-.54,3.1,1.54,1.54,0,0,0-.21.62.63.63,0,0,0,.25.57s.45-.76.67-1-.07,1.24-.07,1.24,1-.71,1.1-1.44a3.5,3.5,0,0,1-.44,2.29.43.43,0,0,1,.53.17,2.52,2.52,0,0,1-1,.85l1.71.08c0,.87-.55,1.67-1.19,1.72a2.53,2.53,0,0,0,2.46.23l-1,2.87c.52.21,1.14-.3,1.24-1a7.28,7.28,0,0,1-1,4.42l2,.72a5.65,5.65,0,0,0-.62,1.82,6.87,6.87,0,0,0,2.57-.33L371,211.2l1,.09c-.36,0-.66.52-.58,1a5.1,5.1,0,0,0,1.49-1.46l-1.64,3.63a3.18,3.18,0,0,1,2.5-.59l-.54.41a6.37,6.37,0,0,1-.57,4.51c.32.28.82-.12.8-.64a2.75,2.75,0,0,1-1,2c-.46.54-.82,1.58-.36,2.11a8.09,8.09,0,0,1,1.61-1.88l-1.61,5.26a2.85,2.85,0,0,0,1.74-1.41c-1.41,2.53-3.15,5.92-2.17,5.54s1.14-2.12,2.06-2.72l-.14.46a9.17,9.17,0,0,1-1.41,7.32.33.33,0,0,1,.44,0,1.64,1.64,0,0,1,.32.75,9.57,9.57,0,0,1-3,3.2,3.69,3.69,0,0,0-1,.83c-.2.27-.35.6-.54.87-.33.46-3.16.7-3.6.93-.44-.23-3.27-.47-3.6-.93-.2-.27-.34-.61-.54-.87a3.69,3.69,0,0,0-1-.83,9.57,9.57,0,0,1-3-3.2,1.64,1.64,0,0,1,.32-.75.33.33,0,0,1,.44,0A9.17,9.17,0,0,1,356,227.48Z"/><path class="c" d="M303.22,251.95l-.35-.82c2.23,1.08,2.63,4.18,5,4.86s-1.83-5.38-5.27-9.9a6.94,6.94,0,0,0,4.22,2.51l-3.92-9.4a16.81,16.81,0,0,1,3.9,3.36c1.13-.95.23-2.8-.87-3.77s-2.54-2.05-2.34-3.51a1.32,1.32,0,0,0,1.94,1.14,8.76,8.76,0,0,1-1.38-8.06l-1.31-.74a10,10,0,0,1,6.08,1.06l-4-6.48a11.5,11.5,0,0,0,3.63,2.6,1.51,1.51,0,0,0-1.4-1.77l2.4-.17-4-6.43a22.38,22.38,0,0,0,6.25.59,8.46,8.46,0,0,0-1.5-3.25l4.91-1.29a10.37,10.37,0,0,1-2.49-7.9,2.48,2.48,0,0,0,3,1.83l-2.48-5.13c1.62.84,4.28.29,6-.41a3.17,3.17,0,0,1-2.88-3.07l4.16-.14a6,6,0,0,1-2.35-1.52,1.29,1.29,0,0,1,1.3-.3,4.91,4.91,0,0,1-1.07-4.1c.25,1.29,2.68,2.57,2.68,2.57s-.85-2.84-.18-2.22c.52.48,1.62,1.85,1.62,1.85a1.08,1.08,0,0,0,.6-1,2.31,2.31,0,0,0-.51-1.11,8.23,8.23,0,0,1-1.31-5.54,2.51,2.51,0,0,0,.4,1.57,1,1,0,0,0,1.39,0c.73-.62,1.22-3.74,1.34-5.38a.4.4,0,0,1,.49,0c.12,1.64.61,4.76,1.34,5.38a1,1,0,0,0,1.39,0,2.51,2.51,0,0,0,.4-1.57,8.23,8.23,0,0,1-1.31,5.54,2.3,2.3,0,0,0-.51,1.11,1.08,1.08,0,0,0,.6,1s1.1-1.36,1.62-1.85c.67-.62-.18,2.22-.18,2.22s2.43-1.27,2.68-2.57a4.91,4.91,0,0,1-1.07,4.1,1.29,1.29,0,0,1,1.3.3,6,6,0,0,1-2.35,1.52l4.16.14a3.17,3.17,0,0,1-2.88,3.07c1.69.7,4.35,1.25,6,.41l-2.48,5.13a2.48,2.48,0,0,0,3-1.83,10.37,10.37,0,0,1-2.49,7.9l4.91,1.29a8.46,8.46,0,0,0-1.5,3.25,22.38,22.38,0,0,0,6.25-.59l-4,6.43,2.4.17a1.51,1.51,0,0,0-1.4,1.77,11.5,11.5,0,0,0,3.63-2.6l-4,6.48a10,10,0,0,1,6.08-1.06l-1.31.74a8.76,8.76,0,0,1-1.38,8.06,1.32,1.32,0,0,0,1.94-1.14c.2,1.46-1.23,2.54-2.34,3.51s-2,2.82-.87,3.77a16.81,16.81,0,0,1,3.9-3.36l-3.92,9.4a6.94,6.94,0,0,0,4.22-2.51c-3.44,4.52-7.65,10.58-5.27,9.9s2.78-3.78,5-4.86l-.35.82c1.21,5.07.22,9.44-3.4,13.08a1,1,0,0,1,1,.09,2.63,2.63,0,0,1,.78,1.33,20.73,20.73,0,0,1-7.25,5.72,9.08,9.08,0,0,0-2.53,1.48c-.49.47-.84,1.08-1.32,1.56-.81.82-7.68,1.25-8.76,1.66-1.08-.41-8-.84-8.76-1.66-.48-.49-.83-1.09-1.32-1.56a9.08,9.08,0,0,0-2.53-1.48,20.73,20.73,0,0,1-7.25-5.72,2.63,2.63,0,0,1,.78-1.33,1,1,0,0,1,1-.09C303,261.38,302,257,303.22,251.95Z"/><path class="d" d="M.12,376.8H542v-155c-32.26-1.62-35.27,19.46-62.91,30.92a43.12,43.12,0,0,1-16.5,3.63c-49.42,0-76.5-32.25-111.79-32.25S285.47,261,261.16,261s-35.48-31.34-71.56-31.34-49.74,23.5-81.9,23.5-49.41,16.72-49.41,16.72-10.7-11.15-29.81-11.15-28.48,8-28.48,8Z"/><path class="e" d="M.12,323.49V376.8h400.6s-60.23-83.1-149-83.1S96.79,324,20.29,324C13.71,324,7,323.81.12,323.49Z"/><path class="e" d="M402.38,376.8H542V329.29C453.35,329.29,402.38,376.8,402.38,376.8Z"/><path class="a" d="M1069.49,228a3.11,3.11,0,0,0,3-2.31,9.08,9.08,0,0,0,.05-4,7.37,7.37,0,0,1-4.62,1.2c0-.59.63-.92,1.15-1.2a4.12,4.12,0,0,0,2.06-4l-4.18,1.34q1.85-3.82,3.74-7.63a8.59,8.59,0,0,1-3.37,1.62,1.29,1.29,0,0,0,.53-2.07,48.22,48.22,0,0,0,3.42-4.41,6.74,6.74,0,0,1-3.94,1.13L1071,204l-2.68,1.13a12.82,12.82,0,0,0,3.62-5.92,25.43,25.43,0,0,0-5.57,3.39,12,12,0,0,0,2.72-4.85,4.17,4.17,0,0,0-2.18,2.61c.16-1.16,1.22-2.65,1.06-3.81-.13-1,1.12-3.11,1.1-4.11,0-.61-2.54.19-2.38-.42a4.14,4.14,0,0,1,2.87-3.29,8,8,0,0,0-5.43.69,8.57,8.57,0,0,0,1.76-4.41,3.07,3.07,0,0,1-2.34,1.88,9.07,9.07,0,0,1-3.13-.05,34.47,34.47,0,0,1,4.45-3.46l-1.53,0a4.84,4.84,0,0,1,1.51-2.53,4.79,4.79,0,0,1-4.8.6,10.28,10.28,0,0,0,4.51-5.47,7.22,7.22,0,0,1-5.82,2,43.32,43.32,0,0,0,5.33-5.51l-4.85,3.16a11.32,11.32,0,0,0,3.76-6.13,3.52,3.52,0,0,1-4.43,1.55,3.65,3.65,0,0,0,2.39-2.9,2.18,2.18,0,0,1-2.69.27,6.53,6.53,0,0,1,.51-3.61,3.75,3.75,0,0,1-2,1,9.3,9.3,0,0,1,1.35-3.65,16.36,16.36,0,0,1-2.78,1.9,14.88,14.88,0,0,0-1.08-5.1,13.87,13.87,0,0,1-1.2-5,.38.38,0,0,0-.46,0,13.87,13.87,0,0,1-1.2,5,14.89,14.89,0,0,0-1.08,5.1,16.37,16.37,0,0,1-2.78-1.9,9.3,9.3,0,0,1,1.35,3.65,3.75,3.75,0,0,1-2-1,6.53,6.53,0,0,1,.51,3.61,2.18,2.18,0,0,1-2.69-.27A3.65,3.65,0,0,0,1047,171a3.52,3.52,0,0,1-4.43-1.55,11.32,11.32,0,0,0,3.76,6.13l-4.85-3.16a43.34,43.34,0,0,0,5.33,5.51,7.22,7.22,0,0,1-5.82-2,10.28,10.28,0,0,0,4.51,5.47,4.79,4.79,0,0,1-4.8-.6,4.84,4.84,0,0,1,1.51,2.53l-1.53,0a34.48,34.48,0,0,1,4.45,3.46,9.07,9.07,0,0,1-3.13.05,3.07,3.07,0,0,1-2.34-1.88,8.57,8.57,0,0,0,1.76,4.41,8,8,0,0,0-5.43-.69,4.14,4.14,0,0,1,2.87,3.29c.16.61-2.37-.19-2.38.42,0,1,1.24,3.11,1.1,4.11-.16,1.17.91,2.65,1.06,3.81a4.17,4.17,0,0,0-2.18-2.61,12,12,0,0,0,2.72,4.85,25.43,25.43,0,0,0-5.57-3.39,12.82,12.82,0,0,0,3.62,5.92l-2.68-1.13,3.67,3.69a6.74,6.74,0,0,1-3.94-1.13,48.22,48.22,0,0,0,3.42,4.41,1.29,1.29,0,0,0,.53,2.07,8.59,8.59,0,0,1-3.37-1.62q1.89,3.8,3.74,7.63l-4.18-1.34a4.12,4.12,0,0,0,2.06,4c.52.28,1.2.61,1.15,1.2a7.37,7.37,0,0,1-4.62-1.2,9.08,9.08,0,0,0,.05,4,3.11,3.11,0,0,0,3,2.31c-1,.31-2.75.48-3.46-.28a5.47,5.47,0,0,0,2.18,3.3c1.27.89,3.15,1.56,3.2,3.11a6.47,6.47,0,0,1-2.12-.42,11.36,11.36,0,0,1,3.17,5.18c-1.88-.84-1.69-1.7-3.75-1.79,1.18,2.83,2.28,13.91,17.5,13.91s16.32-11.08,17.5-13.91c-2.06.08-1.87.95-3.75,1.79a11.36,11.36,0,0,1,3.17-5.18,6.47,6.47,0,0,1-2.12.42c.05-1.56,1.92-2.22,3.2-3.11a5.47,5.47,0,0,0,2.18-3.3C1072.24,228.5,1070.49,228.33,1069.49,228Z"/><path class="a" d="M882,233.19a3.11,3.11,0,0,0,3-2.31,9.08,9.08,0,0,0,.05-4,7.37,7.37,0,0,1-4.62,1.2c0-.59.63-.92,1.15-1.2a4.12,4.12,0,0,0,2.06-4l-4.18,1.34q1.85-3.82,3.74-7.63a8.59,8.59,0,0,1-3.37,1.62,1.29,1.29,0,0,0,.53-2.07,48.21,48.21,0,0,0,3.42-4.41,6.74,6.74,0,0,1-3.94,1.13l3.67-3.69-2.68,1.13a12.82,12.82,0,0,0,3.62-5.92,25.43,25.43,0,0,0-5.57,3.39,12,12,0,0,0,2.72-4.85,4.17,4.17,0,0,0-2.18,2.61c.16-1.16,1.22-2.65,1.06-3.81-.13-1,1.12-3.11,1.1-4.11,0-.61-2.54.19-2.38-.42a4.14,4.14,0,0,1,2.87-3.29,8,8,0,0,0-5.43.69,8.57,8.57,0,0,0,1.76-4.41A3.07,3.07,0,0,1,876,192a9.07,9.07,0,0,1-3.13-.05,34.44,34.44,0,0,1,4.45-3.46l-1.53,0a4.84,4.84,0,0,1,1.51-2.53,4.79,4.79,0,0,1-4.8.6,10.28,10.28,0,0,0,4.51-5.47,7.22,7.22,0,0,1-5.82,2,43.31,43.31,0,0,0,5.33-5.51l-4.85,3.16a11.32,11.32,0,0,0,3.76-6.13,3.52,3.52,0,0,1-4.43,1.56,3.65,3.65,0,0,0,2.39-2.9,2.18,2.18,0,0,1-2.69.27,6.53,6.53,0,0,1,.51-3.61,3.75,3.75,0,0,1-2,1,9.29,9.29,0,0,1,1.35-3.65,16.4,16.4,0,0,1-2.78,1.9,14.89,14.89,0,0,0-1.08-5.1,13.87,13.87,0,0,1-1.2-5,.38.38,0,0,0-.46,0,13.87,13.87,0,0,1-1.2,5,14.89,14.89,0,0,0-1.08,5.1,16.4,16.4,0,0,1-2.78-1.9A9.29,9.29,0,0,1,861.3,171a3.75,3.75,0,0,1-2-1,6.53,6.53,0,0,1,.51,3.61,2.18,2.18,0,0,1-2.69-.27,3.65,3.65,0,0,0,2.39,2.9,3.52,3.52,0,0,1-4.43-1.56,11.32,11.32,0,0,0,3.75,6.13L854,177.64a43.31,43.31,0,0,0,5.33,5.51,7.22,7.22,0,0,1-5.82-2,10.28,10.28,0,0,0,4.51,5.47,4.79,4.79,0,0,1-4.8-.6,4.84,4.84,0,0,1,1.51,2.53l-1.53,0a34.45,34.45,0,0,1,4.45,3.46,9.07,9.07,0,0,1-3.13.05,3.07,3.07,0,0,1-2.34-1.88,8.57,8.57,0,0,0,1.76,4.41,8,8,0,0,0-5.43-.69,4.14,4.14,0,0,1,2.87,3.29c.16.61-2.37-.19-2.38.42,0,1,1.24,3.11,1.1,4.11-.16,1.17.91,2.65,1.06,3.81a4.17,4.17,0,0,0-2.18-2.61,12,12,0,0,0,2.72,4.85,25.43,25.43,0,0,0-5.57-3.39,12.82,12.82,0,0,0,3.62,5.92L847,209.13l3.67,3.69a6.74,6.74,0,0,1-3.94-1.12,48.21,48.21,0,0,0,3.42,4.41,1.29,1.29,0,0,0,.53,2.07,8.59,8.59,0,0,1-3.37-1.62q1.89,3.8,3.74,7.63l-4.18-1.34a4.12,4.12,0,0,0,2.06,4c.52.28,1.2.61,1.15,1.2a7.37,7.37,0,0,1-4.62-1.2,9.08,9.08,0,0,0,.05,4,3.11,3.11,0,0,0,3,2.31c-1,.31-2.75.48-3.46-.28a5.47,5.47,0,0,0,2.18,3.3c1.27.89,3.15,1.56,3.2,3.11a6.47,6.47,0,0,1-2.12-.42,11.36,11.36,0,0,1,3.17,5.18c-1.88-.84-1.69-1.7-3.75-1.79,1.18,2.83,2.28,13.91,17.5,13.91s16.32-11.08,17.5-13.91c-2.06.08-1.87.95-3.75,1.79a11.36,11.36,0,0,1,3.17-5.18,6.47,6.47,0,0,1-2.12.42c.05-1.56,1.92-2.22,3.2-3.11a5.47,5.47,0,0,0,2.18-3.3C884.71,233.67,883,233.5,882,233.19Z"/><path class="a" d="M542,158.07v97.11c15.22,0,16.32-11.09,17.5-13.91-2.06.08-1.87.94-3.75,1.78a11.4,11.4,0,0,1,3.16-5.18,6.36,6.36,0,0,1-2.12.43c0-1.56,1.93-2.22,3.2-3.12a5.47,5.47,0,0,0,2.18-3.29c-.71.76-2.46.59-3.46.28a3.12,3.12,0,0,0,3-2.31,9.28,9.28,0,0,0,.05-4,7.4,7.4,0,0,1-4.62,1.21c0-.59.63-.92,1.15-1.2a4.12,4.12,0,0,0,2.06-4l-4.18,1.34c1.23-2.55,2.48-5.09,3.73-7.63a8.47,8.47,0,0,1-3.36,1.62,1.28,1.28,0,0,0,.52-2.06,50.09,50.09,0,0,0,3.43-4.41,6.73,6.73,0,0,1-3.94,1.12l3.67-3.69-2.68,1.13a12.77,12.77,0,0,0,3.61-5.92,25.42,25.42,0,0,0-5.57,3.4,12.07,12.07,0,0,0,2.72-4.86,4.16,4.16,0,0,0-2.18,2.62c.15-1.17,1.22-2.65,1.06-3.82-.14-1,1.12-3.11,1.1-4.1,0-.61-2.54.19-2.38-.42a4.14,4.14,0,0,1,2.87-3.29,8,8,0,0,0-5.43.69,8.55,8.55,0,0,0,1.76-4.41,3.05,3.05,0,0,1-2.34,1.88,8.85,8.85,0,0,1-3.12-.05,34.58,34.58,0,0,1,4.44-3.46l-1.53,0A4.89,4.89,0,0,1,554,185a4.78,4.78,0,0,1-4.8.6,10.27,10.27,0,0,0,4.5-5.46,7.21,7.21,0,0,1-5.82,2,43.35,43.35,0,0,0,5.33-5.51l-4.85,3.16a11.33,11.33,0,0,0,3.76-6.14,3.51,3.51,0,0,1-4.43,1.56,3.64,3.64,0,0,0,2.39-2.9,2.17,2.17,0,0,1-2.69.27,6.67,6.67,0,0,1,.51-3.61,3.7,3.7,0,0,1-2,1,9.17,9.17,0,0,1,1.35-3.65,16.87,16.87,0,0,1-2.78,1.9,14.81,14.81,0,0,0-1.09-5.1,13.89,13.89,0,0,1-1.2-5A.31.31,0,0,0,542,158.07Z"/><path class="a" d="M631.32,264.73a3.11,3.11,0,0,0,3-2.31,9.08,9.08,0,0,0,.05-4,7.37,7.37,0,0,1-4.62,1.2c0-.59.63-.92,1.15-1.2a4.12,4.12,0,0,0,2.06-4l-4.18,1.34q1.85-3.82,3.74-7.63a8.59,8.59,0,0,1-3.37,1.62,1.29,1.29,0,0,0,.53-2.07,48.23,48.23,0,0,0,3.42-4.41,6.75,6.75,0,0,1-3.94,1.13l3.67-3.69-2.68,1.13a12.82,12.82,0,0,0,3.62-5.92,25.43,25.43,0,0,0-5.57,3.39,12,12,0,0,0,2.72-4.85A4.17,4.17,0,0,0,628.7,237c.16-1.16,1.22-2.65,1.06-3.81-.13-1,1.12-3.11,1.1-4.11,0-.61-2.54.19-2.38-.42a4.14,4.14,0,0,1,2.87-3.29,8,8,0,0,0-5.43.69,8.57,8.57,0,0,0,1.76-4.41,3.07,3.07,0,0,1-2.34,1.88,9.07,9.07,0,0,1-3.13-.05,34.44,34.44,0,0,1,4.45-3.46l-1.53,0a4.84,4.84,0,0,1,1.51-2.53,4.79,4.79,0,0,1-4.8.6,10.28,10.28,0,0,0,4.51-5.47,7.22,7.22,0,0,1-5.82,2,43.31,43.31,0,0,0,5.33-5.51L621,212.33a11.32,11.32,0,0,0,3.76-6.13,3.52,3.52,0,0,1-4.43,1.55,3.65,3.65,0,0,0,2.39-2.9,2.18,2.18,0,0,1-2.69.27,6.53,6.53,0,0,1,.51-3.61,3.75,3.75,0,0,1-2,1,9.29,9.29,0,0,1,1.35-3.65,16.39,16.39,0,0,1-2.78,1.9,14.89,14.89,0,0,0-1.08-5.1,13.87,13.87,0,0,1-1.2-5,.38.38,0,0,0-.46,0,13.87,13.87,0,0,1-1.2,5,14.89,14.89,0,0,0-1.08,5.1,16.39,16.39,0,0,1-2.78-1.9,9.29,9.29,0,0,1,1.35,3.65,3.75,3.75,0,0,1-2-1,6.53,6.53,0,0,1,.51,3.61,2.18,2.18,0,0,1-2.69-.27,3.65,3.65,0,0,0,2.39,2.9,3.52,3.52,0,0,1-4.43-1.55,11.32,11.32,0,0,0,3.76,6.13l-4.85-3.16a43.31,43.31,0,0,0,5.33,5.51,7.22,7.22,0,0,1-5.82-2,10.28,10.28,0,0,0,4.51,5.47,4.79,4.79,0,0,1-4.8-.6,4.84,4.84,0,0,1,1.51,2.53l-1.53,0a34.44,34.44,0,0,1,4.45,3.46,9.07,9.07,0,0,1-3.13.05,3.08,3.08,0,0,1-2.34-1.88,8.57,8.57,0,0,0,1.76,4.41,8,8,0,0,0-5.43-.69,4.14,4.14,0,0,1,2.87,3.29c.16.61-2.37-.19-2.38.42,0,1,1.24,3.11,1.1,4.11-.16,1.17.91,2.65,1.06,3.81a4.17,4.17,0,0,0-2.18-2.61,12,12,0,0,0,2.72,4.85,25.43,25.43,0,0,0-5.57-3.39,12.82,12.82,0,0,0,3.62,5.92l-2.68-1.13,3.67,3.69a6.75,6.75,0,0,1-3.94-1.12,48.23,48.23,0,0,0,3.42,4.41,1.29,1.29,0,0,0,.53,2.07,8.59,8.59,0,0,1-3.37-1.62q1.89,3.8,3.74,7.63l-4.18-1.34a4.12,4.12,0,0,0,2.06,4c.52.28,1.2.61,1.15,1.2a7.37,7.37,0,0,1-4.62-1.2,9.08,9.08,0,0,0,.05,4,3.11,3.11,0,0,0,3,2.31c-1,.31-2.75.48-3.46-.28a5.47,5.47,0,0,0,2.18,3.3c1.27.89,3.15,1.56,3.2,3.11a6.47,6.47,0,0,1-2.12-.42,11.36,11.36,0,0,1,3.17,5.18c-1.88-.84-1.69-1.7-3.75-1.79,1.18,2.83,2.28,13.91,17.5,13.91s16.32-11.08,17.5-13.91c-2.06.08-1.87.95-3.75,1.79a11.36,11.36,0,0,1,3.17-5.18,6.47,6.47,0,0,1-2.12.42c.05-1.56,1.92-2.22,3.2-3.11a5.47,5.47,0,0,0,2.18-3.3C634.06,265.21,632.31,265,631.32,264.73Z"/><path class="a" d="M1047.64,196.59a.31.31,0,0,0-.23.08,13.87,13.87,0,0,1-1.2,5,14.89,14.89,0,0,0-1.08,5.1,16.38,16.38,0,0,1-2.78-1.9,9.3,9.3,0,0,1,1.35,3.65,3.75,3.75,0,0,1-2-1,6.53,6.53,0,0,1,.51,3.61,2.18,2.18,0,0,1-2.69-.27,3.65,3.65,0,0,0,2.39,2.9,3.52,3.52,0,0,1-4.43-1.55,11.32,11.32,0,0,0,3.75,6.13l-4.85-3.16a43.32,43.32,0,0,0,5.33,5.51,7.22,7.22,0,0,1-5.82-2,10.28,10.28,0,0,0,4.51,5.47,4.79,4.79,0,0,1-4.8-.6,4.84,4.84,0,0,1,1.51,2.53l-1.53,0a34.45,34.45,0,0,1,4.45,3.46,9.06,9.06,0,0,1-3.13.05,3.07,3.07,0,0,1-2.34-1.88,8.57,8.57,0,0,0,1.76,4.41,8,8,0,0,0-5.43-.69,4.14,4.14,0,0,1,2.87,3.29c.16.61-2.37-.19-2.38.42,0,1,1.24,3.11,1.1,4.11-.16,1.17.91,2.65,1.06,3.81a4.17,4.17,0,0,0-2.18-2.61,12,12,0,0,0,2.72,4.85,25.43,25.43,0,0,0-5.57-3.39,12.82,12.82,0,0,0,3.62,5.92l-2.68-1.13,3.67,3.69a6.75,6.75,0,0,1-3.94-1.13,48.22,48.22,0,0,0,3.42,4.41,1.29,1.29,0,0,0,.53,2.07,8.59,8.59,0,0,1-3.37-1.62q1.89,3.8,3.74,7.63l-4.18-1.34a4.12,4.12,0,0,0,2.06,4c.52.28,1.2.61,1.15,1.2a7.37,7.37,0,0,1-4.62-1.2,9.08,9.08,0,0,0,.05,4,3.11,3.11,0,0,0,3,2.31c-1,.31-2.75.48-3.46-.28a5.47,5.47,0,0,0,2.18,3.3c1.27.89,3.15,1.56,3.2,3.11a6.47,6.47,0,0,1-2.12-.42,11.36,11.36,0,0,1,3.17,5.18c-1.88-.84-1.69-1.7-3.75-1.79,1.18,2.83,2.28,13.91,17.5,13.91"/><path class="a" d="M1047.64,196.59a.31.31,0,0,1,.23.08,13.87,13.87,0,0,0,1.2,5,14.89,14.89,0,0,1,1.08,5.1,16.38,16.38,0,0,0,2.78-1.9,9.3,9.3,0,0,0-1.35,3.65,3.75,3.75,0,0,0,2-1,6.53,6.53,0,0,0-.51,3.61,2.18,2.18,0,0,0,2.69-.27,3.65,3.65,0,0,1-2.39,2.9,3.52,3.52,0,0,0,4.43-1.55,11.32,11.32,0,0,1-3.75,6.13l4.85-3.16a43.32,43.32,0,0,1-5.33,5.51,7.22,7.22,0,0,0,5.82-2,10.28,10.28,0,0,1-4.51,5.47,4.79,4.79,0,0,0,4.8-.6,4.84,4.84,0,0,0-1.51,2.53l1.53,0a34.45,34.45,0,0,0-4.45,3.46,9.06,9.06,0,0,0,3.13.05,3.07,3.07,0,0,0,2.34-1.88,8.57,8.57,0,0,1-1.76,4.41,8,8,0,0,1,5.43-.69,4.14,4.14,0,0,0-2.87,3.29c-.16.61,2.37-.19,2.38.42,0,1-1.24,3.11-1.1,4.11.16,1.17-.91,2.65-1.06,3.81a4.17,4.17,0,0,1,2.18-2.61,12,12,0,0,1-2.72,4.85,25.43,25.43,0,0,1,5.57-3.39,12.82,12.82,0,0,1-3.62,5.92l2.68-1.13-3.67,3.69a6.75,6.75,0,0,0,3.94-1.13,48.22,48.22,0,0,1-3.42,4.41,1.29,1.29,0,0,1-.53,2.07,8.59,8.59,0,0,0,3.37-1.62q-1.89,3.8-3.74,7.63l4.18-1.34a4.12,4.12,0,0,1-2.06,4c-.52.28-1.2.61-1.15,1.2a7.37,7.37,0,0,0,4.62-1.2,9.08,9.08,0,0,1-.05,4,3.11,3.11,0,0,1-3,2.31c1,.31,2.75.48,3.46-.28a5.47,5.47,0,0,1-2.18,3.3c-1.27.89-3.15,1.56-3.2,3.11a6.47,6.47,0,0,0,2.12-.42,11.36,11.36,0,0,0-3.17,5.18c1.88-.84,1.69-1.7,3.75-1.79-1.18,2.83-2.28,13.91-17.5,13.91"/><path class="b" d="M804.91,240.46l.26-.62c-1.68.81-2,3.15-3.78,3.66s1.38-4.06,4-7.46a5.23,5.23,0,0,1-3.18,1.89l3-7.09a12.67,12.67,0,0,0-2.94,2.54c-.85-.71-.18-2.11.66-2.84s1.91-1.55,1.76-2.64a1,1,0,0,1-1.46.86,6.61,6.61,0,0,0,1-6.07l1-.55a7.51,7.51,0,0,0-4.59.8l3-4.89a8.67,8.67,0,0,1-2.73,2,1.14,1.14,0,0,1,1.05-1.34l-1.81-.13,3-4.84a16.88,16.88,0,0,1-4.71.44,6.38,6.38,0,0,1,1.13-2.45l-3.7-1a7.82,7.82,0,0,0,1.88-6,1.87,1.87,0,0,1-2.27,1.38l1.87-3.87c-1.22.63-3.23.22-4.5-.31a2.39,2.39,0,0,0,2.17-2.31l-3.13-.11a4.49,4.49,0,0,0,1.77-1.14,1,1,0,0,0-1-.22,3.7,3.7,0,0,0,.81-3.09c-.19,1-2,1.93-2,1.93s.64-2.14.13-1.67-1.22,1.39-1.22,1.39a.82.82,0,0,1-.46-.77,1.74,1.74,0,0,1,.39-.84,6.2,6.2,0,0,0,1-4.17,1.89,1.89,0,0,1-.3,1.18.73.73,0,0,1-1,0c-.55-.47-.92-2.82-1-4.06a.3.3,0,0,0-.37,0c-.09,1.24-.46,3.59-1,4.06a.73.73,0,0,1-1,0,1.89,1.89,0,0,1-.3-1.18,6.2,6.2,0,0,0,1,4.17,1.74,1.74,0,0,1,.39.84.82.82,0,0,1-.46.77s-.83-1-1.22-1.39S786,197,786,197s-1.83-1-2-1.93a3.7,3.7,0,0,0,.81,3.09,1,1,0,0,0-1,.22,4.49,4.49,0,0,0,1.77,1.14l-3.13.11a2.39,2.39,0,0,0,2.17,2.31c-1.27.53-3.28.94-4.5.31l1.87,3.87a1.87,1.87,0,0,1-2.27-1.38,7.82,7.82,0,0,0,1.88,6l-3.7,1a6.38,6.38,0,0,1,1.13,2.45,16.88,16.88,0,0,1-4.71-.44l3,4.84-1.81.13a1.14,1.14,0,0,1,1.05,1.34,8.67,8.67,0,0,1-2.73-2l3,4.89a7.51,7.51,0,0,0-4.59-.8l1,.55a6.61,6.61,0,0,0,1,6.07,1,1,0,0,1-1.46-.86c-.15,1.1.93,1.91,1.76,2.64s1.51,2.13.66,2.84a12.67,12.67,0,0,0-2.94-2.54l3,7.09a5.23,5.23,0,0,1-3.18-1.89c2.59,3.4,5.77,8,4,7.46s-2.1-2.85-3.78-3.66l.26.62a9.82,9.82,0,0,0,2.58,9.86.77.77,0,0,0-.81.06,2,2,0,0,0-.59,1,15.62,15.62,0,0,0,5.46,4.31,6.85,6.85,0,0,1,1.91,1.11c.37.36.64.81,1,1.18.61.62,5.79.94,6.6,1.25.81-.31,6-.64,6.6-1.25.36-.37.63-.82,1-1.18a6.85,6.85,0,0,1,1.91-1.11,15.62,15.62,0,0,0,5.46-4.31,2,2,0,0,0-.59-1,.77.77,0,0,0-.81-.06A9.82,9.82,0,0,0,804.91,240.46Z"/><path class="b" d="M1084,178.87V293.7c-1.31-.5-9.66-1-10.65-2-.58-.59-1-1.32-1.61-1.9a10.93,10.93,0,0,0-3.07-1.79,25.2,25.2,0,0,1-8.81-7,3.16,3.16,0,0,1,.94-1.62,1.27,1.27,0,0,1,1.26-.12c-4.39-4.43-5.59-9.72-4.12-15.88l-.42-1c2.71,1.31,3.19,5.08,6.09,5.9,2.45.69-.83-4.47-4.43-9.4-.66-.9-1.33-1.79-2-2.63a8.43,8.43,0,0,0,5.13,3.06l-4.77-11.43a19.93,19.93,0,0,1,4.74,4.09c1.37-1.15.29-3.41-1.06-4.59s-3-2.45-2.84-4.17a1.61,1.61,0,0,0,2.35,1.29,10.67,10.67,0,0,1-1.67-9.79l-1.59-.89a12.14,12.14,0,0,1,7.39,1.28l-4.83-7.88a13.87,13.87,0,0,0,4.41,3.17,1.83,1.83,0,0,0-1.7-2.15l2.92-.21-4.9-7.81a27,27,0,0,0,7.6.72,10.12,10.12,0,0,0-1.82-3.95l6-1.57a12.61,12.61,0,0,1-3-9.61,3,3,0,0,0,3.66,2.22q-1.5-3.12-3-6.24c2,1,5.21.36,7.26-.49a3.86,3.86,0,0,1-3.51-3.73l5-.17a7.31,7.31,0,0,1-2.85-1.84,1.54,1.54,0,0,1,1.57-.36,6,6,0,0,1-1.3-5c.31,1.57,3.26,3.12,3.26,3.12s-1-3.46-.22-2.7c.63.58,2,2.24,2,2.24a1.31,1.31,0,0,0,.74-1.23,2.8,2.8,0,0,0-.63-1.35,10,10,0,0,1-1.59-6.74,3.11,3.11,0,0,0,.48,1.91,1.18,1.18,0,0,0,1.69,0c.89-.75,1.48-4.55,1.63-6.54A.38.38,0,0,1,1084,178.87Z"/><path class="b" d="M926.22,250.43l.42-1c-2.71,1.31-3.2,5.08-6.09,5.9s2.22-6.54,6.4-12a8.43,8.43,0,0,1-5.13,3.05l4.77-11.43a20.43,20.43,0,0,0-4.74,4.09c-1.37-1.15-.28-3.4,1.06-4.58s3.08-2.49,2.84-4.26a1.61,1.61,0,0,1-2.35,1.38,10.65,10.65,0,0,0,1.67-9.79l1.59-.89a12.11,12.11,0,0,0-7.4,1.28l4.83-7.88a14,14,0,0,1-4.41,3.17,1.83,1.83,0,0,1,1.7-2.15l-2.92-.21,4.9-7.81a27.21,27.21,0,0,1-7.6.72,10.28,10.28,0,0,1,1.82-4l-6-1.57a12.61,12.61,0,0,0,3-9.61,3,3,0,0,1-3.67,2.22l3-6.24c-2,1-5.2.35-7.25-.5a3.86,3.86,0,0,0,3.5-3.73l-5.05-.17a7.24,7.24,0,0,0,2.86-1.84,1.56,1.56,0,0,0-1.57-.36,6,6,0,0,0,1.3-5c-.31,1.57-3.26,3.12-3.26,3.12s1-3.46.22-2.7c-.63.59-2,2.24-2,2.24a1.32,1.32,0,0,1-.73-1.23,2.8,2.8,0,0,1,.63-1.35,10,10,0,0,0,1.59-6.73,3,3,0,0,1-.48,1.91,1.18,1.18,0,0,1-1.69,0c-.89-.75-1.48-4.55-1.63-6.54a.49.49,0,0,0-.6,0c-.15,2-.74,5.79-1.63,6.54a1.18,1.18,0,0,1-1.69,0,3,3,0,0,1-.48-1.91,10,10,0,0,0,1.59,6.73,2.8,2.8,0,0,1,.63,1.35,1.32,1.32,0,0,1-.73,1.23s-1.34-1.66-2-2.24c-.82-.76.22,2.7.22,2.7s-2.95-1.55-3.26-3.12a6,6,0,0,0,1.3,5,1.56,1.56,0,0,0-1.57.36,7.24,7.24,0,0,0,2.86,1.84l-5.05.17a3.86,3.86,0,0,0,3.5,3.73c-2,.85-5.28,1.52-7.25.5l3,6.24a3,3,0,0,1-3.67-2.22,12.61,12.61,0,0,0,3,9.61l-6,1.57a10.28,10.28,0,0,1,1.82,4,27.21,27.21,0,0,1-7.6-.72l4.9,7.81-2.92.21a1.83,1.83,0,0,1,1.7,2.15,14,14,0,0,1-4.41-3.17l4.83,7.88a12.11,12.11,0,0,0-7.4-1.28l1.59.89a10.65,10.65,0,0,0,1.67,9.79,1.61,1.61,0,0,1-2.35-1.38c-.24,1.77,1.5,3.09,2.84,4.26s2.43,3.43,1.06,4.58a20.43,20.43,0,0,0-4.74-4.09l4.77,11.43a8.43,8.43,0,0,1-5.13-3.05c4.18,5.49,9.3,12.85,6.4,12s-3.38-4.6-6.09-5.9l.42,1c-1.47,6.16-.27,11.45,4.11,15.87a1.26,1.26,0,0,0-1.25.12A3.19,3.19,0,0,0,876,268a25.19,25.19,0,0,0,8.81,6.95,11,11,0,0,1,3.08,1.79c.6.58,1,1.31,1.61,1.9,1,1,9.34,1.52,10.65,2,1.31-.5,9.66-1,10.65-2,.58-.59,1-1.32,1.61-1.9a11,11,0,0,1,3.08-1.79A25.19,25.19,0,0,0,924.3,268a3.19,3.19,0,0,0-.95-1.62,1.26,1.26,0,0,0-1.25-.12C926.49,261.89,927.69,256.59,926.22,250.43Z"/><path class="b" d="M997.87,263.42l.42-1c-2.71,1.31-3.2,5.08-6.09,5.9s2.22-6.54,6.4-12a8.43,8.43,0,0,1-5.13,3.05l4.77-11.43A20.43,20.43,0,0,0,993.5,252c-1.37-1.15-.28-3.4,1.06-4.58s3.08-2.49,2.84-4.26a1.61,1.61,0,0,1-2.35,1.38,10.65,10.65,0,0,0,1.67-9.79l1.59-.89a12.11,12.11,0,0,0-7.39,1.28l4.83-7.88a14,14,0,0,1-4.41,3.17,1.83,1.83,0,0,1,1.7-2.15l-2.92-.21,4.9-7.81a27.2,27.2,0,0,1-7.6.72,10.28,10.28,0,0,1,1.82-4l-6-1.57a12.61,12.61,0,0,0,3-9.61,3,3,0,0,1-3.67,2.22l3-6.24c-2,1-5.2.35-7.25-.5a3.86,3.86,0,0,0,3.5-3.73l-5.05-.17a7.24,7.24,0,0,0,2.86-1.84,1.56,1.56,0,0,0-1.57-.36,6,6,0,0,0,1.3-5c-.31,1.57-3.26,3.12-3.26,3.12s1-3.46.22-2.7c-.63.59-2,2.24-2,2.24a1.32,1.32,0,0,1-.73-1.23,2.8,2.8,0,0,1,.63-1.35,10,10,0,0,0,1.59-6.73,3,3,0,0,1-.48,1.91,1.18,1.18,0,0,1-1.69,0c-.89-.75-1.48-4.55-1.63-6.54a.49.49,0,0,0-.6,0c-.15,2-.74,5.79-1.63,6.54a1.18,1.18,0,0,1-1.69,0,3,3,0,0,1-.48-1.91,10,10,0,0,0,1.59,6.73,2.8,2.8,0,0,1,.63,1.35,1.32,1.32,0,0,1-.73,1.23s-1.34-1.66-2-2.24c-.82-.76.22,2.7.22,2.7s-2.95-1.55-3.26-3.12a6,6,0,0,0,1.3,5,1.56,1.56,0,0,0-1.57.36,7.24,7.24,0,0,0,2.86,1.84l-5.05.17a3.86,3.86,0,0,0,3.5,3.73c-2,.85-5.28,1.52-7.25.5l3,6.24a3,3,0,0,1-3.67-2.22,12.61,12.61,0,0,0,3,9.61l-6,1.57a10.28,10.28,0,0,1,1.82,4,27.21,27.21,0,0,1-7.6-.72l4.9,7.81-2.92.21a1.83,1.83,0,0,1,1.7,2.15,14,14,0,0,1-4.41-3.17l4.83,7.88a12.11,12.11,0,0,0-7.4-1.28l1.59.89a10.65,10.65,0,0,0,1.67,9.79,1.61,1.61,0,0,1-2.35-1.38c-.24,1.77,1.5,3.09,2.84,4.26s2.43,3.43,1.06,4.58a20.43,20.43,0,0,0-4.74-4.09l4.77,11.43a8.43,8.43,0,0,1-5.13-3.05c4.18,5.49,9.3,12.85,6.4,12s-3.38-4.6-6.09-5.9l.42,1c-1.47,6.16-.27,11.45,4.11,15.87a1.26,1.26,0,0,0-1.25.12,3.19,3.19,0,0,0-.95,1.62,25.19,25.19,0,0,0,8.81,6.95,11,11,0,0,1,3.08,1.79c.6.58,1,1.31,1.61,1.9,1,1,9.34,1.52,10.65,2,1.31-.5,9.66-1,10.65-2,.58-.59,1-1.32,1.61-1.9a11,11,0,0,1,3.08-1.79A25.19,25.19,0,0,0,996,281a3.19,3.19,0,0,0-.95-1.62,1.26,1.26,0,0,0-1.25-.12C998.15,274.88,999.34,269.58,997.87,263.42Z"/><path class="a" d="M947.16,237.18c1.5.15,2.83-1.17,3.3-2.67a10.93,10.93,0,0,0,.06-4.66,7.92,7.92,0,0,1-5.12,1.39c-.05-.68.7-1.06,1.28-1.39a4.83,4.83,0,0,0,2.28-4.64l-4.64,1.55q2.05-4.42,4.14-8.82a9.37,9.37,0,0,1-3.73,1.88,1.52,1.52,0,0,0,.59-2.39,55.55,55.55,0,0,0,3.8-5.1,7.26,7.26,0,0,1-4.36,1.3l4.07-4.27-3,1.31a14.94,14.94,0,0,0,4-6.84,28,28,0,0,0-6.18,3.92,14,14,0,0,0,3-5.61,4.77,4.77,0,0,0-2.42,3c.17-1.34,1.35-3.06,1.18-4.41-.15-1.15,1.24-3.6,1.22-4.75,0-.71-2.82.22-2.64-.48.44-1.81,1.49-3.42,3.18-3.8a8.54,8.54,0,0,0-6,.8,10.14,10.14,0,0,0,2-5.1,3.44,3.44,0,0,1-2.59,2.18,9.65,9.65,0,0,1-3.47-.06,38.46,38.46,0,0,1,4.93-4l-1.7,0a5.64,5.64,0,0,1,1.67-2.93,5.13,5.13,0,0,1-5.33.7,11.79,11.79,0,0,0,5-6.32,7.82,7.82,0,0,1-6.45,2.36A49.22,49.22,0,0,0,941.1,173l-5.38,3.66a13.18,13.18,0,0,0,4.16-7.09,3.83,3.83,0,0,1-4.91,1.8,4.18,4.18,0,0,0,2.66-3.35,2.35,2.35,0,0,1-3,.31,7.84,7.84,0,0,1,.57-4.18,4.1,4.1,0,0,1-2.22,1.2,11,11,0,0,1,1.5-4.22,18.17,18.17,0,0,1-3.09,2.19,17.84,17.84,0,0,0-1.2-5.9,16.6,16.6,0,0,1-1.34-5.78.41.41,0,0,0-.51,0,16.6,16.6,0,0,1-1.34,5.78,17.84,17.84,0,0,0-1.2,5.9,18.16,18.16,0,0,1-3.09-2.19,11,11,0,0,1,1.5,4.22,4.1,4.1,0,0,1-2.22-1.2,7.84,7.84,0,0,1,.57,4.18,2.35,2.35,0,0,1-3-.31,4.18,4.18,0,0,0,2.66,3.35,3.83,3.83,0,0,1-4.91-1.8,13.18,13.18,0,0,0,4.16,7.09L916.14,173a49.22,49.22,0,0,0,5.91,6.37,7.82,7.82,0,0,1-6.45-2.36,11.79,11.79,0,0,0,5,6.32,5.13,5.13,0,0,1-5.33-.7,5.65,5.65,0,0,1,1.67,2.93l-1.7,0a38.46,38.46,0,0,1,4.93,4,9.65,9.65,0,0,1-3.47.06,3.44,3.44,0,0,1-2.59-2.18,10.14,10.14,0,0,0,2,5.1,8.54,8.54,0,0,0-6-.8c1.69.38,2.74,2,3.18,3.8.17.71-2.63-.22-2.64.48,0,1.15,1.37,3.6,1.22,4.75-.18,1.35,1,3.06,1.18,4.41a4.77,4.77,0,0,0-2.42-3,14,14,0,0,0,3,5.61,28,28,0,0,0-6.18-3.92,14.94,14.94,0,0,0,4,6.84l-3-1.31,4.07,4.27a7.26,7.26,0,0,1-4.36-1.3,55.52,55.52,0,0,0,3.8,5.1,1.52,1.52,0,0,0,.59,2.39,9.37,9.37,0,0,1-3.73-1.88q2.09,4.4,4.14,8.82l-4.64-1.55a4.83,4.83,0,0,0,2.28,4.64c.57.33,1.33.71,1.28,1.39a7.92,7.92,0,0,1-5.12-1.39,10.93,10.93,0,0,0,.06,4.66c.46,1.49,1.8,2.81,3.3,2.67-1.11.36-3,.55-3.84-.33a6.35,6.35,0,0,0,2.42,3.81c1.41,1,3.49,1.8,3.55,3.6a6.92,6.92,0,0,1-2.36-.49,13.24,13.24,0,0,1,3.52,6c-2.09-1-1.88-2-4.16-2.07,1.31,3.27,2.53,16.08,19.41,16.08S946.72,251,948,247.7c-2.29.1-2.07,1.1-4.16,2.07a13.24,13.24,0,0,1,3.52-6,6.92,6.92,0,0,1-2.36.49c.06-1.8,2.13-2.57,3.55-3.6a6.35,6.35,0,0,0,2.42-3.81C950.2,237.74,948.26,237.54,947.16,237.18Z"/><path class="a" d="M665,251.24a1.58,1.58,0,0,0,1.5-1.21,5,5,0,0,0,0-2.12,3.6,3.6,0,0,1-2.33.63c0-.31.32-.48.58-.63a2.2,2.2,0,0,0,1-2.11l-2.11.7q.93-2,1.88-4a4.26,4.26,0,0,1-1.7.85.69.69,0,0,0,.27-1.09,25.24,25.24,0,0,0,1.73-2.32,3.3,3.3,0,0,1-2,.59l1.85-1.94-1.35.59a6.79,6.79,0,0,0,1.82-3.11,12.75,12.75,0,0,0-2.81,1.78,6.37,6.37,0,0,0,1.37-2.55,2.17,2.17,0,0,0-1.1,1.37c.08-.61.62-1.39.54-2s.56-1.64.56-2.16c0-.32-1.28.1-1.2-.22a2.15,2.15,0,0,1,1.45-1.73,3.88,3.88,0,0,0-2.74.36,4.61,4.61,0,0,0,.89-2.32,1.57,1.57,0,0,1-1.18,1,4.39,4.39,0,0,1-1.58,0,17.49,17.49,0,0,1,2.24-1.82h-.77a2.57,2.57,0,0,1,.76-1.33,2.33,2.33,0,0,1-2.42.32,5.36,5.36,0,0,0,2.27-2.87,3.55,3.55,0,0,1-2.94,1.07,22.4,22.4,0,0,0,2.69-2.9l-2.45,1.66a6,6,0,0,0,1.89-3.22,1.74,1.74,0,0,1-2.23.82,1.9,1.9,0,0,0,1.21-1.52,1.07,1.07,0,0,1-1.36.14,3.57,3.57,0,0,1,.26-1.9,1.87,1.87,0,0,1-1,.54,5,5,0,0,1,.68-1.92,8.26,8.26,0,0,1-1.4,1,8.11,8.11,0,0,0-.55-2.68,7.55,7.55,0,0,1-.61-2.63.18.18,0,0,0-.23,0,7.55,7.55,0,0,1-.61,2.63,8.11,8.11,0,0,0-.55,2.68,8.26,8.26,0,0,1-1.4-1,5,5,0,0,1,.68,1.92,1.87,1.87,0,0,1-1-.54,3.57,3.57,0,0,1,.26,1.9,1.07,1.07,0,0,1-1.36-.14,1.9,1.9,0,0,0,1.21,1.52,1.74,1.74,0,0,1-2.23-.82,6,6,0,0,0,1.89,3.22L650.84,222a22.39,22.39,0,0,0,2.69,2.9,3.55,3.55,0,0,1-2.94-1.07,5.36,5.36,0,0,0,2.27,2.87,2.33,2.33,0,0,1-2.42-.32,2.57,2.57,0,0,1,.76,1.33h-.77a17.49,17.49,0,0,1,2.24,1.82,4.39,4.39,0,0,1-1.58,0,1.57,1.57,0,0,1-1.18-1,4.61,4.61,0,0,0,.89,2.32,3.88,3.88,0,0,0-2.74-.36,2.15,2.15,0,0,1,1.45,1.73c.08.32-1.2-.1-1.2.22,0,.52.62,1.64.56,2.16s.46,1.39.54,2a2.17,2.17,0,0,0-1.1-1.37,6.37,6.37,0,0,0,1.37,2.55,12.75,12.75,0,0,0-2.81-1.78,6.79,6.79,0,0,0,1.82,3.11l-1.35-.59,1.85,1.94a3.3,3.3,0,0,1-2-.59,25.24,25.24,0,0,0,1.73,2.32.69.69,0,0,0,.27,1.09,4.26,4.26,0,0,1-1.7-.85q1,2,1.88,4l-2.11-.7a2.2,2.2,0,0,0,1,2.11c.26.15.61.32.58.63a3.6,3.6,0,0,1-2.33-.63,5,5,0,0,0,0,2.12,1.58,1.58,0,0,0,1.5,1.21c-.5.16-1.39.25-1.74-.15a2.89,2.89,0,0,0,1.1,1.73c.64.47,1.59.82,1.61,1.64a3.15,3.15,0,0,1-1.07-.22,6,6,0,0,1,1.6,2.72c-1-.44-.85-.9-1.89-.94.6,1.49,1.15,7.31,8.83,7.31s8.23-5.83,8.83-7.31c-1,0-.94.5-1.89.94a6,6,0,0,1,1.6-2.72,3.15,3.15,0,0,1-1.07.22c0-.82,1-1.17,1.61-1.64a2.89,2.89,0,0,0,1.1-1.73C666.34,251.49,665.45,251.4,665,251.24Z"/><path class="a" d="M684.75,258.12a2.45,2.45,0,0,0,2.32-1.88,7.7,7.7,0,0,0,0-3.28,5.58,5.58,0,0,1-3.61,1c0-.48.5-.75.9-1a3.4,3.4,0,0,0,1.61-3.27l-3.27,1.09q1.44-3.11,2.92-6.21a6.61,6.61,0,0,1-2.63,1.32,1.07,1.07,0,0,0,.41-1.68,39.09,39.09,0,0,0,2.67-3.59,5.11,5.11,0,0,1-3.08.92l2.86-3-2.09.92a10.53,10.53,0,0,0,2.83-4.82,19.74,19.74,0,0,0-4.35,2.76,9.87,9.87,0,0,0,2.12-4,3.36,3.36,0,0,0-1.7,2.13c.12-.95,1-2.15.83-3.11s.87-2.53.86-3.34c0-.5-2,.16-1.86-.34a3.33,3.33,0,0,1,2.24-2.68,6,6,0,0,0-4.24.56,7.15,7.15,0,0,0,1.38-3.59,2.43,2.43,0,0,1-1.83,1.53,6.8,6.8,0,0,1-2.44,0,27.08,27.08,0,0,1,3.48-2.81l-1.2,0a4,4,0,0,1,1.18-2.06,3.62,3.62,0,0,1-3.75.49,8.31,8.31,0,0,0,3.52-4.45,5.51,5.51,0,0,1-4.55,1.66,34.68,34.68,0,0,0,4.16-4.49l-3.79,2.57a9.29,9.29,0,0,0,2.93-5,2.7,2.7,0,0,1-3.46,1.27,2.94,2.94,0,0,0,1.87-2.36,1.65,1.65,0,0,1-2.1.22,5.52,5.52,0,0,1,.4-2.94,2.89,2.89,0,0,1-1.56.84,7.77,7.77,0,0,1,1.06-3,12.79,12.79,0,0,1-2.17,1.54,12.57,12.57,0,0,0-.85-4.15,11.69,11.69,0,0,1-.94-4.07.29.29,0,0,0-.36,0,11.69,11.69,0,0,1-.94,4.07,12.57,12.57,0,0,0-.85,4.15,12.79,12.79,0,0,1-2.17-1.54,7.77,7.77,0,0,1,1.06,3,2.89,2.89,0,0,1-1.56-.84,5.52,5.52,0,0,1,.4,2.94,1.65,1.65,0,0,1-2.1-.22,2.94,2.94,0,0,0,1.87,2.36,2.7,2.7,0,0,1-3.46-1.27,9.29,9.29,0,0,0,2.93,5l-3.79-2.57a34.68,34.68,0,0,0,4.16,4.49,5.51,5.51,0,0,1-4.55-1.66,8.31,8.31,0,0,0,3.52,4.45,3.62,3.62,0,0,1-3.75-.49,4,4,0,0,1,1.18,2.06l-1.2,0a27.08,27.08,0,0,1,3.48,2.81,6.8,6.8,0,0,1-2.44,0,2.43,2.43,0,0,1-1.83-1.53,7.15,7.15,0,0,0,1.38,3.59,6,6,0,0,0-4.24-.56,3.33,3.33,0,0,1,2.24,2.68c.12.5-1.86-.16-1.86.34,0,.81,1,2.54.86,3.34s.71,2.16.83,3.11a3.36,3.36,0,0,0-1.7-2.13,9.87,9.87,0,0,0,2.12,4,19.74,19.74,0,0,0-4.35-2.76,10.53,10.53,0,0,0,2.83,4.82l-2.09-.92,2.87,3a5.11,5.11,0,0,1-3.08-.92,39.09,39.09,0,0,0,2.67,3.59,1.07,1.07,0,0,0,.41,1.68,6.61,6.61,0,0,1-2.63-1.32q1.47,3.1,2.92,6.21l-3.27-1.09A3.4,3.4,0,0,0,659,253c.4.23.94.5.9,1a5.58,5.58,0,0,1-3.61-1,7.7,7.7,0,0,0,0,3.28,2.45,2.45,0,0,0,2.32,1.88c-.78.25-2.15.39-2.7-.23a4.47,4.47,0,0,0,1.71,2.69c1,.73,2.46,1.27,2.5,2.54a4.88,4.88,0,0,1-1.66-.34,9.33,9.33,0,0,1,2.48,4.22c-1.47-.68-1.32-1.39-2.93-1.46.92,2.3,1.78,11.33,13.68,11.33s12.75-9,13.68-11.33c-1.61.07-1.46.77-2.93,1.46a9.33,9.33,0,0,1,2.48-4.22,4.88,4.88,0,0,1-1.66.34c0-1.27,1.5-1.81,2.5-2.54a4.47,4.47,0,0,0,1.71-2.69C686.89,258.51,685.53,258.37,684.75,258.12Z"/><path class="a" d="M712.05,233.52a1.21,1.21,0,0,0,1.15-.93,3.82,3.82,0,0,0,0-1.63,2.77,2.77,0,0,1-1.79.49c0-.24.25-.37.45-.48a1.69,1.69,0,0,0,.8-1.62l-1.62.54q.72-1.54,1.45-3.08a3.27,3.27,0,0,1-1.3.66.53.53,0,0,0,.2-.83,19.42,19.42,0,0,0,1.33-1.78,2.54,2.54,0,0,1-1.53.45l1.42-1.49-1,.46a5.22,5.22,0,0,0,1.4-2.39,9.78,9.78,0,0,0-2.16,1.37,4.89,4.89,0,0,0,1.05-2,1.67,1.67,0,0,0-.85,1.06c.06-.47.47-1.07.41-1.54s.43-1.26.43-1.66c0-.25-1,.08-.92-.17a1.65,1.65,0,0,1,1.11-1.33,3,3,0,0,0-2.1.28,3.54,3.54,0,0,0,.68-1.78,1.2,1.2,0,0,1-.91.76,3.37,3.37,0,0,1-1.21,0,13.43,13.43,0,0,1,1.72-1.4h-.59a2,2,0,0,1,.58-1,1.79,1.79,0,0,1-1.86.24,4.12,4.12,0,0,0,1.75-2.21,2.73,2.73,0,0,1-2.26.82,17.19,17.19,0,0,0,2.06-2.23l-1.88,1.28a4.61,4.61,0,0,0,1.46-2.48,1.34,1.34,0,0,1-1.72.63,1.46,1.46,0,0,0,.93-1.17.82.82,0,0,1-1,.11,2.74,2.74,0,0,1,.2-1.46,1.43,1.43,0,0,1-.77.42,3.86,3.86,0,0,1,.52-1.47,6.35,6.35,0,0,1-1.08.77,6.23,6.23,0,0,0-.42-2.06,5.8,5.8,0,0,1-.47-2,.14.14,0,0,0-.18,0,5.8,5.8,0,0,1-.47,2,6.23,6.23,0,0,0-.42,2.06,6.35,6.35,0,0,1-1.08-.77,3.85,3.85,0,0,1,.52,1.47,1.43,1.43,0,0,1-.77-.42,2.74,2.74,0,0,1,.2,1.46.82.82,0,0,1-1-.11,1.46,1.46,0,0,0,.93,1.17,1.34,1.34,0,0,1-1.72-.63,4.61,4.61,0,0,0,1.46,2.48l-1.88-1.28a17.19,17.19,0,0,0,2.06,2.23,2.73,2.73,0,0,1-2.26-.82,4.12,4.12,0,0,0,1.75,2.21,1.79,1.79,0,0,1-1.86-.24,2,2,0,0,1,.58,1h-.59a13.43,13.43,0,0,1,1.72,1.4,3.37,3.37,0,0,1-1.21,0,1.2,1.2,0,0,1-.91-.76,3.54,3.54,0,0,0,.68,1.78,3,3,0,0,0-2.1-.28A1.65,1.65,0,0,1,700.2,219c.06.25-.92-.08-.92.17,0,.4.48,1.26.43,1.66s.35,1.07.41,1.54a1.67,1.67,0,0,0-.85-1.06,4.89,4.89,0,0,0,1.05,2,9.79,9.79,0,0,0-2.16-1.37,5.22,5.22,0,0,0,1.4,2.39l-1-.46,1.42,1.49a2.54,2.54,0,0,1-1.53-.45,19.43,19.43,0,0,0,1.33,1.78.53.53,0,0,0,.2.83,3.27,3.27,0,0,1-1.3-.66q.73,1.54,1.45,3.08l-1.62-.54a1.69,1.69,0,0,0,.8,1.62c.2.11.47.25.45.48a2.77,2.77,0,0,1-1.79-.49,3.82,3.82,0,0,0,0,1.63,1.21,1.21,0,0,0,1.15.93c-.39.13-1.06.19-1.34-.11a2.22,2.22,0,0,0,.85,1.33c.49.36,1.22.63,1.24,1.26a2.42,2.42,0,0,1-.82-.17,4.62,4.62,0,0,1,1.23,2.09c-.73-.34-.66-.69-1.45-.72.46,1.14.88,5.62,6.78,5.62s6.32-4.48,6.78-5.62c-.8,0-.72.38-1.45.72a4.63,4.63,0,0,1,1.23-2.09,2.42,2.42,0,0,1-.82.17c0-.63.75-.9,1.24-1.26a2.22,2.22,0,0,0,.85-1.33C713.12,233.72,712.44,233.65,712.05,233.52Z"/><path class="a" d="M733,223.84a1.44,1.44,0,0,0,.55-.87c-.18.2-.62.16-.87.07a.79.79,0,0,0,.75-.61,2.49,2.49,0,0,0,0-1.06,1.8,1.8,0,0,1-1.16.32c0-.15.16-.24.29-.32a1.1,1.1,0,0,0,.52-1.06l-1.06.35.94-2a2.13,2.13,0,0,1-.85.43.35.35,0,0,0,.13-.54,12.6,12.6,0,0,0,.86-1.16,1.65,1.65,0,0,1-1,.3l.92-1-.68.3a3.4,3.4,0,0,0,.91-1.56,6.37,6.37,0,0,0-1.41.89,3.18,3.18,0,0,0,.68-1.28,1.09,1.09,0,0,0-.55.69c0-.31.31-.7.27-1s.28-.82.28-1.08-.64.05-.6-.11a1.07,1.07,0,0,1,.72-.86,1.94,1.94,0,0,0-1.37.18,2.31,2.31,0,0,0,.44-1.16.78.78,0,0,1-.59.5,2.19,2.19,0,0,1-.79,0,8.73,8.73,0,0,1,1.12-.91h-.39a1.28,1.28,0,0,1,.38-.67,1.17,1.17,0,0,1-1.21.16,2.68,2.68,0,0,0,1.14-1.44,1.78,1.78,0,0,1-1.47.54,11.19,11.19,0,0,0,1.34-1.45l-1.22.83a3,3,0,0,0,.95-1.61.87.87,0,0,1-1.12.41,1,1,0,0,0,.6-.76.53.53,0,0,1-.68.07,1.78,1.78,0,0,1,.13-.95.93.93,0,0,1-.5.27,2.51,2.51,0,0,1,.34-1,4.13,4.13,0,0,1-.7.5,4.06,4.06,0,0,0-.27-1.34,3.77,3.77,0,0,1-.3-1.31.09.09,0,0,0-.12,0,3.77,3.77,0,0,1-.3,1.31,4.06,4.06,0,0,0-.27,1.34,4.13,4.13,0,0,1-.7-.5,2.51,2.51,0,0,1,.34,1,.93.93,0,0,1-.5-.27,1.78,1.78,0,0,1,.13.95.53.53,0,0,1-.68-.07,1,1,0,0,0,.6.76.87.87,0,0,1-1.12-.41,3,3,0,0,0,.95,1.61l-1.22-.83a11.19,11.19,0,0,0,1.34,1.45,1.78,1.78,0,0,1-1.47-.54,2.68,2.68,0,0,0,1.14,1.44,1.17,1.17,0,0,1-1.21-.16,1.28,1.28,0,0,1,.38.67h-.39a8.74,8.74,0,0,1,1.12.91,2.19,2.19,0,0,1-.79,0,.78.78,0,0,1-.59-.5,2.31,2.31,0,0,0,.44,1.16,1.94,1.94,0,0,0-1.37-.18,1.07,1.07,0,0,1,.72.86c0,.16-.6-.05-.6.11s.31.82.28,1.08.23.7.27,1a1.09,1.09,0,0,0-.55-.69,3.18,3.18,0,0,0,.68,1.28,6.37,6.37,0,0,0-1.41-.89,3.4,3.4,0,0,0,.91,1.56l-.68-.3.92,1a1.65,1.65,0,0,1-1-.3,12.61,12.61,0,0,0,.86,1.16.35.35,0,0,0,.13.54,2.13,2.13,0,0,1-.85-.43l.94,2-1.06-.35a1.1,1.1,0,0,0,.52,1.06c.13.07.3.16.29.32a1.8,1.8,0,0,1-1.16-.32,2.49,2.49,0,0,0,0,1.06.79.79,0,0,0,.75.61c-.25.08-.69.13-.87-.07a1.44,1.44,0,0,0,.55.87c.32.23.79.41.81.82a1.57,1.57,0,0,1-.54-.11,3,3,0,0,1,.8,1.36c-.48-.22-.43-.45-.95-.47.3.74.57,3.66,4.41,3.66s4.12-2.91,4.41-3.66c-.52,0-.47.25-.95.47a3,3,0,0,1,.8-1.36,1.57,1.57,0,0,1-.54.11C732.19,224.25,732.66,224.07,733,223.84Z"/><path class="a" d="M822.7,243.3a2.31,2.31,0,0,0,2.2-1.78,7.29,7.29,0,0,0,0-3.1,5.28,5.28,0,0,1-3.41.93c0-.45.47-.71.85-.92a3.22,3.22,0,0,0,1.52-3.09l-3.09,1q1.37-2.94,2.76-5.87a6.24,6.24,0,0,1-2.49,1.25,1,1,0,0,0,.39-1.59,37,37,0,0,0,2.53-3.4,4.84,4.84,0,0,1-2.91.87l2.71-2.84-2,.87a10,10,0,0,0,2.67-4.56,18.68,18.68,0,0,0-4.12,2.61,9.33,9.33,0,0,0,2-3.74,3.18,3.18,0,0,0-1.61,2c.11-.9.9-2,.78-2.94s.83-2.4.82-3.16c0-.47-1.88.15-1.76-.32a3.15,3.15,0,0,1,2.12-2.53,5.69,5.69,0,0,0-4,.53,6.76,6.76,0,0,0,1.3-3.4,2.29,2.29,0,0,1-1.73,1.45,6.43,6.43,0,0,1-2.31,0,25.61,25.61,0,0,1,3.29-2.66l-1.13,0a3.76,3.76,0,0,1,1.11-2,3.42,3.42,0,0,1-3.55.47,7.86,7.86,0,0,0,3.33-4.21,5.21,5.21,0,0,1-4.3,1.57,32.82,32.82,0,0,0,3.94-4.25l-3.58,2.44a8.78,8.78,0,0,0,2.78-4.72,2.55,2.55,0,0,1-3.27,1.2,2.78,2.78,0,0,0,1.77-2.23,1.56,1.56,0,0,1-2,.21,5.23,5.23,0,0,1,.38-2.78,2.73,2.73,0,0,1-1.48.8,7.35,7.35,0,0,1,1-2.81,12.1,12.1,0,0,1-2.06,1.46,11.89,11.89,0,0,0-.8-3.93,11.06,11.06,0,0,1-.89-3.85.27.27,0,0,0-.34,0,11.06,11.06,0,0,1-.89,3.85,11.89,11.89,0,0,0-.8,3.93,12.1,12.1,0,0,1-2.06-1.46,7.35,7.35,0,0,1,1,2.81,2.73,2.73,0,0,1-1.48-.8,5.23,5.23,0,0,1,.38,2.78,1.56,1.56,0,0,1-2-.21,2.78,2.78,0,0,0,1.77,2.23,2.55,2.55,0,0,1-3.27-1.2,8.78,8.78,0,0,0,2.78,4.72L802,200.51a32.82,32.82,0,0,0,3.94,4.25,5.21,5.21,0,0,1-4.3-1.57,7.86,7.86,0,0,0,3.33,4.21,3.42,3.42,0,0,1-3.55-.47,3.76,3.76,0,0,1,1.11,2l-1.13,0a25.61,25.61,0,0,1,3.29,2.66,6.43,6.43,0,0,1-2.31,0,2.29,2.29,0,0,1-1.73-1.45,6.76,6.76,0,0,0,1.3,3.4,5.69,5.69,0,0,0-4-.53,3.15,3.15,0,0,1,2.12,2.53c.12.47-1.75-.15-1.76.32,0,.77.92,2.4.82,3.16s.67,2,.78,2.94a3.18,3.18,0,0,0-1.61-2,9.33,9.33,0,0,0,2,3.74,18.68,18.68,0,0,0-4.12-2.61,10,10,0,0,0,2.67,4.56l-2-.87,2.71,2.84a4.84,4.84,0,0,1-2.91-.87,37,37,0,0,0,2.53,3.4,1,1,0,0,0,.39,1.59,6.24,6.24,0,0,1-2.49-1.25q1.39,2.93,2.76,5.87l-3.09-1a3.22,3.22,0,0,0,1.52,3.09c.38.22.89.47.85.92a5.28,5.28,0,0,1-3.41-.93,7.29,7.29,0,0,0,0,3.1,2.31,2.31,0,0,0,2.2,1.78c-.74.24-2,.37-2.56-.22a4.23,4.23,0,0,0,1.61,2.54c.94.69,2.33,1.2,2.36,2.4a4.61,4.61,0,0,1-1.57-.33,8.82,8.82,0,0,1,2.34,4c-1.39-.65-1.25-1.31-2.77-1.38.87,2.18,1.68,10.72,12.93,10.72s12.06-8.54,12.93-10.72c-1.52.06-1.38.73-2.77,1.38a8.82,8.82,0,0,1,2.34-4,4.61,4.61,0,0,1-1.57.33c0-1.2,1.42-1.71,2.36-2.4a4.23,4.23,0,0,0,1.61-2.54C824.73,243.67,823.44,243.54,822.7,243.3Z"/><path class="c" d="M1041.68,263.63l.56-1.32c-3.58,1.73-4.23,6.72-8.05,7.8s2.94-8.65,8.46-15.91a11.14,11.14,0,0,1-6.79,4l6.3-15.11a27,27,0,0,0-6.27,5.41c-1.81-1.52-.37-4.5,1.41-6.06s4.08-3.29,3.76-5.64a2.13,2.13,0,0,1-3.11,1.83,14.08,14.08,0,0,0,2.21-12.94l2.1-1.18a16,16,0,0,0-9.78,1.7l6.39-10.42a18.47,18.47,0,0,1-5.83,4.18,2.42,2.42,0,0,1,2.25-2.85l-3.86-.27,6.48-10.32a36,36,0,0,1-10,.95,13.59,13.59,0,0,1,2.41-5.23l-7.88-2.07a16.67,16.67,0,0,0,4-12.7,4,4,0,0,1-4.85,2.94l4-8.25c-2.6,1.35-6.88.46-9.59-.66a5.1,5.1,0,0,0,4.63-4.93l-6.68-.23a9.57,9.57,0,0,0,3.78-2.44,2.07,2.07,0,0,0-2.08-.48,7.89,7.89,0,0,0,1.72-6.58C1016.91,169,1013,171,1013,171s1.37-4.57.29-3.57c-.84.78-2.61,3-2.61,3a1.74,1.74,0,0,1-1-1.63,3.7,3.7,0,0,1,.83-1.79,13.22,13.22,0,0,0,2.1-8.9,4,4,0,0,1-.64,2.52,1.56,1.56,0,0,1-2.23,0c-1.17-1-2-6-2.16-8.65a.65.65,0,0,0-.79,0c-.2,2.64-1,7.65-2.16,8.65a1.56,1.56,0,0,1-2.23,0,4,4,0,0,1-.64-2.52,13.22,13.22,0,0,0,2.1,8.9,3.7,3.7,0,0,1,.83,1.79,1.74,1.74,0,0,1-1,1.63s-1.77-2.19-2.61-3c-1.08-1,.29,3.57.29,3.57s-3.9-2-4.31-4.12a7.89,7.89,0,0,0,1.72,6.58,2.07,2.07,0,0,0-2.08.48,9.57,9.57,0,0,0,3.78,2.44l-6.68.23a5.1,5.1,0,0,0,4.63,4.93c-2.71,1.12-7,2-9.59.66l4,8.25a4,4,0,0,1-4.85-2.94,16.67,16.67,0,0,0,4,12.7l-7.88,2.07a13.59,13.59,0,0,1,2.41,5.23,36,36,0,0,1-10-.95L983,216.89l-3.86.27a2.42,2.42,0,0,1,2.25,2.85,18.47,18.47,0,0,1-5.83-4.18L982,226.24a16,16,0,0,0-9.78-1.7l2.1,1.18a14.08,14.08,0,0,0,2.21,12.94,2.13,2.13,0,0,1-3.11-1.83c-.32,2.34,2,4.08,3.76,5.64s3.22,4.54,1.41,6.06a27,27,0,0,0-6.27-5.41l6.3,15.11a11.14,11.14,0,0,1-6.79-4c5.52,7.26,12.29,17,8.46,15.91s-4.47-6.08-8.05-7.8l.56,1.32c-1.94,8.14-.36,15.14,5.44,21a1.67,1.67,0,0,0-1.65.16,4.22,4.22,0,0,0-1.25,2.14A33.3,33.3,0,0,0,987,296.1a14.59,14.59,0,0,1,4.07,2.37c.79.76,1.35,1.73,2.13,2.51,1.3,1.32,12.35,2,14.08,2.67,1.73-.66,12.77-1.35,14.08-2.67.77-.78,1.34-1.75,2.13-2.51a14.59,14.59,0,0,1,4.07-2.37,33.3,33.3,0,0,0,11.64-9.19,4.22,4.22,0,0,0-1.25-2.14,1.67,1.67,0,0,0-1.65-.16C1042,278.77,1043.62,271.76,1041.68,263.63Z"/><path class="c" d="M605.66,257.79l.44-1c-2.81,1.36-3.32,5.28-6.32,6.13s2.31-6.79,6.65-12.49a8.75,8.75,0,0,1-5.33,3.17L606,241.69a21.21,21.21,0,0,0-4.92,4.25c-1.42-1.19-.29-3.53,1.1-4.76s3.2-2.59,3-4.43a1.67,1.67,0,0,1-2.44,1.44A11.06,11.06,0,0,0,604.47,228l1.65-.93a12.57,12.57,0,0,0-7.68,1.33l5-8.18a14.5,14.5,0,0,1-4.58,3.29,1.9,1.9,0,0,1,1.76-2.24l-3-.21L602.7,213a28.25,28.25,0,0,1-7.89.74,10.68,10.68,0,0,1,1.89-4.1L590.51,208a13.09,13.09,0,0,0,3.14-10,3.13,3.13,0,0,1-3.81,2.31l3.13-6.48c-2,1.06-5.4.37-7.53-.52a4,4,0,0,0,3.64-3.87l-5.24-.18a7.51,7.51,0,0,0,3-1.91,1.62,1.62,0,0,0-1.63-.37,6.2,6.2,0,0,0,1.35-5.17c-.32,1.63-3.38,3.24-3.38,3.24s1.07-3.59.23-2.8c-.66.61-2,2.33-2,2.33a1.37,1.37,0,0,1-.76-1.28,2.91,2.91,0,0,1,.65-1.4,10.39,10.39,0,0,0,1.65-7,3.17,3.17,0,0,1-.5,2,1.22,1.22,0,0,1-1.75,0c-.92-.78-1.54-4.72-1.69-6.79a.51.51,0,0,0-.62,0c-.16,2.07-.77,6-1.69,6.79a1.22,1.22,0,0,1-1.75,0,3.17,3.17,0,0,1-.5-2,10.39,10.39,0,0,0,1.65,7,2.91,2.91,0,0,1,.65,1.4,1.37,1.37,0,0,1-.76,1.28s-1.39-1.72-2-2.33c-.85-.78.23,2.8.23,2.8s-3.06-1.61-3.38-3.24A6.2,6.2,0,0,0,572,187a1.62,1.62,0,0,0-1.63.37,7.51,7.51,0,0,0,3,1.91l-5.24.18a4,4,0,0,0,3.64,3.87c-2.13.88-5.49,1.58-7.53.52l3.13,6.48a3.13,3.13,0,0,1-3.81-2.31,13.09,13.09,0,0,0,3.14,10l-6.19,1.63a10.68,10.68,0,0,1,1.89,4.1,28.25,28.25,0,0,1-7.89-.74l5.09,8.11-3,.21a1.9,1.9,0,0,1,1.76,2.24,14.5,14.5,0,0,1-4.58-3.29l5,8.18a12.57,12.57,0,0,0-7.68-1.33l1.65.93a11.06,11.06,0,0,0,1.74,10.16,1.67,1.67,0,0,1-2.44-1.44c-.25,1.84,1.55,3.2,3,4.43s2.53,3.56,1.1,4.76a21.21,21.21,0,0,0-4.92-4.25l4.95,11.87a8.75,8.75,0,0,1-5.33-3.17c4.34,5.7,9.65,13.34,6.65,12.49s-3.51-4.77-6.32-6.13l.44,1c-1.53,6.4-.28,11.91,4.29,16.5a1.3,1.3,0,0,0-1.32.11,3.31,3.31,0,0,0-1,1.68,26.16,26.16,0,0,0,9.15,7.22,11.45,11.45,0,0,1,3.2,1.86c.62.6,1.06,1.36,1.67,2,1,1,9.7,1.58,11.06,2.1,1.36-.52,10-1.06,11.06-2.1.61-.61,1-1.37,1.67-2a11.45,11.45,0,0,1,3.2-1.86,26.16,26.16,0,0,0,9.15-7.22,3.31,3.31,0,0,0-1-1.68,1.3,1.3,0,0,0-1.32-.11C605.94,269.7,607.18,264.19,605.66,257.79Z"/><path class="c" d="M649.94,272.34l.38-.9c-2.43,1.17-2.86,4.55-5.46,5.29s2-5.86,5.74-10.78a7.55,7.55,0,0,1-4.6,2.74l4.27-10.24a18.3,18.3,0,0,0-4.25,3.66c-1.23-1-.25-3,1-4.1s2.76-2.23,2.55-3.82a1.44,1.44,0,0,1-2.11,1.24,9.54,9.54,0,0,0,1.5-8.77l1.43-.8a10.85,10.85,0,0,0-6.62,1.15l4.33-7.06a12.52,12.52,0,0,1-3.95,2.84,1.64,1.64,0,0,1,1.52-1.93l-2.62-.18,4.39-7a24.37,24.37,0,0,1-6.81.64,9.21,9.21,0,0,1,1.63-3.54l-5.34-1.41a11.29,11.29,0,0,0,2.71-8.61,2.7,2.7,0,0,1-3.28,2l2.7-5.59c-1.76.92-4.66.31-6.5-.45a3.45,3.45,0,0,0,3.14-3.34l-4.52-.15a6.48,6.48,0,0,0,2.56-1.65,1.4,1.4,0,0,0-1.41-.32,5.35,5.35,0,0,0,1.16-4.46c-.28,1.41-2.92,2.79-2.92,2.79s.93-3.1.19-2.42c-.57.53-1.77,2-1.77,2a1.18,1.18,0,0,1-.66-1.11,2.51,2.51,0,0,1,.56-1.21,9,9,0,0,0,1.42-6,2.73,2.73,0,0,1-.43,1.71,1.06,1.06,0,0,1-1.51,0c-.79-.67-1.33-4.07-1.46-5.86a.44.44,0,0,0-.53,0c-.13,1.79-.67,5.19-1.46,5.86a1.06,1.06,0,0,1-1.51,0,2.73,2.73,0,0,1-.43-1.71,9,9,0,0,0,1.42,6,2.51,2.51,0,0,1,.56,1.21,1.18,1.18,0,0,1-.66,1.11s-1.2-1.49-1.77-2c-.73-.68.19,2.42.19,2.42s-2.64-1.39-2.92-2.79a5.35,5.35,0,0,0,1.16,4.46,1.4,1.4,0,0,0-1.41.32,6.48,6.48,0,0,0,2.56,1.65l-4.52.15a3.45,3.45,0,0,0,3.14,3.34c-1.83.76-4.73,1.36-6.5.45l2.7,5.59a2.7,2.7,0,0,1-3.28-2,11.29,11.29,0,0,0,2.71,8.61L611,230.78a9.21,9.21,0,0,1,1.63,3.54,24.37,24.37,0,0,1-6.81-.64l4.39,7-2.62.18a1.64,1.64,0,0,1,1.52,1.93,12.52,12.52,0,0,1-3.95-2.84l4.33,7.06a10.85,10.85,0,0,0-6.62-1.15l1.43.8a9.54,9.54,0,0,0,1.5,8.77,1.44,1.44,0,0,1-2.11-1.24c-.22,1.59,1.34,2.76,2.55,3.82s2.18,3.07,1,4.1a18.3,18.3,0,0,0-4.25-3.66l4.27,10.24a7.55,7.55,0,0,1-4.6-2.74c3.74,4.92,8.33,11.51,5.74,10.78s-3-4.12-5.46-5.29l.38.9c-1.32,5.52-.24,10.27,3.7,14.24a1.12,1.12,0,0,0-1.14.09,2.86,2.86,0,0,0-.85,1.45,22.57,22.57,0,0,0,7.89,6.23,9.88,9.88,0,0,1,2.76,1.61c.53.52.92,1.17,1.44,1.7.88.89,8.37,1.36,9.54,1.81,1.17-.45,8.66-.92,9.54-1.81.52-.53.91-1.18,1.44-1.7a9.88,9.88,0,0,1,2.76-1.61,22.57,22.57,0,0,0,7.89-6.23,2.86,2.86,0,0,0-.85-1.45,1.12,1.12,0,0,0-1.14-.09C650.19,282.61,651.26,277.86,649.94,272.34Z"/><path class="c" d="M860,246l.35-.82c-2.23,1.08-2.63,4.18-5,4.86s1.83-5.38,5.27-9.9a6.94,6.94,0,0,1-4.22,2.51l3.92-9.4a16.81,16.81,0,0,0-3.9,3.36c-1.13-.95-.23-2.8.87-3.77s2.54-2.05,2.34-3.51a1.32,1.32,0,0,1-1.94,1.14,8.76,8.76,0,0,0,1.38-8.05l1.31-.74a10,10,0,0,0-6.08,1.06l4-6.48a11.5,11.5,0,0,1-3.63,2.6A1.51,1.51,0,0,1,856,217l-2.4-.17,4-6.43a22.38,22.38,0,0,1-6.25.59,8.46,8.46,0,0,1,1.5-3.25l-4.91-1.29a10.37,10.37,0,0,0,2.49-7.9,2.48,2.48,0,0,1-3,1.83l2.48-5.13c-1.62.84-4.28.29-6-.41a3.17,3.17,0,0,0,2.88-3.07l-4.16-.14a6,6,0,0,0,2.35-1.52,1.29,1.29,0,0,0-1.3-.3,4.91,4.91,0,0,0,1.07-4.1c-.25,1.29-2.68,2.57-2.68,2.57s.85-2.84.18-2.22c-.52.48-1.62,1.85-1.62,1.85a1.08,1.08,0,0,1-.6-1,2.31,2.31,0,0,1,.51-1.11,8.23,8.23,0,0,0,1.31-5.54,2.51,2.51,0,0,1-.4,1.57,1,1,0,0,1-1.39,0c-.73-.62-1.22-3.74-1.34-5.38a.4.4,0,0,0-.49,0c-.12,1.64-.61,4.76-1.34,5.38a1,1,0,0,1-1.39,0,2.51,2.51,0,0,1-.4-1.57,8.23,8.23,0,0,0,1.31,5.54,2.31,2.31,0,0,1,.51,1.11,1.08,1.08,0,0,1-.6,1s-1.1-1.36-1.62-1.85c-.67-.62.18,2.22.18,2.22s-2.43-1.27-2.68-2.57a4.91,4.91,0,0,0,1.07,4.1,1.29,1.29,0,0,0-1.3.3,6,6,0,0,0,2.35,1.52l-4.16.14a3.17,3.17,0,0,0,2.88,3.07c-1.69.7-4.35,1.25-6,.41l2.48,5.13a2.48,2.48,0,0,1-3-1.83,10.37,10.37,0,0,0,2.49,7.9l-4.91,1.29a8.46,8.46,0,0,1,1.5,3.25,22.38,22.38,0,0,1-6.25-.59l4,6.43L821,217a1.51,1.51,0,0,1,1.4,1.77,11.5,11.5,0,0,1-3.63-2.6l4,6.48a10,10,0,0,0-6.08-1.06l1.31.74a8.76,8.76,0,0,0,1.38,8.05,1.32,1.32,0,0,1-1.94-1.14c-.2,1.46,1.23,2.54,2.34,3.51s2,2.82.87,3.77a16.81,16.81,0,0,0-3.9-3.36l3.92,9.4a6.94,6.94,0,0,1-4.22-2.51c3.44,4.52,7.65,10.58,5.27,9.9s-2.78-3.78-5-4.86l.35.82c-1.21,5.07-.22,9.44,3.4,13.08a1,1,0,0,0-1,.09,2.63,2.63,0,0,0-.78,1.33,20.73,20.73,0,0,0,7.25,5.72,9.08,9.08,0,0,1,2.53,1.48c.49.47.84,1.08,1.32,1.56.81.82,7.68,1.25,8.76,1.66,1.08-.41,8-.84,8.76-1.66.48-.49.83-1.09,1.32-1.56a9.08,9.08,0,0,1,2.53-1.48,20.73,20.73,0,0,0,7.25-5.72,2.63,2.63,0,0,0-.78-1.33,1,1,0,0,0-1-.09C860.17,255.39,861.16,251,860,246Z"/><path class="c" d="M700.79,227.48l.14-.46c-.92.6-1.08,2.34-2.06,2.72s.75-3,2.17-5.54a2.85,2.85,0,0,1-1.74,1.41l1.61-5.26a8.08,8.08,0,0,0-1.61,1.88c-.46-.53-.1-1.57.36-2.11a2.75,2.75,0,0,0,1-2c0,.52-.48.92-.8.64a6.37,6.37,0,0,0,.57-4.51l.54-.41a3.19,3.19,0,0,0-2.5.59l1.64-3.63a5.1,5.1,0,0,1-1.49,1.46c-.08-.47.22-1,.58-1l-1-.09,1.66-3.6a6.87,6.87,0,0,1-2.57.33,5.66,5.66,0,0,1,.62-1.82l-2-.72a7.28,7.28,0,0,0,1-4.42c-.1.73-.72,1.24-1.24,1l1-2.87a2.53,2.53,0,0,1-2.46-.23c.64,0,1.19-.85,1.19-1.72l-1.71-.08a2.52,2.52,0,0,0,1-.85.43.43,0,0,0-.53-.17,3.5,3.5,0,0,0,.44-2.29c-.1.72-1.1,1.44-1.1,1.44s.35-1.59.07-1.24-.67,1-.67,1a.63.63,0,0,1-.25-.57,1.54,1.54,0,0,1,.21-.62,6,6,0,0,0,.54-3.1,1.81,1.81,0,0,1-.16.88c-.14.24-.4.2-.57,0a8.89,8.89,0,0,1-.55-3,.13.13,0,0,0-.2,0,8.89,8.89,0,0,1-.55,3c-.17.2-.43.24-.57,0a1.81,1.81,0,0,1-.16-.88,6,6,0,0,0,.54,3.1,1.54,1.54,0,0,1,.21.62.63.63,0,0,1-.25.57s-.45-.76-.67-1,.07,1.24.07,1.24-1-.71-1.1-1.44a3.5,3.5,0,0,0,.44,2.29.43.43,0,0,0-.53.17,2.52,2.52,0,0,0,1,.85l-1.71.08c0,.87.55,1.67,1.19,1.72a2.53,2.53,0,0,1-2.46.23l1,2.87c-.52.21-1.14-.3-1.24-1a7.28,7.28,0,0,0,1,4.42l-2,.72a5.66,5.66,0,0,1,.62,1.82,6.87,6.87,0,0,1-2.57-.33l1.66,3.6-1,.09c.36,0,.66.52.58,1a5.1,5.1,0,0,1-1.49-1.46l1.64,3.63a3.19,3.19,0,0,0-2.5-.59l.54.41a6.37,6.37,0,0,0,.57,4.51c-.32.28-.82-.12-.8-.64a2.75,2.75,0,0,0,1,2c.46.54.82,1.58.36,2.11a8.09,8.09,0,0,0-1.61-1.88l1.61,5.26a2.85,2.85,0,0,1-1.74-1.41c1.41,2.53,3.15,5.92,2.17,5.54s-1.14-2.12-2.06-2.72l.14.46a9.17,9.17,0,0,0,1.41,7.32.33.33,0,0,0-.44,0,1.64,1.64,0,0,0-.32.75,9.57,9.57,0,0,0,3,3.2,3.69,3.69,0,0,1,1,.83c.2.27.35.6.54.87.33.46,3.16.7,3.6.93.44-.23,3.27-.47,3.6-.93.2-.27.34-.61.54-.87a3.69,3.69,0,0,1,1-.83,9.57,9.57,0,0,0,3-3.2,1.64,1.64,0,0,0-.32-.75.33.33,0,0,0-.44,0A9.17,9.17,0,0,0,700.79,227.48Z"/><path class="c" d="M728,227.48l.14-.46c-.92.6-1.08,2.34-2.06,2.72s.75-3,2.17-5.54a2.85,2.85,0,0,1-1.74,1.41l1.61-5.26a8.09,8.09,0,0,0-1.61,1.88c-.46-.53-.1-1.57.36-2.11a2.75,2.75,0,0,0,1-2c0,.52-.48.92-.8.64a6.37,6.37,0,0,0,.57-4.51l.54-.41a3.19,3.19,0,0,0-2.5.59l1.64-3.63a5.1,5.1,0,0,1-1.49,1.46c-.08-.47.22-1,.58-1l-1-.09,1.66-3.6a6.87,6.87,0,0,1-2.57.33,5.65,5.65,0,0,1,.62-1.82l-2-.72a7.28,7.28,0,0,0,1-4.42c-.1.73-.72,1.24-1.24,1l1-2.87a2.53,2.53,0,0,1-2.46-.23c.64,0,1.19-.85,1.19-1.72l-1.71-.08a2.52,2.52,0,0,0,1-.85.43.43,0,0,0-.53-.17,3.5,3.5,0,0,0,.44-2.29c-.1.72-1.1,1.44-1.1,1.44s.35-1.59.07-1.24-.67,1-.67,1a.63.63,0,0,1-.25-.57,1.53,1.53,0,0,1,.21-.62,6,6,0,0,0,.54-3.1,1.81,1.81,0,0,1-.16.88c-.14.24-.4.2-.57,0a8.89,8.89,0,0,1-.55-3,.13.13,0,0,0-.2,0,8.89,8.89,0,0,1-.55,3c-.17.2-.43.24-.57,0a1.81,1.81,0,0,1-.16-.88,6,6,0,0,0,.54,3.1,1.54,1.54,0,0,1,.21.62.63.63,0,0,1-.25.57s-.45-.76-.67-1,.07,1.24.07,1.24-1-.71-1.1-1.44a3.5,3.5,0,0,0,.44,2.29.43.43,0,0,0-.53.17,2.52,2.52,0,0,0,1,.85l-1.71.08c0,.87.55,1.67,1.19,1.72a2.53,2.53,0,0,1-2.46.23l1,2.87c-.52.21-1.14-.3-1.24-1a7.28,7.28,0,0,0,1,4.42l-2,.72a5.65,5.65,0,0,1,.62,1.82,6.87,6.87,0,0,1-2.57-.33l1.66,3.6-1,.09c.36,0,.66.52.58,1a5.1,5.1,0,0,1-1.49-1.46l1.64,3.63a3.18,3.18,0,0,0-2.5-.59l.54.41a6.37,6.37,0,0,0,.57,4.51c-.32.28-.82-.12-.8-.64a2.75,2.75,0,0,0,1,2c.46.54.82,1.58.36,2.11a8.09,8.09,0,0,0-1.61-1.88l1.61,5.26a2.85,2.85,0,0,1-1.74-1.41c1.41,2.53,3.15,5.92,2.17,5.54s-1.14-2.12-2.06-2.72l.14.46a9.17,9.17,0,0,0,1.41,7.32.33.33,0,0,0-.44,0,1.64,1.64,0,0,0-.32.75,9.57,9.57,0,0,0,3,3.2,3.69,3.69,0,0,1,1,.83c.2.27.35.6.54.87.33.46,3.16.7,3.6.93.44-.23,3.27-.47,3.6-.93.2-.27.34-.61.54-.87a3.69,3.69,0,0,1,1-.83,9.57,9.57,0,0,0,3-3.2,1.64,1.64,0,0,0-.32-.75.33.33,0,0,0-.44,0A9.17,9.17,0,0,0,728,227.48Z"/><path class="c" d="M780.77,251.95l.35-.82c-2.23,1.08-2.63,4.18-5,4.86s1.83-5.38,5.27-9.9a6.94,6.94,0,0,1-4.22,2.51l3.92-9.4a16.81,16.81,0,0,0-3.9,3.36c-1.13-.95-.23-2.8.87-3.77s2.54-2.05,2.34-3.51a1.32,1.32,0,0,1-1.94,1.14,8.76,8.76,0,0,0,1.38-8.06l1.31-.74a10,10,0,0,0-6.08,1.06l4-6.48a11.5,11.5,0,0,1-3.63,2.6,1.51,1.51,0,0,1,1.4-1.77l-2.4-.17,4-6.43a22.38,22.38,0,0,1-6.25.59,8.46,8.46,0,0,1,1.5-3.25l-4.91-1.29a10.37,10.37,0,0,0,2.49-7.9,2.48,2.48,0,0,1-3,1.83l2.48-5.13c-1.62.84-4.28.29-6-.41a3.17,3.17,0,0,0,2.88-3.07l-4.16-.14a6,6,0,0,0,2.35-1.52,1.29,1.29,0,0,0-1.3-.3,4.91,4.91,0,0,0,1.07-4.1c-.25,1.29-2.68,2.57-2.68,2.57s.85-2.84.18-2.22c-.52.48-1.62,1.85-1.62,1.85a1.08,1.08,0,0,1-.6-1,2.31,2.31,0,0,1,.51-1.11,8.23,8.23,0,0,0,1.31-5.54,2.51,2.51,0,0,1-.4,1.57,1,1,0,0,1-1.39,0c-.73-.62-1.22-3.74-1.34-5.38a.4.4,0,0,0-.49,0c-.12,1.64-.61,4.76-1.34,5.38a1,1,0,0,1-1.39,0,2.51,2.51,0,0,1-.4-1.57,8.23,8.23,0,0,0,1.31,5.54,2.3,2.3,0,0,1,.51,1.11,1.08,1.08,0,0,1-.6,1s-1.1-1.36-1.62-1.85c-.67-.62.18,2.22.18,2.22S753.3,193,753,191.74a4.91,4.91,0,0,0,1.07,4.1,1.29,1.29,0,0,0-1.3.3,6,6,0,0,0,2.35,1.52l-4.16.14a3.17,3.17,0,0,0,2.88,3.07c-1.69.7-4.35,1.25-6,.41l2.48,5.13a2.48,2.48,0,0,1-3-1.83,10.37,10.37,0,0,0,2.49,7.9L745,213.77a8.46,8.46,0,0,1,1.5,3.25,22.38,22.38,0,0,1-6.25-.59l4,6.43-2.4.17a1.51,1.51,0,0,1,1.4,1.77,11.5,11.5,0,0,1-3.63-2.6l4,6.48a10,10,0,0,0-6.08-1.06l1.31.74a8.76,8.76,0,0,0,1.38,8.06,1.32,1.32,0,0,1-1.94-1.14c-.2,1.46,1.23,2.54,2.34,3.51s2,2.82.87,3.77a16.81,16.81,0,0,0-3.9-3.36l3.92,9.4a6.94,6.94,0,0,1-4.22-2.51c3.44,4.52,7.65,10.58,5.27,9.9s-2.78-3.78-5-4.86l.35.82c-1.21,5.07-.22,9.44,3.4,13.08a1,1,0,0,0-1,.09,2.63,2.63,0,0,0-.78,1.33,20.73,20.73,0,0,0,7.25,5.72,9.08,9.08,0,0,1,2.53,1.48c.49.47.84,1.08,1.32,1.56.81.82,7.68,1.25,8.76,1.66,1.08-.41,8-.84,8.76-1.66.48-.49.83-1.09,1.32-1.56a9.08,9.08,0,0,1,2.53-1.48,20.73,20.73,0,0,0,7.25-5.72,2.63,2.63,0,0,0-.78-1.33,1,1,0,0,0-1-.09C781,261.38,782,257,780.77,251.95Z"/><path class="d" d="M1083.92,376.8H542v-155c32.26-1.62,35.27,19.46,62.91,30.92a43.12,43.12,0,0,0,16.5,3.63c49.42,0,76.5-32.25,111.79-32.25S798.51,261,822.82,261s35.48-31.34,71.56-31.34,49.74,23.5,81.9,23.5,49.41,16.72,49.41,16.72,10.7-11.15,29.81-11.15,28.54,8,28.54,8Z"/><path class="e" d="M1084,323.49V376.8H683.26s60.23-83.1,149-83.1S987.19,324,1063.69,324C1070.28,324,1077.17,323.81,1084,323.49Z"/><path class="e" d="M681.6,376.8H542V329.29C630.64,329.29,681.6,376.8,681.6,376.8Z"/><rect class="f" width="1083.98" height="384.46"/></svg>