<svg xmlns="http://www.w3.org/2000/svg" xmlns:xlink="http://www.w3.org/1999/xlink" width="1143" height="385" viewBox="0 0 1143 385"><defs><style>.a{fill:none;}.b{clip-path:url(#a);}.c,.d,.e,.g{fill:#fff;}.c{stroke:#dde1e9;}.c,.d,.e{stroke-miterlimit:10;}.c,.e{stroke-width:2px;}.d{stroke:#83a3a5;}.e{stroke:#dae6e4;}.f{clip-path:url(#b);}.g{opacity:0.6;}</style><clipPath id="a"><rect class="a" x="571.3" width="571.7" height="384.46"/></clipPath><clipPath id="b"><rect class="a" width="571.3" height="384.46" transform="translate(571.3 384.46) rotate(-180)"/></clipPath></defs><title>BG-hero-loop-left</title><g class="b"><path class="c" d="M573.3,299.1v34.82l296.16-3.26s-5.89-41.95-45.16-41.95c-11.29,0-18.23-5.55-23.83-13.47-13.89-19.62-19.57-53.75-63-53.75-60.94,0-46.74,54.58-109.47,54.58a87.17,87.17,0,0,0-18.2,1.82A65.09,65.09,0,0,0,573.3,299.1Z"/><path class="d" d="M988.56,287.46l-.19-.44c1.2.58,1.42,2.25,2.7,2.62s-1-2.9-2.84-5.33a3.74,3.74,0,0,0,2.28,1.35l-2.11-5.07a9.05,9.05,0,0,1,2.1,1.81c.61-.51.13-1.51-.47-2s-1.37-1.1-1.26-1.89a.71.71,0,0,0,1,.61,4.72,4.72,0,0,1-.74-4.34l-.71-.4a5.37,5.37,0,0,1,3.28.57l-2.14-3.49a6.19,6.19,0,0,0,2,1.4.81.81,0,0,0-.75-1l1.29-.09-2.17-3.46a12.06,12.06,0,0,0,3.37.32,4.56,4.56,0,0,0-.81-1.75l2.64-.7a5.59,5.59,0,0,1-1.34-4.26,1.34,1.34,0,0,0,1.62,1L994,260.16a4.35,4.35,0,0,0,3.21-.22,1.71,1.71,0,0,1-1.55-1.65l2.24-.08a3.21,3.21,0,0,1-1.27-.82.69.69,0,0,1,.7-.16,2.65,2.65,0,0,1-.58-2.21c.14.7,1.44,1.38,1.44,1.38s-.46-1.53-.1-1.2.87,1,.87,1a.58.58,0,0,0,.33-.55,1.24,1.24,0,0,0-.28-.6,4.43,4.43,0,0,1-.7-3,1.35,1.35,0,0,0,.21.85.52.52,0,0,0,.75,0c.39-.33.66-2,.72-2.9a.22.22,0,0,1,.26,0c.07.89.33,2.57.72,2.9a.52.52,0,0,0,.75,0,1.35,1.35,0,0,0,.21-.85,4.43,4.43,0,0,1-.7,3,1.24,1.24,0,0,0-.28.6.58.58,0,0,0,.33.55s.59-.74.87-1-.1,1.2-.1,1.2,1.31-.69,1.44-1.38a2.65,2.65,0,0,1-.58,2.21.69.69,0,0,1,.7.16,3.21,3.21,0,0,1-1.27.82l2.24.08a1.71,1.71,0,0,1-1.55,1.65,4.35,4.35,0,0,0,3.21.22l-1.34,2.76a1.34,1.34,0,0,0,1.62-1,5.59,5.59,0,0,1-1.34,4.26l2.64.7a4.56,4.56,0,0,0-.81,1.75,12.06,12.06,0,0,0,3.37-.32l-2.17,3.46,1.29.09a.81.81,0,0,0-.75,1,6.19,6.19,0,0,0,2-1.4l-2.14,3.49a5.37,5.37,0,0,1,3.28-.57l-.71.4a4.72,4.72,0,0,1-.74,4.34.71.71,0,0,0,1-.61c.11.79-.66,1.37-1.26,1.89s-1.08,1.52-.47,2a9.05,9.05,0,0,1,2.1-1.81l-2.11,5.07a3.74,3.74,0,0,0,2.28-1.35c-1.85,2.43-4.12,5.7-2.84,5.33s1.5-2,2.7-2.62l-.19.44a7,7,0,0,1-1.85,7,.55.55,0,0,1,.58,0,1.41,1.41,0,0,1,.42.72,11.17,11.17,0,0,1-3.9,3.08,4.89,4.89,0,0,0-1.36.79c-.26.26-.45.58-.71.84-.44.44-4.14.67-4.72.9-.58-.22-4.28-.45-4.72-.9-.26-.26-.45-.59-.71-.84a4.89,4.89,0,0,0-1.36-.79,11.17,11.17,0,0,1-3.9-3.08,1.41,1.41,0,0,1,.42-.72.55.55,0,0,1,.58,0A7,7,0,0,1,988.56,287.46Z"/><path class="d" d="M822.23,273.08a2.07,2.07,0,0,1-2-1.54,6.06,6.06,0,0,1,0-2.69,4.92,4.92,0,0,0,3.08.8c0-.39-.42-.61-.77-.8a2.75,2.75,0,0,1-1.37-2.68l2.79.89q-1.23-2.55-2.49-5.09a5.74,5.74,0,0,0,2.25,1.08.86.86,0,0,1-.35-1.38,32.17,32.17,0,0,1-2.28-2.95,4.5,4.5,0,0,0,2.63.75L821.24,257l1.79.75a8.56,8.56,0,0,1-2.41-3.95,17,17,0,0,1,3.72,2.27,8,8,0,0,1-1.81-3.24A2.78,2.78,0,0,1,824,254.6c-.1-.78-.81-1.77-.71-2.55s-.75-2.08-.74-2.74c0-.41,1.69.13,1.59-.28a2.76,2.76,0,0,0-1.91-2.19,5.33,5.33,0,0,1,3.62.46,5.72,5.72,0,0,1-1.18-2.94,2.05,2.05,0,0,0,1.56,1.26,6.06,6.06,0,0,0,2.09,0,23,23,0,0,0-3-2.31h1a3.23,3.23,0,0,0-1-1.69,3.19,3.19,0,0,0,3.21.4,6.86,6.86,0,0,1-3-3.65,4.82,4.82,0,0,0,3.88,1.36,28.91,28.91,0,0,1-3.55-3.68l3.24,2.11a7.55,7.55,0,0,1-2.51-4.09,2.35,2.35,0,0,0,3,1,2.43,2.43,0,0,1-1.6-1.93,1.46,1.46,0,0,0,1.79.18,4.36,4.36,0,0,0-.34-2.41,2.5,2.5,0,0,0,1.33.69,6.2,6.2,0,0,0-.9-2.43,10.93,10.93,0,0,0,1.86,1.27,9.94,9.94,0,0,1,.72-3.4,9.26,9.26,0,0,0,.8-3.34.25.25,0,0,1,.31,0,9.26,9.26,0,0,0,.8,3.34,9.94,9.94,0,0,1,.72,3.4,10.93,10.93,0,0,0,1.86-1.27,6.2,6.2,0,0,0-.9,2.43,2.5,2.5,0,0,0,1.33-.69,4.36,4.36,0,0,0-.34,2.41,1.46,1.46,0,0,0,1.79-.18,2.43,2.43,0,0,1-1.6,1.93,2.35,2.35,0,0,0,3-1,7.55,7.55,0,0,1-2.51,4.09L840.9,236a28.91,28.91,0,0,1-3.55,3.68,4.82,4.82,0,0,0,3.88-1.36,6.86,6.86,0,0,1-3,3.65,3.19,3.19,0,0,0,3.21-.4,3.23,3.23,0,0,0-1,1.69h1a23,23,0,0,0-3,2.31,6.06,6.06,0,0,0,2.09,0,2.05,2.05,0,0,0,1.56-1.26,5.72,5.72,0,0,1-1.18,2.94,5.33,5.33,0,0,1,3.62-.46,2.76,2.76,0,0,0-1.91,2.19c-.1.41,1.58-.13,1.59.28,0,.67-.83,2.08-.74,2.74s-.6,1.77-.71,2.55a2.78,2.78,0,0,1,1.46-1.74,8,8,0,0,1-1.81,3.24,17,17,0,0,1,3.72-2.27,8.56,8.56,0,0,1-2.41,3.95l1.79-.75-2.45,2.46a4.5,4.5,0,0,0,2.63-.75,32.16,32.16,0,0,1-2.28,2.95.86.86,0,0,1-.35,1.38,5.74,5.74,0,0,0,2.25-1.08q-1.26,2.54-2.49,5.09l2.79-.89a2.75,2.75,0,0,1-1.37,2.68c-.35.19-.8.41-.77.8a4.92,4.92,0,0,0,3.08-.8,6.06,6.06,0,0,1,0,2.69,2.07,2.07,0,0,1-2,1.54c.67.21,1.83.32,2.31-.19a3.65,3.65,0,0,1-1.46,2.2c-.85.6-2.1,1-2.13,2.08a4.32,4.32,0,0,0,1.42-.28,7.58,7.58,0,0,0-2.12,3.46c1.26-.56,1.13-1.14,2.51-1.19-.79,1.89-1.52,9.28-11.68,9.28s-10.89-7.4-11.68-9.28c1.38.06,1.25.63,2.51,1.19a7.58,7.58,0,0,0-2.12-3.46,4.32,4.32,0,0,0,1.42.28c0-1-1.28-1.48-2.13-2.08a3.65,3.65,0,0,1-1.46-2.2C820.4,273.4,821.57,273.29,822.23,273.08Z"/><path class="d" d="M947.55,298.94c-1.69.16-3.19-1.27-3.72-2.88a11.35,11.35,0,0,1-.06-5,9.21,9.21,0,0,0,5.77,1.5c.06-.74-.79-1.14-1.44-1.5a5.15,5.15,0,0,1-2.57-5l5.23,1.67q-2.31-4.78-4.67-9.53a10.74,10.74,0,0,0,4.21,2,1.62,1.62,0,0,1-.66-2.58,60.26,60.26,0,0,1-4.28-5.51,8.43,8.43,0,0,0,4.92,1.41l-4.58-4.61,3.35,1.41a16,16,0,0,1-4.52-7.39,31.77,31.77,0,0,1,7,4.24,15,15,0,0,1-3.39-6.07,5.21,5.21,0,0,1,2.73,3.27c-.19-1.45-1.52-3.31-1.33-4.77.17-1.24-1.4-3.89-1.38-5.13,0-.76,3.17.24,3-.52-.5-2-1.68-3.69-3.58-4.11a10,10,0,0,1,6.78.86,10.71,10.71,0,0,1-2.2-5.51,3.84,3.84,0,0,0,2.92,2.35,11.33,11.33,0,0,0,3.91-.07,43.07,43.07,0,0,0-5.56-4.32l1.91,0a6,6,0,0,0-1.88-3.17,6,6,0,0,0,6,.76,12.85,12.85,0,0,1-5.63-6.83,9,9,0,0,0,7.27,2.55,54.14,54.14,0,0,1-6.66-6.89l6.06,4a14.14,14.14,0,0,1-4.69-7.66,4.4,4.4,0,0,0,5.54,1.94,4.56,4.56,0,0,1-3-3.62,2.73,2.73,0,0,0,3.36.34A8.16,8.16,0,0,0,961,220a4.69,4.69,0,0,0,2.5,1.29,11.62,11.62,0,0,0-1.69-4.56,20.47,20.47,0,0,0,3.48,2.37,18.6,18.6,0,0,1,1.35-6.37,17.33,17.33,0,0,0,1.51-6.25.47.47,0,0,1,.57,0,17.33,17.33,0,0,0,1.51,6.25,18.6,18.6,0,0,1,1.35,6.37,20.46,20.46,0,0,0,3.48-2.37,11.62,11.62,0,0,0-1.69,4.56,4.69,4.69,0,0,0,2.5-1.29,8.16,8.16,0,0,0-.64,4.51,2.73,2.73,0,0,0,3.36-.34,4.56,4.56,0,0,1-3,3.62,4.4,4.4,0,0,0,5.54-1.94,14.14,14.14,0,0,1-4.69,7.66l6.06-4a54.13,54.13,0,0,1-6.66,6.89,9,9,0,0,0,7.27-2.55,12.85,12.85,0,0,1-5.63,6.83,6,6,0,0,0,6-.76,6,6,0,0,0-1.88,3.17l1.91,0a43.07,43.07,0,0,0-5.56,4.32,11.33,11.33,0,0,0,3.91.07,3.84,3.84,0,0,0,2.92-2.35,10.71,10.71,0,0,1-2.2,5.51,10,10,0,0,1,6.78-.86c-1.9.41-3.08,2.16-3.58,4.11-.2.76,3-.24,3,.52,0,1.24-1.55,3.89-1.38,5.13.2,1.46-1.13,3.31-1.33,4.77a5.21,5.21,0,0,1,2.73-3.27,15,15,0,0,1-3.39,6.07,31.77,31.77,0,0,1,7-4.24,16,16,0,0,1-4.52,7.39l3.35-1.41-4.58,4.61a8.43,8.43,0,0,0,4.92-1.41,60.27,60.27,0,0,1-4.28,5.51,1.62,1.62,0,0,1-.66,2.58,10.74,10.74,0,0,0,4.21-2q-2.36,4.75-4.67,9.53l5.23-1.67a5.15,5.15,0,0,1-2.57,5c-.65.35-1.5.76-1.44,1.5a9.21,9.21,0,0,0,5.77-1.5,11.35,11.35,0,0,1-.06,5c-.52,1.61-2,3-3.72,2.88,1.24.39,3.43.6,4.32-.36a6.84,6.84,0,0,1-2.73,4.12c-1.59,1.12-3.93,1.95-4,3.89a8.07,8.07,0,0,0,2.65-.53,14.2,14.2,0,0,0-4,6.47c2.35-1,2.12-2.13,4.69-2.23-1.47,3.53-2.85,17.38-21.87,17.38S948,313.84,946.57,310.3c2.57.1,2.34,1.19,4.69,2.23a14.2,14.2,0,0,0-4-6.47,8.07,8.07,0,0,0,2.65.53c-.06-1.94-2.4-2.78-4-3.89a6.84,6.84,0,0,1-2.73-4.12C944.12,299.54,946.31,299.33,947.55,298.94Z"/><path class="d" d="M1014.92,287.61a1.19,1.19,0,0,1-1.14-.88,3.49,3.49,0,0,1,0-1.55,2.83,2.83,0,0,0,1.77.46c0-.23-.24-.35-.44-.46a1.58,1.58,0,0,1-.79-1.54l1.61.51q-.71-1.47-1.43-2.93a3.3,3.3,0,0,0,1.29.62.5.5,0,0,1-.2-.79,18.49,18.49,0,0,1-1.31-1.69,2.59,2.59,0,0,0,1.51.43l-1.41-1.42,1,.43a4.92,4.92,0,0,1-1.39-2.27,9.75,9.75,0,0,1,2.14,1.3,4.59,4.59,0,0,1-1-1.86,1.6,1.6,0,0,1,.84,1c-.06-.45-.47-1-.41-1.46s-.43-1.19-.42-1.58,1,.07.91-.16a1.59,1.59,0,0,0-1.1-1.26,3.06,3.06,0,0,1,2.08.26,3.29,3.29,0,0,1-.68-1.69,1.18,1.18,0,0,0,.9.72,3.47,3.47,0,0,0,1.2,0,13.24,13.24,0,0,0-1.71-1.33h.59a1.86,1.86,0,0,0-.58-1,1.84,1.84,0,0,0,1.84.23,3.94,3.94,0,0,1-1.73-2.1,2.77,2.77,0,0,0,2.23.78,16.62,16.62,0,0,1-2-2.12l1.86,1.21a4.34,4.34,0,0,1-1.44-2.35,1.35,1.35,0,0,0,1.7.6,1.4,1.4,0,0,1-.92-1.11.84.84,0,0,0,1,.1,2.51,2.51,0,0,0-.2-1.39,1.44,1.44,0,0,0,.77.4,3.57,3.57,0,0,0-.52-1.4,6.28,6.28,0,0,0,1.07.73,5.71,5.71,0,0,1,.42-2,5.32,5.32,0,0,0,.46-1.92.14.14,0,0,1,.18,0,5.32,5.32,0,0,0,.46,1.92,5.71,5.71,0,0,1,.42,2,6.28,6.28,0,0,0,1.07-.73,3.57,3.57,0,0,0-.52,1.4,1.44,1.44,0,0,0,.77-.4,2.51,2.51,0,0,0-.2,1.39.84.84,0,0,0,1-.1,1.4,1.4,0,0,1-.92,1.11,1.35,1.35,0,0,0,1.7-.6,4.34,4.34,0,0,1-1.44,2.35l1.86-1.21a16.62,16.62,0,0,1-2,2.12,2.77,2.77,0,0,0,2.23-.78,3.94,3.94,0,0,1-1.73,2.1,1.84,1.84,0,0,0,1.84-.23,1.86,1.86,0,0,0-.58,1h.59a13.24,13.24,0,0,0-1.71,1.33,3.47,3.47,0,0,0,1.2,0,1.18,1.18,0,0,0,.9-.72,3.29,3.29,0,0,1-.68,1.69,3.06,3.06,0,0,1,2.08-.26,1.59,1.59,0,0,0-1.1,1.26c-.06.23.91-.07.91.16s-.48,1.2-.42,1.58-.35,1-.41,1.46a1.6,1.6,0,0,1,.84-1,4.59,4.59,0,0,1-1,1.86,9.75,9.75,0,0,1,2.14-1.3,4.92,4.92,0,0,1-1.39,2.27l1-.43-1.41,1.42a2.59,2.59,0,0,0,1.51-.43,18.49,18.49,0,0,1-1.31,1.69.5.5,0,0,1-.2.79,3.3,3.3,0,0,0,1.29-.62q-.72,1.46-1.43,2.93l1.61-.51a1.58,1.58,0,0,1-.79,1.54c-.2.11-.46.23-.44.46a2.83,2.83,0,0,0,1.77-.46,3.49,3.49,0,0,1,0,1.55,1.19,1.19,0,0,1-1.14.88c.38.12,1.05.18,1.33-.11a2.1,2.1,0,0,1-.84,1.27c-.49.34-1.21.6-1.23,1.2a2.48,2.48,0,0,0,.81-.16,4.36,4.36,0,0,0-1.22,2c.72-.32.65-.65,1.44-.69-.45,1.09-.87,5.34-6.72,5.34s-6.26-4.25-6.72-5.34c.79,0,.72.36,1.44.69a4.36,4.36,0,0,0-1.22-2,2.48,2.48,0,0,0,.82.16c0-.6-.74-.85-1.23-1.2a2.1,2.1,0,0,1-.84-1.27C1013.87,287.79,1014.54,287.72,1014.92,287.61Z"/><path class="d" d="M571.3,144.63c.87,0,1.17.85,1.37,1,.22,2.89.75,2.24,2,4.86s1.45,5.33,1.77,8.35a27.2,27.2,0,0,0,4.56-3.11,15.32,15.32,0,0,0-2.22,6A6.27,6.27,0,0,0,582,160a10.63,10.63,0,0,0-.84,5.91,3.56,3.56,0,0,0,4.4-.44,6,6,0,0,1-3.92,4.75,5.77,5.77,0,0,0,7.26-2.55,18.62,18.62,0,0,1-6.15,10.05l7.94-5.18a71.65,71.65,0,0,1-8.73,9,11.83,11.83,0,0,0,9.54-3.35,16.9,16.9,0,0,1-7.38,9,7.85,7.85,0,0,0,7.86-1,7.92,7.92,0,0,0-2.47,4.15l2.51,0a57.12,57.12,0,0,0-7.29,5.66,14.74,14.74,0,0,0,5.13.09,5.05,5.05,0,0,0,3.83-3.09,14.05,14.05,0,0,1-2.89,7.23,13,13,0,0,1,8.89-1.13c-2.5.54-4,2.83-4.7,5.39-.25,1,3.89-.32,3.91.68,0,1.63-2,5.1-1.81,6.73.26,1.91-1.49,4.34-1.74,6.24a6.81,6.81,0,0,1,3.57-4.28,19.58,19.58,0,0,1-4.45,7.95,42,42,0,0,1,9.13-5.56,20.92,20.92,0,0,1-5.93,9.69l4.4-1.85-6,6.05a11.1,11.1,0,0,0,6.45-1.84,78.32,78.32,0,0,1-5.61,7.22,2.12,2.12,0,0,1-.86,3.39,14,14,0,0,0,5.51-2.66q-3.09,6.24-6.12,12.49l6.86-2.19a6.76,6.76,0,0,1-3.38,6.58c-.85.47-2,1-1.88,2a12.12,12.12,0,0,0,7.56-2,15,15,0,0,1-.08,6.6c-.69,2.11-2.66,4-4.87,3.77,1.63.51,4.5.79,5.66-.46a9,9,0,0,1-3.58,5.4c-2.08,1.46-5.15,2.55-5.23,5.1a10.66,10.66,0,0,0,3.48-.69,18.6,18.6,0,0,0-5.2,8.48c3.09-1.37,2.78-2.79,6.15-2.93-1.93,4.64-3.73,22.79-28.66,22.79h-1"/><path class="d" d="M598.27,272c-2.18.2-4.12-1.64-4.8-3.72a14.66,14.66,0,0,1-.08-6.5,11.89,11.89,0,0,0,7.45,1.94c.08-.95-1-1.48-1.86-1.94a6.66,6.66,0,0,1-3.32-6.48l6.75,2.16q-3-6.17-6-12.3a13.87,13.87,0,0,0,5.43,2.62,2.09,2.09,0,0,1-.85-3.33,77.79,77.79,0,0,1-5.52-7.12,10.88,10.88,0,0,0,6.35,1.82l-5.92-6L600.2,235a20.69,20.69,0,0,1-5.84-9.55,41,41,0,0,1,9,5.48,19.31,19.31,0,0,1-4.38-7.83,6.73,6.73,0,0,1,3.52,4.22c-.25-1.88-2-4.27-1.71-6.15.22-1.6-1.8-5-1.78-6.63,0-1,4.1.31,3.85-.67-.64-2.52-2.17-4.77-4.63-5.31a12.89,12.89,0,0,1,8.76,1.11,13.83,13.83,0,0,1-2.85-7.12,5,5,0,0,0,3.77,3,14.62,14.62,0,0,0,5-.09,55.59,55.59,0,0,0-7.18-5.58l2.47,0a7.81,7.81,0,0,0-2.43-4.09,7.72,7.72,0,0,0,7.75,1,16.59,16.59,0,0,1-7.27-8.82,11.65,11.65,0,0,0,9.39,3.3,69.93,69.93,0,0,1-8.59-8.9l7.82,5.1a18.26,18.26,0,0,1-6.06-9.9A5.68,5.68,0,0,0,616,180a5.89,5.89,0,0,1-3.86-4.68,3.52,3.52,0,0,0,4.34.44,10.54,10.54,0,0,0-.82-5.83,6,6,0,0,0,3.22,1.67,15,15,0,0,0-2.18-5.88,26.43,26.43,0,0,0,4.49,3.06c.32-3,.48-5.54,1.75-8.23a22.38,22.38,0,0,0,1.94-8.07.61.61,0,0,1,.74,0,22.38,22.38,0,0,0,1.94,8.07c1.26,2.69,1.43,5.25,1.75,8.23a26.43,26.43,0,0,0,4.49-3.06,15,15,0,0,0-2.18,5.88,6,6,0,0,0,3.22-1.67,10.54,10.54,0,0,0-.82,5.83,3.52,3.52,0,0,0,4.34-.44,5.89,5.89,0,0,1-3.86,4.68,5.68,5.68,0,0,0,7.15-2.51,18.26,18.26,0,0,1-6.06,9.9l7.82-5.1a69.93,69.93,0,0,1-8.59,8.9,11.65,11.65,0,0,0,9.39-3.3,16.59,16.59,0,0,1-7.27,8.82,7.72,7.72,0,0,0,7.75-1,7.81,7.81,0,0,0-2.43,4.09l2.47,0a55.59,55.59,0,0,0-7.18,5.58,14.62,14.62,0,0,0,5,.09,5,5,0,0,0,3.77-3,13.83,13.83,0,0,1-2.85,7.12,12.89,12.89,0,0,1,8.76-1.11c-2.46.54-4,2.78-4.63,5.31-.25,1,3.83-.31,3.85.67,0,1.61-2,5-1.78,6.63.26,1.89-1.46,4.28-1.71,6.15a6.73,6.73,0,0,1,3.52-4.22,19.31,19.31,0,0,1-4.38,7.83,41,41,0,0,1,9-5.48,20.69,20.69,0,0,1-5.84,9.55l4.33-1.82-5.92,6a10.88,10.88,0,0,0,6.35-1.82,77.79,77.79,0,0,1-5.52,7.12,2.09,2.09,0,0,1-.85,3.33,13.87,13.87,0,0,0,5.43-2.62q-3,6.14-6,12.3l6.75-2.16a6.66,6.66,0,0,1-3.32,6.48c-.84.46-1.94,1-1.86,1.94a11.89,11.89,0,0,0,7.45-1.94,14.65,14.65,0,0,1-.08,6.5c-.67,2.08-2.62,3.92-4.8,3.72,1.61.5,4.43.77,5.58-.46a8.83,8.83,0,0,1-3.52,5.32c-2.06,1.44-5.08,2.52-5.16,5a10.44,10.44,0,0,0,3.43-.68,18.33,18.33,0,0,0-5.11,8.36c3-1.35,2.73-2.75,6.06-2.88-1.9,4.56-3.68,22.45-28.24,22.45S598.9,291.21,597,286.64c3.32.14,3,1.53,6.06,2.88a18.33,18.33,0,0,0-5.11-8.36,10.44,10.44,0,0,0,3.43.68c-.08-2.51-3.1-3.58-5.16-5a8.83,8.83,0,0,1-3.52-5.32C593.83,272.74,596.66,272.46,598.27,272Z"/><path class="d" d="M712,259.73c-2,.19-3.8-1.51-4.42-3.43a13.52,13.52,0,0,1-.08-6,11,11,0,0,0,6.87,1.79c.07-.88-.94-1.36-1.71-1.79a6.14,6.14,0,0,1-3.07-6l6.23,2Q713,240.63,710.22,235a12.79,12.79,0,0,0,5,2.41,1.93,1.93,0,0,1-.79-3.08,71.76,71.76,0,0,1-5.09-6.57,10,10,0,0,0,5.86,1.67l-5.46-5.49,4,1.68a19.08,19.08,0,0,1-5.38-8.81,37.86,37.86,0,0,1,8.29,5.05,17.81,17.81,0,0,1-4-7.22,6.2,6.2,0,0,1,3.25,3.89c-.23-1.73-1.82-3.94-1.58-5.68.2-1.48-1.66-4.63-1.64-6.11,0-.91,3.78.29,3.55-.62-.59-2.33-2-4.4-4.27-4.89a11.88,11.88,0,0,1,8.08,1,12.75,12.75,0,0,1-2.62-6.56,4.58,4.58,0,0,0,3.48,2.8,13.49,13.49,0,0,0,4.65-.08,51.28,51.28,0,0,0-6.62-5.14l2.28,0a7.2,7.2,0,0,0-2.24-3.77,7.12,7.12,0,0,0,7.15.9,15.3,15.3,0,0,1-6.71-8.13,10.74,10.74,0,0,0,8.66,3,64.46,64.46,0,0,1-7.93-8.2l7.22,4.7a16.84,16.84,0,0,1-5.59-9.13,5.24,5.24,0,0,0,6.59,2.31,5.43,5.43,0,0,1-3.56-4.31,3.25,3.25,0,0,0,4,.4,9.72,9.72,0,0,0-.76-5.37,5.58,5.58,0,0,0,3,1.54,13.84,13.84,0,0,0-2-5.43,24.38,24.38,0,0,0,4.14,2.82c.29-2.75.45-5.11,1.61-7.59a20.64,20.64,0,0,0,1.79-7.44.56.56,0,0,1,.68,0A20.64,20.64,0,0,0,739,157c1.17,2.48,1.32,4.84,1.61,7.59a24.38,24.38,0,0,0,4.14-2.82,13.84,13.84,0,0,0-2,5.43,5.58,5.58,0,0,0,3-1.54,9.72,9.72,0,0,0-.76,5.37,3.25,3.25,0,0,0,4-.4,5.43,5.43,0,0,1-3.56,4.31,5.24,5.24,0,0,0,6.59-2.31,16.84,16.84,0,0,1-5.59,9.13l7.22-4.7a64.46,64.46,0,0,1-7.93,8.2,10.74,10.74,0,0,0,8.66-3,15.3,15.3,0,0,1-6.71,8.13,7.12,7.12,0,0,0,7.15-.9,7.2,7.2,0,0,0-2.24,3.77l2.28,0a51.28,51.28,0,0,0-6.62,5.14,13.49,13.49,0,0,0,4.65.08,4.58,4.58,0,0,0,3.48-2.8,12.75,12.75,0,0,1-2.62,6.56,11.88,11.88,0,0,1,8.08-1c-2.27.49-3.67,2.57-4.27,4.89-.23.91,3.53-.29,3.55.62,0,1.48-1.84,4.64-1.64,6.11.24,1.74-1.35,3.94-1.58,5.68a6.2,6.2,0,0,1,3.25-3.89,17.81,17.81,0,0,1-4,7.22,37.86,37.86,0,0,1,8.29-5.05,19.08,19.08,0,0,1-5.38,8.81l4-1.68-5.46,5.49a10,10,0,0,0,5.86-1.67,71.76,71.76,0,0,1-5.09,6.57,1.93,1.93,0,0,1-.79,3.08,12.79,12.79,0,0,0,5-2.41q-2.81,5.66-5.56,11.35l6.23-2a6.14,6.14,0,0,1-3.07,6c-.77.42-1.79.91-1.71,1.79a11,11,0,0,0,6.87-1.79,13.52,13.52,0,0,1-.08,6c-.62,1.92-2.42,3.62-4.42,3.43,1.48.46,4.09.71,5.15-.42a8.15,8.15,0,0,1-3.25,4.91c-1.9,1.33-4.68,2.32-4.76,4.64a9.62,9.62,0,0,0,3.16-.63,16.91,16.91,0,0,0-4.72,7.71c2.8-1.25,2.52-2.53,5.59-2.66-1.76,4.21-3.39,20.7-26,20.7s-24.29-16.49-26-20.7c3.07.13,2.78,1.41,5.59,2.66a16.91,16.91,0,0,0-4.72-7.71,9.62,9.62,0,0,0,3.16.63c-.08-2.31-2.86-3.31-4.76-4.64a8.15,8.15,0,0,1-3.25-4.91C707.87,260.44,710.47,260.19,712,259.73Z"/><path class="d" d="M925.13,296.95l-.27-.7c1.75.92,2.07,3.56,3.94,4.13s-1.44-4.58-4.14-8.42a5.39,5.39,0,0,0,3.32,2.14l-3.09-8A13.58,13.58,0,0,1,928,289c.89-.8.18-2.38-.69-3.21s-2-1.74-1.84-3a1,1,0,0,0,1.52,1,8,8,0,0,1-1.08-6.85l-1-.63a7.33,7.33,0,0,1,4.79.9l-3.13-5.52a9.1,9.1,0,0,0,2.85,2.22,1.26,1.26,0,0,0-1.1-1.51l1.89-.14L927,266.73a16.33,16.33,0,0,0,4.92.5,7.48,7.48,0,0,0-1.18-2.77l3.86-1.1a9.31,9.31,0,0,1-2-6.73A2,2,0,0,0,935,258.2l-2-4.37c1.27.72,3.37.25,4.69-.35a2.62,2.62,0,0,1-2.27-2.61l3.27-.12a4.66,4.66,0,0,1-1.85-1.29,1,1,0,0,1,1-.25,4.43,4.43,0,0,1-.84-3.49c.2,1.1,2.11,2.18,2.11,2.18s-.67-2.42-.14-1.89,1.28,1.57,1.28,1.57a.92.92,0,0,0,.48-.86,2,2,0,0,0-.4-.95,7.46,7.46,0,0,1-1-4.71,2.27,2.27,0,0,0,.31,1.33.72.72,0,0,0,1.09,0c.57-.53,1-3.18,1.06-4.58a.3.3,0,0,1,.39,0c.1,1.4.48,4.05,1.06,4.58a.72.72,0,0,0,1.09,0,2.27,2.27,0,0,0,.31-1.33,7.46,7.46,0,0,1-1,4.71,2,2,0,0,0-.4.95.92.92,0,0,0,.48.86s.87-1.16,1.28-1.57-.14,1.89-.14,1.89,1.91-1.08,2.11-2.18a4.43,4.43,0,0,1-.84,3.49,1,1,0,0,1,1,.25,4.66,4.66,0,0,1-1.85,1.29l3.27.12a2.62,2.62,0,0,1-2.27,2.61c1.33.59,3.42,1.06,4.69.35l-2,4.37a2,2,0,0,0,2.37-1.56,9.31,9.31,0,0,1-2,6.73l3.86,1.1a7.48,7.48,0,0,0-1.18,2.77,16.33,16.33,0,0,0,4.92-.5l-3.17,5.47,1.89.14a1.26,1.26,0,0,0-1.1,1.51,9.1,9.1,0,0,0,2.85-2.22l-3.13,5.52a7.33,7.33,0,0,1,4.79-.9l-1,.63a8,8,0,0,1-1.08,6.85,1,1,0,0,0,1.52-1c.16,1.24-1,2.16-1.84,3s-1.57,2.4-.69,3.21a13.58,13.58,0,0,1,3.07-2.86l-3.09,8a5.39,5.39,0,0,0,3.32-2.14c-2.7,3.84-6,9-4.14,8.42s2.19-3.22,3.94-4.13l-.27.7c1,4.32.16,8-2.7,11.13a.76.76,0,0,1,.84.06,2.28,2.28,0,0,1,.61,1.13,16.58,16.58,0,0,1-5.7,4.87,7,7,0,0,0-2,1.25c-.39.4-.66.92-1,1.33-.64.7-6,1.07-6.89,1.41-.85-.35-6.25-.72-6.89-1.41-.38-.41-.65-.93-1-1.33a7,7,0,0,0-2-1.25,16.58,16.58,0,0,1-5.7-4.87,2.28,2.28,0,0,1,.61-1.13.76.76,0,0,1,.84-.06C925,305,924.18,301.27,925.13,296.95Z"/><path class="d" d="M912.72,297.89l-.17-.56c1.08.73,1.27,2.85,2.42,3.31s-.88-3.67-2.55-6.74a3.37,3.37,0,0,0,2,1.71l-1.9-6.4a9.75,9.75,0,0,1,1.89,2.29c.55-.64.11-1.91-.42-2.57a3.39,3.39,0,0,1-1.13-2.39c0,.63.56,1.12.94.78a8,8,0,0,1-.67-5.49l-.63-.5a3.65,3.65,0,0,1,2.94.72l-1.92-4.42a6.09,6.09,0,0,0,1.75,1.77c.1-.57-.26-1.2-.68-1.21l1.16-.11-1.95-4.38a7.83,7.83,0,0,0,3,.4,7,7,0,0,0-.72-2.22l2.37-.88a9.11,9.11,0,0,1-1.21-5.38c.12.89.85,1.5,1.46,1.25l-1.2-3.5c.78.57,2.07.2,2.89-.28-.75-.06-1.4-1-1.39-2.09l2-.1a3,3,0,0,1-1.14-1,.5.5,0,0,1,.63-.2,4.38,4.38,0,0,1-.52-2.79c.12.88,1.3,1.75,1.3,1.75s-.41-1.94-.09-1.51.78,1.26.78,1.26a.78.78,0,0,0,.29-.69,1.91,1.91,0,0,0-.25-.76,7.47,7.47,0,0,1-.63-3.77,2.27,2.27,0,0,0,.19,1.07c.17.29.47.24.67,0a11.15,11.15,0,0,0,.65-3.67c.06-.07.12-.06.12-.06s.05,0,.12.06a11.15,11.15,0,0,0,.65,3.67c.2.24.5.29.67,0a2.27,2.27,0,0,0,.19-1.07,7.47,7.47,0,0,1-.63,3.77,1.91,1.91,0,0,0-.25.76.78.78,0,0,0,.29.69s.53-.93.78-1.26-.09,1.51-.09,1.51,1.17-.87,1.3-1.75a4.38,4.38,0,0,1-.52,2.79.5.5,0,0,1,.63.2,3,3,0,0,1-1.14,1l2,.1c0,1.05-.65,2-1.39,2.09.81.48,2.1.85,2.89.28l-1.2,3.5c.61.26,1.34-.36,1.46-1.25a9.11,9.11,0,0,1-1.21,5.38l2.37.88a7,7,0,0,0-.72,2.22,7.83,7.83,0,0,0,3-.4l-1.95,4.38,1.16.11c-.42,0-.77.63-.68,1.21a6.09,6.09,0,0,0,1.75-1.77L930.69,282a3.65,3.65,0,0,1,2.94-.72l-.63.5a8,8,0,0,1-.67,5.49c.38.34,1-.15.94-.78a3.4,3.4,0,0,1-1.13,2.39c-.54.66-1,1.92-.42,2.57a9.76,9.76,0,0,1,1.89-2.29l-1.9,6.4a3.37,3.37,0,0,0,2-1.71c-1.66,3.08-3.7,7.2-2.55,6.74s1.35-2.58,2.42-3.31l-.17.56a11.48,11.48,0,0,1-1.66,8.91.38.38,0,0,1,.52.05,2,2,0,0,1,.38.91,11.49,11.49,0,0,1-3.51,3.89,4.36,4.36,0,0,0-1.23,1c-.24.32-.41.73-.64,1.06-.39.56-3.72.85-4.24,1.13-.52-.28-3.85-.57-4.24-1.13-.23-.33-.4-.74-.64-1.06a4.36,4.36,0,0,0-1.23-1,11.49,11.49,0,0,1-3.51-3.89,2,2,0,0,1,.38-.91.38.38,0,0,1,.52-.05A11.48,11.48,0,0,1,912.72,297.89Z"/><path class="d" d="M865.9,301.62l-.44-1.12c2.8,1.46,3.31,5.69,6.3,6.61s-2.3-7.32-6.62-13.47a8.62,8.62,0,0,0,5.31,3.42l-4.93-12.79a21.7,21.7,0,0,1,4.91,4.58c1.42-1.29.29-3.81-1.1-5.13s-3.19-2.79-2.94-4.77a1.67,1.67,0,0,0,2.43,1.55,12.71,12.71,0,0,1-1.73-11l-1.65-1a11.72,11.72,0,0,1,7.65,1.44l-5-8.82a14.55,14.55,0,0,0,4.56,3.54,2,2,0,0,0-1.76-2.41l3-.23-5.07-8.74a26.1,26.1,0,0,0,7.86.8,12,12,0,0,0-1.88-4.42l6.17-1.76a14.88,14.88,0,0,1-3.13-10.75,3.11,3.11,0,0,0,3.79,2.49l-3.12-7c2,1.14,5.38.39,7.5-.56a4.19,4.19,0,0,1-3.63-4.17l5.23-.19a7.46,7.46,0,0,1-3-2.06,1.53,1.53,0,0,1,1.63-.4,7.08,7.08,0,0,1-1.35-5.57c.32,1.76,3.37,3.49,3.37,3.49s-1.07-3.87-.22-3c.66.66,2,2.51,2,2.51a1.48,1.48,0,0,0,.76-1.38,3.26,3.26,0,0,0-.65-1.51,11.92,11.92,0,0,1-1.64-7.53,3.63,3.63,0,0,0,.5,2.13,1.16,1.16,0,0,0,1.75,0c.92-.84,1.53-5.09,1.69-7.32a.48.48,0,0,1,.62,0c.16,2.23.77,6.48,1.69,7.32a1.16,1.16,0,0,0,1.75,0,3.63,3.63,0,0,0,.5-2.13,11.92,11.92,0,0,1-1.64,7.53,3.26,3.26,0,0,0-.65,1.51,1.48,1.48,0,0,0,.76,1.38s1.38-1.86,2-2.51c.84-.85-.22,3-.22,3s3.05-1.73,3.37-3.49a7.08,7.08,0,0,1-1.35,5.57,1.53,1.53,0,0,1,1.63.4,7.46,7.46,0,0,1-3,2.06l5.23.19a4.19,4.19,0,0,1-3.63,4.17c2.12,1,5.47,1.7,7.5.56l-3.12,7a3.11,3.11,0,0,0,3.79-2.49,14.88,14.88,0,0,1-3.13,10.75l6.17,1.76a12,12,0,0,0-1.88,4.42,26.1,26.1,0,0,0,7.86-.8l-5.07,8.74,3,.23a2,2,0,0,0-1.76,2.41,14.55,14.55,0,0,0,4.56-3.54l-5,8.82a11.72,11.72,0,0,1,7.65-1.44l-1.65,1a12.71,12.71,0,0,1-1.73,11,1.67,1.67,0,0,0,2.43-1.55c.25,2-1.55,3.45-2.94,4.77s-2.52,3.84-1.1,5.13a21.7,21.7,0,0,1,4.91-4.58l-4.93,12.79a8.62,8.62,0,0,0,5.31-3.42C916.26,299.78,911,308,914,307.1s3.5-5.14,6.3-6.61l-.44,1.12c1.52,6.89.28,12.82-4.26,17.76a1.22,1.22,0,0,1,1.29.14,3.64,3.64,0,0,1,1,1.81,26.5,26.5,0,0,1-9.11,7.78,11.25,11.25,0,0,0-3.19,2c-.62.65-1.06,1.46-1.66,2.13-1,1.11-9.66,1.7-11,2.26-1.35-.56-10-1.15-11-2.26-.6-.66-1-1.48-1.66-2.13a11.25,11.25,0,0,0-3.19-2,26.5,26.5,0,0,1-9.11-7.78,3.64,3.64,0,0,1,1-1.81,1.22,1.22,0,0,1,1.29-.14C865.62,314.44,864.38,308.51,865.9,301.62Z"/><path class="d" d="M783.89,265.95l-.36-.85c2.31,1.11,2.72,4.33,5.19,5s-1.89-5.57-5.45-10.25a7.18,7.18,0,0,0,4.37,2.6l-4.06-9.74a17.4,17.4,0,0,1,4,3.48c1.17-1,.24-2.9-.91-3.9s-2.63-2.12-2.42-3.63a1.37,1.37,0,0,0,2,1.18,9.07,9.07,0,0,1-1.43-8.34l-1.36-.76a10.32,10.32,0,0,1,6.3,1.09l-4.12-6.71a11.91,11.91,0,0,0,3.75,2.7A1.56,1.56,0,0,0,788,236l2.49-.17-4.17-6.65a23.18,23.18,0,0,0,6.47.61,8.76,8.76,0,0,0-1.55-3.37l5.08-1.34a10.74,10.74,0,0,1-2.58-8.18,2.57,2.57,0,0,0,3.12,1.89l-2.57-5.31c1.68.87,4.43.3,6.18-.42a3.28,3.28,0,0,1-3-3.17l4.3-.15a6.17,6.17,0,0,1-2.43-1.57,1.33,1.33,0,0,1,1.34-.31,5.09,5.09,0,0,1-1.11-4.24c.26,1.34,2.78,2.66,2.78,2.66s-.88-2.94-.19-2.3c.54.5,1.68,1.91,1.68,1.91a1.12,1.12,0,0,0,.63-1.05,2.38,2.38,0,0,0-.53-1.15,8.52,8.52,0,0,1-1.35-5.73,2.6,2.6,0,0,0,.41,1.62,1,1,0,0,0,1.44,0c.76-.64,1.26-3.87,1.39-5.57a.42.42,0,0,1,.51,0c.13,1.7.63,4.93,1.39,5.57a1,1,0,0,0,1.44,0,2.6,2.6,0,0,0,.41-1.62,8.52,8.52,0,0,1-1.35,5.73,2.39,2.39,0,0,0-.53,1.15,1.12,1.12,0,0,0,.63,1.05s1.14-1.41,1.68-1.91c.7-.64-.19,2.3-.19,2.3s2.51-1.32,2.78-2.66a5.09,5.09,0,0,1-1.11,4.24,1.33,1.33,0,0,1,1.34.31,6.17,6.17,0,0,1-2.43,1.57l4.3.15a3.28,3.28,0,0,1-3,3.17c1.74.72,4.5,1.29,6.18.42l-2.57,5.31a2.57,2.57,0,0,0,3.12-1.89,10.74,10.74,0,0,1-2.58,8.18l5.08,1.34a8.76,8.76,0,0,0-1.55,3.37,23.18,23.18,0,0,0,6.47-.61l-4.17,6.65,2.49.17a1.56,1.56,0,0,0-1.45,1.83,11.91,11.91,0,0,0,3.75-2.7l-4.12,6.71a10.32,10.32,0,0,1,6.3-1.09l-1.36.76a9.07,9.07,0,0,1-1.43,8.34,1.37,1.37,0,0,0,2-1.18c.21,1.51-1.27,2.63-2.42,3.63s-2.07,2.92-.91,3.9a17.4,17.4,0,0,1,4-3.48l-4.06,9.74a7.18,7.18,0,0,0,4.37-2.6c-3.56,4.68-7.92,10.95-5.45,10.25s2.88-3.91,5.19-5l-.36.85c1.25,5.25.23,9.77-3.52,13.54a1.06,1.06,0,0,1,1.08.09,2.72,2.72,0,0,1,.81,1.38,21.46,21.46,0,0,1-7.5,5.92,9.39,9.39,0,0,0-2.62,1.53c-.51.49-.87,1.11-1.37,1.62-.84.85-8,1.3-9.07,1.72-1.12-.42-8.23-.87-9.07-1.72-.5-.5-.86-1.13-1.37-1.62a9.39,9.39,0,0,0-2.62-1.53,21.46,21.46,0,0,1-7.5-5.92,2.72,2.72,0,0,1,.81-1.38,1.06,1.06,0,0,1,1.08-.09C783.66,275.72,782.64,271.2,783.89,265.95Z"/><path class="d" d="M640.87,278.14l-.64-1.52c4.12,2,4.86,7.73,9.26,9s-3.38-9.95-9.73-18.3a12.82,12.82,0,0,0,7.8,4.64l-7.25-17.38a31.06,31.06,0,0,1,7.21,6.22c2.08-1.75.43-5.18-1.62-7s-4.69-3.79-4.32-6.48a2.45,2.45,0,0,0,3.58,2.1,16.2,16.2,0,0,1-2.54-14.89l-2.42-1.36a18.42,18.42,0,0,1,11.24,2l-7.35-12a21.24,21.24,0,0,0,6.7,4.81,2.79,2.79,0,0,0-2.58-3.27l4.44-.31-7.45-11.87a41.37,41.37,0,0,0,11.56,1.09,15.63,15.63,0,0,0-2.77-6l9.07-2.39a19.17,19.17,0,0,1-4.61-14.61A4.58,4.58,0,0,0,664,194l-4.59-9.48c3,1.55,7.91.53,11-.76a5.86,5.86,0,0,1-5.33-5.67l7.68-.26a11,11,0,0,1-4.35-2.8,2.38,2.38,0,0,1,2.39-.55,9.08,9.08,0,0,1-2-7.57c.47,2.39,5,4.74,5,4.74s-1.57-5.25-.33-4.11c1,.89,3,3.41,3,3.41a2,2,0,0,0,1.12-1.88,4.26,4.26,0,0,0-1-2.05,15.21,15.21,0,0,1-2.42-10.23,4.64,4.64,0,0,0,.73,2.9,1.79,1.79,0,0,0,2.56,0c1.35-1.14,2.25-6.91,2.48-9.95a.74.74,0,0,1,.91,0c.23,3,1.13,8.8,2.48,9.95a1.79,1.79,0,0,0,2.56,0,4.64,4.64,0,0,0,.73-2.9A15.21,15.21,0,0,1,684.31,167a4.26,4.26,0,0,0-1,2.05,2,2,0,0,0,1.12,1.88s2-2.52,3-3.41c1.24-1.15-.33,4.11-.33,4.11s4.49-2.35,5-4.74a9.08,9.08,0,0,1-2,7.57,2.38,2.38,0,0,1,2.39.55,11,11,0,0,1-4.35,2.8l7.68.26a5.86,5.86,0,0,1-5.33,5.67c3.11,1.29,8,2.31,11,.76L697,194a4.58,4.58,0,0,0,5.57-3.38,19.17,19.17,0,0,1-4.61,14.61l9.07,2.39a15.63,15.63,0,0,0-2.77,6,41.37,41.37,0,0,0,11.56-1.09l-7.45,11.87,4.44.31A2.79,2.79,0,0,0,710.2,228a21.24,21.24,0,0,0,6.7-4.81l-7.35,12a18.42,18.42,0,0,1,11.24-2l-2.42,1.36a16.2,16.2,0,0,1-2.54,14.89,2.45,2.45,0,0,0,3.58-2.1c.37,2.69-2.27,4.69-4.32,6.48s-3.7,5.22-1.62,7a31.06,31.06,0,0,1,7.21-6.22l-7.25,17.38a12.82,12.82,0,0,0,7.8-4.64c-6.35,8.35-14.14,19.54-9.73,18.3s5.14-7,9.26-9l-.64,1.52c2.23,9.36.42,17.41-6.26,24.14a1.92,1.92,0,0,1,1.9.19,4.85,4.85,0,0,1,1.44,2.46,38.3,38.3,0,0,1-13.39,10.57,16.78,16.78,0,0,0-4.68,2.73c-.91.88-1.56,2-2.45,2.89-1.5,1.51-14.2,2.31-16.19,3.07-2-.76-14.69-1.56-16.19-3.07-.89-.9-1.54-2-2.45-2.89a16.78,16.78,0,0,0-4.68-2.73,38.3,38.3,0,0,1-13.39-10.57,4.85,4.85,0,0,1,1.44-2.46,1.92,1.92,0,0,1,1.9-.19C640.46,295.55,638.64,287.5,640.87,278.14Z"/><path class="e" d="M1142.6,351.39H876.82s5-27.13,18.09-27.13S923,313,933,313a8,8,0,0,0,4.77-1.94c8.36-6.37,17.05-26.3,30.15-26.3,15.59,0,11.23,14,27.44,14s0-14,20-14,24.95-15.41,48.64-15.41,22.45,29.42,39.29,29.42S1123,318,1121.29,338.94"/><path class="d" d="M844.35,279.55a3.69,3.69,0,0,1-3.53-2.74,10.79,10.79,0,0,1-.06-4.79,8.75,8.75,0,0,0,5.48,1.43c.06-.7-.75-1.09-1.37-1.42a4.9,4.9,0,0,1-2.45-4.77l5,1.59q-2.2-4.54-4.44-9.06a10.2,10.2,0,0,0,4,1.93,1.54,1.54,0,0,1-.63-2.45,57.3,57.3,0,0,1-4.06-5.24,8,8,0,0,0,4.67,1.34L842.59,251l3.18,1.34a15.23,15.23,0,0,1-4.3-7,30.19,30.19,0,0,1,6.62,4,14.21,14.21,0,0,1-3.22-5.76,5,5,0,0,1,2.59,3.1c-.18-1.38-1.45-3.14-1.26-4.53.16-1.18-1.33-3.69-1.31-4.88,0-.72,3,.23,2.83-.5-.47-1.86-1.6-3.51-3.4-3.9a9.48,9.48,0,0,1,6.45.82,10.18,10.18,0,0,1-2.09-5.24,3.65,3.65,0,0,0,2.78,2.24,10.76,10.76,0,0,0,3.71-.06,40.92,40.92,0,0,0-5.28-4.1l1.82,0a5.75,5.75,0,0,0-1.79-3,5.68,5.68,0,0,0,5.7.72,12.21,12.21,0,0,1-5.35-6.49,8.57,8.57,0,0,0,6.91,2.43,51.43,51.43,0,0,1-6.32-6.55l5.76,3.75a13.44,13.44,0,0,1-4.46-7.28,4.18,4.18,0,0,0,5.26,1.85,4.33,4.33,0,0,1-2.84-3.44,2.59,2.59,0,0,0,3.19.32,7.76,7.76,0,0,0-.61-4.29,4.45,4.45,0,0,0,2.37,1.23,11,11,0,0,0-1.6-4.33,19.46,19.46,0,0,0,3.31,2.25,17.68,17.68,0,0,1,1.29-6.06,16.47,16.47,0,0,0,1.43-5.94.45.45,0,0,1,.55,0,16.47,16.47,0,0,0,1.43,5.94,17.68,17.68,0,0,1,1.29,6.06,19.46,19.46,0,0,0,3.31-2.25,11,11,0,0,0-1.6,4.33,4.45,4.45,0,0,0,2.37-1.23,7.76,7.76,0,0,0-.61,4.29,2.59,2.59,0,0,0,3.19-.32A4.33,4.33,0,0,1,871,211.9a4.18,4.18,0,0,0,5.26-1.85,13.44,13.44,0,0,1-4.46,7.28l5.76-3.75a51.43,51.43,0,0,1-6.32,6.55,8.57,8.57,0,0,0,6.91-2.43,12.21,12.21,0,0,1-5.35,6.49,5.68,5.68,0,0,0,5.7-.72,5.75,5.75,0,0,0-1.79,3l1.82,0a40.92,40.92,0,0,0-5.28,4.1,10.76,10.76,0,0,0,3.71.06,3.65,3.65,0,0,0,2.78-2.24,10.18,10.18,0,0,1-2.09,5.24,9.48,9.48,0,0,1,6.45-.82c-1.81.39-2.93,2-3.4,3.9-.19.73,2.82-.23,2.83.5,0,1.18-1.47,3.7-1.31,4.88.19,1.39-1.08,3.15-1.26,4.53a5,5,0,0,1,2.59-3.1,14.21,14.21,0,0,1-3.22,5.76,30.19,30.19,0,0,1,6.62-4,15.23,15.23,0,0,1-4.3,7l3.18-1.34-4.35,4.38a8,8,0,0,0,4.67-1.34,57.3,57.3,0,0,1-4.06,5.24,1.54,1.54,0,0,1-.63,2.45,10.2,10.2,0,0,0,4-1.93q-2.24,4.52-4.44,9.06l5-1.59a4.9,4.9,0,0,1-2.45,4.77c-.61.34-1.43.73-1.37,1.42a8.75,8.75,0,0,0,5.48-1.43,10.79,10.79,0,0,1-.06,4.79,3.69,3.69,0,0,1-3.53,2.74c1.18.37,3.26.57,4.11-.34a6.5,6.5,0,0,1-2.59,3.92c-1.51,1.06-3.74,1.85-3.8,3.7a7.68,7.68,0,0,0,2.52-.5,13.49,13.49,0,0,0-3.76,6.15c2.24-1,2-2,4.46-2.12-1.4,3.36-2.71,16.52-20.78,16.52s-19.38-13.16-20.78-16.52c2.45.1,2.22,1.13,4.46,2.12a13.49,13.49,0,0,0-3.76-6.15,7.68,7.68,0,0,0,2.52.5c-.06-1.85-2.28-2.64-3.8-3.7a6.5,6.5,0,0,1-2.59-3.92C841.09,280.12,843.17,279.92,844.35,279.55Z"/><path class="e" d="M1147.57,324.58v26.81h-26.2S1132.27,330.52,1147.57,324.58Z"/><path class="d" d="M1067.83,320.23l-.35-.82c2.22,1.07,2.62,4.16,5,4.83s-1.82-5.36-5.24-9.85a6.9,6.9,0,0,0,4.2,2.5l-3.9-9.36a16.73,16.73,0,0,1,3.88,3.35c1.12-.94.23-2.79-.87-3.75s-2.53-2-2.33-3.49a1.32,1.32,0,0,0,1.93,1.13,8.72,8.72,0,0,1-1.37-8l-1.3-.73a9.92,9.92,0,0,1,6.05,1.05l-4-6.45a11.44,11.44,0,0,0,3.61,2.59,1.5,1.5,0,0,0-1.39-1.76l2.39-.17-4-6.39a22.26,22.26,0,0,0,6.22.59,8.42,8.42,0,0,0-1.49-3.24l4.88-1.28a10.32,10.32,0,0,1-2.48-7.87,2.47,2.47,0,0,0,3,1.82l-2.47-5.11c1.61.84,4.26.29,5.94-.41a3.16,3.16,0,0,1-2.87-3.05l4.14-.14a5.92,5.92,0,0,1-2.34-1.51,1.28,1.28,0,0,1,1.29-.29,4.89,4.89,0,0,1-1.06-4.08c.25,1.29,2.67,2.55,2.67,2.55s-.85-2.83-.18-2.21,1.61,1.84,1.61,1.84a1.08,1.08,0,0,0,.6-1,2.3,2.3,0,0,0-.51-1.11,8.19,8.19,0,0,1-1.3-5.51,2.5,2.5,0,0,0,.39,1.56,1,1,0,0,0,1.38,0c.73-.62,1.21-3.72,1.34-5.36a.4.4,0,0,1,.49,0c.12,1.63.61,4.74,1.34,5.36a1,1,0,0,0,1.38,0,2.5,2.5,0,0,0,.39-1.56,8.19,8.19,0,0,1-1.3,5.51,2.3,2.3,0,0,0-.51,1.11,1.08,1.08,0,0,0,.6,1s1.1-1.36,1.61-1.84-.18,2.21-.18,2.21,2.42-1.27,2.67-2.55a4.89,4.89,0,0,1-1.06,4.08,1.28,1.28,0,0,1,1.29.29,5.92,5.92,0,0,1-2.34,1.51l4.14.14a3.16,3.16,0,0,1-2.87,3.05c1.68.7,4.33,1.24,5.94.41l-2.47,5.11a2.47,2.47,0,0,0,3-1.82,10.32,10.32,0,0,1-2.48,7.87l4.88,1.28a8.42,8.42,0,0,0-1.49,3.24,22.26,22.26,0,0,0,6.22-.59l-4,6.39,2.39.17a1.5,1.5,0,0,0-1.39,1.76,11.44,11.44,0,0,0,3.61-2.59l-4,6.45a9.92,9.92,0,0,1,6.05-1.05l-1.3.73a8.72,8.72,0,0,1-1.37,8,1.32,1.32,0,0,0,1.93-1.13c.2,1.45-1.22,2.53-2.33,3.49s-2,2.81-.87,3.75a16.73,16.73,0,0,1,3.88-3.35l-3.9,9.36a6.9,6.9,0,0,0,4.2-2.5c-3.42,4.49-7.61,10.52-5.24,9.85s2.77-3.76,5-4.83l-.35.82c1.2,5.05.21,9.4-3.41,13a1,1,0,0,1,1.07.08,2.61,2.61,0,0,1,.78,1.32,20.62,20.62,0,0,1-7.21,5.69,9,9,0,0,0-2.52,1.47c-.49.47-.84,1.07-1.32,1.56-.81.82-7.65,1.25-8.72,1.65-1.07-.41-7.91-.84-8.72-1.65-.48-.48-.83-1.08-1.32-1.56a9,9,0,0,0-2.52-1.47,20.62,20.62,0,0,1-7.21-5.69,2.61,2.61,0,0,1,.78-1.32,1,1,0,0,1,1.07-.08C1067.63,329.62,1066.63,325.28,1067.83,320.23Z"/><path class="d" d="M1012.74,313.06l-.44-1.12c2.8,1.46,3.31,5.69,6.3,6.61s-2.3-7.32-6.62-13.47a8.63,8.63,0,0,0,5.31,3.42l-4.93-12.79a21.71,21.71,0,0,1,4.91,4.58c1.42-1.29.29-3.81-1.1-5.13s-3.19-2.79-2.94-4.77a1.67,1.67,0,0,0,2.43,1.55,12.71,12.71,0,0,1-1.73-11l-1.65-1a11.72,11.72,0,0,1,7.65,1.44l-5-8.82a14.54,14.54,0,0,0,4.56,3.54,2,2,0,0,0-1.76-2.41l3-.23-5.07-8.74a26.11,26.11,0,0,0,7.86.8,12,12,0,0,0-1.88-4.42l6.17-1.76a14.88,14.88,0,0,1-3.13-10.75,3.11,3.11,0,0,0,3.79,2.49l-3.12-7c2,1.14,5.38.39,7.5-.56a4.19,4.19,0,0,1-3.63-4.17l5.23-.19a7.45,7.45,0,0,1-3-2.06,1.53,1.53,0,0,1,1.63-.4,7.08,7.08,0,0,1-1.35-5.57c.32,1.76,3.37,3.49,3.37,3.49s-1.07-3.87-.23-3c.66.66,2,2.51,2,2.51a1.48,1.48,0,0,0,.76-1.38,3.26,3.26,0,0,0-.65-1.51,11.92,11.92,0,0,1-1.64-7.53,3.63,3.63,0,0,0,.5,2.13,1.16,1.16,0,0,0,1.75,0c.92-.84,1.53-5.09,1.69-7.32a.48.48,0,0,1,.62,0c.16,2.23.77,6.48,1.69,7.32a1.16,1.16,0,0,0,1.75,0,3.63,3.63,0,0,0,.5-2.13,11.92,11.92,0,0,1-1.64,7.53,3.26,3.26,0,0,0-.65,1.51,1.48,1.48,0,0,0,.76,1.38s1.38-1.86,2-2.51c.84-.85-.22,3-.22,3s3.05-1.73,3.37-3.49a7.08,7.08,0,0,1-1.35,5.57,1.53,1.53,0,0,1,1.63.4,7.45,7.45,0,0,1-3,2.06l5.23.19a4.19,4.19,0,0,1-3.63,4.17c2.12,1,5.47,1.7,7.5.56l-3.12,7a3.11,3.11,0,0,0,3.79-2.49,14.88,14.88,0,0,1-3.13,10.75l6.17,1.76a12,12,0,0,0-1.88,4.42,26.11,26.11,0,0,0,7.86-.8l-5.07,8.74,3,.23a2,2,0,0,0-1.76,2.41,14.54,14.54,0,0,0,4.56-3.54l-5,8.82a11.72,11.72,0,0,1,7.65-1.44l-1.65,1a12.71,12.71,0,0,1-1.73,11,1.67,1.67,0,0,0,2.43-1.55c.25,2-1.55,3.45-2.94,4.77s-2.52,3.84-1.1,5.13a21.71,21.71,0,0,1,4.91-4.58l-4.93,12.79a8.63,8.63,0,0,0,5.31-3.42c-4.32,6.14-9.62,14.38-6.62,13.47s3.5-5.14,6.3-6.61l-.44,1.12c1.52,6.89.28,12.82-4.26,17.76a1.22,1.22,0,0,1,1.29.14,3.64,3.64,0,0,1,1,1.81,26.5,26.5,0,0,1-9.11,7.78,11.24,11.24,0,0,0-3.19,2c-.62.65-1.06,1.46-1.66,2.13-1,1.11-9.66,1.7-11,2.26-1.35-.56-10-1.15-11-2.26-.6-.66-1-1.48-1.66-2.13a11.24,11.24,0,0,0-3.19-2,26.5,26.5,0,0,1-9.11-7.78,3.64,3.64,0,0,1,1-1.81,1.22,1.22,0,0,1,1.29-.14C1012.46,325.87,1011.22,319.95,1012.74,313.06Z"/><path class="d" d="M1104.94,328.85a2.82,2.82,0,0,1-2.7-2.09,8.24,8.24,0,0,1,0-3.65,6.68,6.68,0,0,0,4.19,1.09c0-.53-.58-.83-1-1.09a3.74,3.74,0,0,1-1.87-3.64l3.79,1.21q-1.68-3.47-3.39-6.92a7.79,7.79,0,0,0,3.05,1.47,1.17,1.17,0,0,1-.48-1.87,43.69,43.69,0,0,1-3.1-4,6.12,6.12,0,0,0,3.57,1L1103.6,307l2.43,1a11.63,11.63,0,0,1-3.28-5.37,23.08,23.08,0,0,1,5.05,3.08,10.85,10.85,0,0,1-2.46-4.4,3.78,3.78,0,0,1,2,2.37c-.14-1.05-1.11-2.4-1-3.46.12-.9-1-2.82-1-3.72,0-.55,2.3.18,2.16-.38a3.75,3.75,0,0,0-2.6-3,7.24,7.24,0,0,1,4.92.63,7.77,7.77,0,0,1-1.6-4,2.79,2.79,0,0,0,2.12,1.71,8.22,8.22,0,0,0,2.84,0,31.25,31.25,0,0,0-4-3.13l1.39,0a4.39,4.39,0,0,0-1.37-2.3,4.34,4.34,0,0,0,4.35.55,9.32,9.32,0,0,1-4.09-5,6.55,6.55,0,0,0,5.28,1.85,39.27,39.27,0,0,1-4.83-5l4.4,2.87a10.26,10.26,0,0,1-3.41-5.56,3.19,3.19,0,0,0,4,1.41,3.31,3.31,0,0,1-2.17-2.63,2,2,0,0,0,2.44.25,5.92,5.92,0,0,0-.46-3.28,3.4,3.4,0,0,0,1.81.94,8.43,8.43,0,0,0-1.23-3.31,14.86,14.86,0,0,0,2.52,1.72,13.5,13.5,0,0,1,1-4.63,12.58,12.58,0,0,0,1.09-4.53.34.34,0,0,1,.42,0,12.58,12.58,0,0,0,1.09,4.53,13.5,13.5,0,0,1,1,4.63,14.86,14.86,0,0,0,2.52-1.72,8.43,8.43,0,0,0-1.23,3.31,3.4,3.4,0,0,0,1.81-.94,5.92,5.92,0,0,0-.46,3.28,2,2,0,0,0,2.44-.25,3.31,3.31,0,0,1-2.17,2.63,3.19,3.19,0,0,0,4-1.41,10.26,10.26,0,0,1-3.41,5.56l4.4-2.87a39.27,39.27,0,0,1-4.83,5,6.55,6.55,0,0,0,5.28-1.85,9.32,9.32,0,0,1-4.09,5A4.34,4.34,0,0,0,1131,286a4.39,4.39,0,0,0-1.37,2.3l1.39,0a31.25,31.25,0,0,0-4,3.13,8.22,8.22,0,0,0,2.84,0,2.79,2.79,0,0,0,2.12-1.71,7.77,7.77,0,0,1-1.6,4,7.24,7.24,0,0,1,4.92-.63,3.75,3.75,0,0,0-2.6,3c-.14.55,2.15-.17,2.16.38,0,.9-1.12,2.82-1,3.72.14,1.06-.82,2.4-1,3.46a3.78,3.78,0,0,1,2-2.37,10.85,10.85,0,0,1-2.46,4.4,23.08,23.08,0,0,1,5.05-3.08,11.63,11.63,0,0,1-3.28,5.37l2.43-1-3.33,3.35a6.12,6.12,0,0,0,3.57-1,43.69,43.69,0,0,1-3.1,4,1.17,1.17,0,0,1-.48,1.87,7.79,7.79,0,0,0,3.05-1.47q-1.71,3.45-3.39,6.92l3.79-1.21a3.74,3.74,0,0,1-1.87,3.64c-.47.26-1.09.55-1,1.09a6.68,6.68,0,0,0,4.19-1.09,8.24,8.24,0,0,1,0,3.65,2.82,2.82,0,0,1-2.7,2.09c.9.28,2.49.44,3.14-.26a5,5,0,0,1-2,3c-1.15.81-2.85,1.41-2.9,2.82a5.87,5.87,0,0,0,1.93-.38,10.3,10.3,0,0,0-2.87,4.7c1.71-.76,1.54-1.54,3.4-1.62-1.07,2.57-2.07,12.62-15.87,12.62s-14.8-10.05-15.87-12.62c1.87.08,1.7.86,3.4,1.62a10.3,10.3,0,0,0-2.87-4.7,5.87,5.87,0,0,0,1.93.38c0-1.41-1.74-2-2.9-2.82a5,5,0,0,1-2-3C1102.45,329.28,1104,329.13,1104.94,328.85Z"/><path class="c" d="M571.3,258.55c34.66,0,57,40.78,75.69,40.78s19.7-11.5,31.31-10.53c4.49.38,8.85,1.72,13.34,2.11,8.15.69,16.35-1.89,23.33-6.15,4.68-2.86,9-6.51,14.17-8.27s10.73-1.51,16-.46a55,55,0,0,1,27.51,14.48A30.44,30.44,0,0,1,797,275.29c.49,0,1-.05,1.49-.05a30.5,30.5,0,0,1,24.45,12.28,23,23,0,0,1,27-7.91c6.73,2.82,11.63,7.52,19.16,6.18,6.49-1.15,10.95-2.84,18.15-1.43,2.38.47,17.49,4.12,17.62,8,0,.21.43,10.91,15.79,10.91,7.2,0,12.45,3.79,17.08,7.84,5.36,4.69,9.89,9.75,15.64,9.75,10.72,0,5.64-7.12,20.58-7.12,7.62,0,7.37,3.74,12.66,7,3.16,1.95,8.19,1.91,11.79,1.93,5.91,0,9.84.38,15.15,3.47,4.89,2.84,10.54,6,15.85,4.12,1.5-.54,2.83-1.44,4.27-2.09a13.59,13.59,0,0,1,14.21,2.15c2.72,2.41,4.65,6,8.14,7a12,12,0,0,0,4.63.13,45.36,45.36,0,0,0,12.4-2.9c1.68-.71,18.06-5.28,23.9-2.43,21.89,10.69,26.12,19.81,50.63,8l-.44,36.69H571.3"/></g><g class="f"><path class="c" d="M569.3,299.1v34.82l-296.16-3.26s5.89-41.95,45.16-41.95c11.29,0,18.23-5.55,23.83-13.47,13.89-19.62,19.57-53.75,63-53.75,60.94,0,46.74,54.58,109.47,54.58a87.17,87.17,0,0,1,18.2,1.82A65.09,65.09,0,0,1,569.3,299.1Z"/><path class="d" d="M154,287.46l.19-.44c-1.2.58-1.42,2.25-2.7,2.62s1-2.9,2.84-5.33a3.74,3.74,0,0,1-2.28,1.35l2.11-5.07a9.05,9.05,0,0,0-2.1,1.81c-.61-.51-.13-1.51.47-2s1.37-1.1,1.26-1.89a.71.71,0,0,1-1,.61,4.72,4.72,0,0,0,.74-4.34l.71-.4a5.37,5.37,0,0,0-3.28.57l2.14-3.49a6.19,6.19,0,0,1-2,1.4.81.81,0,0,1,.75-1l-1.29-.09,2.17-3.46a12.06,12.06,0,0,1-3.37.32,4.56,4.56,0,0,1,.81-1.75l-2.64-.7a5.59,5.59,0,0,0,1.34-4.26,1.34,1.34,0,0,1-1.62,1l1.34-2.76a4.35,4.35,0,0,1-3.21-.22,1.71,1.71,0,0,0,1.55-1.65l-2.24-.08a3.21,3.21,0,0,0,1.27-.82.69.69,0,0,0-.7-.16,2.65,2.65,0,0,0,.58-2.21c-.14.7-1.44,1.38-1.44,1.38s.46-1.53.1-1.2-.87,1-.87,1a.58.58,0,0,1-.33-.55,1.24,1.24,0,0,1,.28-.6,4.43,4.43,0,0,0,.7-3,1.35,1.35,0,0,1-.21.85.52.52,0,0,1-.75,0c-.39-.33-.66-2-.72-2.9a.22.22,0,0,0-.26,0c-.07.89-.33,2.57-.72,2.9a.52.52,0,0,1-.75,0,1.35,1.35,0,0,1-.21-.85,4.43,4.43,0,0,0,.7,3,1.24,1.24,0,0,1,.28.6.58.58,0,0,1-.33.55s-.59-.74-.87-1,.1,1.2.1,1.2-1.31-.69-1.44-1.38a2.65,2.65,0,0,0,.58,2.21.69.69,0,0,0-.7.16,3.21,3.21,0,0,0,1.27.82l-2.24.08a1.71,1.71,0,0,0,1.55,1.65,4.35,4.35,0,0,1-3.21.22l1.34,2.76a1.34,1.34,0,0,1-1.62-1,5.59,5.59,0,0,0,1.34,4.26l-2.64.7a4.56,4.56,0,0,1,.81,1.75,12.06,12.06,0,0,1-3.37-.32l2.17,3.46-1.29.09a.81.81,0,0,1,.75,1,6.19,6.19,0,0,1-2-1.4l2.14,3.49a5.37,5.37,0,0,0-3.28-.57l.71.4a4.72,4.72,0,0,0,.74,4.34.71.71,0,0,1-1-.61c-.11.79.66,1.37,1.26,1.89s1.08,1.52.47,2a9.05,9.05,0,0,0-2.1-1.81l2.11,5.07a3.74,3.74,0,0,1-2.28-1.35c1.85,2.43,4.12,5.7,2.84,5.33s-1.5-2-2.7-2.62l.19.44a7,7,0,0,0,1.85,7,.55.55,0,0,0-.58,0,1.41,1.41,0,0,0-.42.72,11.17,11.17,0,0,0,3.9,3.08,4.89,4.89,0,0,1,1.36.79c.26.26.45.58.71.84.44.44,4.14.67,4.72.9.58-.22,4.28-.45,4.72-.9.26-.26.45-.59.71-.84a4.89,4.89,0,0,1,1.36-.79,11.17,11.17,0,0,0,3.9-3.08,1.41,1.41,0,0,0-.42-.72.55.55,0,0,0-.58,0A7,7,0,0,0,154,287.46Z"/><path class="d" d="M320.37,273.08a2.07,2.07,0,0,0,2-1.54,6.06,6.06,0,0,0,0-2.69,4.92,4.92,0,0,1-3.08.8c0-.39.42-.61.77-.8a2.75,2.75,0,0,0,1.37-2.68l-2.79.89q1.23-2.55,2.49-5.09a5.74,5.74,0,0,1-2.25,1.08.86.86,0,0,0,.35-1.38,32.17,32.17,0,0,0,2.28-2.95,4.5,4.5,0,0,1-2.63.75l2.45-2.46-1.79.75a8.56,8.56,0,0,0,2.41-3.95,17,17,0,0,0-3.72,2.27,8,8,0,0,0,1.81-3.24,2.78,2.78,0,0,0-1.46,1.74c.1-.78.81-1.77.71-2.55s.75-2.08.74-2.74c0-.41-1.69.13-1.59-.28a2.76,2.76,0,0,1,1.91-2.19,5.33,5.33,0,0,0-3.62.46,5.72,5.72,0,0,0,1.18-2.94,2.05,2.05,0,0,1-1.56,1.26,6.06,6.06,0,0,1-2.09,0,23,23,0,0,1,3-2.31h-1a3.23,3.23,0,0,1,1-1.69,3.19,3.19,0,0,1-3.21.4,6.86,6.86,0,0,0,3-3.65,4.82,4.82,0,0,1-3.88,1.36,28.91,28.91,0,0,0,3.55-3.68l-3.24,2.11A7.55,7.55,0,0,0,316,234a2.35,2.35,0,0,1-3,1,2.43,2.43,0,0,0,1.6-1.93,1.46,1.46,0,0,1-1.79.18,4.36,4.36,0,0,1,.34-2.41,2.5,2.5,0,0,1-1.33.69,6.2,6.2,0,0,1,.9-2.43,10.93,10.93,0,0,1-1.86,1.27,9.94,9.94,0,0,0-.72-3.4,9.26,9.26,0,0,1-.8-3.34.25.25,0,0,0-.31,0,9.26,9.26,0,0,1-.8,3.34,9.94,9.94,0,0,0-.72,3.4,10.93,10.93,0,0,1-1.86-1.27,6.2,6.2,0,0,1,.9,2.43,2.5,2.5,0,0,1-1.33-.69,4.36,4.36,0,0,1,.34,2.41,1.46,1.46,0,0,1-1.79-.18,2.43,2.43,0,0,0,1.6,1.93,2.35,2.35,0,0,1-3-1,7.55,7.55,0,0,0,2.51,4.09L301.7,236a28.91,28.91,0,0,0,3.55,3.68,4.82,4.82,0,0,1-3.88-1.36,6.86,6.86,0,0,0,3,3.65,3.19,3.19,0,0,1-3.21-.4,3.23,3.23,0,0,1,1,1.69h-1a23,23,0,0,1,3,2.31,6.06,6.06,0,0,1-2.09,0,2.05,2.05,0,0,1-1.56-1.26,5.72,5.72,0,0,0,1.18,2.94,5.33,5.33,0,0,0-3.62-.46,2.76,2.76,0,0,1,1.91,2.19c.1.41-1.58-.13-1.59.28,0,.67.83,2.08.74,2.74s.6,1.77.71,2.55a2.78,2.78,0,0,0-1.46-1.74,8,8,0,0,0,1.81,3.24,17,17,0,0,0-3.72-2.27,8.56,8.56,0,0,0,2.41,3.95l-1.79-.75,2.45,2.46a4.5,4.5,0,0,1-2.63-.75,32.16,32.16,0,0,0,2.28,2.95.86.86,0,0,0,.35,1.38,5.74,5.74,0,0,1-2.25-1.08q1.26,2.54,2.49,5.09l-2.79-.89a2.75,2.75,0,0,0,1.37,2.68c.35.19.8.41.77.8a4.92,4.92,0,0,1-3.08-.8,6.06,6.06,0,0,0,0,2.69,2.07,2.07,0,0,0,2,1.54c-.67.21-1.83.32-2.31-.19a3.65,3.65,0,0,0,1.46,2.2c.85.6,2.1,1,2.13,2.08a4.32,4.32,0,0,1-1.42-.28,7.58,7.58,0,0,1,2.12,3.46c-1.26-.56-1.13-1.14-2.51-1.19.79,1.89,1.52,9.28,11.68,9.28s10.89-7.4,11.68-9.28c-1.38.06-1.25.63-2.51,1.19a7.58,7.58,0,0,1,2.12-3.46,4.32,4.32,0,0,1-1.42.28c0-1,1.28-1.48,2.13-2.08a3.65,3.65,0,0,0,1.46-2.2C322.2,273.4,321,273.29,320.37,273.08Z"/><path class="d" d="M195,298.94c1.69.16,3.19-1.27,3.72-2.88a11.35,11.35,0,0,0,.06-5,9.21,9.21,0,0,1-5.77,1.5c-.06-.74.79-1.14,1.44-1.5a5.15,5.15,0,0,0,2.57-5l-5.23,1.67q2.31-4.78,4.67-9.53a10.74,10.74,0,0,1-4.21,2,1.62,1.62,0,0,0,.66-2.58,60.26,60.26,0,0,0,4.28-5.51,8.43,8.43,0,0,1-4.92,1.41l4.58-4.61-3.35,1.41a16,16,0,0,0,4.52-7.39,31.77,31.77,0,0,0-7,4.24,15,15,0,0,0,3.39-6.07,5.21,5.21,0,0,0-2.73,3.27c.19-1.45,1.52-3.31,1.33-4.77-.17-1.24,1.4-3.89,1.38-5.13,0-.76-3.17.24-3-.52.5-2,1.68-3.69,3.58-4.11a10,10,0,0,0-6.78.86,10.71,10.71,0,0,0,2.2-5.51,3.84,3.84,0,0,1-2.92,2.35,11.33,11.33,0,0,1-3.91-.07,43.07,43.07,0,0,1,5.56-4.32l-1.91,0a6,6,0,0,1,1.88-3.17,6,6,0,0,1-6,.76,12.85,12.85,0,0,0,5.63-6.83,9,9,0,0,1-7.27,2.55,54.14,54.14,0,0,0,6.66-6.89l-6.06,4a14.14,14.14,0,0,0,4.69-7.66,4.4,4.4,0,0,1-5.54,1.94,4.56,4.56,0,0,0,3-3.62,2.73,2.73,0,0,1-3.36.34,8.16,8.16,0,0,1,.64-4.51,4.69,4.69,0,0,1-2.5,1.29,11.62,11.62,0,0,1,1.69-4.56,20.47,20.47,0,0,1-3.48,2.37,18.6,18.6,0,0,0-1.35-6.37,17.33,17.33,0,0,1-1.51-6.25.47.47,0,0,0-.57,0,17.33,17.33,0,0,1-1.51,6.25,18.6,18.6,0,0,0-1.35,6.37,20.46,20.46,0,0,1-3.48-2.37,11.62,11.62,0,0,1,1.69,4.56,4.69,4.69,0,0,1-2.5-1.29,8.16,8.16,0,0,1,.64,4.51,2.73,2.73,0,0,1-3.36-.34,4.56,4.56,0,0,0,3,3.62,4.4,4.4,0,0,1-5.54-1.94,14.14,14.14,0,0,0,4.69,7.66l-6.06-4a54.13,54.13,0,0,0,6.66,6.89,9,9,0,0,1-7.27-2.55,12.85,12.85,0,0,0,5.63,6.83,6,6,0,0,1-6-.76A6,6,0,0,1,161,243.1l-1.91,0a43.07,43.07,0,0,1,5.56,4.32,11.33,11.33,0,0,1-3.91.07,3.84,3.84,0,0,1-2.92-2.35,10.71,10.71,0,0,0,2.2,5.51,10,10,0,0,0-6.78-.86c1.9.41,3.08,2.16,3.58,4.11.2.76-3-.24-3,.52,0,1.24,1.55,3.89,1.38,5.13-.2,1.46,1.13,3.31,1.33,4.77a5.21,5.21,0,0,0-2.73-3.27,15,15,0,0,0,3.39,6.07,31.77,31.77,0,0,0-7-4.24,16,16,0,0,0,4.52,7.39l-3.35-1.41,4.58,4.61a8.43,8.43,0,0,1-4.92-1.41,60.27,60.27,0,0,0,4.28,5.51,1.62,1.62,0,0,0,.66,2.58,10.74,10.74,0,0,1-4.21-2q2.36,4.75,4.67,9.53L151.25,286a5.15,5.15,0,0,0,2.57,5c.65.35,1.5.76,1.44,1.5a9.21,9.21,0,0,1-5.77-1.5,11.35,11.35,0,0,0,.06,5c.52,1.61,2,3,3.72,2.88-1.24.39-3.43.6-4.32-.36a6.84,6.84,0,0,0,2.73,4.12c1.59,1.12,3.93,1.95,4,3.89a8.07,8.07,0,0,1-2.65-.53,14.2,14.2,0,0,1,4,6.47c-2.35-1-2.12-2.13-4.69-2.23,1.47,3.53,2.85,17.38,21.87,17.38S194.55,313.84,196,310.3c-2.57.1-2.34,1.19-4.69,2.23a14.2,14.2,0,0,1,4-6.47,8.07,8.07,0,0,1-2.65.53c.06-1.94,2.4-2.78,4-3.89a6.84,6.84,0,0,0,2.73-4.12C198.48,299.54,196.29,299.33,195,298.94Z"/><path class="d" d="M127.68,287.61a1.19,1.19,0,0,0,1.14-.88,3.49,3.49,0,0,0,0-1.55,2.83,2.83,0,0,1-1.77.46c0-.23.24-.35.44-.46a1.58,1.58,0,0,0,.79-1.54l-1.61.51q.71-1.47,1.43-2.93a3.3,3.3,0,0,1-1.29.62.5.5,0,0,0,.2-.79,18.49,18.49,0,0,0,1.31-1.69,2.59,2.59,0,0,1-1.51.43l1.41-1.42-1,.43a4.92,4.92,0,0,0,1.39-2.27,9.75,9.75,0,0,0-2.14,1.3,4.59,4.59,0,0,0,1-1.86,1.6,1.6,0,0,0-.84,1c.06-.45.47-1,.41-1.46s.43-1.19.42-1.58-1,.07-.91-.16a1.59,1.59,0,0,1,1.1-1.26,3.06,3.06,0,0,0-2.08.26,3.29,3.29,0,0,0,.68-1.69,1.18,1.18,0,0,1-.9.72,3.47,3.47,0,0,1-1.2,0,13.24,13.24,0,0,1,1.71-1.33h-.59a1.86,1.86,0,0,1,.58-1,1.84,1.84,0,0,1-1.84.23,3.94,3.94,0,0,0,1.73-2.1,2.77,2.77,0,0,1-2.23.78,16.62,16.62,0,0,0,2-2.12l-1.86,1.21a4.34,4.34,0,0,0,1.44-2.35,1.35,1.35,0,0,1-1.7.6,1.4,1.4,0,0,0,.92-1.11.84.84,0,0,1-1,.1,2.51,2.51,0,0,1,.2-1.39,1.44,1.44,0,0,1-.77.4,3.57,3.57,0,0,1,.52-1.4,6.28,6.28,0,0,1-1.07.73,5.71,5.71,0,0,0-.42-2,5.32,5.32,0,0,1-.46-1.92.14.14,0,0,0-.18,0,5.32,5.32,0,0,1-.46,1.92,5.71,5.71,0,0,0-.42,2,6.28,6.28,0,0,1-1.07-.73,3.57,3.57,0,0,1,.52,1.4,1.44,1.44,0,0,1-.77-.4,2.51,2.51,0,0,1,.2,1.39.84.84,0,0,1-1-.1,1.4,1.4,0,0,0,.92,1.11,1.35,1.35,0,0,1-1.7-.6,4.34,4.34,0,0,0,1.44,2.35l-1.86-1.21a16.62,16.62,0,0,0,2,2.12,2.77,2.77,0,0,1-2.23-.78,3.94,3.94,0,0,0,1.73,2.1,1.84,1.84,0,0,1-1.84-.23,1.86,1.86,0,0,1,.58,1h-.59a13.24,13.24,0,0,1,1.71,1.33,3.47,3.47,0,0,1-1.2,0,1.18,1.18,0,0,1-.9-.72,3.29,3.29,0,0,0,.68,1.69,3.06,3.06,0,0,0-2.08-.26,1.59,1.59,0,0,1,1.1,1.26c.06.23-.91-.07-.91.16s.48,1.2.42,1.58.35,1,.41,1.46a1.6,1.6,0,0,0-.84-1,4.59,4.59,0,0,0,1,1.86,9.75,9.75,0,0,0-2.14-1.3,4.92,4.92,0,0,0,1.39,2.27l-1-.43,1.41,1.42a2.59,2.59,0,0,1-1.51-.43,18.49,18.49,0,0,0,1.31,1.69.5.5,0,0,0,.2.79,3.3,3.3,0,0,1-1.29-.62q.72,1.46,1.43,2.93l-1.61-.51a1.58,1.58,0,0,0,.79,1.54c.2.11.46.23.44.46a2.83,2.83,0,0,1-1.77-.46,3.49,3.49,0,0,0,0,1.55,1.19,1.19,0,0,0,1.14.88c-.38.12-1.05.18-1.33-.11a2.1,2.1,0,0,0,.84,1.27c.49.34,1.21.6,1.23,1.2a2.48,2.48,0,0,1-.81-.16,4.36,4.36,0,0,1,1.22,2c-.72-.32-.65-.65-1.44-.69.45,1.09.87,5.34,6.72,5.34s6.26-4.25,6.72-5.34c-.79,0-.72.36-1.44.69a4.36,4.36,0,0,1,1.22-2,2.48,2.48,0,0,1-.82.16c0-.6.74-.85,1.23-1.2a2.1,2.1,0,0,0,.84-1.27C128.73,287.79,128.06,287.72,127.68,287.61Z"/><path class="d" d="M571.3,144.63c-.87,0-1.17.85-1.37,1-.22,2.89-.75,2.24-2,4.86s-1.45,5.33-1.77,8.35a27.2,27.2,0,0,1-4.56-3.11,15.32,15.32,0,0,1,2.22,6,6.27,6.27,0,0,1-3.28-1.7,10.63,10.63,0,0,1,.84,5.91,3.56,3.56,0,0,1-4.4-.44,6,6,0,0,0,3.92,4.75,5.77,5.77,0,0,1-7.26-2.55,18.62,18.62,0,0,0,6.15,10.05l-7.94-5.18a71.65,71.65,0,0,0,8.73,9,11.83,11.83,0,0,1-9.54-3.35,16.9,16.9,0,0,0,7.38,9,7.85,7.85,0,0,1-7.86-1,7.92,7.92,0,0,1,2.47,4.15l-2.51,0a57.12,57.12,0,0,1,7.29,5.66,14.74,14.74,0,0,1-5.13.09,5.05,5.05,0,0,1-3.83-3.09,14.05,14.05,0,0,0,2.89,7.23,13,13,0,0,0-8.89-1.13c2.5.54,4,2.83,4.7,5.39.25,1-3.89-.32-3.91.68,0,1.63,2,5.1,1.81,6.73-.26,1.91,1.49,4.34,1.74,6.24a6.81,6.81,0,0,0-3.57-4.28,19.58,19.58,0,0,0,4.45,7.95A42,42,0,0,0,539,216.3a20.92,20.92,0,0,0,5.93,9.69l-4.4-1.85,6,6.05a11.1,11.1,0,0,1-6.45-1.84,78.32,78.32,0,0,0,5.61,7.22,2.12,2.12,0,0,0,.86,3.39A14,14,0,0,1,541,236.3q3.09,6.24,6.12,12.49l-6.86-2.19a6.76,6.76,0,0,0,3.38,6.58c.85.47,2,1,1.88,2a12.12,12.12,0,0,1-7.56-2,15,15,0,0,0,.08,6.6c.69,2.11,2.66,4,4.87,3.77-1.63.51-4.5.79-5.66-.46a9,9,0,0,0,3.58,5.4c2.08,1.46,5.15,2.55,5.23,5.1a10.66,10.66,0,0,1-3.48-.69,18.6,18.6,0,0,1,5.2,8.48c-3.09-1.37-2.78-2.79-6.15-2.93,1.93,4.64,3.73,22.79,28.66,22.79h1"/><path class="d" d="M544.33,272c2.18.2,4.12-1.64,4.8-3.72a14.66,14.66,0,0,0,.08-6.5,11.89,11.89,0,0,1-7.45,1.94c-.08-.95,1-1.48,1.86-1.94a6.66,6.66,0,0,0,3.32-6.48l-6.75,2.16q3-6.17,6-12.3a13.87,13.87,0,0,1-5.43,2.62,2.09,2.09,0,0,0,.85-3.33,77.79,77.79,0,0,0,5.52-7.12,10.88,10.88,0,0,1-6.35,1.82l5.92-6L542.4,235a20.69,20.69,0,0,0,5.84-9.55,41,41,0,0,0-9,5.48,19.31,19.31,0,0,0,4.38-7.83,6.73,6.73,0,0,0-3.52,4.22c.25-1.88,2-4.27,1.71-6.15-.22-1.6,1.8-5,1.78-6.63,0-1-4.1.31-3.85-.67.64-2.52,2.17-4.77,4.63-5.31a12.89,12.89,0,0,0-8.76,1.11,13.83,13.83,0,0,0,2.85-7.12,5,5,0,0,1-3.77,3,14.62,14.62,0,0,1-5-.09,55.59,55.59,0,0,1,7.18-5.58l-2.47,0a7.81,7.81,0,0,1,2.43-4.09,7.72,7.72,0,0,1-7.75,1,16.59,16.59,0,0,0,7.27-8.82,11.65,11.65,0,0,1-9.39,3.3,69.93,69.93,0,0,0,8.59-8.9l-7.82,5.1a18.26,18.26,0,0,0,6.06-9.9A5.68,5.68,0,0,1,526.6,180a5.89,5.89,0,0,0,3.86-4.68,3.52,3.52,0,0,1-4.34.44A10.54,10.54,0,0,1,527,170a6,6,0,0,1-3.22,1.67,15,15,0,0,1,2.18-5.88,26.43,26.43,0,0,1-4.49,3.06c-.32-3-.48-5.54-1.75-8.23a22.38,22.38,0,0,1-1.94-8.07.61.61,0,0,0-.74,0,22.38,22.38,0,0,1-1.94,8.07c-1.26,2.69-1.43,5.25-1.75,8.23a26.43,26.43,0,0,1-4.49-3.06,15,15,0,0,1,2.18,5.88,6,6,0,0,1-3.22-1.67,10.54,10.54,0,0,1,.82,5.83,3.52,3.52,0,0,1-4.34-.44,5.89,5.89,0,0,0,3.86,4.68,5.68,5.68,0,0,1-7.15-2.51,18.26,18.26,0,0,0,6.06,9.9l-7.82-5.1a69.93,69.93,0,0,0,8.59,8.9,11.65,11.65,0,0,1-9.39-3.3,16.59,16.59,0,0,0,7.27,8.82,7.72,7.72,0,0,1-7.75-1,7.81,7.81,0,0,1,2.43,4.09l-2.47,0a55.59,55.59,0,0,1,7.18,5.58,14.62,14.62,0,0,1-5,.09,5,5,0,0,1-3.77-3,13.83,13.83,0,0,0,2.85,7.12,12.89,12.89,0,0,0-8.76-1.11c2.46.54,4,2.78,4.63,5.31.25,1-3.83-.31-3.85.67,0,1.61,2,5,1.78,6.63-.26,1.89,1.46,4.28,1.71,6.15a6.73,6.73,0,0,0-3.52-4.22,19.31,19.31,0,0,0,4.38,7.83,41,41,0,0,0-9-5.48,20.69,20.69,0,0,0,5.84,9.55L488,233.14l5.92,6a10.88,10.88,0,0,1-6.35-1.82,77.79,77.79,0,0,0,5.52,7.12,2.09,2.09,0,0,0,.85,3.33,13.87,13.87,0,0,1-5.43-2.62q3,6.14,6,12.3l-6.75-2.16a6.66,6.66,0,0,0,3.32,6.48c.84.46,1.94,1,1.86,1.94a11.89,11.89,0,0,1-7.45-1.94,14.65,14.65,0,0,0,.08,6.5c.67,2.08,2.62,3.92,4.8,3.72-1.61.5-4.43.77-5.58-.46a8.83,8.83,0,0,0,3.52,5.32c2.06,1.44,5.08,2.52,5.16,5a10.44,10.44,0,0,1-3.43-.68,18.33,18.33,0,0,1,5.11,8.36c-3-1.35-2.73-2.75-6.06-2.88,1.9,4.56,3.68,22.45,28.24,22.45s26.34-17.88,28.24-22.45c-3.32.14-3,1.53-6.06,2.88a18.33,18.33,0,0,1,5.11-8.36,10.44,10.44,0,0,1-3.43.68c.08-2.51,3.1-3.58,5.16-5a8.83,8.83,0,0,0,3.52-5.32C548.77,272.74,545.94,272.46,544.33,272Z"/><path class="d" d="M430.64,259.73c2,.19,3.8-1.51,4.42-3.43a13.52,13.52,0,0,0,.08-6,11,11,0,0,1-6.87,1.79c-.07-.88.94-1.36,1.71-1.79a6.14,6.14,0,0,0,3.07-6l-6.23,2q2.75-5.69,5.56-11.35a12.79,12.79,0,0,1-5,2.41,1.93,1.93,0,0,0,.79-3.08,71.76,71.76,0,0,0,5.09-6.57,10,10,0,0,1-5.86,1.67l5.46-5.49-4,1.68a19.08,19.08,0,0,0,5.38-8.81,37.86,37.86,0,0,0-8.29,5.05,17.81,17.81,0,0,0,4-7.22,6.2,6.2,0,0,0-3.25,3.89c.23-1.73,1.82-3.94,1.58-5.68-.2-1.48,1.66-4.63,1.64-6.11,0-.91-3.78.29-3.55-.62.59-2.33,2-4.4,4.27-4.89a11.88,11.88,0,0,0-8.08,1,12.75,12.75,0,0,0,2.62-6.56,4.58,4.58,0,0,1-3.48,2.8,13.49,13.49,0,0,1-4.65-.08,51.28,51.28,0,0,1,6.62-5.14l-2.28,0a7.2,7.2,0,0,1,2.24-3.77,7.12,7.12,0,0,1-7.15.9,15.3,15.3,0,0,0,6.71-8.13,10.74,10.74,0,0,1-8.66,3,64.46,64.46,0,0,0,7.93-8.2l-7.22,4.7a16.84,16.84,0,0,0,5.59-9.13,5.24,5.24,0,0,1-6.59,2.31,5.43,5.43,0,0,0,3.56-4.31,3.25,3.25,0,0,1-4,.4,9.72,9.72,0,0,1,.76-5.37,5.58,5.58,0,0,1-3,1.54,13.84,13.84,0,0,1,2-5.43,24.38,24.38,0,0,1-4.14,2.82c-.29-2.75-.45-5.11-1.61-7.59a20.64,20.64,0,0,1-1.79-7.44.56.56,0,0,0-.68,0,20.64,20.64,0,0,1-1.79,7.44c-1.17,2.48-1.32,4.84-1.61,7.59a24.38,24.38,0,0,1-4.14-2.82,13.84,13.84,0,0,1,2,5.43,5.58,5.58,0,0,1-3-1.54,9.72,9.72,0,0,1,.76,5.37,3.25,3.25,0,0,1-4-.4,5.43,5.43,0,0,0,3.56,4.31,5.24,5.24,0,0,1-6.59-2.31,16.84,16.84,0,0,0,5.59,9.13l-7.22-4.7a64.46,64.46,0,0,0,7.93,8.2,10.74,10.74,0,0,1-8.66-3,15.3,15.3,0,0,0,6.71,8.13,7.12,7.12,0,0,1-7.15-.9,7.2,7.2,0,0,1,2.24,3.77l-2.28,0a51.28,51.28,0,0,1,6.62,5.14,13.49,13.49,0,0,1-4.65.08,4.58,4.58,0,0,1-3.48-2.8,12.75,12.75,0,0,0,2.62,6.56,11.88,11.88,0,0,0-8.08-1c2.27.49,3.67,2.57,4.27,4.89.23.91-3.53-.29-3.55.62,0,1.48,1.84,4.64,1.64,6.11-.24,1.74,1.35,3.94,1.58,5.68a6.2,6.2,0,0,0-3.25-3.89,17.81,17.81,0,0,0,4,7.22,37.86,37.86,0,0,0-8.29-5.05,19.08,19.08,0,0,0,5.38,8.81l-4-1.68,5.46,5.49a10,10,0,0,1-5.86-1.67,71.76,71.76,0,0,0,5.09,6.57,1.93,1.93,0,0,0,.79,3.08,12.79,12.79,0,0,1-5-2.41q2.81,5.66,5.56,11.35l-6.23-2a6.14,6.14,0,0,0,3.07,6c.77.42,1.79.91,1.71,1.79a11,11,0,0,1-6.87-1.79,13.52,13.52,0,0,0,.08,6c.62,1.92,2.42,3.62,4.42,3.43-1.48.46-4.09.71-5.15-.42a8.15,8.15,0,0,0,3.25,4.91c1.9,1.33,4.68,2.32,4.76,4.64a9.62,9.62,0,0,1-3.16-.63,16.91,16.91,0,0,1,4.72,7.71c-2.8-1.25-2.52-2.53-5.59-2.66,1.76,4.21,3.39,20.7,26,20.7s24.29-16.49,26-20.7c-3.07.13-2.78,1.41-5.59,2.66a16.91,16.91,0,0,1,4.72-7.71,9.62,9.62,0,0,1-3.16.63c.08-2.31,2.86-3.31,4.76-4.64a8.15,8.15,0,0,0,3.25-4.91C434.73,260.44,432.13,260.19,430.64,259.73Z"/><path class="d" d="M217.47,296.95l.27-.7c-1.75.92-2.07,3.56-3.94,4.13s1.44-4.58,4.14-8.42a5.39,5.39,0,0,1-3.32,2.14l3.09-8a13.58,13.58,0,0,0-3.07,2.86c-.89-.8-.18-2.38.69-3.21s2-1.74,1.84-3a1,1,0,0,1-1.52,1,8,8,0,0,0,1.08-6.85l1-.63a7.33,7.33,0,0,0-4.79.9l3.13-5.52a9.1,9.1,0,0,1-2.85,2.22,1.26,1.26,0,0,1,1.1-1.51l-1.89-.14,3.17-5.47a16.33,16.33,0,0,1-4.92.5,7.48,7.48,0,0,1,1.18-2.77l-3.86-1.1a9.31,9.31,0,0,0,2-6.73,2,2,0,0,1-2.37,1.56l2-4.37c-1.27.72-3.37.25-4.69-.35a2.62,2.62,0,0,0,2.27-2.61l-3.27-.12a4.66,4.66,0,0,0,1.85-1.29,1,1,0,0,0-1-.25,4.43,4.43,0,0,0,.84-3.49c-.2,1.1-2.11,2.18-2.11,2.18s.67-2.42.14-1.89-1.28,1.57-1.28,1.57a.92.92,0,0,1-.48-.86,2,2,0,0,1,.4-.95,7.46,7.46,0,0,0,1-4.71,2.27,2.27,0,0,1-.31,1.33.72.72,0,0,1-1.09,0c-.57-.53-1-3.18-1.06-4.58a.3.3,0,0,0-.39,0c-.1,1.4-.48,4.05-1.06,4.58a.72.72,0,0,1-1.09,0,2.27,2.27,0,0,1-.31-1.33,7.46,7.46,0,0,0,1,4.71,2,2,0,0,1,.4.95.92.92,0,0,1-.48.86s-.87-1.16-1.28-1.57.14,1.89.14,1.89-1.91-1.08-2.11-2.18a4.43,4.43,0,0,0,.84,3.49,1,1,0,0,0-1,.25,4.66,4.66,0,0,0,1.85,1.29l-3.27.12a2.62,2.62,0,0,0,2.27,2.61c-1.33.59-3.42,1.06-4.69.35l2,4.37a2,2,0,0,1-2.37-1.56,9.31,9.31,0,0,0,2,6.73l-3.86,1.1a7.48,7.48,0,0,1,1.18,2.77,16.33,16.33,0,0,1-4.92-.5l3.17,5.47-1.89.14a1.26,1.26,0,0,1,1.1,1.51,9.1,9.1,0,0,1-2.85-2.22l3.13,5.52a7.33,7.33,0,0,0-4.79-.9l1,.63a8,8,0,0,0,1.08,6.85,1,1,0,0,1-1.52-1c-.16,1.24,1,2.16,1.84,3s1.57,2.4.69,3.21a13.58,13.58,0,0,0-3.07-2.86l3.09,8a5.39,5.39,0,0,1-3.32-2.14c2.7,3.84,6,9,4.14,8.42s-2.19-3.22-3.94-4.13l.27.7c-1,4.32-.16,8,2.7,11.13a.76.76,0,0,0-.84.06,2.28,2.28,0,0,0-.61,1.13,16.58,16.58,0,0,0,5.7,4.87,7,7,0,0,1,2,1.25c.39.4.66.92,1,1.33.64.7,6,1.07,6.89,1.41.85-.35,6.25-.72,6.89-1.41.38-.41.65-.93,1-1.33a7,7,0,0,1,2-1.25,16.58,16.58,0,0,0,5.7-4.87,2.28,2.28,0,0,0-.61-1.13.76.76,0,0,0-.84-.06C217.63,305,218.42,301.27,217.47,296.95Z"/><path class="d" d="M229.88,297.89l.17-.56c-1.08.73-1.27,2.85-2.42,3.31s.88-3.67,2.55-6.74a3.37,3.37,0,0,1-2,1.71l1.9-6.4a9.75,9.75,0,0,0-1.89,2.29c-.55-.64-.11-1.91.42-2.57a3.39,3.39,0,0,0,1.13-2.39c0,.63-.56,1.12-.94.78a8,8,0,0,0,.67-5.49l.63-.5a3.65,3.65,0,0,0-2.94.72l1.92-4.42a6.09,6.09,0,0,1-1.75,1.77c-.1-.57.26-1.2.68-1.21l-1.16-.11,1.95-4.38a7.83,7.83,0,0,1-3,.4,7,7,0,0,1,.72-2.22l-2.37-.88a9.11,9.11,0,0,0,1.21-5.38c-.12.89-.85,1.5-1.46,1.25l1.2-3.5c-.78.57-2.07.2-2.89-.28.75-.06,1.4-1,1.39-2.09l-2-.1a3,3,0,0,0,1.14-1,.5.5,0,0,0-.63-.2,4.38,4.38,0,0,0,.52-2.79c-.12.88-1.3,1.75-1.3,1.75s.41-1.94.09-1.51-.78,1.26-.78,1.26a.78.78,0,0,1-.29-.69,1.91,1.91,0,0,1,.25-.76,7.47,7.47,0,0,0,.63-3.77,2.27,2.27,0,0,1-.19,1.07c-.17.29-.47.24-.67,0a11.15,11.15,0,0,1-.65-3.67c-.06-.07-.12-.06-.12-.06s-.05,0-.12.06a11.15,11.15,0,0,1-.65,3.67c-.2.24-.5.29-.67,0a2.27,2.27,0,0,1-.19-1.07,7.47,7.47,0,0,0,.63,3.77,1.91,1.91,0,0,1,.25.76.78.78,0,0,1-.29.69s-.53-.93-.78-1.26.09,1.51.09,1.51-1.17-.87-1.3-1.75a4.38,4.38,0,0,0,.52,2.79.5.5,0,0,0-.63.2,3,3,0,0,0,1.14,1l-2,.1c0,1.05.65,2,1.39,2.09-.81.48-2.1.85-2.89.28l1.2,3.5c-.61.26-1.34-.36-1.46-1.25a9.11,9.11,0,0,0,1.21,5.38l-2.37.88a7,7,0,0,1,.72,2.22,7.83,7.83,0,0,1-3-.4l1.95,4.38-1.16.11c.42,0,.77.63.68,1.21a6.09,6.09,0,0,1-1.75-1.77l1.92,4.42a3.65,3.65,0,0,0-2.94-.72l.63.5a8,8,0,0,0,.67,5.49c-.38.34-1-.15-.94-.78a3.4,3.4,0,0,0,1.13,2.39c.54.66,1,1.92.42,2.57a9.76,9.76,0,0,0-1.89-2.29l1.9,6.4a3.37,3.37,0,0,1-2-1.71c1.66,3.08,3.7,7.2,2.55,6.74s-1.35-2.58-2.42-3.31l.17.56a11.48,11.48,0,0,0,1.66,8.91.38.38,0,0,0-.52.05,2,2,0,0,0-.38.91,11.49,11.49,0,0,0,3.51,3.89,4.36,4.36,0,0,1,1.23,1c.24.32.41.73.64,1.06.39.56,3.72.85,4.24,1.13.52-.28,3.85-.57,4.24-1.13.23-.33.4-.74.64-1.06a4.36,4.36,0,0,1,1.23-1,11.49,11.49,0,0,0,3.51-3.89,2,2,0,0,0-.38-.91.38.38,0,0,0-.52-.05A11.48,11.48,0,0,0,229.88,297.89Z"/><path class="d" d="M276.7,301.62l.44-1.12c-2.8,1.46-3.31,5.69-6.3,6.61s2.3-7.32,6.62-13.47a8.62,8.62,0,0,1-5.31,3.42l4.93-12.79a21.7,21.7,0,0,0-4.91,4.58c-1.42-1.29-.29-3.81,1.1-5.13s3.19-2.79,2.94-4.77a1.67,1.67,0,0,1-2.43,1.55,12.71,12.71,0,0,0,1.73-11l1.65-1a11.72,11.72,0,0,0-7.65,1.44l5-8.82a14.55,14.55,0,0,1-4.56,3.54,2,2,0,0,1,1.76-2.41l-3-.23,5.07-8.74a26.1,26.1,0,0,1-7.86.8,12,12,0,0,1,1.88-4.42l-6.17-1.76a14.88,14.88,0,0,0,3.13-10.75,3.11,3.11,0,0,1-3.79,2.49l3.12-7c-2,1.14-5.38.39-7.5-.56a4.19,4.19,0,0,0,3.63-4.17l-5.23-.19a7.46,7.46,0,0,0,3-2.06,1.53,1.53,0,0,0-1.63-.4,7.08,7.08,0,0,0,1.35-5.57c-.32,1.76-3.37,3.49-3.37,3.49s1.07-3.87.22-3c-.66.66-2,2.51-2,2.51a1.48,1.48,0,0,1-.76-1.38,3.26,3.26,0,0,1,.65-1.51A11.92,11.92,0,0,0,254,212.3a3.63,3.63,0,0,1-.5,2.13,1.16,1.16,0,0,1-1.75,0c-.92-.84-1.53-5.09-1.69-7.32a.48.48,0,0,0-.62,0c-.16,2.23-.77,6.48-1.69,7.32a1.16,1.16,0,0,1-1.75,0,3.63,3.63,0,0,1-.5-2.13,11.92,11.92,0,0,0,1.64,7.53,3.26,3.26,0,0,1,.65,1.51,1.48,1.48,0,0,1-.76,1.38s-1.38-1.86-2-2.51c-.84-.85.22,3,.22,3s-3.05-1.73-3.37-3.49a7.08,7.08,0,0,0,1.35,5.57,1.53,1.53,0,0,0-1.63.4,7.46,7.46,0,0,0,3,2.06l-5.23.19a4.19,4.19,0,0,0,3.63,4.17c-2.12,1-5.47,1.7-7.5.56l3.12,7a3.11,3.11,0,0,1-3.79-2.49,14.88,14.88,0,0,0,3.13,10.75l-6.17,1.76a12,12,0,0,1,1.88,4.42,26.1,26.1,0,0,1-7.86-.8l5.07,8.74-3,.23a2,2,0,0,1,1.76,2.41,14.55,14.55,0,0,1-4.56-3.54l5,8.82a11.72,11.72,0,0,0-7.65-1.44l1.65,1a12.71,12.71,0,0,0,1.73,11,1.67,1.67,0,0,1-2.43-1.55c-.25,2,1.55,3.45,2.94,4.77s2.52,3.84,1.1,5.13a21.7,21.7,0,0,0-4.91-4.58l4.93,12.79a8.62,8.62,0,0,1-5.31-3.42c4.32,6.14,9.62,14.38,6.62,13.47s-3.5-5.14-6.3-6.61l.44,1.12c-1.52,6.89-.28,12.82,4.26,17.76a1.22,1.22,0,0,0-1.29.14,3.64,3.64,0,0,0-1,1.81,26.5,26.5,0,0,0,9.11,7.78,11.25,11.25,0,0,1,3.19,2c.62.65,1.06,1.46,1.66,2.13,1,1.11,9.66,1.7,11,2.26,1.35-.56,10-1.15,11-2.26.6-.66,1-1.48,1.66-2.13a11.25,11.25,0,0,1,3.19-2,26.5,26.5,0,0,0,9.11-7.78,3.64,3.64,0,0,0-1-1.81,1.22,1.22,0,0,0-1.29-.14C277,314.44,278.22,308.51,276.7,301.62Z"/><path class="d" d="M358.71,265.95l.36-.85c-2.31,1.11-2.72,4.33-5.19,5s1.89-5.57,5.45-10.25a7.18,7.18,0,0,1-4.37,2.6l4.06-9.74a17.4,17.4,0,0,0-4,3.48c-1.17-1-.24-2.9.91-3.9s2.63-2.12,2.42-3.63a1.37,1.37,0,0,1-2,1.18,9.07,9.07,0,0,0,1.43-8.34l1.36-.76a10.32,10.32,0,0,0-6.3,1.09l4.12-6.71a11.91,11.91,0,0,1-3.75,2.7A1.56,1.56,0,0,1,354.6,236l-2.49-.17,4.17-6.65a23.18,23.18,0,0,1-6.47.61,8.76,8.76,0,0,1,1.55-3.37l-5.08-1.34a10.74,10.74,0,0,0,2.58-8.18,2.57,2.57,0,0,1-3.12,1.89l2.57-5.31c-1.68.87-4.43.3-6.18-.42a3.28,3.28,0,0,0,3-3.17l-4.3-.15a6.17,6.17,0,0,0,2.43-1.57,1.33,1.33,0,0,0-1.34-.31,5.09,5.09,0,0,0,1.11-4.24c-.26,1.34-2.78,2.66-2.78,2.66s.88-2.94.19-2.3c-.54.5-1.68,1.91-1.68,1.91a1.12,1.12,0,0,1-.63-1.05,2.38,2.38,0,0,1,.53-1.15A8.52,8.52,0,0,0,340,198a2.6,2.6,0,0,1-.41,1.62,1,1,0,0,1-1.44,0c-.76-.64-1.26-3.87-1.39-5.57a.42.42,0,0,0-.51,0c-.13,1.7-.63,4.93-1.39,5.57a1,1,0,0,1-1.44,0A2.6,2.6,0,0,1,333,198a8.52,8.52,0,0,0,1.35,5.73,2.39,2.39,0,0,1,.53,1.15,1.12,1.12,0,0,1-.63,1.05s-1.14-1.41-1.68-1.91c-.7-.64.19,2.3.19,2.3s-2.51-1.32-2.78-2.66a5.09,5.09,0,0,0,1.11,4.24,1.33,1.33,0,0,0-1.34.31,6.17,6.17,0,0,0,2.43,1.57l-4.3.15a3.28,3.28,0,0,0,3,3.17c-1.74.72-4.5,1.29-6.18.42l2.57,5.31a2.57,2.57,0,0,1-3.12-1.89,10.74,10.74,0,0,0,2.58,8.18l-5.08,1.34a8.76,8.76,0,0,1,1.55,3.37,23.18,23.18,0,0,1-6.47-.61l4.17,6.65-2.49.17a1.56,1.56,0,0,1,1.45,1.83,11.91,11.91,0,0,1-3.75-2.7l4.12,6.71a10.32,10.32,0,0,0-6.3-1.09l1.36.76a9.07,9.07,0,0,0,1.43,8.34,1.37,1.37,0,0,1-2-1.18c-.21,1.51,1.27,2.63,2.42,3.63s2.07,2.92.91,3.9a17.4,17.4,0,0,0-4-3.48l4.06,9.74a7.18,7.18,0,0,1-4.37-2.6c3.56,4.68,7.92,10.95,5.45,10.25s-2.88-3.91-5.19-5l.36.85c-1.25,5.25-.23,9.77,3.52,13.54a1.06,1.06,0,0,0-1.08.09A2.72,2.72,0,0,0,316,281a21.46,21.46,0,0,0,7.5,5.92,9.39,9.39,0,0,1,2.62,1.53c.51.49.87,1.11,1.37,1.62.84.85,8,1.3,9.07,1.72,1.12-.42,8.23-.87,9.07-1.72.5-.5.86-1.13,1.37-1.62a9.39,9.39,0,0,1,2.62-1.53,21.46,21.46,0,0,0,7.5-5.92,2.72,2.72,0,0,0-.81-1.38,1.06,1.06,0,0,0-1.08-.09C358.94,275.72,360,271.2,358.71,265.95Z"/><path class="d" d="M501.73,278.14l.64-1.52c-4.12,2-4.86,7.73-9.26,9s3.38-9.95,9.73-18.3a12.82,12.82,0,0,1-7.8,4.64l7.25-17.38a31.06,31.06,0,0,0-7.21,6.22c-2.08-1.75-.43-5.18,1.62-7s4.69-3.79,4.32-6.48a2.45,2.45,0,0,1-3.58,2.1A16.2,16.2,0,0,0,500,234.55l2.42-1.36a18.42,18.42,0,0,0-11.24,2l7.35-12a21.24,21.24,0,0,1-6.7,4.81,2.79,2.79,0,0,1,2.58-3.27l-4.44-.31,7.45-11.87a41.37,41.37,0,0,1-11.56,1.09,15.63,15.63,0,0,1,2.77-6l-9.07-2.39a19.17,19.17,0,0,0,4.61-14.61,4.58,4.58,0,0,1-5.57,3.38l4.59-9.48c-3,1.55-7.91.53-11-.76a5.86,5.86,0,0,0,5.33-5.67l-7.68-.26a11,11,0,0,0,4.35-2.8,2.38,2.38,0,0,0-2.39-.55,9.08,9.08,0,0,0,2-7.57c-.47,2.39-5,4.74-5,4.74s1.57-5.25.33-4.11c-1,.89-3,3.41-3,3.41a2,2,0,0,1-1.12-1.88,4.26,4.26,0,0,1,1-2.05,15.21,15.21,0,0,0,2.42-10.23,4.64,4.64,0,0,1-.73,2.9,1.79,1.79,0,0,1-2.56,0c-1.35-1.14-2.25-6.91-2.48-9.95a.74.74,0,0,0-.91,0c-.23,3-1.13,8.8-2.48,9.95a1.79,1.79,0,0,1-2.56,0,4.64,4.64,0,0,1-.73-2.9A15.21,15.21,0,0,0,458.29,167a4.26,4.26,0,0,1,1,2.05,2,2,0,0,1-1.12,1.88s-2-2.52-3-3.41c-1.24-1.15.33,4.11.33,4.11s-4.49-2.35-5-4.74a9.08,9.08,0,0,0,2,7.57,2.38,2.38,0,0,0-2.39.55,11,11,0,0,0,4.35,2.8l-7.68.26a5.86,5.86,0,0,0,5.33,5.67c-3.11,1.29-8,2.31-11,.76l4.59,9.48a4.58,4.58,0,0,1-5.57-3.38,19.17,19.17,0,0,0,4.61,14.61l-9.07,2.39a15.63,15.63,0,0,1,2.77,6,41.37,41.37,0,0,1-11.56-1.09l7.45,11.87-4.44.31A2.79,2.79,0,0,1,432.4,228a21.24,21.24,0,0,1-6.7-4.81l7.35,12a18.42,18.42,0,0,0-11.24-2l2.42,1.36a16.2,16.2,0,0,0,2.54,14.89,2.45,2.45,0,0,1-3.58-2.1c-.37,2.69,2.27,4.69,4.32,6.48s3.7,5.22,1.62,7a31.06,31.06,0,0,0-7.21-6.22l7.25,17.38a12.82,12.82,0,0,1-7.8-4.64c6.35,8.35,14.14,19.54,9.73,18.3s-5.14-7-9.26-9l.64,1.52c-2.23,9.36-.42,17.41,6.26,24.14a1.92,1.92,0,0,0-1.9.19,4.85,4.85,0,0,0-1.44,2.46,38.3,38.3,0,0,0,13.39,10.57,16.78,16.78,0,0,1,4.68,2.73c.91.88,1.56,2,2.45,2.89,1.5,1.51,14.2,2.31,16.19,3.07,2-.76,14.69-1.56,16.19-3.07.89-.9,1.54-2,2.45-2.89a16.78,16.78,0,0,1,4.68-2.73,38.3,38.3,0,0,0,13.39-10.57,4.85,4.85,0,0,0-1.44-2.46,1.92,1.92,0,0,0-1.9-.19C502.14,295.55,504,287.5,501.73,278.14Z"/><path class="e" d="M0,351.39H265.78s-5-27.13-18.09-27.13S219.63,313,209.65,313a8,8,0,0,1-4.77-1.94c-8.36-6.37-17.05-26.3-30.15-26.3-15.59,0-11.23,14-27.44,14s0-14-20-14-24.95-15.41-48.64-15.41S56.24,298.8,39.4,298.8,19.63,318,21.31,338.94"/><path class="d" d="M298.25,279.55a3.69,3.69,0,0,0,3.53-2.74,10.79,10.79,0,0,0,.06-4.79,8.75,8.75,0,0,1-5.48,1.43c-.06-.7.75-1.09,1.37-1.42a4.9,4.9,0,0,0,2.45-4.77l-5,1.59q2.2-4.54,4.44-9.06a10.2,10.2,0,0,1-4,1.93,1.54,1.54,0,0,0,.63-2.45,57.3,57.3,0,0,0,4.06-5.24,8,8,0,0,1-4.67,1.34L300,251l-3.18,1.34a15.23,15.23,0,0,0,4.3-7,30.19,30.19,0,0,0-6.62,4,14.21,14.21,0,0,0,3.22-5.76,5,5,0,0,0-2.59,3.1c.18-1.38,1.45-3.14,1.26-4.53-.16-1.18,1.33-3.69,1.31-4.88,0-.72-3,.23-2.83-.5.47-1.86,1.6-3.51,3.4-3.9a9.48,9.48,0,0,0-6.45.82,10.18,10.18,0,0,0,2.09-5.24,3.65,3.65,0,0,1-2.78,2.24,10.76,10.76,0,0,1-3.71-.06,40.92,40.92,0,0,1,5.28-4.1l-1.82,0a5.75,5.75,0,0,1,1.79-3,5.68,5.68,0,0,1-5.7.72,12.21,12.21,0,0,0,5.35-6.49,8.57,8.57,0,0,1-6.91,2.43,51.43,51.43,0,0,0,6.32-6.55L286,217.34a13.44,13.44,0,0,0,4.46-7.28,4.18,4.18,0,0,1-5.26,1.85,4.33,4.33,0,0,0,2.84-3.44,2.59,2.59,0,0,1-3.19.32,7.76,7.76,0,0,1,.61-4.29,4.45,4.45,0,0,1-2.37,1.23,11,11,0,0,1,1.6-4.33,19.46,19.46,0,0,1-3.31,2.25,17.68,17.68,0,0,0-1.29-6.06,16.47,16.47,0,0,1-1.43-5.94.45.45,0,0,0-.55,0,16.47,16.47,0,0,1-1.43,5.94,17.68,17.68,0,0,0-1.29,6.06,19.46,19.46,0,0,1-3.31-2.25,11,11,0,0,1,1.6,4.33,4.45,4.45,0,0,1-2.37-1.23,7.76,7.76,0,0,1,.61,4.29,2.59,2.59,0,0,1-3.19-.32,4.33,4.33,0,0,0,2.84,3.44,4.18,4.18,0,0,1-5.26-1.85,13.44,13.44,0,0,0,4.46,7.28L265,213.58a51.43,51.43,0,0,0,6.32,6.55,8.57,8.57,0,0,1-6.91-2.43,12.21,12.21,0,0,0,5.35,6.49,5.68,5.68,0,0,1-5.7-.72,5.75,5.75,0,0,1,1.79,3l-1.82,0a40.92,40.92,0,0,1,5.28,4.1,10.76,10.76,0,0,1-3.71.06,3.65,3.65,0,0,1-2.78-2.24,10.18,10.18,0,0,0,2.09,5.24,9.48,9.48,0,0,0-6.45-.82c1.81.39,2.93,2,3.4,3.9.19.73-2.82-.23-2.83.5,0,1.18,1.47,3.7,1.31,4.88-.19,1.39,1.08,3.15,1.26,4.53a5,5,0,0,0-2.59-3.1,14.21,14.21,0,0,0,3.22,5.76,30.19,30.19,0,0,0-6.62-4,15.23,15.23,0,0,0,4.3,7L256.79,251l4.35,4.38a8,8,0,0,1-4.67-1.34,57.3,57.3,0,0,0,4.06,5.24,1.54,1.54,0,0,0,.63,2.45,10.2,10.2,0,0,1-4-1.93q2.24,4.52,4.44,9.06l-5-1.59a4.9,4.9,0,0,0,2.45,4.77c.61.34,1.43.73,1.37,1.42A8.75,8.75,0,0,1,255,272a10.79,10.79,0,0,0,.06,4.79,3.69,3.69,0,0,0,3.53,2.74c-1.18.37-3.26.57-4.11-.34a6.5,6.5,0,0,0,2.59,3.92c1.51,1.06,3.74,1.85,3.8,3.7a7.68,7.68,0,0,1-2.52-.5,13.49,13.49,0,0,1,3.76,6.15c-2.24-1-2-2-4.46-2.12,1.4,3.36,2.71,16.52,20.78,16.52s19.38-13.16,20.78-16.52c-2.45.1-2.22,1.13-4.46,2.12a13.49,13.49,0,0,1,3.76-6.15,7.68,7.68,0,0,1-2.52.5c.06-1.85,2.28-2.64,3.8-3.7a6.5,6.5,0,0,0,2.59-3.92C301.51,280.12,299.43,279.92,298.25,279.55Z"/><path class="e" d="M-5,324.58v26.81h26.2S10.33,330.52-5,324.58Z"/><path class="d" d="M74.77,320.23l.35-.82c-2.22,1.07-2.62,4.16-5,4.83s1.82-5.36,5.24-9.85a6.9,6.9,0,0,1-4.2,2.5l3.9-9.36a16.73,16.73,0,0,0-3.88,3.35c-1.12-.94-.23-2.79.87-3.75s2.53-2,2.33-3.49a1.32,1.32,0,0,1-1.93,1.13,8.72,8.72,0,0,0,1.37-8l1.3-.73a9.92,9.92,0,0,0-6.05,1.05l4-6.45a11.44,11.44,0,0,1-3.61,2.59,1.5,1.5,0,0,1,1.39-1.76l-2.39-.17,4-6.39a22.26,22.26,0,0,1-6.22.59,8.42,8.42,0,0,1,1.49-3.24L62.82,281a10.32,10.32,0,0,0,2.48-7.87,2.47,2.47,0,0,1-3,1.82l2.47-5.11c-1.61.84-4.26.29-5.94-.41a3.16,3.16,0,0,0,2.87-3.05l-4.14-.14a5.92,5.92,0,0,0,2.34-1.51,1.28,1.28,0,0,0-1.29-.29,4.89,4.89,0,0,0,1.06-4.08c-.25,1.29-2.67,2.55-2.67,2.55s.85-2.83.18-2.21-1.61,1.84-1.61,1.84a1.08,1.08,0,0,1-.6-1,2.3,2.3,0,0,1,.51-1.11,8.19,8.19,0,0,0,1.3-5.51,2.5,2.5,0,0,1-.39,1.56,1,1,0,0,1-1.38,0c-.73-.62-1.21-3.72-1.34-5.36a.4.4,0,0,0-.49,0c-.12,1.63-.61,4.74-1.34,5.36a1,1,0,0,1-1.38,0,2.5,2.5,0,0,1-.39-1.56,8.19,8.19,0,0,0,1.3,5.51,2.3,2.3,0,0,1,.51,1.11,1.08,1.08,0,0,1-.6,1s-1.1-1.36-1.61-1.84.18,2.21.18,2.21-2.42-1.27-2.67-2.55a4.89,4.89,0,0,0,1.06,4.08,1.28,1.28,0,0,0-1.29.29,5.92,5.92,0,0,0,2.34,1.51l-4.14.14A3.16,3.16,0,0,0,48,269.39c-1.68.7-4.33,1.24-5.94.41l2.47,5.11a2.47,2.47,0,0,1-3-1.82A10.32,10.32,0,0,0,44,281l-4.88,1.28a8.42,8.42,0,0,1,1.49,3.24,22.26,22.26,0,0,1-6.22-.59l4,6.39-2.39.17a1.5,1.5,0,0,1,1.39,1.76,11.44,11.44,0,0,1-3.61-2.59l4,6.45A9.92,9.92,0,0,0,31.73,296l1.3.73a8.72,8.72,0,0,0,1.37,8,1.32,1.32,0,0,1-1.93-1.13c-.2,1.45,1.22,2.53,2.33,3.49s2,2.81.87,3.75a16.73,16.73,0,0,0-3.88-3.35l3.9,9.36a6.9,6.9,0,0,1-4.2-2.5c3.42,4.49,7.61,10.52,5.24,9.85s-2.77-3.76-5-4.83l.35.82c-1.2,5.05-.21,9.4,3.41,13a1,1,0,0,0-1.07.08,2.61,2.61,0,0,0-.78,1.32,20.62,20.62,0,0,0,7.21,5.69,9,9,0,0,1,2.52,1.47c.49.47.84,1.07,1.32,1.56.81.82,7.65,1.25,8.72,1.65,1.07-.41,7.91-.84,8.72-1.65.48-.48.83-1.08,1.32-1.56A9,9,0,0,1,66,340.34a20.62,20.62,0,0,0,7.21-5.69,2.61,2.61,0,0,0-.78-1.32,1,1,0,0,0-1.07-.08C75,329.62,76,325.28,74.77,320.23Z"/><path class="d" d="M129.86,313.06l.44-1.12c-2.8,1.46-3.31,5.69-6.3,6.61s2.3-7.32,6.62-13.47a8.63,8.63,0,0,1-5.31,3.42l4.93-12.79a21.71,21.71,0,0,0-4.91,4.58c-1.42-1.29-.29-3.81,1.1-5.13s3.19-2.79,2.94-4.77a1.67,1.67,0,0,1-2.43,1.55,12.71,12.71,0,0,0,1.73-11l1.65-1a11.72,11.72,0,0,0-7.65,1.44l5-8.82a14.54,14.54,0,0,1-4.56,3.54,2,2,0,0,1,1.76-2.41l-3-.23,5.07-8.74a26.11,26.11,0,0,1-7.86.8,12,12,0,0,1,1.88-4.42l-6.17-1.76a14.88,14.88,0,0,0,3.13-10.75,3.11,3.11,0,0,1-3.79,2.49l3.12-7c-2,1.14-5.38.39-7.5-.56a4.19,4.19,0,0,0,3.63-4.17l-5.23-.19a7.45,7.45,0,0,0,3-2.06,1.53,1.53,0,0,0-1.63-.4,7.08,7.08,0,0,0,1.35-5.57c-.32,1.76-3.37,3.49-3.37,3.49s1.07-3.87.23-3c-.66.66-2,2.51-2,2.51a1.48,1.48,0,0,1-.76-1.38,3.26,3.26,0,0,1,.65-1.51,11.92,11.92,0,0,0,1.64-7.53,3.63,3.63,0,0,1-.5,2.13,1.16,1.16,0,0,1-1.75,0c-.92-.84-1.53-5.09-1.69-7.32a.48.48,0,0,0-.62,0c-.16,2.23-.77,6.48-1.69,7.32a1.16,1.16,0,0,1-1.75,0,3.63,3.63,0,0,1-.5-2.13,11.92,11.92,0,0,0,1.64,7.53,3.26,3.26,0,0,1,.65,1.51,1.48,1.48,0,0,1-.76,1.38s-1.38-1.86-2-2.51c-.84-.85.22,3,.22,3s-3.05-1.73-3.37-3.49a7.08,7.08,0,0,0,1.35,5.57,1.53,1.53,0,0,0-1.63.4,7.45,7.45,0,0,0,3,2.06l-5.23.19a4.19,4.19,0,0,0,3.63,4.17c-2.12,1-5.47,1.7-7.5.56l3.12,7a3.11,3.11,0,0,1-3.79-2.49A14.88,14.88,0,0,0,91,259.38l-6.17,1.76a12,12,0,0,1,1.88,4.42,26.11,26.11,0,0,1-7.86-.8L84,273.5l-3,.23a2,2,0,0,1,1.76,2.41,14.54,14.54,0,0,1-4.56-3.54l5,8.82A11.72,11.72,0,0,0,75.47,280l1.65,1a12.71,12.71,0,0,0,1.73,11,1.67,1.67,0,0,1-2.43-1.55c-.25,2,1.55,3.45,2.94,4.77s2.52,3.84,1.1,5.13a21.71,21.71,0,0,0-4.91-4.58l4.93,12.79a8.63,8.63,0,0,1-5.31-3.42c4.32,6.14,9.62,14.38,6.62,13.47s-3.5-5.14-6.3-6.61l.44,1.12c-1.52,6.89-.28,12.82,4.26,17.76a1.22,1.22,0,0,0-1.29.14,3.64,3.64,0,0,0-1,1.81A26.5,26.5,0,0,0,87,340.55a11.24,11.24,0,0,1,3.19,2c.62.65,1.06,1.46,1.66,2.13,1,1.11,9.66,1.7,11,2.26,1.35-.56,10-1.15,11-2.26.6-.66,1-1.48,1.66-2.13a11.24,11.24,0,0,1,3.19-2,26.5,26.5,0,0,0,9.11-7.78,3.64,3.64,0,0,0-1-1.81,1.22,1.22,0,0,0-1.29-.14C130.14,325.87,131.38,319.95,129.86,313.06Z"/><path class="d" d="M37.66,328.85a2.82,2.82,0,0,0,2.7-2.09,8.24,8.24,0,0,0,0-3.65,6.68,6.68,0,0,1-4.19,1.09c0-.53.58-.83,1-1.09a3.74,3.74,0,0,0,1.87-3.64l-3.79,1.21q1.68-3.47,3.39-6.92a7.79,7.79,0,0,1-3.05,1.47,1.17,1.17,0,0,0,.48-1.87,43.69,43.69,0,0,0,3.1-4,6.12,6.12,0,0,1-3.57,1L39,307l-2.43,1a11.63,11.63,0,0,0,3.28-5.37,23.08,23.08,0,0,0-5.05,3.08,10.85,10.85,0,0,0,2.46-4.4,3.78,3.78,0,0,0-2,2.37c.14-1.05,1.11-2.4,1-3.46-.12-.9,1-2.82,1-3.72,0-.55-2.3.18-2.16-.38a3.75,3.75,0,0,1,2.6-3,7.24,7.24,0,0,0-4.92.63,7.77,7.77,0,0,0,1.6-4,2.79,2.79,0,0,1-2.12,1.71,8.22,8.22,0,0,1-2.84,0,31.25,31.25,0,0,1,4-3.13l-1.39,0a4.39,4.39,0,0,1,1.37-2.3,4.34,4.34,0,0,1-4.35.55,9.32,9.32,0,0,0,4.09-5,6.55,6.55,0,0,1-5.28,1.85,39.27,39.27,0,0,0,4.83-5l-4.4,2.87a10.26,10.26,0,0,0,3.41-5.56,3.19,3.19,0,0,1-4,1.41,3.31,3.31,0,0,0,2.17-2.63,2,2,0,0,1-2.44.25,5.92,5.92,0,0,1,.46-3.28,3.4,3.4,0,0,1-1.81.94,8.43,8.43,0,0,1,1.23-3.31,14.86,14.86,0,0,1-2.52,1.72,13.5,13.5,0,0,0-1-4.63,12.58,12.58,0,0,1-1.09-4.53.34.34,0,0,0-.42,0,12.58,12.58,0,0,1-1.09,4.53,13.5,13.5,0,0,0-1,4.63,14.86,14.86,0,0,1-2.52-1.72,8.43,8.43,0,0,1,1.23,3.31,3.4,3.4,0,0,1-1.81-.94,5.92,5.92,0,0,1,.46,3.28,2,2,0,0,1-2.44-.25,3.31,3.31,0,0,0,2.17,2.63,3.19,3.19,0,0,1-4-1.41,10.26,10.26,0,0,0,3.41,5.56l-4.4-2.87a39.27,39.27,0,0,0,4.83,5,6.55,6.55,0,0,1-5.28-1.85,9.32,9.32,0,0,0,4.09,5,4.34,4.34,0,0,1-4.35-.55,4.39,4.39,0,0,1,1.37,2.3l-1.39,0a31.25,31.25,0,0,1,4,3.13,8.22,8.22,0,0,1-2.84,0,2.79,2.79,0,0,1-2.12-1.71,7.77,7.77,0,0,0,1.6,4,7.24,7.24,0,0,0-4.92-.63,3.75,3.75,0,0,1,2.6,3c.14.55-2.15-.17-2.16.38,0,.9,1.12,2.82,1,3.72-.14,1.06.82,2.4,1,3.46a3.78,3.78,0,0,0-2-2.37,10.85,10.85,0,0,0,2.46,4.4,23.08,23.08,0,0,0-5.05-3.08,11.63,11.63,0,0,0,3.28,5.37L6,307l3.33,3.35a6.12,6.12,0,0,1-3.57-1,43.69,43.69,0,0,0,3.1,4,1.17,1.17,0,0,0,.48,1.87,7.79,7.79,0,0,1-3.05-1.47q1.71,3.45,3.39,6.92l-3.79-1.21a3.74,3.74,0,0,0,1.87,3.64c.47.26,1.09.55,1,1.09a6.68,6.68,0,0,1-4.19-1.09,8.24,8.24,0,0,0,0,3.65,2.82,2.82,0,0,0,2.7,2.09c-.9.28-2.49.44-3.14-.26a5,5,0,0,0,2,3c1.15.81,2.85,1.41,2.9,2.82A5.87,5.87,0,0,1,7.15,334a10.3,10.3,0,0,1,2.87,4.7c-1.71-.76-1.54-1.54-3.4-1.62,1.07,2.57,2.07,12.62,15.87,12.62s14.8-10.05,15.87-12.62c-1.87.08-1.7.86-3.4,1.62a10.3,10.3,0,0,1,2.87-4.7,5.87,5.87,0,0,1-1.93.38c0-1.41,1.74-2,2.9-2.82a5,5,0,0,0,2-3C40.15,329.28,38.56,329.13,37.66,328.85Z"/><path class="c" d="M571.3,258.55c-34.66,0-57,40.78-75.69,40.78s-19.7-11.5-31.31-10.53c-4.49.38-8.85,1.72-13.34,2.11-8.15.69-16.35-1.89-23.33-6.15-4.68-2.86-9-6.51-14.17-8.27s-10.73-1.51-16-.46a55,55,0,0,0-27.51,14.48,30.44,30.44,0,0,0-24.29-15.22c-.49,0-1-.05-1.49-.05a30.5,30.5,0,0,0-24.45,12.28,23,23,0,0,0-27-7.91c-6.73,2.82-11.63,7.52-19.16,6.18-6.49-1.15-10.95-2.84-18.15-1.43-2.38.47-17.49,4.12-17.62,8,0,.21-.43,10.91-15.79,10.91-7.2,0-12.45,3.79-17.08,7.84-5.36,4.69-9.89,9.75-15.64,9.75-10.72,0-5.64-7.12-20.58-7.12-7.62,0-7.37,3.74-12.66,7-3.16,1.95-8.19,1.91-11.79,1.93-5.91,0-9.84.38-15.15,3.47-4.89,2.84-10.54,6-15.85,4.12-1.5-.54-2.83-1.44-4.27-2.09a13.59,13.59,0,0,0-14.21,2.15c-2.72,2.41-4.65,6-8.14,7a12,12,0,0,1-4.63.13,45.36,45.36,0,0,1-12.4-2.9c-1.68-.71-18.06-5.28-23.9-2.43C23.77,342.84,19.54,352-5,340.11l.44,36.69H571.3"/></g><rect class="g" width="1143" height="384.46"/></svg>